<svg width="313" height="420" viewBox="0 0 313 420" fill="none" xmlns="http://www.w3.org/2000/svg">
<g filter="url(#filter0_d_554_254)">
<rect x="4" width="305" height="412" rx="20" fill="#F2EADF"/>
</g>
<mask id="mask0_554_254" style="mask-type:alpha" maskUnits="userSpaceOnUse" x="4" y="0" width="305" height="412">
<rect x="4" width="305" height="412" rx="20" fill="#7FB2FF"/>
</mask>
<g mask="url(#mask0_554_254)">
<path d="M157.5 -56L168.299 106.201L213.715 -49.8863L189.393 110.844L267.301 -31.831L208.996 119.914L315.753 -2.67833L226.19 132.985L356.805 36.2085L240.173 149.446L388.538 83.0112L250.29 168.529L409.468 135.541L256.068 189.341L418.616 191.343L257.238 210.908L415.555 247.806L253.743 232.222L400.427 302.291L245.749 252.287L373.941 352.25L233.628 270.164L337.333 395.348L217.947 285.017L292.317 429.568L199.44 296.152L240.997 453.311L178.972 303.049L185.773 465.467L157.5 305.384L129.227 465.467L136.028 303.049L74.0027 453.311L115.56 296.152L22.6827 429.568L97.0527 285.017L-22.3334 395.348L81.3721 270.164L-58.9407 352.25L69.2512 252.287L-85.4274 302.291L61.2567 232.222L-100.555 247.806L57.7624 210.908L-103.616 191.343L58.9317 189.341L-94.4683 135.541L64.71 168.529L-73.5384 83.0112L74.827 149.446L-41.8054 36.2085L88.8098 132.985L-0.753052 -2.67833L106.004 119.914L47.699 -31.831L125.607 110.844L101.285 -49.8863L146.701 106.201L157.5 -56Z" fill="#F0FF44" fill-opacity="0.25" style="mix-blend-mode:color"/>
</g>
<rect x="24" y="20" width="265" height="372" rx="19" stroke="#0066FF" stroke-opacity="0.55" stroke-width="2"/>
<path d="M9.86483 19.3334L23.627 22.4558L24.2373 8.73026L28.621 21.893L41.0919 15.8142L31.7135 25.8545L43.5741 33.5012L29.8119 30.3788L29.2017 44.1044L24.8179 30.9417L12.347 37.0205L21.7254 26.9801L9.86483 19.3334Z" fill="#0066FF" fill-opacity="0.75"/>
<path d="M9.86483 379.333L23.627 382.456L24.2373 368.73L28.621 381.893L41.0919 375.814L31.7135 385.855L43.5741 393.501L29.8119 390.379L29.2017 404.104L24.8179 390.942L12.347 397.02L21.7254 386.98L9.86483 379.333Z" fill="#0066FF" fill-opacity="0.75"/>
<path d="M267.865 19.3334L281.627 22.4558L282.237 8.73026L286.621 21.893L299.092 15.8142L289.713 25.8545L301.574 33.5012L287.812 30.3788L287.202 44.1044L282.818 30.9417L270.347 37.0205L279.725 26.9801L267.865 19.3334Z" fill="#0066FF" fill-opacity="0.75"/>
<path d="M267.865 379.333L281.627 382.456L282.237 368.73L286.621 381.893L299.092 375.814L289.713 385.855L301.574 393.501L287.812 390.379L287.202 404.104L282.818 390.942L270.347 397.02L279.725 386.98L267.865 379.333Z" fill="#0066FF" fill-opacity="0.75"/>
<path d="M135.351 88.95C135.288 88.95 135.231 88.9247 135.18 88.874C135.142 88.836 135.123 88.7853 135.123 88.722V75.992C135.123 75.9287 135.142 75.878 135.18 75.84C135.231 75.7893 135.288 75.764 135.351 75.764H137.004C137.067 75.764 137.118 75.7893 137.156 75.84C137.207 75.878 137.232 75.9287 137.232 75.992V81.122H140.329V75.992C140.329 75.9287 140.348 75.878 140.386 75.84C140.437 75.7893 140.494 75.764 140.557 75.764H142.21C142.273 75.764 142.324 75.7893 142.362 75.84C142.413 75.878 142.438 75.9287 142.438 75.992V88.722C142.438 88.7853 142.413 88.836 142.362 88.874C142.324 88.9247 142.273 88.95 142.21 88.95H140.557C140.405 88.95 140.329 88.874 140.329 88.722V83.117H137.232V88.722C137.232 88.874 137.156 88.95 137.004 88.95H135.351ZM152.869 88.741C152.4 88.9057 151.925 89.026 151.444 89.102C150.975 89.178 150.576 89.2097 150.247 89.197C149.588 89.197 149.063 89.083 148.67 88.855C148.277 88.6397 148.005 88.3863 147.853 88.095C147.676 87.7657 147.568 87.3793 147.53 86.936C147.492 86.4927 147.473 85.891 147.473 85.131V81.54H145.383C145.32 81.54 145.263 81.521 145.212 81.483C145.174 81.4323 145.155 81.3753 145.155 81.312V79.811C145.155 79.7477 145.174 79.697 145.212 79.659C145.263 79.6083 145.32 79.583 145.383 79.583H147.473V76.828C147.473 76.7647 147.498 76.714 147.549 76.676C147.6 76.6253 147.657 76.6 147.72 76.6H149.259C149.335 76.6 149.392 76.6253 149.43 76.676C149.481 76.714 149.506 76.7647 149.506 76.828V79.583H152.698C152.761 79.583 152.812 79.6083 152.85 79.659C152.901 79.697 152.926 79.7477 152.926 79.811V81.312C152.926 81.3753 152.901 81.4323 152.85 81.483C152.812 81.521 152.761 81.54 152.698 81.54H149.506V85.245C149.506 86.0683 149.525 86.594 149.563 86.822C149.588 87.0627 149.702 87.2083 149.905 87.259C150.12 87.3097 150.405 87.335 150.76 87.335C151.051 87.335 151.355 87.3033 151.672 87.24C151.989 87.1767 152.299 87.0943 152.603 86.993C152.666 86.9677 152.711 86.9677 152.736 86.993C152.761 87.0057 152.787 87.0627 152.812 87.164L152.964 88.513C152.977 88.6017 152.945 88.6777 152.869 88.741ZM161.989 88.95C161.951 88.95 161.919 88.9183 161.894 88.855C161.869 88.8043 161.856 88.7473 161.856 88.684V82.851C161.856 82.2177 161.812 81.73 161.723 81.388C161.634 81.0333 161.489 80.856 161.286 80.856C161.159 80.856 161.045 80.9257 160.944 81.065C160.843 81.2043 160.76 81.4323 160.697 81.749C160.646 82.0657 160.621 82.4013 160.621 82.756C160.621 83.098 160.621 83.4907 160.621 83.934V88.513C160.621 88.6777 160.583 88.76 160.507 88.76H158.987C158.949 88.76 158.917 88.7283 158.892 88.665C158.867 88.6143 158.854 88.5573 158.854 88.494V82.851C158.841 81.521 158.639 80.856 158.246 80.856C158.018 80.856 157.853 81.0713 157.752 81.502C157.663 81.9327 157.619 82.5217 157.619 83.269V88.703C157.619 88.8677 157.575 88.95 157.486 88.95H155.909C155.884 88.95 155.858 88.9183 155.833 88.855C155.808 88.8043 155.795 88.7473 155.795 88.684V81.863C155.795 81.3817 155.789 80.9193 155.776 80.476C155.776 80.0327 155.77 79.6843 155.757 79.431C155.744 79.2663 155.795 79.184 155.909 79.184H157.315C157.391 79.184 157.429 79.2347 157.429 79.336L157.41 80.096C157.486 79.7413 157.632 79.4627 157.847 79.26C158.062 79.0573 158.29 78.956 158.531 78.956C158.873 78.956 159.177 79.108 159.443 79.412C159.722 79.716 159.893 80.1657 159.956 80.761C160.121 80.153 160.349 79.7033 160.64 79.412C160.931 79.108 161.267 78.956 161.647 78.956C162.23 78.956 162.711 79.279 163.091 79.925C163.484 80.5583 163.68 81.4513 163.68 82.604V88.703C163.68 88.7663 163.667 88.8233 163.642 88.874C163.617 88.9247 163.585 88.95 163.547 88.95H161.989ZM166.435 88.95C166.372 88.95 166.315 88.9247 166.264 88.874C166.226 88.836 166.207 88.779 166.207 88.703V87.221C166.207 87.1577 166.226 87.107 166.264 87.069C166.315 87.0183 166.372 86.993 166.435 86.993H169.019V76.638H167.043C166.98 76.638 166.923 76.619 166.872 76.581C166.834 76.5303 166.815 76.467 166.815 76.391V74.909C166.815 74.8457 166.834 74.795 166.872 74.757C166.923 74.7063 166.98 74.681 167.043 74.681H170.843C170.906 74.681 170.957 74.7063 170.995 74.757C171.046 74.795 171.071 74.8457 171.071 74.909V86.993H173.408C173.471 86.993 173.522 87.0183 173.56 87.069C173.611 87.107 173.636 87.1577 173.636 87.221V88.703C173.636 88.8677 173.56 88.95 173.408 88.95H166.435ZM182.661 88.019C182.256 88.4117 181.774 88.6967 181.217 88.874C180.672 89.064 180.096 89.159 179.488 89.159C179.336 89.159 179.165 89.1527 178.975 89.14C178.785 89.1273 178.557 89.102 178.291 89.064C178.038 89.026 177.759 88.969 177.455 88.893C177.164 88.8297 176.917 88.7537 176.714 88.665C176.625 88.6143 176.575 88.5637 176.562 88.513C176.562 88.475 176.562 88.418 176.562 88.342V86.784C176.562 86.5687 176.695 86.518 176.961 86.632C177.202 86.7333 177.436 86.822 177.664 86.898C177.892 86.9613 178.101 87.012 178.291 87.05C178.494 87.088 178.696 87.1197 178.899 87.145C179.114 87.1703 179.323 87.183 179.526 87.183C180.261 87.183 180.824 86.9677 181.217 86.537C181.622 86.0937 181.825 85.53 181.825 84.846C181.825 84.1873 181.629 83.6363 181.236 83.193C180.843 82.7497 180.318 82.5153 179.659 82.49C179.368 82.49 179.019 82.5343 178.614 82.623C178.209 82.699 177.803 82.8067 177.398 82.946C176.904 83.136 176.657 83.0347 176.657 82.642L176.752 76.049C176.765 75.9223 176.79 75.8463 176.828 75.821C176.866 75.783 176.98 75.764 177.17 75.764H183.193C183.269 75.764 183.32 75.7893 183.345 75.84C183.383 75.878 183.402 75.9287 183.402 75.992V77.512C183.402 77.5627 183.383 77.6133 183.345 77.664C183.32 77.7147 183.269 77.74 183.193 77.74H178.842L178.766 80.818C179.197 80.704 179.659 80.647 180.153 80.647C180.584 80.647 181.04 80.742 181.521 80.932C182.002 81.1093 182.427 81.369 182.794 81.711C183.161 82.053 183.446 82.471 183.649 82.965C183.864 83.4463 183.972 83.991 183.972 84.599C183.972 86.0683 183.535 87.2083 182.661 88.019ZM152.432 131.722C152.141 131.823 151.83 131.918 151.501 132.007C151.184 132.096 150.823 132.14 150.418 132.14C149.759 132.14 149.107 131.963 148.461 131.608C147.815 131.266 147.264 130.772 146.808 130.126C146.352 129.467 146.004 128.72 145.763 127.884C145.535 127.048 145.421 126.193 145.421 125.319C145.421 124.445 145.535 123.59 145.763 122.754C146.004 121.918 146.346 121.19 146.789 120.569C147.245 119.948 147.796 119.461 148.442 119.106C149.101 118.751 149.759 118.574 150.418 118.574C150.722 118.574 151.045 118.606 151.387 118.669C151.742 118.72 152.096 118.815 152.451 118.954C152.552 118.992 152.609 119.036 152.622 119.087C152.647 119.138 152.654 119.226 152.641 119.353L152.622 120.797C152.622 120.974 152.597 121.069 152.546 121.082C152.495 121.082 152.407 121.057 152.28 121.006C151.697 120.715 151.077 120.569 150.418 120.569C149.975 120.569 149.563 120.696 149.183 120.949C148.803 121.19 148.493 121.551 148.252 122.032C148.011 122.501 147.828 123.033 147.701 123.628C147.574 124.211 147.511 124.774 147.511 125.319C147.511 125.864 147.581 126.44 147.72 127.048C147.859 127.643 148.049 128.175 148.29 128.644C148.531 129.113 148.854 129.48 149.259 129.746C149.664 130.012 150.07 130.145 150.475 130.145C150.766 130.145 151.058 130.113 151.349 130.05C151.653 129.987 151.963 129.892 152.28 129.765C152.407 129.702 152.489 129.683 152.527 129.708C152.565 129.733 152.584 129.784 152.584 129.86L152.641 131.323C152.654 131.437 152.647 131.519 152.622 131.57C152.597 131.633 152.533 131.684 152.432 131.722ZM161.59 131.551C160.944 131.994 160.133 132.222 159.158 132.235C158.905 132.235 158.639 132.222 158.36 132.197C158.094 132.172 157.841 132.14 157.6 132.102C157.372 132.077 157.138 132.032 156.897 131.969C156.669 131.918 156.498 131.868 156.384 131.817C156.333 131.804 156.276 131.773 156.213 131.722C156.162 131.671 156.143 131.602 156.156 131.513L156.27 130.24C156.283 130.126 156.302 130.056 156.327 130.031C156.352 130.006 156.435 130.012 156.574 130.05C157.017 130.177 157.454 130.272 157.885 130.335C158.328 130.386 158.727 130.411 159.082 130.411C159.639 130.411 160.051 130.316 160.317 130.126C160.596 129.923 160.735 129.651 160.735 129.309C160.735 129.132 160.665 128.948 160.526 128.758C160.387 128.555 160.152 128.353 159.823 128.15C159.481 127.947 159.126 127.745 158.759 127.542C158.392 127.327 158.031 127.124 157.676 126.934C157.271 126.706 156.929 126.389 156.65 125.984C156.384 125.579 156.251 125.186 156.251 124.806C156.251 124.337 156.346 123.919 156.536 123.552C156.726 123.172 156.979 122.855 157.296 122.602C157.613 122.349 157.974 122.165 158.379 122.051C158.797 121.937 159.234 121.88 159.69 121.88C159.931 121.88 160.178 121.893 160.431 121.918C160.697 121.943 160.95 121.981 161.191 122.032C161.444 122.07 161.666 122.121 161.856 122.184C162.059 122.235 162.211 122.292 162.312 122.355C162.375 122.38 162.407 122.412 162.407 122.45C162.42 122.475 162.42 122.52 162.407 122.583L162.293 123.837C162.28 123.964 162.242 124.046 162.179 124.084C162.116 124.109 162.027 124.097 161.913 124.046C161.672 123.957 161.4 123.875 161.096 123.799C160.855 123.748 160.621 123.717 160.393 123.704C160.178 123.679 159.981 123.666 159.804 123.666C159.285 123.666 158.917 123.761 158.702 123.951C158.487 124.141 158.379 124.35 158.379 124.578C158.379 124.793 158.499 125.015 158.74 125.243C158.981 125.458 159.285 125.661 159.652 125.851C160.057 126.054 160.425 126.256 160.754 126.459C161.083 126.649 161.33 126.807 161.495 126.934C161.951 127.251 162.293 127.599 162.521 127.979C162.749 128.346 162.863 128.733 162.863 129.138C162.863 130.126 162.439 130.93 161.59 131.551ZM171.945 131.551C171.299 131.994 170.488 132.222 169.513 132.235C169.26 132.235 168.994 132.222 168.715 132.197C168.449 132.172 168.196 132.14 167.955 132.102C167.727 132.077 167.493 132.032 167.252 131.969C167.024 131.918 166.853 131.868 166.739 131.817C166.688 131.804 166.631 131.773 166.568 131.722C166.517 131.671 166.498 131.602 166.511 131.513L166.625 130.24C166.638 130.126 166.657 130.056 166.682 130.031C166.707 130.006 166.79 130.012 166.929 130.05C167.372 130.177 167.809 130.272 168.24 130.335C168.683 130.386 169.082 130.411 169.437 130.411C169.994 130.411 170.406 130.316 170.672 130.126C170.951 129.923 171.09 129.651 171.09 129.309C171.09 129.132 171.02 128.948 170.881 128.758C170.742 128.555 170.507 128.353 170.178 128.15C169.836 127.947 169.481 127.745 169.114 127.542C168.747 127.327 168.386 127.124 168.031 126.934C167.626 126.706 167.284 126.389 167.005 125.984C166.739 125.579 166.606 125.186 166.606 124.806C166.606 124.337 166.701 123.919 166.891 123.552C167.081 123.172 167.334 122.855 167.651 122.602C167.968 122.349 168.329 122.165 168.734 122.051C169.152 121.937 169.589 121.88 170.045 121.88C170.286 121.88 170.533 121.893 170.786 121.918C171.052 121.943 171.305 121.981 171.546 122.032C171.799 122.07 172.021 122.121 172.211 122.184C172.414 122.235 172.566 122.292 172.667 122.355C172.73 122.38 172.762 122.412 172.762 122.45C172.775 122.475 172.775 122.52 172.762 122.583L172.648 123.837C172.635 123.964 172.597 124.046 172.534 124.084C172.471 124.109 172.382 124.097 172.268 124.046C172.027 123.957 171.755 123.875 171.451 123.799C171.21 123.748 170.976 123.717 170.748 123.704C170.533 123.679 170.336 123.666 170.159 123.666C169.64 123.666 169.272 123.761 169.057 123.951C168.842 124.141 168.734 124.35 168.734 124.578C168.734 124.793 168.854 125.015 169.095 125.243C169.336 125.458 169.64 125.661 170.007 125.851C170.412 126.054 170.78 126.256 171.109 126.459C171.438 126.649 171.685 126.807 171.85 126.934C172.306 127.251 172.648 127.599 172.876 127.979C173.104 128.346 173.218 128.733 173.218 129.138C173.218 130.126 172.794 130.93 171.945 131.551ZM146.722 174.076C146.393 174.393 145.975 174.665 145.468 174.893C144.974 175.121 144.512 175.248 144.081 175.273C143.777 175.298 143.473 175.298 143.169 175.273C142.878 175.26 142.561 175.222 142.219 175.159C141.877 175.096 141.567 175.032 141.288 174.969C141.022 174.906 140.82 174.842 140.68 174.779C140.49 174.703 140.376 174.646 140.338 174.608C140.3 174.57 140.294 174.481 140.319 174.342L140.452 173.031C140.478 172.942 140.509 172.885 140.547 172.86C140.598 172.835 140.699 172.854 140.851 172.917C140.978 172.968 141.181 173.037 141.459 173.126C141.751 173.215 142.055 173.284 142.371 173.335C142.701 173.386 143.005 173.417 143.283 173.43C143.562 173.443 143.841 173.417 144.119 173.354C144.651 173.253 145.044 173.044 145.297 172.727C145.551 172.41 145.677 172.03 145.677 171.587C145.677 171.156 145.519 170.764 145.202 170.409C144.886 170.042 144.525 169.719 144.119 169.44C143.575 169.073 143.049 168.718 142.542 168.376C142.036 168.021 141.618 167.673 141.288 167.331C140.959 166.976 140.712 166.622 140.547 166.267C140.395 165.912 140.319 165.52 140.319 165.089C140.319 164.633 140.433 164.19 140.661 163.759C140.889 163.328 141.193 162.948 141.573 162.619C141.953 162.277 142.371 162.017 142.827 161.84C143.296 161.663 143.847 161.574 144.48 161.574C145 161.574 145.468 161.618 145.886 161.707C146.304 161.783 146.665 161.865 146.969 161.954C147.109 162.017 147.185 162.074 147.197 162.125C147.223 162.163 147.229 162.233 147.216 162.334L146.988 163.55C146.95 163.664 146.9 163.746 146.836 163.797C146.786 163.848 146.684 163.848 146.532 163.797C146.342 163.759 146.146 163.715 145.943 163.664C145.741 163.601 145.532 163.55 145.316 163.512C145.114 163.474 144.917 163.449 144.727 163.436C144.537 163.423 144.354 163.423 144.176 163.436C143.606 163.512 143.176 163.708 142.884 164.025C142.606 164.342 142.466 164.734 142.466 165.203C142.466 165.507 142.593 165.817 142.846 166.134C143.1 166.451 143.537 166.812 144.157 167.217C144.867 167.686 145.456 168.091 145.924 168.433C146.393 168.775 146.773 169.111 147.064 169.44C147.356 169.757 147.552 170.08 147.653 170.409C147.767 170.726 147.824 171.074 147.824 171.454C147.824 172.48 147.457 173.354 146.722 174.076ZM156.355 174.95C156.267 174.95 156.21 174.944 156.184 174.931C156.172 174.918 156.165 174.874 156.165 174.798V173.924C155.861 174.367 155.481 174.697 155.025 174.912C154.569 175.14 154.107 175.254 153.638 175.254C153.271 175.254 152.878 175.184 152.46 175.045C152.055 174.918 151.707 174.722 151.415 174.456C151.124 174.203 150.89 173.886 150.712 173.506C150.548 173.126 150.465 172.683 150.465 172.176C150.465 171.631 150.573 171.137 150.788 170.694C151.016 170.238 151.358 169.858 151.814 169.554C152.27 169.25 152.821 169.028 153.467 168.889C154.126 168.737 154.962 168.661 155.975 168.661C155.975 168.433 155.95 168.224 155.899 168.034C155.861 167.831 155.785 167.641 155.671 167.464C155.557 167.287 155.393 167.141 155.177 167.027C154.975 166.9 154.721 166.837 154.417 166.837C154.012 166.837 153.588 166.913 153.144 167.065C152.714 167.217 152.308 167.42 151.928 167.673C151.738 167.8 151.605 167.857 151.529 167.844C151.466 167.831 151.434 167.762 151.434 167.635V166.153C151.434 166.128 151.428 166.083 151.415 166.02C151.415 165.944 151.441 165.887 151.491 165.849C151.555 165.786 151.637 165.729 151.738 165.678C152.118 165.463 152.536 165.285 152.992 165.146C153.448 165.007 153.911 164.937 154.379 164.937C155.595 164.937 156.501 165.247 157.096 165.868C157.704 166.476 158.008 167.356 158.008 168.509V172.689C158.008 173.031 158.008 173.379 158.008 173.734C158.021 174.089 158.046 174.405 158.084 174.684C158.097 174.861 158.027 174.95 157.875 174.95H156.355ZM152.498 172.043C152.498 172.486 152.631 172.822 152.897 173.05C153.163 173.265 153.448 173.373 153.752 173.373C154.424 173.373 154.975 173.113 155.405 172.594C155.836 172.062 156.051 171.422 156.051 170.675V170.466C154.696 170.466 153.765 170.605 153.258 170.884C152.752 171.15 152.498 171.536 152.498 172.043ZM166.767 174.551C166.121 174.994 165.311 175.222 164.335 175.235C164.082 175.235 163.816 175.222 163.537 175.197C163.271 175.172 163.018 175.14 162.777 175.102C162.549 175.077 162.315 175.032 162.074 174.969C161.846 174.918 161.675 174.868 161.561 174.817C161.511 174.804 161.454 174.773 161.39 174.722C161.34 174.671 161.321 174.602 161.333 174.513L161.447 173.24C161.46 173.126 161.479 173.056 161.504 173.031C161.53 173.006 161.612 173.012 161.751 173.05C162.195 173.177 162.632 173.272 163.062 173.335C163.506 173.386 163.905 173.411 164.259 173.411C164.817 173.411 165.228 173.316 165.494 173.126C165.773 172.923 165.912 172.651 165.912 172.309C165.912 172.132 165.843 171.948 165.703 171.758C165.564 171.555 165.33 171.353 165 171.15C164.658 170.947 164.304 170.745 163.936 170.542C163.569 170.327 163.208 170.124 162.853 169.934C162.448 169.706 162.106 169.389 161.827 168.984C161.561 168.579 161.428 168.186 161.428 167.806C161.428 167.337 161.523 166.919 161.713 166.552C161.903 166.172 162.157 165.855 162.473 165.602C162.79 165.349 163.151 165.165 163.556 165.051C163.974 164.937 164.411 164.88 164.867 164.88C165.108 164.88 165.355 164.893 165.608 164.918C165.874 164.943 166.128 164.981 166.368 165.032C166.622 165.07 166.843 165.121 167.033 165.184C167.236 165.235 167.388 165.292 167.489 165.355C167.553 165.38 167.584 165.412 167.584 165.45C167.597 165.475 167.597 165.52 167.584 165.583L167.47 166.837C167.458 166.964 167.42 167.046 167.356 167.084C167.293 167.109 167.204 167.097 167.09 167.046C166.85 166.957 166.577 166.875 166.273 166.799C166.033 166.748 165.798 166.717 165.57 166.704C165.355 166.679 165.159 166.666 164.981 166.666C164.462 166.666 164.095 166.761 163.879 166.951C163.664 167.141 163.556 167.35 163.556 167.578C163.556 167.793 163.677 168.015 163.917 168.243C164.158 168.458 164.462 168.661 164.829 168.851C165.235 169.054 165.602 169.256 165.931 169.459C166.261 169.649 166.508 169.807 166.672 169.934C167.128 170.251 167.47 170.599 167.698 170.979C167.926 171.346 168.04 171.733 168.04 172.138C168.04 173.126 167.616 173.93 166.767 174.551ZM177.123 174.551C176.477 174.994 175.666 175.222 174.691 175.235C174.437 175.235 174.171 175.222 173.893 175.197C173.627 175.172 173.373 175.14 173.133 175.102C172.905 175.077 172.67 175.032 172.43 174.969C172.202 174.918 172.031 174.868 171.917 174.817C171.866 174.804 171.809 174.773 171.746 174.722C171.695 174.671 171.676 174.602 171.689 174.513L171.803 173.24C171.815 173.126 171.834 173.056 171.86 173.031C171.885 173.006 171.967 173.012 172.107 173.05C172.55 173.177 172.987 173.272 173.418 173.335C173.861 173.386 174.26 173.411 174.615 173.411C175.172 173.411 175.584 173.316 175.85 173.126C176.128 172.923 176.268 172.651 176.268 172.309C176.268 172.132 176.198 171.948 176.059 171.758C175.919 171.555 175.685 171.353 175.356 171.15C175.014 170.947 174.659 170.745 174.292 170.542C173.924 170.327 173.563 170.124 173.209 169.934C172.803 169.706 172.461 169.389 172.183 168.984C171.917 168.579 171.784 168.186 171.784 167.806C171.784 167.337 171.879 166.919 172.069 166.552C172.259 166.172 172.512 165.855 172.829 165.602C173.145 165.349 173.506 165.165 173.912 165.051C174.33 164.937 174.767 164.88 175.223 164.88C175.463 164.88 175.71 164.893 175.964 164.918C176.23 164.943 176.483 164.981 176.724 165.032C176.977 165.07 177.199 165.121 177.389 165.184C177.591 165.235 177.743 165.292 177.845 165.355C177.908 165.38 177.94 165.412 177.94 165.45C177.952 165.475 177.952 165.52 177.94 165.583L177.826 166.837C177.813 166.964 177.775 167.046 177.712 167.084C177.648 167.109 177.56 167.097 177.446 167.046C177.205 166.957 176.933 166.875 176.629 166.799C176.388 166.748 176.154 166.717 175.926 166.704C175.71 166.679 175.514 166.666 175.337 166.666C174.817 166.666 174.45 166.761 174.235 166.951C174.019 167.141 173.912 167.35 173.912 167.578C173.912 167.793 174.032 168.015 174.273 168.243C174.513 168.458 174.817 168.661 175.185 168.851C175.59 169.054 175.957 169.256 176.287 169.459C176.616 169.649 176.863 169.807 177.028 169.934C177.484 170.251 177.826 170.599 178.054 170.979C178.282 171.346 178.396 171.733 178.396 172.138C178.396 173.126 177.971 173.93 177.123 174.551ZM131.133 217.95C130.994 217.95 130.899 217.944 130.848 217.931C130.797 217.918 130.74 217.868 130.677 217.779L128.036 212.763H126.839V217.741C126.839 217.88 126.757 217.95 126.592 217.95H124.977C124.825 217.95 124.749 217.88 124.749 217.741V204.973C124.749 204.91 124.768 204.859 124.806 204.821C124.857 204.783 124.914 204.764 124.977 204.764H127.808C129.201 204.764 130.272 205.138 131.019 205.885C131.766 206.62 132.14 207.57 132.14 208.735C132.14 209.584 131.944 210.318 131.551 210.939C131.171 211.547 130.652 212.003 129.993 212.307L132.976 217.722C133.077 217.874 133.008 217.95 132.767 217.95H131.133ZM126.839 206.759V210.787H127.77C128.479 210.787 129.03 210.622 129.423 210.293C129.816 209.951 130.012 209.438 130.012 208.754C130.012 208.057 129.828 207.551 129.461 207.234C129.094 206.917 128.612 206.759 128.017 206.759H126.839ZM142.571 213.637C142.571 213.738 142.546 213.814 142.495 213.865C142.457 213.903 142.4 213.922 142.324 213.922H137.118C137.131 214.593 137.302 215.17 137.631 215.651C137.973 216.12 138.518 216.354 139.265 216.354C139.721 216.354 140.12 216.303 140.462 216.202C140.817 216.088 141.178 215.898 141.545 215.632C141.646 215.581 141.703 215.588 141.716 215.651C141.741 215.714 141.754 215.79 141.754 215.879V217.228C141.754 217.342 141.735 217.424 141.697 217.475C141.659 217.538 141.596 217.602 141.507 217.665C141.178 217.842 140.842 217.982 140.5 218.083C140.171 218.184 139.759 218.235 139.265 218.235C137.821 218.235 136.744 217.773 136.035 216.848C135.326 215.923 134.971 214.701 134.971 213.181C134.971 212.535 135.047 211.908 135.199 211.3C135.351 210.679 135.585 210.122 135.902 209.628C136.231 209.134 136.643 208.729 137.137 208.412C137.631 208.095 138.201 207.937 138.847 207.937C139.531 207.937 140.107 208.083 140.576 208.374C141.057 208.665 141.444 209.052 141.735 209.533C142.039 210.002 142.254 210.54 142.381 211.148C142.52 211.756 142.59 212.415 142.59 213.124C142.59 213.213 142.584 213.314 142.571 213.428C142.571 213.529 142.571 213.599 142.571 213.637ZM138.809 209.761C138.505 209.761 138.233 209.85 137.992 210.027C137.764 210.192 137.58 210.42 137.441 210.711C137.314 210.99 137.226 211.249 137.175 211.49C137.137 211.718 137.118 211.902 137.118 212.041H140.519C140.519 211.902 140.494 211.718 140.443 211.49C140.405 211.249 140.316 210.99 140.177 210.711C140.05 210.42 139.867 210.192 139.626 210.027C139.385 209.85 139.113 209.761 138.809 209.761ZM151.178 217.95C151.089 217.95 151.032 217.944 151.007 217.931C150.994 217.918 150.988 217.874 150.988 217.798V216.924C150.684 217.367 150.304 217.697 149.848 217.912C149.392 218.14 148.93 218.254 148.461 218.254C148.094 218.254 147.701 218.184 147.283 218.045C146.878 217.918 146.529 217.722 146.238 217.456C145.947 217.203 145.712 216.886 145.535 216.506C145.37 216.126 145.288 215.683 145.288 215.176C145.288 214.631 145.396 214.137 145.611 213.694C145.839 213.238 146.181 212.858 146.637 212.554C147.093 212.25 147.644 212.028 148.29 211.889C148.949 211.737 149.785 211.661 150.798 211.661C150.798 211.433 150.773 211.224 150.722 211.034C150.684 210.831 150.608 210.641 150.494 210.464C150.38 210.287 150.215 210.141 150 210.027C149.797 209.9 149.544 209.837 149.24 209.837C148.835 209.837 148.41 209.913 147.967 210.065C147.536 210.217 147.131 210.42 146.751 210.673C146.561 210.8 146.428 210.857 146.352 210.844C146.289 210.831 146.257 210.762 146.257 210.635V209.153C146.257 209.128 146.251 209.083 146.238 209.02C146.238 208.944 146.263 208.887 146.314 208.849C146.377 208.786 146.46 208.729 146.561 208.678C146.941 208.463 147.359 208.285 147.815 208.146C148.271 208.007 148.733 207.937 149.202 207.937C150.418 207.937 151.324 208.247 151.919 208.868C152.527 209.476 152.831 210.356 152.831 211.509V215.689C152.831 216.031 152.831 216.379 152.831 216.734C152.844 217.089 152.869 217.405 152.907 217.684C152.92 217.861 152.85 217.95 152.698 217.95H151.178ZM147.321 215.043C147.321 215.486 147.454 215.822 147.72 216.05C147.986 216.265 148.271 216.373 148.575 216.373C149.246 216.373 149.797 216.113 150.228 215.594C150.659 215.062 150.874 214.422 150.874 213.675V213.466C149.519 213.466 148.588 213.605 148.081 213.884C147.574 214.15 147.321 214.536 147.321 215.043ZM162.749 217.912C162.622 217.963 162.464 218.007 162.274 218.045C162.084 218.083 161.869 218.115 161.628 218.14C161.387 218.165 161.172 218.178 160.982 218.178C160.792 218.191 160.583 218.191 160.355 218.178C159.62 218.127 158.993 217.963 158.474 217.684C157.967 217.405 157.518 217.044 157.125 216.601C156.745 216.158 156.454 215.632 156.251 215.024C156.061 214.416 155.966 213.757 155.966 213.048C155.966 212.313 156.086 211.636 156.327 211.015C156.568 210.382 156.897 209.837 157.315 209.381C157.746 208.925 158.227 208.577 158.759 208.336C159.304 208.083 159.95 207.956 160.697 207.956C161.001 207.956 161.337 207.988 161.704 208.051C162.084 208.102 162.451 208.19 162.806 208.317C162.857 208.33 162.895 208.355 162.92 208.393C162.945 208.418 162.952 208.488 162.939 208.602L162.768 209.932C162.755 210.021 162.73 210.084 162.692 210.122C162.654 210.16 162.584 210.166 162.483 210.141C162.217 210.04 161.926 209.964 161.609 209.913C161.292 209.862 160.976 209.837 160.659 209.837C159.734 209.837 159.063 210.141 158.645 210.749C158.24 211.357 158.037 212.123 158.037 213.048C158.037 213.935 158.24 214.669 158.645 215.252C159.063 215.835 159.671 216.183 160.469 216.297C161.191 216.386 161.888 216.329 162.559 216.126C162.673 216.075 162.743 216.069 162.768 216.107C162.806 216.145 162.831 216.202 162.844 216.278L162.939 217.608C162.952 217.697 162.945 217.76 162.92 217.798C162.907 217.849 162.85 217.887 162.749 217.912ZM173.579 217.741C173.11 217.906 172.635 218.026 172.154 218.102C171.685 218.178 171.286 218.21 170.957 218.197C170.298 218.197 169.773 218.083 169.38 217.855C168.987 217.64 168.715 217.386 168.563 217.095C168.386 216.766 168.278 216.379 168.24 215.936C168.202 215.493 168.183 214.891 168.183 214.131V210.54H166.093C166.03 210.54 165.973 210.521 165.922 210.483C165.884 210.432 165.865 210.375 165.865 210.312V208.811C165.865 208.748 165.884 208.697 165.922 208.659C165.973 208.608 166.03 208.583 166.093 208.583H168.183V205.828C168.183 205.765 168.208 205.714 168.259 205.676C168.31 205.625 168.367 205.6 168.43 205.6H169.969C170.045 205.6 170.102 205.625 170.14 205.676C170.191 205.714 170.216 205.765 170.216 205.828V208.583H173.408C173.471 208.583 173.522 208.608 173.56 208.659C173.611 208.697 173.636 208.748 173.636 208.811V210.312C173.636 210.375 173.611 210.432 173.56 210.483C173.522 210.521 173.471 210.54 173.408 210.54H170.216V214.245C170.216 215.068 170.235 215.594 170.273 215.822C170.298 216.063 170.412 216.208 170.615 216.259C170.83 216.31 171.115 216.335 171.47 216.335C171.761 216.335 172.065 216.303 172.382 216.24C172.699 216.177 173.009 216.094 173.313 215.993C173.376 215.968 173.421 215.968 173.446 215.993C173.471 216.006 173.497 216.063 173.522 216.164L173.674 217.513C173.687 217.602 173.655 217.678 173.579 217.741ZM178.044 206.759C177.981 206.759 177.924 206.74 177.873 206.702C177.835 206.651 177.816 206.588 177.816 206.512V204.992C177.816 204.929 177.835 204.878 177.873 204.84C177.924 204.789 177.981 204.764 178.044 204.764H183.269C183.332 204.764 183.389 204.789 183.44 204.84C183.491 204.878 183.516 204.929 183.516 204.992V213.96C183.516 215.518 183.206 216.601 182.585 217.209C181.964 217.817 181.116 218.121 180.039 218.121C178.962 218.121 178.12 217.817 177.512 217.209C176.917 216.601 176.619 215.474 176.619 213.827V213.371C176.619 213.206 176.695 213.124 176.847 213.124H178.557C178.62 213.124 178.671 213.156 178.709 213.219C178.76 213.27 178.785 213.327 178.785 213.39V213.979C178.785 214.891 178.893 215.48 179.108 215.746C179.336 215.999 179.653 216.126 180.058 216.126C180.451 216.126 180.767 215.98 181.008 215.689C181.249 215.385 181.369 214.84 181.369 214.055V206.759H178.044ZM193.32 217.076C192.991 217.393 192.573 217.665 192.066 217.893C191.572 218.121 191.11 218.248 190.679 218.273C190.375 218.298 190.071 218.298 189.767 218.273C189.476 218.26 189.159 218.222 188.817 218.159C188.475 218.096 188.165 218.032 187.886 217.969C187.62 217.906 187.417 217.842 187.278 217.779C187.088 217.703 186.974 217.646 186.936 217.608C186.898 217.57 186.892 217.481 186.917 217.342L187.05 216.031C187.075 215.942 187.107 215.885 187.145 215.86C187.196 215.835 187.297 215.854 187.449 215.917C187.576 215.968 187.778 216.037 188.057 216.126C188.348 216.215 188.652 216.284 188.969 216.335C189.298 216.386 189.602 216.417 189.881 216.43C190.16 216.443 190.438 216.417 190.717 216.354C191.249 216.253 191.642 216.044 191.895 215.727C192.148 215.41 192.275 215.03 192.275 214.587C192.275 214.156 192.117 213.764 191.8 213.409C191.483 213.042 191.122 212.719 190.717 212.44C190.172 212.073 189.647 211.718 189.14 211.376C188.633 211.021 188.215 210.673 187.886 210.331C187.557 209.976 187.31 209.622 187.145 209.267C186.993 208.912 186.917 208.52 186.917 208.089C186.917 207.633 187.031 207.19 187.259 206.759C187.487 206.328 187.791 205.948 188.171 205.619C188.551 205.277 188.969 205.017 189.425 204.84C189.894 204.663 190.445 204.574 191.078 204.574C191.597 204.574 192.066 204.618 192.484 204.707C192.902 204.783 193.263 204.865 193.567 204.954C193.706 205.017 193.782 205.074 193.795 205.125C193.82 205.163 193.827 205.233 193.814 205.334L193.586 206.55C193.548 206.664 193.497 206.746 193.434 206.797C193.383 206.848 193.282 206.848 193.13 206.797C192.94 206.759 192.744 206.715 192.541 206.664C192.338 206.601 192.129 206.55 191.914 206.512C191.711 206.474 191.515 206.449 191.325 206.436C191.135 206.423 190.951 206.423 190.774 206.436C190.204 206.512 189.773 206.708 189.482 207.025C189.203 207.342 189.064 207.734 189.064 208.203C189.064 208.507 189.191 208.817 189.444 209.134C189.697 209.451 190.134 209.812 190.755 210.217C191.464 210.686 192.053 211.091 192.522 211.433C192.991 211.775 193.371 212.111 193.662 212.44C193.953 212.757 194.15 213.08 194.251 213.409C194.365 213.726 194.422 214.074 194.422 214.454C194.422 215.48 194.055 216.354 193.32 217.076ZM110.737 249.759C110.673 249.759 110.616 249.74 110.566 249.702C110.528 249.651 110.509 249.588 110.509 249.512V247.992C110.509 247.929 110.528 247.878 110.566 247.84C110.616 247.789 110.673 247.764 110.737 247.764H115.962C116.025 247.764 116.082 247.789 116.133 247.84C116.183 247.878 116.209 247.929 116.209 247.992V256.96C116.209 258.518 115.898 259.601 115.278 260.209C114.657 260.817 113.808 261.121 112.732 261.121C111.655 261.121 110.813 260.817 110.205 260.209C109.609 259.601 109.312 258.474 109.312 256.827V256.371C109.312 256.206 109.388 256.124 109.54 256.124H111.25C111.313 256.124 111.364 256.156 111.402 256.219C111.452 256.27 111.478 256.327 111.478 256.39V256.979C111.478 257.891 111.585 258.48 111.801 258.746C112.029 258.999 112.345 259.126 112.751 259.126C113.143 259.126 113.46 258.98 113.701 258.689C113.941 258.385 114.062 257.84 114.062 257.055V249.759H110.737ZM125.291 260.95C125.202 260.95 125.145 260.944 125.12 260.931C125.107 260.918 125.1 260.874 125.1 260.798V259.924C124.796 260.367 124.416 260.697 123.96 260.912C123.504 261.14 123.042 261.254 122.574 261.254C122.206 261.254 121.813 261.184 121.395 261.045C120.99 260.918 120.642 260.722 120.35 260.456C120.059 260.203 119.825 259.886 119.647 259.506C119.483 259.126 119.4 258.683 119.4 258.176C119.4 257.631 119.508 257.137 119.723 256.694C119.951 256.238 120.293 255.858 120.749 255.554C121.205 255.25 121.756 255.028 122.402 254.889C123.061 254.737 123.897 254.661 124.91 254.661C124.91 254.433 124.885 254.224 124.834 254.034C124.796 253.831 124.72 253.641 124.606 253.464C124.492 253.287 124.328 253.141 124.113 253.027C123.91 252.9 123.657 252.837 123.353 252.837C122.947 252.837 122.523 252.913 122.079 253.065C121.649 253.217 121.243 253.42 120.863 253.673C120.673 253.8 120.54 253.857 120.464 253.844C120.401 253.831 120.369 253.762 120.369 253.635V252.153C120.369 252.128 120.363 252.083 120.35 252.02C120.35 251.944 120.376 251.887 120.426 251.849C120.49 251.786 120.572 251.729 120.673 251.678C121.053 251.463 121.471 251.285 121.927 251.146C122.383 251.007 122.846 250.937 123.315 250.937C124.53 250.937 125.436 251.247 126.032 251.868C126.64 252.476 126.944 253.356 126.944 254.509V258.689C126.944 259.031 126.944 259.379 126.944 259.734C126.956 260.089 126.982 260.405 127.019 260.684C127.032 260.861 126.963 260.95 126.81 260.95H125.291ZM121.433 258.043C121.433 258.486 121.566 258.822 121.832 259.05C122.098 259.265 122.383 259.373 122.687 259.373C123.359 259.373 123.91 259.113 124.34 258.594C124.771 258.062 124.987 257.422 124.987 256.675V256.466C123.631 256.466 122.7 256.605 122.193 256.884C121.687 257.15 121.433 257.536 121.433 258.043ZM134.411 260.95H132.777C132.701 260.95 132.644 260.937 132.606 260.912C132.58 260.899 132.555 260.855 132.53 260.779L129.547 251.393C129.521 251.33 129.521 251.279 129.547 251.241C129.572 251.203 129.654 251.184 129.794 251.184H131.352C131.415 251.184 131.466 251.197 131.504 251.222C131.542 251.235 131.573 251.273 131.599 251.336L133.024 256.143L133.594 258.29L134.145 256.143L135.57 251.336C135.595 251.273 135.627 251.235 135.665 251.222C135.715 251.197 135.772 251.184 135.836 251.184H137.413C137.552 251.184 137.634 251.203 137.66 251.241C137.685 251.279 137.685 251.33 137.66 251.393L134.639 260.779C134.613 260.855 134.588 260.899 134.563 260.912C134.537 260.937 134.487 260.95 134.411 260.95ZM146 260.95C145.912 260.95 145.855 260.944 145.829 260.931C145.817 260.918 145.81 260.874 145.81 260.798V259.924C145.506 260.367 145.126 260.697 144.67 260.912C144.214 261.14 143.752 261.254 143.283 261.254C142.916 261.254 142.523 261.184 142.105 261.045C141.7 260.918 141.352 260.722 141.06 260.456C140.769 260.203 140.535 259.886 140.357 259.506C140.193 259.126 140.11 258.683 140.11 258.176C140.11 257.631 140.218 257.137 140.433 256.694C140.661 256.238 141.003 255.858 141.459 255.554C141.915 255.25 142.466 255.028 143.112 254.889C143.771 254.737 144.607 254.661 145.62 254.661C145.62 254.433 145.595 254.224 145.544 254.034C145.506 253.831 145.43 253.641 145.316 253.464C145.202 253.287 145.038 253.141 144.822 253.027C144.62 252.9 144.366 252.837 144.062 252.837C143.657 252.837 143.233 252.913 142.789 253.065C142.359 253.217 141.953 253.42 141.573 253.673C141.383 253.8 141.25 253.857 141.174 253.844C141.111 253.831 141.079 253.762 141.079 253.635V252.153C141.079 252.128 141.073 252.083 141.06 252.02C141.06 251.944 141.086 251.887 141.136 251.849C141.2 251.786 141.282 251.729 141.383 251.678C141.763 251.463 142.181 251.285 142.637 251.146C143.093 251.007 143.556 250.937 144.024 250.937C145.24 250.937 146.146 251.247 146.741 251.868C147.349 252.476 147.653 253.356 147.653 254.509V258.689C147.653 259.031 147.653 259.379 147.653 259.734C147.666 260.089 147.691 260.405 147.729 260.684C147.742 260.861 147.672 260.95 147.52 260.95H146ZM142.143 258.043C142.143 258.486 142.276 258.822 142.542 259.05C142.808 259.265 143.093 259.373 143.397 259.373C144.069 259.373 144.62 259.113 145.05 258.594C145.481 258.062 145.696 257.422 145.696 256.675V256.466C144.341 256.466 143.41 256.605 142.903 256.884C142.397 257.15 142.143 257.536 142.143 258.043ZM156.412 260.551C155.766 260.994 154.956 261.222 153.98 261.235C153.727 261.235 153.461 261.222 153.182 261.197C152.916 261.172 152.663 261.14 152.422 261.102C152.194 261.077 151.96 261.032 151.719 260.969C151.491 260.918 151.32 260.868 151.206 260.817C151.156 260.804 151.099 260.773 151.035 260.722C150.985 260.671 150.966 260.602 150.978 260.513L151.092 259.24C151.105 259.126 151.124 259.056 151.149 259.031C151.175 259.006 151.257 259.012 151.396 259.05C151.84 259.177 152.277 259.272 152.707 259.335C153.151 259.386 153.55 259.411 153.904 259.411C154.462 259.411 154.873 259.316 155.139 259.126C155.418 258.923 155.557 258.651 155.557 258.309C155.557 258.132 155.488 257.948 155.348 257.758C155.209 257.555 154.975 257.353 154.645 257.15C154.303 256.947 153.949 256.745 153.581 256.542C153.214 256.327 152.853 256.124 152.498 255.934C152.093 255.706 151.751 255.389 151.472 254.984C151.206 254.579 151.073 254.186 151.073 253.806C151.073 253.337 151.168 252.919 151.358 252.552C151.548 252.172 151.802 251.855 152.118 251.602C152.435 251.349 152.796 251.165 153.201 251.051C153.619 250.937 154.056 250.88 154.512 250.88C154.753 250.88 155 250.893 155.253 250.918C155.519 250.943 155.773 250.981 156.013 251.032C156.267 251.07 156.488 251.121 156.678 251.184C156.881 251.235 157.033 251.292 157.134 251.355C157.198 251.38 157.229 251.412 157.229 251.45C157.242 251.475 157.242 251.52 157.229 251.583L157.115 252.837C157.103 252.964 157.065 253.046 157.001 253.084C156.938 253.109 156.849 253.097 156.735 253.046C156.495 252.957 156.222 252.875 155.918 252.799C155.678 252.748 155.443 252.717 155.215 252.704C155 252.679 154.804 252.666 154.626 252.666C154.107 252.666 153.74 252.761 153.524 252.951C153.309 253.141 153.201 253.35 153.201 253.578C153.201 253.793 153.322 254.015 153.562 254.243C153.803 254.458 154.107 254.661 154.474 254.851C154.88 255.054 155.247 255.256 155.576 255.459C155.906 255.649 156.153 255.807 156.317 255.934C156.773 256.251 157.115 256.599 157.343 256.979C157.571 257.346 157.685 257.733 157.685 258.138C157.685 259.126 157.261 259.93 156.412 260.551ZM167.927 260.912C167.8 260.963 167.642 261.007 167.452 261.045C167.262 261.083 167.046 261.115 166.806 261.14C166.565 261.165 166.35 261.178 166.16 261.178C165.97 261.191 165.761 261.191 165.533 261.178C164.798 261.127 164.171 260.963 163.652 260.684C163.145 260.405 162.695 260.044 162.303 259.601C161.923 259.158 161.631 258.632 161.429 258.024C161.239 257.416 161.144 256.757 161.144 256.048C161.144 255.313 161.264 254.636 161.505 254.015C161.745 253.382 162.075 252.837 162.493 252.381C162.923 251.925 163.405 251.577 163.937 251.336C164.481 251.083 165.127 250.956 165.875 250.956C166.179 250.956 166.514 250.988 166.882 251.051C167.262 251.102 167.629 251.19 167.984 251.317C168.034 251.33 168.072 251.355 168.098 251.393C168.123 251.418 168.129 251.488 168.117 251.602L167.946 252.932C167.933 253.021 167.908 253.084 167.87 253.122C167.832 253.16 167.762 253.166 167.661 253.141C167.395 253.04 167.103 252.964 166.787 252.913C166.47 252.862 166.153 252.837 165.837 252.837C164.912 252.837 164.241 253.141 163.823 253.749C163.417 254.357 163.215 255.123 163.215 256.048C163.215 256.935 163.417 257.669 163.823 258.252C164.241 258.835 164.849 259.183 165.647 259.297C166.369 259.386 167.065 259.329 167.737 259.126C167.851 259.075 167.92 259.069 167.946 259.107C167.984 259.145 168.009 259.202 168.022 259.278L168.117 260.608C168.129 260.697 168.123 260.76 168.098 260.798C168.085 260.849 168.028 260.887 167.927 260.912ZM171.366 260.95C171.302 260.95 171.245 260.925 171.195 260.874C171.157 260.836 171.138 260.779 171.138 260.703V259.221C171.138 259.158 171.157 259.107 171.195 259.069C171.245 259.018 171.302 258.993 171.366 258.993H172.563V253.749V253.084H171.005C170.941 253.084 170.884 253.065 170.834 253.027C170.796 252.976 170.777 252.913 170.777 252.837V251.412C170.777 251.349 170.796 251.298 170.834 251.26C170.884 251.209 170.941 251.184 171.005 251.184H174.121C174.171 251.184 174.209 251.203 174.235 251.241C174.273 251.266 174.292 251.304 174.292 251.355V252.97C174.418 252.704 174.551 252.476 174.691 252.286C174.843 252.083 175.001 251.906 175.166 251.754C175.343 251.589 175.539 251.444 175.755 251.317C175.983 251.178 176.312 251.057 176.743 250.956C177.287 250.867 177.813 250.88 178.32 250.994C178.839 251.108 179.27 251.304 179.612 251.583C179.675 251.646 179.7 251.703 179.688 251.754C179.675 251.805 179.662 251.855 179.65 251.906L179.023 253.198C178.997 253.274 178.953 253.325 178.89 253.35C178.839 253.375 178.769 253.363 178.681 253.312C178.389 253.147 178.066 253.033 177.712 252.97C177.357 252.907 177.009 252.907 176.667 252.97C176.071 253.084 175.603 253.369 175.261 253.825C174.919 254.281 174.71 254.743 174.634 255.212C174.558 255.681 174.52 256.232 174.52 256.865V258.993H176.496C176.559 258.993 176.61 259.018 176.648 259.069C176.698 259.107 176.724 259.158 176.724 259.221V260.703C176.724 260.868 176.648 260.95 176.496 260.95H171.366ZM181.91 260.95C181.847 260.95 181.79 260.925 181.739 260.874C181.701 260.836 181.682 260.779 181.682 260.703V259.221C181.682 259.158 181.701 259.107 181.739 259.069C181.79 259.018 181.847 258.993 181.91 258.993H184.494V253.141H182.252C182.189 253.141 182.132 253.122 182.081 253.084C182.043 253.033 182.024 252.97 182.024 252.894V251.412C182.024 251.349 182.043 251.298 182.081 251.26C182.132 251.209 182.189 251.184 182.252 251.184H186.318C186.382 251.184 186.432 251.209 186.47 251.26C186.521 251.298 186.546 251.349 186.546 251.412V258.993H188.883C188.947 258.993 188.997 259.018 189.035 259.069C189.086 259.107 189.111 259.158 189.111 259.221V260.703C189.111 260.868 189.035 260.95 188.883 260.95H181.91ZM185.254 249.683C184.849 249.683 184.507 249.544 184.228 249.265C183.95 248.986 183.81 248.651 183.81 248.258C183.81 247.84 183.95 247.492 184.228 247.213C184.507 246.922 184.849 246.776 185.254 246.776C185.672 246.776 186.021 246.922 186.299 247.213C186.591 247.492 186.736 247.84 186.736 248.258C186.736 248.651 186.591 248.986 186.299 249.265C186.021 249.544 185.672 249.683 185.254 249.683ZM196.236 250.956C196.819 250.956 197.326 251.083 197.756 251.336C198.2 251.577 198.573 251.925 198.877 252.381C199.194 252.824 199.435 253.375 199.599 254.034C199.764 254.68 199.846 255.37 199.846 256.105C199.846 256.662 199.758 257.283 199.58 257.967C199.416 258.638 199.175 259.215 198.858 259.696C198.554 260.177 198.181 260.545 197.737 260.798C197.307 261.064 196.806 261.197 196.236 261.197C195.818 261.197 195.419 261.096 195.039 260.893C194.672 260.703 194.349 260.412 194.07 260.019V263.553C194.07 263.654 194.058 263.718 194.032 263.743C194.007 263.768 193.956 263.781 193.88 263.781H192.246C192.107 263.781 192.037 263.705 192.037 263.553V251.469C192.037 251.279 192.126 251.184 192.303 251.184H193.823C193.988 251.184 194.07 251.279 194.07 251.469V252.21C194.286 251.83 194.596 251.526 195.001 251.298C195.407 251.07 195.818 250.956 196.236 250.956ZM195.799 259.259C196.407 259.259 196.876 258.942 197.205 258.309C197.535 257.676 197.699 256.941 197.699 256.105C197.699 255.206 197.528 254.446 197.186 253.825C196.844 253.192 196.382 252.875 195.799 252.875C195.559 252.875 195.324 252.957 195.096 253.122C194.868 253.287 194.666 253.521 194.488 253.825C194.324 254.129 194.197 254.496 194.108 254.927C194.02 255.345 193.975 255.738 193.975 256.105C193.975 257.004 194.134 257.758 194.45 258.366C194.78 258.961 195.229 259.259 195.799 259.259ZM209.822 260.741C209.353 260.906 208.878 261.026 208.397 261.102C207.928 261.178 207.529 261.21 207.2 261.197C206.541 261.197 206.015 261.083 205.623 260.855C205.23 260.64 204.958 260.386 204.806 260.095C204.628 259.766 204.521 259.379 204.483 258.936C204.445 258.493 204.426 257.891 204.426 257.131V253.54H202.336C202.272 253.54 202.215 253.521 202.165 253.483C202.127 253.432 202.108 253.375 202.108 253.312V251.811C202.108 251.748 202.127 251.697 202.165 251.659C202.215 251.608 202.272 251.583 202.336 251.583H204.426V248.828C204.426 248.765 204.451 248.714 204.502 248.676C204.552 248.625 204.609 248.6 204.673 248.6H206.212C206.288 248.6 206.345 248.625 206.383 248.676C206.433 248.714 206.459 248.765 206.459 248.828V251.583H209.651C209.714 251.583 209.765 251.608 209.803 251.659C209.853 251.697 209.879 251.748 209.879 251.811V253.312C209.879 253.375 209.853 253.432 209.803 253.483C209.765 253.521 209.714 253.54 209.651 253.54H206.459V257.245C206.459 258.068 206.478 258.594 206.516 258.822C206.541 259.063 206.655 259.208 206.858 259.259C207.073 259.31 207.358 259.335 207.713 259.335C208.004 259.335 208.308 259.303 208.625 259.24C208.941 259.177 209.252 259.094 209.556 258.993C209.619 258.968 209.663 258.968 209.689 258.993C209.714 259.006 209.739 259.063 209.765 259.164L209.917 260.513C209.929 260.602 209.898 260.678 209.822 260.741ZM147.72 298.896V303.703C147.72 303.868 147.638 303.95 147.473 303.95H145.858C145.706 303.95 145.63 303.868 145.63 303.703V290.992C145.63 290.929 145.649 290.878 145.687 290.84C145.738 290.789 145.795 290.764 145.858 290.764H148.651C150.057 290.764 151.165 291.106 151.976 291.79C152.799 292.474 153.211 293.475 153.211 294.792C153.211 295.489 153.091 296.078 152.85 296.559C152.622 297.028 152.293 297.446 151.862 297.813C151.444 298.168 150.944 298.44 150.361 298.63C149.791 298.807 149.164 298.896 148.48 298.896H147.72ZM147.72 292.759V296.92H148.537C149.335 296.92 149.956 296.736 150.399 296.369C150.855 296.002 151.083 295.47 151.083 294.773C151.083 294.051 150.887 293.538 150.494 293.234C150.101 292.917 149.588 292.759 148.955 292.759H147.72ZM156.061 303.95C155.998 303.95 155.941 303.925 155.89 303.874C155.852 303.836 155.833 303.785 155.833 303.722V290.992C155.833 290.929 155.852 290.878 155.89 290.84C155.941 290.789 155.998 290.764 156.061 290.764H157.714C157.777 290.764 157.828 290.789 157.866 290.84C157.917 290.878 157.942 290.929 157.942 290.992V296.122H161.039V290.992C161.039 290.929 161.058 290.878 161.096 290.84C161.147 290.789 161.204 290.764 161.267 290.764H162.92C162.983 290.764 163.034 290.789 163.072 290.84C163.123 290.878 163.148 290.929 163.148 290.992V303.722C163.148 303.785 163.123 303.836 163.072 303.874C163.034 303.925 162.983 303.95 162.92 303.95H161.267C161.115 303.95 161.039 303.874 161.039 303.722V298.117H157.942V303.722C157.942 303.874 157.866 303.95 157.714 303.95H156.061ZM168.43 298.896V303.703C168.43 303.868 168.348 303.95 168.183 303.95H166.568C166.416 303.95 166.34 303.868 166.34 303.703V290.992C166.34 290.929 166.359 290.878 166.397 290.84C166.448 290.789 166.505 290.764 166.568 290.764H169.361C170.767 290.764 171.875 291.106 172.686 291.79C173.509 292.474 173.921 293.475 173.921 294.792C173.921 295.489 173.801 296.078 173.56 296.559C173.332 297.028 173.003 297.446 172.572 297.813C172.154 298.168 171.654 298.44 171.071 298.63C170.501 298.807 169.874 298.896 169.19 298.896H168.43ZM168.43 292.759V296.92H169.247C170.045 296.92 170.666 296.736 171.109 296.369C171.565 296.002 171.793 295.47 171.793 294.773C171.793 294.051 171.597 293.538 171.204 293.234C170.811 292.917 170.298 292.759 169.665 292.759H168.43ZM120.949 346.95H119.03C118.929 346.95 118.859 346.937 118.821 346.912C118.783 346.899 118.751 346.842 118.726 346.741L118.175 339.806L118.061 338.077L117.947 339.806L117.396 346.741C117.371 346.842 117.339 346.899 117.301 346.912C117.276 346.937 117.206 346.95 117.092 346.95H115.173C115.072 346.95 115.002 346.937 114.964 346.912C114.926 346.899 114.894 346.842 114.869 346.741L113.729 334.03C113.704 333.941 113.704 333.878 113.729 333.84C113.754 333.789 113.849 333.764 114.014 333.764H115.268C115.357 333.764 115.42 333.777 115.458 333.802C115.496 333.815 115.528 333.865 115.553 333.954L116.085 342.048L116.161 343.891L116.294 342.048L116.864 335.284C116.889 335.195 116.921 335.145 116.959 335.132C117.01 335.107 117.079 335.094 117.168 335.094H118.954C119.043 335.094 119.106 335.107 119.144 335.132C119.195 335.145 119.233 335.195 119.258 335.284L119.828 342.048L119.961 343.891L120.037 342.048L120.569 333.954C120.594 333.865 120.626 333.815 120.664 333.802C120.702 333.777 120.765 333.764 120.854 333.764H122.127C122.292 333.764 122.387 333.789 122.412 333.84C122.437 333.878 122.437 333.941 122.412 334.03L121.253 346.741C121.228 346.842 121.196 346.899 121.158 346.912C121.12 346.937 121.05 346.95 120.949 346.95ZM131.418 345.62C131.051 346.152 130.614 346.551 130.107 346.817C129.613 347.096 129.056 347.235 128.435 347.235C127.802 347.235 127.238 347.102 126.744 346.836C126.263 346.57 125.851 346.203 125.509 345.734C125.18 345.253 124.933 344.702 124.768 344.081C124.603 343.46 124.521 342.795 124.521 342.086C124.521 341.377 124.603 340.712 124.768 340.091C124.933 339.47 125.18 338.926 125.509 338.457C125.851 337.988 126.263 337.621 126.744 337.355C127.225 337.089 127.789 336.956 128.435 336.956C129.068 336.956 129.626 337.089 130.107 337.355C130.601 337.621 131.013 337.988 131.342 338.457C131.684 338.926 131.937 339.47 132.102 340.091C132.267 340.712 132.349 341.377 132.349 342.086C132.349 342.783 132.267 343.435 132.102 344.043C131.937 344.651 131.709 345.177 131.418 345.62ZM128.435 338.818C128.106 338.818 127.827 338.913 127.599 339.103C127.371 339.293 127.181 339.546 127.029 339.863C126.89 340.167 126.776 340.515 126.687 340.908C126.611 341.301 126.573 341.693 126.573 342.086C126.573 342.491 126.611 342.89 126.687 343.283C126.776 343.663 126.89 344.011 127.029 344.328C127.181 344.645 127.371 344.898 127.599 345.088C127.827 345.278 128.106 345.373 128.435 345.373C128.752 345.373 129.024 345.278 129.252 345.088C129.493 344.898 129.683 344.645 129.822 344.328C129.974 344.011 130.088 343.663 130.164 343.283C130.253 342.89 130.297 342.491 130.297 342.086C130.297 341.693 130.253 341.307 130.164 340.927C130.088 340.534 129.974 340.186 129.822 339.882C129.683 339.565 129.493 339.312 129.252 339.122C129.024 338.919 128.752 338.818 128.435 338.818ZM135.123 346.95C135.06 346.95 135.003 346.925 134.952 346.874C134.914 346.836 134.895 346.779 134.895 346.703V345.221C134.895 345.158 134.914 345.107 134.952 345.069C135.003 345.018 135.06 344.993 135.123 344.993H136.32V339.749V339.084H134.762C134.699 339.084 134.642 339.065 134.591 339.027C134.553 338.976 134.534 338.913 134.534 338.837V337.412C134.534 337.349 134.553 337.298 134.591 337.26C134.642 337.209 134.699 337.184 134.762 337.184H137.878C137.929 337.184 137.967 337.203 137.992 337.241C138.03 337.266 138.049 337.304 138.049 337.355V338.97C138.176 338.704 138.309 338.476 138.448 338.286C138.6 338.083 138.758 337.906 138.923 337.754C139.1 337.589 139.297 337.444 139.512 337.317C139.74 337.178 140.069 337.057 140.5 336.956C141.045 336.867 141.57 336.88 142.077 336.994C142.596 337.108 143.027 337.304 143.369 337.583C143.432 337.646 143.458 337.703 143.445 337.754C143.432 337.805 143.42 337.855 143.407 337.906L142.78 339.198C142.755 339.274 142.71 339.325 142.647 339.35C142.596 339.375 142.527 339.363 142.438 339.312C142.147 339.147 141.824 339.033 141.469 338.97C141.114 338.907 140.766 338.907 140.424 338.97C139.829 339.084 139.36 339.369 139.018 339.825C138.676 340.281 138.467 340.743 138.391 341.212C138.315 341.681 138.277 342.232 138.277 342.865V344.993H140.253C140.316 344.993 140.367 345.018 140.405 345.069C140.456 345.107 140.481 345.158 140.481 345.221V346.703C140.481 346.868 140.405 346.95 140.253 346.95H135.123ZM148.537 347.178C147.954 347.178 147.441 347.051 146.998 346.798C146.567 346.557 146.194 346.215 145.877 345.772C145.573 345.316 145.339 344.765 145.174 344.119C145.009 343.46 144.927 342.764 144.927 342.029C144.927 341.472 145.009 340.857 145.174 340.186C145.351 339.502 145.592 338.919 145.896 338.438C146.213 337.957 146.586 337.589 147.017 337.336C147.46 337.07 147.967 336.937 148.537 336.937C148.955 336.937 149.348 337.038 149.715 337.241C150.095 337.431 150.424 337.722 150.703 338.115V332.814C150.703 332.713 150.716 332.649 150.741 332.624C150.766 332.599 150.817 332.586 150.893 332.586H152.527C152.666 332.586 152.736 332.662 152.736 332.814V346.665C152.736 346.855 152.647 346.95 152.47 346.95H150.95C150.785 346.95 150.703 346.855 150.703 346.665V345.924C150.488 346.304 150.177 346.608 149.772 346.836C149.367 347.064 148.955 347.178 148.537 347.178ZM148.974 338.875C148.366 338.875 147.897 339.192 147.568 339.825C147.239 340.458 147.074 341.193 147.074 342.029C147.074 342.928 147.245 343.695 147.587 344.328C147.929 344.949 148.391 345.259 148.974 345.259C149.215 345.259 149.449 345.177 149.677 345.012C149.905 344.847 150.101 344.613 150.266 344.309C150.443 344.005 150.576 343.644 150.665 343.226C150.754 342.795 150.798 342.396 150.798 342.029C150.798 341.13 150.633 340.382 150.304 339.787C149.987 339.179 149.544 338.875 148.974 338.875ZM159.994 336.956C160.577 336.956 161.083 337.083 161.514 337.336C161.957 337.577 162.331 337.925 162.635 338.381C162.952 338.824 163.192 339.375 163.357 340.034C163.522 340.68 163.604 341.37 163.604 342.105C163.604 342.662 163.515 343.283 163.338 343.967C163.173 344.638 162.933 345.215 162.616 345.696C162.312 346.177 161.938 346.545 161.495 346.798C161.064 347.064 160.564 347.197 159.994 347.197C159.576 347.197 159.177 347.096 158.797 346.893C158.43 346.703 158.107 346.412 157.828 346.019V349.553C157.828 349.654 157.815 349.718 157.79 349.743C157.765 349.768 157.714 349.781 157.638 349.781H156.004C155.865 349.781 155.795 349.705 155.795 349.553V337.469C155.795 337.279 155.884 337.184 156.061 337.184H157.581C157.746 337.184 157.828 337.279 157.828 337.469V338.21C158.043 337.83 158.354 337.526 158.759 337.298C159.164 337.07 159.576 336.956 159.994 336.956ZM159.557 345.259C160.165 345.259 160.634 344.942 160.963 344.309C161.292 343.676 161.457 342.941 161.457 342.105C161.457 341.206 161.286 340.446 160.944 339.825C160.602 339.192 160.14 338.875 159.557 338.875C159.316 338.875 159.082 338.957 158.854 339.122C158.626 339.287 158.423 339.521 158.246 339.825C158.081 340.129 157.955 340.496 157.866 340.927C157.777 341.345 157.733 341.738 157.733 342.105C157.733 343.004 157.891 343.758 158.208 344.366C158.537 344.961 158.987 345.259 159.557 345.259ZM166.188 346.95C166.125 346.95 166.068 346.925 166.017 346.874C165.979 346.836 165.96 346.779 165.96 346.703V345.221C165.96 345.158 165.979 345.107 166.017 345.069C166.068 345.018 166.125 344.993 166.188 344.993H167.385V339.749V339.084H165.827C165.764 339.084 165.707 339.065 165.656 339.027C165.618 338.976 165.599 338.913 165.599 338.837V337.412C165.599 337.349 165.618 337.298 165.656 337.26C165.707 337.209 165.764 337.184 165.827 337.184H168.943C168.994 337.184 169.032 337.203 169.057 337.241C169.095 337.266 169.114 337.304 169.114 337.355V338.97C169.241 338.704 169.374 338.476 169.513 338.286C169.665 338.083 169.823 337.906 169.988 337.754C170.165 337.589 170.362 337.444 170.577 337.317C170.805 337.178 171.134 337.057 171.565 336.956C172.11 336.867 172.635 336.88 173.142 336.994C173.661 337.108 174.092 337.304 174.434 337.583C174.497 337.646 174.523 337.703 174.51 337.754C174.497 337.805 174.485 337.855 174.472 337.906L173.845 339.198C173.82 339.274 173.775 339.325 173.712 339.35C173.661 339.375 173.592 339.363 173.503 339.312C173.212 339.147 172.889 339.033 172.534 338.97C172.179 338.907 171.831 338.907 171.489 338.97C170.894 339.084 170.425 339.369 170.083 339.825C169.741 340.281 169.532 340.743 169.456 341.212C169.38 341.681 169.342 342.232 169.342 342.865V344.993H171.318C171.381 344.993 171.432 345.018 171.47 345.069C171.521 345.107 171.546 345.158 171.546 345.221V346.703C171.546 346.868 171.47 346.95 171.318 346.95H166.188ZM183.991 342.637C183.991 342.738 183.966 342.814 183.915 342.865C183.877 342.903 183.82 342.922 183.744 342.922H178.538C178.551 343.593 178.722 344.17 179.051 344.651C179.393 345.12 179.938 345.354 180.685 345.354C181.141 345.354 181.54 345.303 181.882 345.202C182.237 345.088 182.598 344.898 182.965 344.632C183.066 344.581 183.123 344.588 183.136 344.651C183.161 344.714 183.174 344.79 183.174 344.879V346.228C183.174 346.342 183.155 346.424 183.117 346.475C183.079 346.538 183.016 346.602 182.927 346.665C182.598 346.842 182.262 346.982 181.92 347.083C181.591 347.184 181.179 347.235 180.685 347.235C179.241 347.235 178.164 346.773 177.455 345.848C176.746 344.923 176.391 343.701 176.391 342.181C176.391 341.535 176.467 340.908 176.619 340.3C176.771 339.679 177.005 339.122 177.322 338.628C177.651 338.134 178.063 337.729 178.557 337.412C179.051 337.095 179.621 336.937 180.267 336.937C180.951 336.937 181.527 337.083 181.996 337.374C182.477 337.665 182.864 338.052 183.155 338.533C183.459 339.002 183.674 339.54 183.801 340.148C183.94 340.756 184.01 341.415 184.01 342.124C184.01 342.213 184.004 342.314 183.991 342.428C183.991 342.529 183.991 342.599 183.991 342.637ZM180.229 338.761C179.925 338.761 179.653 338.85 179.412 339.027C179.184 339.192 179 339.42 178.861 339.711C178.734 339.99 178.646 340.249 178.595 340.49C178.557 340.718 178.538 340.902 178.538 341.041H181.939C181.939 340.902 181.914 340.718 181.863 340.49C181.825 340.249 181.736 339.99 181.597 339.711C181.47 339.42 181.287 339.192 181.046 339.027C180.805 338.85 180.533 338.761 180.229 338.761ZM192.655 346.551C192.009 346.994 191.198 347.222 190.223 347.235C189.97 347.235 189.704 347.222 189.425 347.197C189.159 347.172 188.906 347.14 188.665 347.102C188.437 347.077 188.203 347.032 187.962 346.969C187.734 346.918 187.563 346.868 187.449 346.817C187.398 346.804 187.341 346.773 187.278 346.722C187.227 346.671 187.208 346.602 187.221 346.513L187.335 345.24C187.348 345.126 187.367 345.056 187.392 345.031C187.417 345.006 187.5 345.012 187.639 345.05C188.082 345.177 188.519 345.272 188.95 345.335C189.393 345.386 189.792 345.411 190.147 345.411C190.704 345.411 191.116 345.316 191.382 345.126C191.661 344.923 191.8 344.651 191.8 344.309C191.8 344.132 191.73 343.948 191.591 343.758C191.452 343.555 191.217 343.353 190.888 343.15C190.546 342.947 190.191 342.745 189.824 342.542C189.457 342.327 189.096 342.124 188.741 341.934C188.336 341.706 187.994 341.389 187.715 340.984C187.449 340.579 187.316 340.186 187.316 339.806C187.316 339.337 187.411 338.919 187.601 338.552C187.791 338.172 188.044 337.855 188.361 337.602C188.678 337.349 189.039 337.165 189.444 337.051C189.862 336.937 190.299 336.88 190.755 336.88C190.996 336.88 191.243 336.893 191.496 336.918C191.762 336.943 192.015 336.981 192.256 337.032C192.509 337.07 192.731 337.121 192.921 337.184C193.124 337.235 193.276 337.292 193.377 337.355C193.44 337.38 193.472 337.412 193.472 337.45C193.485 337.475 193.485 337.52 193.472 337.583L193.358 338.837C193.345 338.964 193.307 339.046 193.244 339.084C193.181 339.109 193.092 339.097 192.978 339.046C192.737 338.957 192.465 338.875 192.161 338.799C191.92 338.748 191.686 338.717 191.458 338.704C191.243 338.679 191.046 338.666 190.869 338.666C190.35 338.666 189.982 338.761 189.767 338.951C189.552 339.141 189.444 339.35 189.444 339.578C189.444 339.793 189.564 340.015 189.805 340.243C190.046 340.458 190.35 340.661 190.717 340.851C191.122 341.054 191.49 341.256 191.819 341.459C192.148 341.649 192.395 341.807 192.56 341.934C193.016 342.251 193.358 342.599 193.586 342.979C193.814 343.346 193.928 343.733 193.928 344.138C193.928 345.126 193.504 345.93 192.655 346.551ZM203.01 346.551C202.364 346.994 201.553 347.222 200.578 347.235C200.325 347.235 200.059 347.222 199.78 347.197C199.514 347.172 199.261 347.14 199.02 347.102C198.792 347.077 198.558 347.032 198.317 346.969C198.089 346.918 197.918 346.868 197.804 346.817C197.753 346.804 197.696 346.773 197.633 346.722C197.582 346.671 197.563 346.602 197.576 346.513L197.69 345.24C197.703 345.126 197.722 345.056 197.747 345.031C197.772 345.006 197.855 345.012 197.994 345.05C198.437 345.177 198.874 345.272 199.305 345.335C199.748 345.386 200.147 345.411 200.502 345.411C201.059 345.411 201.471 345.316 201.737 345.126C202.016 344.923 202.155 344.651 202.155 344.309C202.155 344.132 202.085 343.948 201.946 343.758C201.807 343.555 201.572 343.353 201.243 343.15C200.901 342.947 200.546 342.745 200.179 342.542C199.812 342.327 199.451 342.124 199.096 341.934C198.691 341.706 198.349 341.389 198.07 340.984C197.804 340.579 197.671 340.186 197.671 339.806C197.671 339.337 197.766 338.919 197.956 338.552C198.146 338.172 198.399 337.855 198.716 337.602C199.033 337.349 199.394 337.165 199.799 337.051C200.217 336.937 200.654 336.88 201.11 336.88C201.351 336.88 201.598 336.893 201.851 336.918C202.117 336.943 202.37 336.981 202.611 337.032C202.864 337.07 203.086 337.121 203.276 337.184C203.479 337.235 203.631 337.292 203.732 337.355C203.795 337.38 203.827 337.412 203.827 337.45C203.84 337.475 203.84 337.52 203.827 337.583L203.713 338.837C203.7 338.964 203.662 339.046 203.599 339.084C203.536 339.109 203.447 339.097 203.333 339.046C203.092 338.957 202.82 338.875 202.516 338.799C202.275 338.748 202.041 338.717 201.813 338.704C201.598 338.679 201.401 338.666 201.224 338.666C200.705 338.666 200.337 338.761 200.122 338.951C199.907 339.141 199.799 339.35 199.799 339.578C199.799 339.793 199.919 340.015 200.16 340.243C200.401 340.458 200.705 340.661 201.072 340.851C201.477 341.054 201.845 341.256 202.174 341.459C202.503 341.649 202.75 341.807 202.915 341.934C203.371 342.251 203.713 342.599 203.941 342.979C204.169 343.346 204.283 343.733 204.283 344.138C204.283 345.126 203.859 345.93 203.01 346.551Z" fill="#0066FF"/>
<defs>
<filter id="filter0_d_554_254" x="0" y="0" width="313" height="420" filterUnits="userSpaceOnUse" color-interpolation-filters="sRGB">
<feFlood flood-opacity="0" result="BackgroundImageFix"/>
<feColorMatrix in="SourceAlpha" type="matrix" values="0 0 0 0 0 0 0 0 0 0 0 0 0 0 0 0 0 0 127 0" result="hardAlpha"/>
<feOffset dy="4"/>
<feGaussianBlur stdDeviation="2"/>
<feComposite in2="hardAlpha" operator="out"/>
<feColorMatrix type="matrix" values="0 0 0 0 0 0 0 0 0 0 0 0 0 0 0 0 0 0 0.15 0"/>
<feBlend mode="normal" in2="BackgroundImageFix" result="effect1_dropShadow_554_254"/>
<feBlend mode="normal" in="SourceGraphic" in2="effect1_dropShadow_554_254" result="shape"/>
</filter>
</defs>
</svg>
