<svg width="313" height="420" viewBox="0 0 313 420" fill="none" xmlns="http://www.w3.org/2000/svg">
<g filter="url(#filter0_d_260_11726)">
<rect x="4" width="305" height="412" rx="20" fill="#F2EADF"/>
</g>
<mask id="mask0_260_11726" style="mask-type:alpha" maskUnits="userSpaceOnUse" x="4" y="0" width="305" height="412">
<rect x="4" width="305" height="412" rx="20" fill="#7FB2FF"/>
</mask>
<g mask="url(#mask0_260_11726)">
<path d="M157.5 -56L168.299 106.201L213.715 -49.8863L189.393 110.844L267.301 -31.831L208.996 119.914L315.753 -2.67833L226.19 132.985L356.805 36.2085L240.173 149.446L388.538 83.0112L250.29 168.529L409.468 135.541L256.068 189.341L418.616 191.343L257.238 210.908L415.555 247.806L253.743 232.222L400.427 302.291L245.749 252.287L373.941 352.25L233.628 270.164L337.333 395.348L217.947 285.017L292.317 429.568L199.44 296.152L240.997 453.311L178.972 303.049L185.773 465.467L157.5 305.384L129.227 465.467L136.028 303.049L74.0027 453.311L115.56 296.152L22.6827 429.568L97.0527 285.017L-22.3334 395.348L81.3721 270.164L-58.9407 352.25L69.2512 252.287L-85.4274 302.291L61.2567 232.222L-100.555 247.806L57.7624 210.908L-103.616 191.343L58.9317 189.341L-94.4683 135.541L64.71 168.529L-73.5384 83.0112L74.827 149.446L-41.8054 36.2085L88.8098 132.985L-0.753052 -2.67833L106.004 119.914L47.699 -31.831L125.607 110.844L101.285 -49.8863L146.701 106.201L157.5 -56Z" fill="#F0FF44" fill-opacity="0.75" style="mix-blend-mode:color"/>
</g>
<rect x="24" y="20" width="265" height="372" rx="19" stroke="#0066FF" stroke-opacity="0.8" stroke-width="2"/>
<path d="M9.86483 19.3334L23.627 22.4558L24.2373 8.73026L28.621 21.893L41.0919 15.8142L31.7135 25.8545L43.5741 33.5012L29.8119 30.3788L29.2017 44.1044L24.8179 30.9417L12.347 37.0205L21.7254 26.9801L9.86483 19.3334Z" fill="#0066FF" fill-opacity="0.9"/>
<path d="M23.4057 23.431L24.5729 23.6958L24.626 22.5002L24.9962 14.1739L27.6723 22.209L28.033 23.2921L29.0592 22.7919L36.672 19.0811L30.9827 25.1719L30.1658 26.0465L31.1716 26.695L38.2724 31.273L30.0332 29.4036L28.8661 29.1388L28.8129 30.3344L28.4427 38.6608L25.7667 30.6257L25.4059 29.5426L24.3797 30.0428L16.767 33.7535L22.4562 27.6627L23.2732 26.7882L22.2673 26.1397L15.1665 21.5617L23.4057 23.431Z" stroke="#0066FF" stroke-opacity="0.8" stroke-width="2"/>
<path d="M9.86483 379.333L23.627 382.456L24.2373 368.73L28.621 381.893L41.0919 375.814L31.7135 385.855L43.5741 393.501L29.8119 390.379L29.2017 404.104L24.8179 390.942L12.347 397.02L21.7254 386.98L9.86483 379.333Z" fill="#0066FF" fill-opacity="0.9"/>
<path d="M23.4057 383.431L24.5729 383.696L24.626 382.5L24.9962 374.174L27.6723 382.209L28.033 383.292L29.0592 382.792L36.672 379.081L30.9827 385.172L30.1658 386.046L31.1716 386.695L38.2724 391.273L30.0332 389.404L28.8661 389.139L28.8129 390.334L28.4427 398.661L25.7667 390.626L25.4059 389.543L24.3797 390.043L16.767 393.754L22.4562 387.663L23.2732 386.788L22.2673 386.14L15.1665 381.562L23.4057 383.431Z" stroke="#0066FF" stroke-opacity="0.8" stroke-width="2"/>
<path d="M267.865 19.3334L281.627 22.4558L282.237 8.73026L286.621 21.893L299.092 15.8142L289.713 25.8545L301.574 33.5012L287.812 30.3788L287.202 44.1044L282.818 30.9417L270.347 37.0205L279.725 26.9801L267.865 19.3334Z" fill="#0066FF" fill-opacity="0.9"/>
<path d="M281.406 23.431L282.573 23.6958L282.626 22.5002L282.996 14.1739L285.672 22.209L286.033 23.2921L287.059 22.7919L294.672 19.0811L288.983 25.1719L288.166 26.0465L289.172 26.695L296.272 31.273L288.033 29.4036L286.866 29.1388L286.813 30.3344L286.443 38.6608L283.767 30.6257L283.406 29.5426L282.38 30.0428L274.767 33.7535L280.456 27.6627L281.273 26.7882L280.267 26.1397L273.167 21.5617L281.406 23.431Z" stroke="#0066FF" stroke-opacity="0.8" stroke-width="2"/>
<path d="M267.865 379.333L281.627 382.456L282.237 368.73L286.621 381.893L299.092 375.814L289.713 385.855L301.574 393.501L287.812 390.379L287.202 404.104L282.818 390.942L270.347 397.02L279.725 386.98L267.865 379.333Z" fill="#0066FF" fill-opacity="0.9"/>
<path d="M281.406 383.431L282.573 383.696L282.626 382.5L282.996 374.174L285.672 382.209L286.033 383.292L287.059 382.792L294.672 379.081L288.983 385.172L288.166 386.046L289.172 386.695L296.272 391.273L288.033 389.404L286.866 389.139L286.813 390.334L286.443 398.661L283.767 390.626L283.406 389.543L282.38 390.043L274.767 393.754L280.456 387.663L281.273 386.788L280.267 386.14L273.167 381.562L281.406 383.431Z" stroke="#0066FF" stroke-opacity="0.8" stroke-width="2"/>
<path d="M150.656 204.911L151.57 205.684L150.646 206.446L140.027 215.203L153.254 210.766L154.337 210.403L154.554 211.523L157.211 225.22L159.598 211.664L159.806 210.485L160.929 210.899L174.09 215.748L163.385 206.685L162.472 205.912L163.395 205.151L174.014 196.393L160.787 200.831L159.705 201.194L159.487 200.073L156.83 186.377L154.443 199.932L154.236 201.111L153.113 200.697L139.952 195.848L150.656 204.911Z" stroke="#0066FF" stroke-width="2"/>
<path d="M118.432 261.346V261.754C118.432 261.879 118.421 261.947 118.398 261.958C118.387 261.981 118.319 261.992 118.194 261.992H110.306C110.181 261.992 110.108 261.981 110.085 261.958C110.074 261.947 110.068 261.879 110.068 261.754V261.346C110.068 261.221 110.074 261.148 110.085 261.125C110.108 261.114 110.181 261.108 110.306 261.108H118.194C118.319 261.108 118.387 261.114 118.398 261.125C118.421 261.148 118.432 261.221 118.432 261.346ZM126.422 247.253C126.547 247.31 126.603 247.389 126.592 247.491L126.49 248.086C126.479 248.154 126.45 248.199 126.405 248.222C126.36 248.233 126.314 248.228 126.269 248.205C126.088 248.126 125.889 248.063 125.674 248.018C125.47 247.973 125.26 247.95 125.045 247.95C124.376 247.95 123.946 248.284 123.753 248.953C123.674 249.225 123.634 249.82 123.634 250.738V251.605H126.609C126.768 251.605 126.847 251.684 126.847 251.843V252.353C126.847 252.512 126.768 252.591 126.609 252.591H123.634V259.493C123.634 259.652 123.555 259.731 123.396 259.731H122.733C122.574 259.731 122.495 259.652 122.495 259.493V252.591H120.438C120.279 252.591 120.2 252.512 120.2 252.353V251.843C120.2 251.684 120.279 251.605 120.438 251.605H122.495V250.857C122.495 249.622 122.608 248.732 122.835 248.188C123.186 247.372 123.889 246.964 124.943 246.964C125.476 246.964 125.969 247.06 126.422 247.253ZM133.698 258.677C133.857 258.677 133.936 258.756 133.936 258.915V259.493C133.936 259.652 133.857 259.731 133.698 259.731H129.873C129.714 259.731 129.635 259.652 129.635 259.493V258.915C129.635 258.756 129.714 258.677 129.873 258.677H130.876V252.268H129.567C129.408 252.268 129.329 252.189 129.329 252.03V251.452C129.329 251.293 129.408 251.214 129.567 251.214H131.624C131.783 251.214 131.862 251.293 131.862 251.452V253.118C132.553 251.69 133.551 250.976 134.854 250.976C135.523 250.976 136.123 251.106 136.656 251.367C136.769 251.412 136.832 251.469 136.843 251.537C136.854 251.605 136.843 251.679 136.809 251.758L136.605 252.37C136.571 252.449 136.526 252.489 136.469 252.489C136.424 252.478 136.361 252.449 136.282 252.404C135.783 252.166 135.251 252.047 134.684 252.047C133.755 252.092 133.018 252.597 132.474 253.56C132.168 254.149 132.015 254.92 132.015 255.872V258.677H133.698ZM144.408 255.464C144.408 255.022 144.357 254.586 144.255 254.155C144.153 253.724 143.994 253.333 143.779 252.982C143.348 252.302 142.765 251.962 142.028 251.962C141.257 251.962 140.674 252.302 140.277 252.982C140.062 253.333 139.903 253.724 139.801 254.155C139.71 254.586 139.665 255.022 139.665 255.464C139.665 255.951 139.71 256.41 139.801 256.841C139.892 257.272 140.05 257.64 140.277 257.946C140.776 258.637 141.359 258.983 142.028 258.983C142.81 258.983 143.394 258.637 143.779 257.946C144.006 257.64 144.164 257.272 144.255 256.841C144.357 256.41 144.408 255.951 144.408 255.464ZM145.581 255.464C145.581 256.087 145.507 256.677 145.36 257.232C145.224 257.776 145.009 258.235 144.714 258.609C144.374 259.051 143.983 259.391 143.541 259.629C143.099 259.878 142.595 260.003 142.028 260.003C141.461 260.003 140.957 259.878 140.515 259.629C140.073 259.391 139.682 259.051 139.342 258.609C139.07 258.201 138.86 257.731 138.713 257.198C138.577 256.665 138.509 256.087 138.509 255.464C138.509 254.183 138.787 253.135 139.342 252.319C139.988 251.401 140.883 250.942 142.028 250.942C142.606 250.942 143.11 251.055 143.541 251.282C143.983 251.497 144.374 251.843 144.714 252.319C145.292 253.146 145.581 254.195 145.581 255.464ZM154.489 259.493C154.489 259.652 154.41 259.731 154.251 259.731H153.571C153.412 259.731 153.333 259.652 153.333 259.493V254.818C153.333 253.775 153.191 253.039 152.908 252.608C152.625 252.166 152.143 251.945 151.463 251.945C150.862 251.945 150.358 252.189 149.95 252.676C149.542 253.152 149.338 253.877 149.338 254.852V259.493C149.338 259.652 149.259 259.731 149.1 259.731H148.42C148.261 259.731 148.182 259.652 148.182 259.493V253.373C148.182 252.886 148.176 252.506 148.165 252.234C148.165 251.962 148.154 251.701 148.131 251.452C148.12 251.373 148.137 251.316 148.182 251.282C148.239 251.237 148.301 251.214 148.369 251.214H148.981C149.14 251.214 149.219 251.293 149.219 251.452V252.404C149.491 251.917 149.82 251.56 150.205 251.333C150.602 251.095 151.055 250.976 151.565 250.976C152.562 250.976 153.299 251.288 153.775 251.911C154.251 252.534 154.489 253.413 154.489 254.546V259.493ZM163.584 259.714C163.108 259.907 162.553 260.003 161.918 260.003C160.887 260.003 160.224 259.703 159.929 259.102C159.736 258.694 159.64 257.974 159.64 256.943V252.591H157.43C157.271 252.591 157.192 252.512 157.192 252.353V251.843C157.192 251.684 157.271 251.605 157.43 251.605H159.64V249.208C159.64 249.038 159.714 248.953 159.861 248.953H160.575C160.722 248.953 160.796 249.038 160.796 249.208V251.605H163.533C163.692 251.605 163.771 251.684 163.771 251.843V252.353C163.771 252.512 163.692 252.591 163.533 252.591H160.796V257.708C160.796 258.558 161.261 258.983 162.19 258.983C162.655 258.983 163.097 258.887 163.516 258.694C163.573 258.671 163.624 258.671 163.669 258.694C163.726 258.717 163.754 258.762 163.754 258.83L163.788 259.374C163.811 259.533 163.743 259.646 163.584 259.714ZM172.118 254.92C172.118 254.569 172.073 254.212 171.982 253.849C171.903 253.486 171.778 253.169 171.608 252.897C171.211 252.24 170.645 251.911 169.908 251.911C169.171 251.911 168.593 252.245 168.174 252.914C167.981 253.243 167.834 253.583 167.732 253.934C167.63 254.285 167.573 254.614 167.562 254.92H172.118ZM167.545 255.889C167.534 256.252 167.596 256.648 167.732 257.079C167.879 257.498 168.078 257.844 168.327 258.116C168.576 258.377 168.86 258.586 169.177 258.745C169.494 258.904 169.88 258.983 170.333 258.983C170.73 258.983 171.098 258.943 171.438 258.864C171.778 258.785 172.118 258.654 172.458 258.473C172.594 258.416 172.668 258.456 172.679 258.592V259.374C172.679 259.465 172.617 259.538 172.492 259.595C172.141 259.731 171.795 259.833 171.455 259.901C171.126 259.969 170.724 260.003 170.248 260.003C169.035 260.003 168.072 259.601 167.358 258.796C166.644 257.98 166.287 256.886 166.287 255.515C166.287 254.268 166.638 253.18 167.341 252.251C168.078 251.378 168.939 250.942 169.925 250.942C170.537 250.942 171.041 251.05 171.438 251.265C171.846 251.48 172.209 251.809 172.526 252.251C173.093 253.01 173.376 254.042 173.376 255.345C173.376 255.481 173.37 255.589 173.359 255.668C173.359 255.736 173.342 255.787 173.308 255.821C173.274 255.855 173.212 255.878 173.121 255.889C173.042 255.889 172.923 255.889 172.764 255.889H167.545ZM182.284 259.493C182.284 259.652 182.205 259.731 182.046 259.731H181.366C181.207 259.731 181.128 259.652 181.128 259.493V254.818C181.128 253.775 180.986 253.039 180.703 252.608C180.42 252.166 179.938 251.945 179.258 251.945C178.657 251.945 178.153 252.189 177.745 252.676C177.337 253.152 177.133 253.877 177.133 254.852V259.493C177.133 259.652 177.054 259.731 176.895 259.731H176.215C176.056 259.731 175.977 259.652 175.977 259.493V253.373C175.977 252.886 175.971 252.506 175.96 252.234C175.96 251.962 175.949 251.701 175.926 251.452C175.915 251.373 175.932 251.316 175.977 251.282C176.034 251.237 176.096 251.214 176.164 251.214H176.776C176.935 251.214 177.014 251.293 177.014 251.452V252.404C177.286 251.917 177.615 251.56 178 251.333C178.397 251.095 178.85 250.976 179.36 250.976C180.357 250.976 181.094 251.288 181.57 251.911C182.046 252.534 182.284 253.413 182.284 254.546V259.493ZM191.6 259.51C191.6 259.657 191.521 259.731 191.362 259.731H190.699C190.54 259.731 190.461 259.657 190.461 259.51V258.269C189.996 259.357 189.203 259.901 188.081 259.901C187.56 259.901 187.084 259.776 186.653 259.527C186.234 259.278 185.871 258.921 185.565 258.456C185.259 257.98 185.038 257.47 184.902 256.926C184.777 256.382 184.715 255.81 184.715 255.209C184.715 254.144 185.01 253.169 185.599 252.285C186.188 251.39 187.016 250.942 188.081 250.942C188.648 250.942 189.129 251.084 189.526 251.367C189.934 251.65 190.246 252.013 190.461 252.455V247.389C190.461 247.242 190.54 247.168 190.699 247.168H191.362C191.521 247.168 191.6 247.242 191.6 247.389V259.51ZM185.922 255.396C185.911 255.747 185.945 256.133 186.024 256.552C186.103 256.96 186.234 257.351 186.415 257.725C186.608 258.088 186.846 258.377 187.129 258.592C187.412 258.807 187.764 258.915 188.183 258.915C188.602 258.915 188.954 258.807 189.237 258.592C189.52 258.377 189.753 258.088 189.934 257.725C190.127 257.351 190.257 256.96 190.325 256.552C190.393 256.133 190.427 255.747 190.427 255.396C190.427 255.067 190.393 254.693 190.325 254.274C190.257 253.843 190.127 253.447 189.934 253.084C189.753 252.721 189.52 252.432 189.237 252.217C188.954 252.002 188.602 251.894 188.183 251.894C187.764 251.894 187.412 252.002 187.129 252.217C186.846 252.432 186.608 252.721 186.415 253.084C186.222 253.447 186.086 253.843 186.007 254.274C185.939 254.693 185.911 255.067 185.922 255.396ZM201.817 261.346V261.754C201.817 261.879 201.806 261.947 201.783 261.958C201.772 261.981 201.704 261.992 201.579 261.992H193.691C193.566 261.992 193.493 261.981 193.47 261.958C193.459 261.947 193.453 261.879 193.453 261.754V261.346C193.453 261.221 193.459 261.148 193.47 261.125C193.493 261.114 193.566 261.108 193.691 261.108H201.579C201.704 261.108 201.772 261.114 201.783 261.125C201.806 261.148 201.817 261.221 201.817 261.346Z" fill="#0066FF"/>
<path d="M210 269V212C210 182.729 186.271 159 157 159V159C127.729 159 104 182.729 104 212V269" stroke="#0066FF"/>
<path d="M78.5 207C78.5 163.646 113.646 128.5 157 128.5C200.354 128.5 235.5 163.646 235.5 207V268.5H78.5V207Z" stroke="#0066FF"/>
<path d="M214.694 200.86L221.788 201.791L222.019 201.821L222.154 202.012L226.267 207.846L226.938 200.959L226.96 200.734L227.15 200.611L232.972 196.839L225.878 195.908L225.646 195.877L225.512 195.687L221.399 189.852L220.727 196.739L220.705 196.964L220.515 197.088L214.694 200.86Z" fill="#EAF65F" stroke="#0066FF"/>
<path d="M83.2039 174.332L83.3495 174.674L83.0766 174.926L78.5316 179.129L84.037 176.493L84.3676 176.335L84.6036 176.615L88.5407 181.294L86.1124 175.589L85.9668 175.246L86.2398 174.994L90.7847 170.791L85.2794 173.427L84.9488 173.585L84.7127 173.305L80.7756 168.626L83.2039 174.332Z" fill="#EAF65F" stroke="#0066FF"/>
<path d="M74.3815 270.545L75.207 270.529L74.8754 271.256L73.0138 275.337L76.3999 272.354L76.998 271.827L77.2315 272.607L78.5503 277.013L79.0874 272.523L79.1823 271.73L79.8676 272.2L83.7529 274.863L81.1888 270.975L80.7332 270.284L81.5527 270.226L86.1786 269.9L81.7204 268.43L80.9264 268.169L81.4975 267.606L84.7043 264.45L80.4316 266.082L79.6747 266.371L79.7263 265.569L80.0166 261.053L77.9277 265.03L77.5593 265.731L77.0701 265.067L74.3002 261.304L75.3799 265.763L75.5712 266.553L74.7712 266.334L70.2419 265.092L73.9785 267.941L74.644 268.448L73.9034 268.778L69.7372 270.63L74.3815 270.545Z" fill="#EAF65F" stroke="#0066FF"/>
<path d="M229.52 188.852L232.01 189.51L232.161 189.55L232.267 189.665L234.009 191.563L234.586 189.155L234.622 189.009L234.735 188.91L236.61 187.292L234.119 186.634L233.968 186.594L233.862 186.478L232.12 184.581L231.543 186.989L231.508 187.135L231.394 187.233L229.52 188.852Z" fill="#EAF65F" stroke="#0066FF"/>
<path d="M120.06 162.911L120.345 163.203C120.432 163.292 120.472 163.349 120.464 163.373C120.471 163.397 120.431 163.452 120.342 163.539L114.703 169.056C114.614 169.143 114.554 169.187 114.522 169.186C114.506 169.186 114.454 169.141 114.367 169.052L114.082 168.761C113.994 168.672 113.947 168.615 113.939 168.591C113.947 168.567 113.996 168.511 114.085 168.424L119.723 162.908C119.812 162.82 119.865 162.777 119.881 162.777C119.913 162.777 119.973 162.822 120.06 162.911Z" fill="#0066FF"/>
<path d="M118.956 146.402C119.091 146.378 119.183 146.411 119.231 146.501L119.487 147.048C119.517 147.11 119.519 147.163 119.495 147.208C119.464 147.243 119.424 147.264 119.373 147.271C119.179 147.31 118.981 147.372 118.778 147.457C118.585 147.536 118.399 147.637 118.223 147.76C117.673 148.142 117.51 148.662 117.733 149.321C117.823 149.59 118.13 150.101 118.654 150.855L119.148 151.567L121.592 149.87C121.722 149.78 121.833 149.8 121.923 149.93L122.214 150.349C122.305 150.479 122.285 150.59 122.154 150.68L119.711 152.377L123.647 158.046C123.738 158.177 123.718 158.287 123.588 158.377L123.043 158.756C122.913 158.846 122.802 158.826 122.712 158.696L118.775 153.027L117.086 154.2C116.955 154.29 116.845 154.27 116.754 154.14L116.463 153.721C116.373 153.591 116.393 153.481 116.523 153.39L118.213 152.217L117.786 151.602C117.082 150.588 116.667 149.792 116.543 149.216C116.366 148.346 116.711 147.61 117.576 147.008C118.014 146.705 118.474 146.503 118.956 146.402Z" fill="#0066FF"/>
<path d="M132.512 152.107C132.656 152.039 132.761 152.077 132.829 152.221L133.076 152.743C133.144 152.887 133.106 152.992 132.962 153.06L129.504 154.693C129.36 154.761 129.254 154.723 129.187 154.58L128.94 154.057C128.872 153.914 128.91 153.808 129.054 153.74L129.961 153.312L127.224 147.517L126.04 148.075C125.897 148.143 125.791 148.105 125.724 147.962L125.477 147.439C125.409 147.296 125.447 147.19 125.59 147.122L127.451 146.244C127.594 146.176 127.7 146.214 127.767 146.358L128.479 147.864C128.494 146.278 129.091 145.206 130.27 144.65C130.874 144.364 131.473 144.226 132.066 144.234C132.188 144.227 132.269 144.251 132.308 144.308C132.347 144.365 132.368 144.436 132.371 144.522L132.448 145.163C132.451 145.249 132.427 145.304 132.376 145.328C132.33 145.338 132.262 145.339 132.171 145.331C131.618 145.329 131.086 145.449 130.573 145.691C129.752 146.129 129.301 146.899 129.221 148.003C129.196 148.666 129.386 149.428 129.793 150.289L130.99 152.826L132.512 152.107Z" fill="#0066FF"/>
<path d="M142.621 145.242C142.502 144.817 142.336 144.41 142.121 144.023C141.907 143.635 141.649 143.301 141.348 143.021C140.75 142.482 140.096 142.311 139.387 142.509C138.645 142.716 138.174 143.201 137.975 143.963C137.862 144.359 137.814 144.778 137.831 145.22C137.86 145.659 137.934 146.092 138.052 146.518C138.183 146.987 138.351 147.417 138.554 147.807C138.757 148.198 139.009 148.51 139.309 148.744C139.975 149.276 140.631 149.452 141.275 149.272C142.028 149.061 142.497 148.572 142.682 147.802C142.818 147.446 142.872 147.049 142.844 146.61C142.826 146.168 142.752 145.712 142.621 145.242ZM143.751 144.927C143.918 145.527 144.006 146.115 144.013 146.689C144.028 147.25 143.944 147.75 143.761 148.189C143.552 148.706 143.267 149.139 142.906 149.487C142.547 149.846 142.095 150.102 141.549 150.254C141.003 150.407 140.484 150.422 139.991 150.301C139.501 150.19 139.033 149.968 138.587 149.634C138.215 149.314 137.887 148.917 137.602 148.444C137.328 147.967 137.107 147.429 136.939 146.828C136.595 145.595 136.58 144.511 136.896 143.575C137.271 142.517 138.01 141.835 139.113 141.527C139.669 141.371 140.186 141.345 140.661 141.448C141.145 141.536 141.614 141.764 142.07 142.131C142.849 142.772 143.409 143.704 143.751 144.927Z" fill="#0066FF"/>
<path d="M154.419 147.589C154.436 147.746 154.365 147.834 154.207 147.85L153.531 147.921C153.373 147.937 153.286 147.867 153.27 147.709L152.784 143.059C152.675 142.022 152.458 141.304 152.131 140.905C151.804 140.495 151.302 140.325 150.625 140.396C150.028 140.458 149.552 140.753 149.197 141.28C148.84 141.796 148.713 142.539 148.814 143.508L149.296 148.124C149.313 148.282 149.242 148.369 149.084 148.385L148.408 148.456C148.25 148.472 148.163 148.402 148.146 148.244L147.511 142.157C147.46 141.672 147.415 141.295 147.375 141.026C147.347 140.755 147.309 140.497 147.26 140.252C147.241 140.174 147.252 140.116 147.293 140.077C147.345 140.026 147.405 139.997 147.472 139.99L148.081 139.927C148.239 139.91 148.326 139.981 148.342 140.139L148.441 141.086C148.661 140.573 148.951 140.183 149.311 139.918C149.68 139.64 150.119 139.475 150.626 139.422C151.618 139.318 152.383 139.551 152.921 140.122C153.46 140.692 153.788 141.541 153.905 142.668L154.419 147.589Z" fill="#0066FF"/>
<path d="M164.076 148.139C163.589 148.301 163.029 148.363 162.395 148.324C161.366 148.261 160.723 147.92 160.466 147.302C160.299 146.883 160.247 146.159 160.311 145.13L160.579 140.786L158.373 140.649C158.215 140.64 158.141 140.556 158.15 140.397L158.182 139.888C158.192 139.73 158.276 139.656 158.434 139.665L160.64 139.802L160.788 137.409C160.798 137.24 160.877 137.159 161.024 137.168L161.737 137.212C161.884 137.222 161.952 137.311 161.942 137.481L161.794 139.873L164.525 140.042C164.684 140.052 164.758 140.136 164.748 140.294L164.717 140.803C164.707 140.961 164.623 141.036 164.465 141.026L161.733 140.857L161.417 145.964C161.365 146.813 161.802 147.266 162.73 147.323C163.194 147.352 163.641 147.283 164.071 147.116C164.129 147.097 164.18 147.1 164.224 147.126C164.279 147.152 164.304 147.199 164.3 147.267L164.301 147.812C164.313 147.972 164.239 148.08 164.076 148.139Z" fill="#0066FF"/>
<path d="M174.381 145.292C174.461 144.95 174.499 144.592 174.493 144.218C174.499 143.847 174.45 143.51 174.347 143.206C174.11 142.476 173.634 142.026 172.917 141.858C172.199 141.69 171.56 141.883 170.999 142.438C170.737 142.714 170.516 143.012 170.336 143.33C170.157 143.649 170.026 143.956 169.945 144.252L174.381 145.292ZM169.708 145.191C169.614 145.542 169.584 145.942 169.618 146.392C169.665 146.834 169.78 147.216 169.96 147.538C170.143 147.849 170.371 148.117 170.644 148.344C170.917 148.571 171.274 148.737 171.715 148.84C172.101 148.931 172.469 148.976 172.818 148.977C173.167 148.977 173.528 148.928 173.9 148.829C174.046 148.805 174.108 148.86 174.088 148.995L173.91 149.757C173.889 149.845 173.812 149.902 173.677 149.929C173.304 149.981 172.944 150.002 172.598 149.99C172.262 149.981 171.863 149.922 171.399 149.814C170.219 149.537 169.373 148.925 168.862 147.979C168.353 147.021 168.255 145.875 168.568 144.54C168.853 143.326 169.443 142.347 170.34 141.603C171.256 140.921 172.195 140.693 173.155 140.918C173.75 141.058 174.217 141.278 174.554 141.579C174.902 141.881 175.18 142.284 175.388 142.787C175.766 143.656 175.806 144.724 175.509 145.993C175.478 146.126 175.447 146.229 175.418 146.304C175.403 146.37 175.375 146.416 175.334 146.441C175.293 146.467 175.227 146.474 175.136 146.465C175.059 146.447 174.943 146.419 174.789 146.383L169.708 145.191Z" fill="#0066FF"/>
<path d="M183.263 153.457C183.201 153.603 183.098 153.646 182.951 153.584L182.324 153.322C182.178 153.261 182.135 153.157 182.196 153.01L184.001 148.698C184.404 147.736 184.558 147.002 184.463 146.495C184.372 145.978 184.013 145.588 183.386 145.326C182.832 145.094 182.272 145.124 181.708 145.416C181.148 145.697 180.679 146.288 180.303 147.187L178.511 151.468C178.45 151.614 178.346 151.657 178.2 151.596L177.572 151.333C177.426 151.272 177.383 151.168 177.445 151.022L179.808 145.376C179.996 144.927 180.137 144.574 180.232 144.319C180.337 144.068 180.427 143.823 180.502 143.584C180.523 143.507 180.56 143.461 180.615 143.447C180.685 143.427 180.751 143.431 180.814 143.457L181.378 143.693C181.525 143.754 181.567 143.858 181.506 144.005L181.138 144.883C181.578 144.538 182.019 144.336 182.462 144.275C182.919 144.209 183.383 144.274 183.854 144.471C184.774 144.856 185.333 145.428 185.531 146.187C185.73 146.946 185.61 147.848 185.173 148.893L183.263 153.457Z" fill="#0066FF"/>
<path d="M192.128 158.754C192.049 158.878 191.943 158.897 191.809 158.812L191.25 158.456C191.116 158.371 191.088 158.266 191.168 158.142L191.834 157.095C190.858 157.764 189.896 157.797 188.95 157.194C188.51 156.915 188.175 156.554 187.946 156.112C187.726 155.677 187.611 155.181 187.603 154.625C187.6 154.059 187.687 153.51 187.865 152.978C188.051 152.452 188.306 151.936 188.628 151.429C189.2 150.53 189.972 149.866 190.944 149.436C191.922 148.997 192.86 149.064 193.759 149.636C194.237 149.94 194.567 150.318 194.75 150.77C194.942 151.228 195.01 151.701 194.955 152.19L197.674 147.916C197.753 147.791 197.86 147.772 197.994 147.857L198.553 148.213C198.687 148.298 198.714 148.403 198.635 148.527L192.128 158.754ZM189.546 152.235C189.348 152.525 189.17 152.868 189.012 153.265C188.86 153.651 188.76 154.051 188.712 154.464C188.68 154.874 188.726 155.245 188.849 155.579C188.973 155.913 189.211 156.192 189.565 156.417C189.919 156.642 190.273 156.74 190.628 156.711C190.982 156.681 191.333 156.562 191.681 156.353C192.044 156.141 192.364 155.881 192.641 155.574C192.923 155.256 193.159 154.949 193.347 154.653C193.524 154.376 193.696 154.042 193.864 153.652C194.037 153.252 194.14 152.847 194.172 152.438C194.214 152.034 194.173 151.666 194.05 151.332C193.926 150.998 193.688 150.719 193.334 150.494C192.98 150.269 192.626 150.171 192.271 150.2C191.917 150.23 191.561 150.346 191.203 150.549C190.846 150.751 190.519 151.013 190.22 151.334C189.938 151.651 189.713 151.951 189.546 152.235Z" fill="#0066FF"/>
<path d="M199.014 167.075L198.742 167.379C198.659 167.472 198.605 167.515 198.581 167.508C198.557 167.517 198.499 167.48 198.406 167.397L192.533 162.132C192.44 162.048 192.393 161.991 192.391 161.959C192.39 161.943 192.431 161.888 192.514 161.796L192.787 161.492C192.87 161.399 192.923 161.348 192.947 161.339C192.971 161.345 193.03 161.39 193.123 161.473L198.996 166.739C199.089 166.822 199.136 166.872 199.137 166.888C199.138 166.92 199.098 166.982 199.014 167.075Z" fill="#0066FF"/>
<defs>
<filter id="filter0_d_260_11726" x="0" y="0" width="313" height="420" filterUnits="userSpaceOnUse" color-interpolation-filters="sRGB">
<feFlood flood-opacity="0" result="BackgroundImageFix"/>
<feColorMatrix in="SourceAlpha" type="matrix" values="0 0 0 0 0 0 0 0 0 0 0 0 0 0 0 0 0 0 127 0" result="hardAlpha"/>
<feOffset dy="4"/>
<feGaussianBlur stdDeviation="2"/>
<feComposite in2="hardAlpha" operator="out"/>
<feColorMatrix type="matrix" values="0 0 0 0 0 0 0 0 0 0 0 0 0 0 0 0 0 0 0.15 0"/>
<feBlend mode="normal" in2="BackgroundImageFix" result="effect1_dropShadow_260_11726"/>
<feBlend mode="normal" in="SourceGraphic" in2="effect1_dropShadow_260_11726" result="shape"/>
</filter>
</defs>
</svg>
