<svg width="313" height="420" viewBox="0 0 313 420" fill="none" xmlns="http://www.w3.org/2000/svg">
<g filter="url(#filter0_d_260_3464)">
<rect x="4" width="305" height="412" rx="20" fill="#D0E6FF"/>
</g>
<mask id="mask0_260_3464" style="mask-type:alpha" maskUnits="userSpaceOnUse" x="4" y="0" width="305" height="412">
<rect x="4" width="305" height="412" rx="20" fill="#7FB2FF"/>
</mask>
<g mask="url(#mask0_260_3464)">
<path d="M157.5 -56L168.299 106.201L213.715 -49.8863L189.393 110.844L267.301 -31.831L208.996 119.914L315.753 -2.67833L226.19 132.985L356.805 36.2085L240.173 149.446L388.538 83.0112L250.29 168.529L409.468 135.541L256.068 189.341L418.616 191.343L257.238 210.908L415.555 247.806L253.743 232.222L400.427 302.291L245.749 252.287L373.941 352.25L233.628 270.164L337.333 395.348L217.947 285.017L292.317 429.568L199.44 296.152L240.997 453.311L178.972 303.049L185.773 465.467L157.5 305.384L129.227 465.467L136.028 303.049L74.0027 453.311L115.56 296.152L22.6827 429.568L97.0527 285.017L-22.3334 395.348L81.3721 270.164L-58.9407 352.25L69.2512 252.287L-85.4274 302.291L61.2567 232.222L-100.555 247.806L57.7624 210.908L-103.616 191.343L58.9317 189.341L-94.4683 135.541L64.71 168.529L-73.5384 83.0112L74.827 149.446L-41.8054 36.2085L88.8098 132.985L-0.753052 -2.67833L106.004 119.914L47.699 -31.831L125.607 110.844L101.285 -49.8863L146.701 106.201L157.5 -56Z" fill="#0066FF" fill-opacity="0.5"/>
</g>
<rect x="24" y="20" width="265" height="372" rx="19" stroke="#F0FF44" stroke-width="2"/>
<path d="M23.4057 23.431L24.5729 23.6958L24.626 22.5002L24.9962 14.1739L27.6723 22.209L28.033 23.2921L29.0592 22.7919L36.672 19.0811L30.9827 25.1719L30.1658 26.0465L31.1716 26.695L38.2724 31.273L30.0332 29.4036L28.8661 29.1388L28.8129 30.3344L28.4427 38.6608L25.7667 30.6257L25.4059 29.5426L24.3797 30.0428L16.767 33.7535L22.4562 27.6627L23.2732 26.7882L22.2673 26.1397L15.1665 21.5617L23.4057 23.431Z" fill="#F0FF44" stroke="#F0FF44" stroke-width="2"/>
<path d="M23.4057 383.431L24.5729 383.696L24.626 382.5L24.9962 374.174L27.6723 382.209L28.033 383.292L29.0592 382.792L36.672 379.081L30.9827 385.172L30.1658 386.046L31.1716 386.695L38.2724 391.273L30.0332 389.404L28.8661 389.139L28.8129 390.334L28.4427 398.661L25.7667 390.626L25.4059 389.543L24.3797 390.043L16.767 393.754L22.4562 387.663L23.2732 386.788L22.2673 386.14L15.1665 381.562L23.4057 383.431Z" fill="#F0FF44" stroke="#F0FF44" stroke-width="2"/>
<path d="M281.406 23.431L282.573 23.6958L282.626 22.5002L282.996 14.1739L285.672 22.209L286.033 23.2921L287.059 22.7919L294.672 19.0811L288.983 25.1719L288.166 26.0465L289.172 26.695L296.272 31.273L288.033 29.4036L286.866 29.1388L286.813 30.3344L286.443 38.6608L283.767 30.6257L283.406 29.5426L282.38 30.0428L274.767 33.7535L280.456 27.6627L281.273 26.7882L280.267 26.1397L273.167 21.5617L281.406 23.431Z" fill="#F0FF44" stroke="#F0FF44" stroke-width="2"/>
<path d="M281.406 383.431L282.573 383.696L282.626 382.5L282.996 374.174L285.672 382.209L286.033 383.292L287.059 382.792L294.672 379.081L288.983 385.172L288.166 386.046L289.172 386.695L296.272 391.273L288.033 389.404L286.866 389.139L286.813 390.334L286.443 398.661L283.767 390.626L283.406 389.543L282.38 390.043L274.767 393.754L280.456 387.663L281.273 386.788L280.267 386.14L273.167 381.562L281.406 383.431Z" fill="#F0FF44" stroke="#F0FF44" stroke-width="2"/>
<path d="M150.656 204.911L151.57 205.684L150.646 206.446L140.027 215.203L153.254 210.766L154.337 210.403L154.554 211.523L157.211 225.22L159.598 211.664L159.806 210.485L160.929 210.899L174.09 215.748L163.385 206.685L162.472 205.912L163.395 205.151L174.014 196.393L160.787 200.831L159.705 201.194L159.487 200.073L156.83 186.377L154.443 199.932L154.236 201.111L153.113 200.697L139.952 195.848L150.656 204.911Z" stroke="#F0FF44" stroke-width="2"/>
<path d="M121.416 259.898V260.402C121.416 260.556 121.402 260.64 121.374 260.654C121.36 260.682 121.276 260.696 121.122 260.696H111.378C111.224 260.696 111.133 260.682 111.105 260.654C111.091 260.64 111.084 260.556 111.084 260.402V259.898C111.084 259.744 111.091 259.653 111.105 259.625C111.133 259.611 111.224 259.604 111.378 259.604H121.122C121.276 259.604 121.36 259.611 121.374 259.625C121.402 259.653 121.416 259.744 121.416 259.898ZM131.685 257.63C131.685 257.812 131.587 257.903 131.391 257.903H130.572C130.376 257.903 130.278 257.812 130.278 257.63V256.097C129.704 257.441 128.724 258.113 127.338 258.113C126.694 258.113 126.106 257.959 125.574 257.651C125.056 257.343 124.608 256.902 124.23 256.328C123.852 255.74 123.579 255.11 123.411 254.438C123.257 253.766 123.18 253.059 123.18 252.317C123.18 251.001 123.544 249.797 124.272 248.705C125 247.599 126.022 247.046 127.338 247.046C128.038 247.046 128.633 247.221 129.123 247.571C129.627 247.921 130.012 248.369 130.278 248.915V242.657C130.278 242.475 130.376 242.384 130.572 242.384H131.391C131.587 242.384 131.685 242.475 131.685 242.657V257.63ZM124.671 252.548C124.657 252.982 124.699 253.458 124.797 253.976C124.895 254.48 125.056 254.963 125.28 255.425C125.518 255.873 125.812 256.23 126.162 256.496C126.512 256.762 126.946 256.895 127.464 256.895C127.982 256.895 128.416 256.762 128.766 256.496C129.116 256.23 129.403 255.873 129.627 255.425C129.865 254.963 130.026 254.48 130.11 253.976C130.194 253.458 130.236 252.982 130.236 252.548C130.236 252.142 130.194 251.68 130.11 251.162C130.026 250.63 129.865 250.14 129.627 249.692C129.403 249.244 129.116 248.887 128.766 248.621C128.416 248.355 127.982 248.222 127.464 248.222C126.946 248.222 126.512 248.355 126.162 248.621C125.812 248.887 125.518 249.244 125.28 249.692C125.042 250.14 124.874 250.63 124.776 251.162C124.692 251.68 124.657 252.142 124.671 252.548ZM141.954 251.96C141.954 251.526 141.898 251.085 141.786 250.637C141.688 250.189 141.534 249.797 141.324 249.461C140.834 248.649 140.134 248.243 139.224 248.243C138.314 248.243 137.6 248.656 137.082 249.482C136.844 249.888 136.662 250.308 136.536 250.742C136.41 251.176 136.34 251.582 136.326 251.96H141.954ZM136.305 253.157C136.291 253.605 136.368 254.095 136.536 254.627C136.718 255.145 136.963 255.572 137.271 255.908C137.579 256.23 137.929 256.489 138.321 256.685C138.713 256.881 139.189 256.979 139.749 256.979C140.239 256.979 140.694 256.93 141.114 256.832C141.534 256.734 141.954 256.573 142.374 256.349C142.542 256.279 142.633 256.328 142.647 256.496V257.462C142.647 257.574 142.57 257.665 142.416 257.735C141.982 257.903 141.555 258.029 141.135 258.113C140.729 258.197 140.232 258.239 139.644 258.239C138.146 258.239 136.956 257.742 136.074 256.748C135.192 255.74 134.751 254.389 134.751 252.695C134.751 251.155 135.185 249.811 136.053 248.663C136.963 247.585 138.027 247.046 139.245 247.046C140.001 247.046 140.624 247.179 141.114 247.445C141.618 247.711 142.066 248.117 142.458 248.663C143.158 249.601 143.508 250.875 143.508 252.485C143.508 252.653 143.501 252.786 143.487 252.884C143.487 252.968 143.466 253.031 143.424 253.073C143.382 253.115 143.305 253.143 143.193 253.157C143.095 253.157 142.948 253.157 142.752 253.157H136.305ZM147.246 256.517C148.142 256.867 149.066 257.042 150.018 257.042C150.816 257.042 151.488 256.846 152.034 256.454C152.594 256.048 152.874 255.642 152.874 255.236C152.874 254.858 152.72 254.529 152.412 254.249C152.104 253.969 151.726 253.717 151.278 253.493C150.802 253.241 150.333 253.003 149.871 252.779C149.423 252.541 148.968 252.303 148.506 252.065C147.974 251.799 147.582 251.477 147.33 251.099C147.092 250.707 146.973 250.329 146.973 249.965C146.973 249.517 147.071 249.118 147.267 248.768C147.463 248.418 147.729 248.11 148.065 247.844C148.401 247.578 148.807 247.382 149.283 247.256C149.773 247.116 150.291 247.046 150.837 247.046C151.341 247.046 151.803 247.074 152.223 247.13C152.643 247.186 153.077 247.284 153.525 247.424C153.623 247.452 153.7 247.494 153.756 247.55C153.826 247.606 153.854 247.676 153.84 247.76L153.777 248.432C153.763 248.544 153.714 248.614 153.63 248.642C153.56 248.67 153.49 248.67 153.42 248.642C153.014 248.488 152.622 248.383 152.244 248.327C151.866 248.271 151.446 248.243 150.984 248.243C149.29 248.243 148.443 248.817 148.443 249.965C148.443 250.175 148.555 250.399 148.779 250.637C149.003 250.861 149.388 251.092 149.934 251.33C150.466 251.582 150.942 251.813 151.362 252.023C151.796 252.219 152.272 252.457 152.79 252.737C153.406 253.101 153.826 253.479 154.05 253.871C154.288 254.263 154.407 254.711 154.407 255.215C154.407 255.621 154.288 256.034 154.05 256.454C153.812 256.874 153.49 257.21 153.084 257.462C152.692 257.714 152.237 257.903 151.719 258.029C151.201 258.169 150.676 258.239 150.144 258.239C149.808 258.239 149.507 258.232 149.241 258.218C148.989 258.204 148.744 258.183 148.506 258.155C148.282 258.127 148.051 258.092 147.813 258.05C147.589 258.008 147.351 257.952 147.099 257.882C146.875 257.812 146.77 257.693 146.784 257.525L146.889 256.706C146.931 256.496 147.05 256.433 147.246 256.517ZM165.495 256.601C165.691 256.601 165.789 256.699 165.789 256.895V257.609C165.789 257.805 165.691 257.903 165.495 257.903H158.796C158.6 257.903 158.502 257.805 158.502 257.609V256.895C158.502 256.699 158.6 256.601 158.796 256.601H161.484V248.684H159.027C158.831 248.684 158.733 248.586 158.733 248.39V247.676C158.733 247.48 158.831 247.382 159.027 247.382H162.702C162.898 247.382 162.996 247.48 162.996 247.676V256.601H165.495ZM160.833 243.98C160.833 243.658 160.945 243.385 161.169 243.161C161.407 242.923 161.687 242.804 162.009 242.804C162.331 242.804 162.604 242.923 162.828 243.161C163.066 243.385 163.185 243.658 163.185 243.98C163.185 244.302 163.066 244.582 162.828 244.82C162.604 245.044 162.331 245.156 162.009 245.156C161.687 245.156 161.407 245.044 161.169 244.82C160.945 244.582 160.833 244.302 160.833 243.98ZM170.031 260.654C169.877 260.612 169.814 260.514 169.842 260.36L169.884 259.415C169.884 259.233 169.975 259.191 170.157 259.289C170.675 259.527 171.158 259.695 171.606 259.793C172.054 259.905 172.46 259.961 172.824 259.961C173.776 259.961 174.539 259.597 175.113 258.869C175.687 258.155 176.002 257.105 176.058 255.719C175.75 256.321 175.344 256.769 174.84 257.063C174.336 257.371 173.769 257.525 173.139 257.525C172.537 257.525 171.984 257.406 171.48 257.168C170.99 256.944 170.563 256.615 170.199 256.181C169.849 255.747 169.576 255.208 169.38 254.564C169.198 253.92 169.107 253.227 169.107 252.485C169.107 251.715 169.198 251.001 169.38 250.343C169.576 249.685 169.849 249.111 170.199 248.621C170.563 248.131 170.99 247.76 171.48 247.508C171.984 247.256 172.537 247.13 173.139 247.13C173.769 247.13 174.357 247.305 174.903 247.655C175.463 247.991 175.869 248.418 176.121 248.936L176.079 247.655C176.079 247.473 176.177 247.382 176.373 247.382H177.15C177.346 247.382 177.444 247.473 177.444 247.655V255.383C177.444 256.195 177.332 256.986 177.108 257.756C176.898 258.526 176.576 259.156 176.142 259.646C175.722 260.15 175.246 260.528 174.714 260.78C174.182 261.032 173.545 261.158 172.803 261.158C172.383 261.158 171.942 261.116 171.48 261.032C171.018 260.962 170.535 260.836 170.031 260.654ZM170.619 252.317C170.619 252.723 170.654 253.164 170.724 253.64C170.808 254.102 170.962 254.557 171.186 255.005C171.424 255.453 171.718 255.782 172.068 255.992C172.418 256.202 172.838 256.307 173.328 256.307C173.818 256.307 174.231 256.188 174.567 255.95C174.917 255.698 175.204 255.369 175.428 254.963C175.666 254.543 175.82 254.102 175.89 253.64C175.96 253.164 175.995 252.723 175.995 252.317C175.995 251.939 175.96 251.512 175.89 251.036C175.82 250.546 175.666 250.098 175.428 249.692C175.204 249.286 174.917 248.964 174.567 248.726C174.231 248.474 173.818 248.348 173.328 248.348C172.838 248.348 172.418 248.474 172.068 248.726C171.732 248.964 171.445 249.286 171.207 249.692C170.969 250.098 170.808 250.546 170.724 251.036C170.654 251.512 170.619 251.939 170.619 252.317ZM188.847 257.609C188.847 257.805 188.749 257.903 188.553 257.903H187.713C187.517 257.903 187.419 257.805 187.419 257.609V251.834C187.419 250.546 187.244 249.636 186.894 249.104C186.544 248.558 185.949 248.285 185.109 248.285C184.367 248.285 183.744 248.586 183.24 249.188C182.736 249.776 182.484 250.672 182.484 251.876V257.609C182.484 257.805 182.386 257.903 182.19 257.903H181.35C181.154 257.903 181.056 257.805 181.056 257.609V250.049C181.056 249.447 181.049 248.978 181.035 248.642C181.035 248.306 181.021 247.984 180.993 247.676C180.979 247.578 181 247.508 181.056 247.466C181.126 247.41 181.203 247.382 181.287 247.382H182.043C182.239 247.382 182.337 247.48 182.337 247.676V248.852C182.673 248.25 183.079 247.809 183.555 247.529C184.045 247.235 184.605 247.088 185.235 247.088C186.467 247.088 187.377 247.473 187.965 248.243C188.553 249.013 188.847 250.098 188.847 251.498V257.609ZM201.531 259.898V260.402C201.531 260.556 201.517 260.64 201.489 260.654C201.475 260.682 201.391 260.696 201.237 260.696H191.493C191.339 260.696 191.248 260.682 191.22 260.654C191.206 260.64 191.199 260.556 191.199 260.402V259.898C191.199 259.744 191.206 259.653 191.22 259.625C191.248 259.611 191.339 259.604 191.493 259.604H201.237C201.391 259.604 201.475 259.611 201.489 259.625C201.517 259.653 201.531 259.744 201.531 259.898Z" fill="#F0FF44"/>
<path d="M210 269V212C210 182.729 186.271 159 157 159V159C127.729 159 104 182.729 104 212V269" stroke="#F0FF44"/>
<path d="M78.5 207C78.5 163.646 113.646 128.5 157 128.5C200.354 128.5 235.5 163.646 235.5 207V268.5H78.5V207Z" stroke="#F0FF44"/>
<path d="M122.74 163.056L123.055 163.449C123.151 163.569 123.193 163.644 123.18 163.672C123.187 163.703 123.13 163.766 123.01 163.862L115.411 169.961C115.29 170.058 115.211 170.104 115.171 170.1C115.152 170.097 115.094 170.036 114.997 169.916L114.682 169.523C114.585 169.403 114.534 169.328 114.527 169.297C114.54 169.269 114.607 169.206 114.727 169.11L122.326 163.011C122.446 162.914 122.516 162.867 122.536 162.869C122.575 162.874 122.643 162.936 122.74 163.056Z" fill="#F0FF44"/>
<path d="M130.939 156.057C131.024 156.218 130.98 156.345 130.806 156.436L130.082 156.818C129.909 156.91 129.779 156.875 129.694 156.714L128.979 155.358C129.099 156.815 128.546 157.867 127.32 158.514C126.75 158.814 126.158 158.952 125.544 158.928C124.942 158.898 124.34 158.717 123.738 158.386C123.129 158.042 122.594 157.612 122.132 157.096C121.682 156.574 121.284 155.985 120.937 155.328C120.323 154.165 120.083 152.93 120.217 151.624C120.345 150.306 120.99 149.34 122.154 148.726C122.773 148.399 123.381 148.276 123.978 148.357C124.587 148.431 125.137 148.648 125.627 149.007L122.706 143.472C122.621 143.311 122.665 143.185 122.838 143.094L123.563 142.711C123.736 142.62 123.865 142.655 123.95 142.815L130.939 156.057ZM122.364 154.837C122.554 155.227 122.813 155.628 123.142 156.041C123.464 156.441 123.831 156.793 124.245 157.097C124.665 157.382 125.091 157.561 125.525 157.632C125.959 157.704 126.405 157.619 126.863 157.378C127.321 157.136 127.643 156.816 127.828 156.417C128.013 156.018 128.101 155.569 128.09 155.068C128.084 154.548 128.001 154.046 127.84 153.561C127.673 153.064 127.488 152.623 127.285 152.239C127.096 151.88 126.843 151.491 126.527 151.072C126.204 150.641 125.833 150.283 125.414 149.998C125.006 149.706 124.586 149.524 124.152 149.452C123.719 149.381 123.273 149.465 122.815 149.707C122.356 149.949 122.035 150.269 121.849 150.668C121.664 151.066 121.571 151.519 121.569 152.027C121.568 152.534 121.648 153.046 121.81 153.562C121.977 154.059 122.162 154.484 122.364 154.837Z" fill="#F0FF44"/>
<path d="M139.037 147.314C138.909 146.899 138.726 146.494 138.487 146.099C138.262 145.699 137.999 145.37 137.699 145.111C136.992 144.479 136.204 144.297 135.334 144.565C134.464 144.832 133.903 145.437 133.651 146.379C133.543 146.837 133.493 147.292 133.5 147.744C133.508 148.196 133.56 148.605 133.658 148.97L139.037 147.314ZM133.99 150.12C134.109 150.552 134.327 150.998 134.644 151.457C134.97 151.898 135.33 152.234 135.723 152.465C136.112 152.682 136.523 152.827 136.955 152.899C137.388 152.97 137.871 152.924 138.407 152.759C138.875 152.615 139.295 152.434 139.668 152.217C140.041 152 140.395 151.722 140.73 151.385C140.87 151.268 140.971 151.288 141.034 151.445L141.318 152.368C141.351 152.475 141.305 152.585 141.178 152.697C140.813 152.985 140.442 153.231 140.065 153.435C139.702 153.635 139.239 153.821 138.677 153.994C137.245 154.435 135.962 154.31 134.826 153.62C133.687 152.916 132.868 151.755 132.369 150.136C131.916 148.664 131.935 147.252 132.427 145.899C132.979 144.601 133.838 143.773 135.002 143.414C135.724 143.192 136.359 143.136 136.905 143.246C137.465 143.352 138.013 143.608 138.548 144.014C139.493 144.705 140.203 145.819 140.677 147.358C140.726 147.519 140.759 147.648 140.774 147.746C140.799 147.826 140.797 147.892 140.769 147.945C140.742 147.997 140.676 148.047 140.573 148.093C140.48 148.122 140.339 148.165 140.152 148.223L133.99 150.12Z" fill="#F0FF44"/>
<path d="M146.305 150.412C147.234 150.663 148.171 150.738 149.118 150.635C149.911 150.549 150.558 150.282 151.058 149.833C151.571 149.369 151.806 148.935 151.762 148.532C151.722 148.156 151.533 147.846 151.197 147.6C150.86 147.355 150.457 147.145 149.988 146.971C149.487 146.772 148.996 146.586 148.512 146.413C148.041 146.224 147.563 146.037 147.078 145.85C146.521 145.643 146.096 145.365 145.805 145.016C145.526 144.652 145.367 144.289 145.328 143.927C145.28 143.482 145.334 143.075 145.491 142.706C145.648 142.336 145.88 142.002 146.185 141.701C146.49 141.4 146.873 141.162 147.333 140.985C147.805 140.793 148.312 140.668 148.855 140.609C149.356 140.555 149.818 140.533 150.242 140.543C150.665 140.554 151.108 140.604 151.568 140.695C151.668 140.712 151.749 140.746 151.811 140.796C151.887 140.844 151.922 140.91 151.917 140.995L151.927 141.67C151.925 141.783 151.884 141.858 151.804 141.895C151.737 141.93 151.667 141.938 151.595 141.917C151.175 141.808 150.774 141.746 150.392 141.731C150.01 141.716 149.589 141.733 149.13 141.783C147.446 141.966 146.666 142.628 146.789 143.769C146.812 143.978 146.947 144.188 147.196 144.401C147.443 144.599 147.85 144.787 148.419 144.965C148.975 145.159 149.473 145.337 149.913 145.5C150.366 145.649 150.864 145.834 151.41 146.056C152.061 146.352 152.52 146.682 152.784 147.048C153.063 147.412 153.23 147.845 153.284 148.346C153.328 148.749 153.254 149.173 153.063 149.616C152.871 150.059 152.587 150.428 152.211 150.722C151.848 151.015 151.416 151.252 150.915 151.433C150.415 151.628 149.901 151.754 149.372 151.811C149.038 151.848 148.738 151.873 148.472 151.888C148.22 151.901 147.974 151.907 147.734 151.904C147.509 151.901 147.275 151.891 147.034 151.875C146.807 151.857 146.564 151.827 146.306 151.785C146.076 151.739 145.959 151.632 145.954 151.464L145.971 150.638C145.99 150.425 146.101 150.349 146.305 150.412Z" fill="#F0FF44"/>
<path d="M165.676 150.317C165.871 150.334 165.96 150.44 165.944 150.635L165.883 151.346C165.867 151.542 165.761 151.631 165.565 151.614L158.89 151.047C158.695 151.03 158.606 150.924 158.622 150.729L158.683 150.017C158.7 149.822 158.806 149.733 159.001 149.749L161.679 149.977L162.35 142.089L159.902 141.88C159.707 141.864 159.617 141.758 159.634 141.563L159.694 140.851C159.711 140.656 159.817 140.566 160.012 140.583L163.674 140.895C163.869 140.911 163.959 141.017 163.942 141.212L163.186 150.105L165.676 150.317ZM162.1 137.346C162.127 137.026 162.262 136.763 162.504 136.559C162.762 136.342 163.051 136.247 163.372 136.274C163.692 136.302 163.954 136.443 164.157 136.699C164.376 136.943 164.471 137.225 164.444 137.546C164.416 137.867 164.274 138.135 164.017 138.352C163.775 138.557 163.493 138.645 163.172 138.618C162.851 138.591 162.582 138.455 162.364 138.212C162.161 137.956 162.073 137.667 162.1 137.346Z" fill="#F0FF44"/>
<path d="M169.413 155.124C169.276 155.042 169.242 154.931 169.31 154.79L169.605 153.891C169.654 153.716 169.753 153.7 169.902 153.843C170.337 154.211 170.757 154.503 171.162 154.718C171.563 154.946 171.939 155.109 172.29 155.207C173.207 155.463 174.04 155.318 174.788 154.771C175.533 154.238 176.119 153.311 176.545 151.991C176.087 152.488 175.575 152.81 175.011 152.958C174.443 153.119 173.855 153.115 173.248 152.946C172.668 152.784 172.168 152.521 171.746 152.156C171.335 151.808 171.012 151.377 170.778 150.861C170.557 150.349 170.439 149.756 170.424 149.083C170.422 148.414 170.52 147.722 170.72 147.007C170.927 146.266 171.207 145.602 171.559 145.017C171.924 144.436 172.342 143.957 172.811 143.579C173.293 143.205 173.804 142.962 174.344 142.851C174.897 142.744 175.463 142.772 176.043 142.933C176.65 143.103 177.169 143.43 177.601 143.913C178.05 144.388 178.326 144.908 178.43 145.475L178.734 144.23C178.783 144.054 178.902 143.993 179.09 144.046L179.839 144.255C180.028 144.307 180.097 144.421 180.049 144.597L177.971 152.04C177.752 152.822 177.432 153.554 177.009 154.235C176.6 154.921 176.12 155.441 175.57 155.796C175.03 156.169 174.47 156.405 173.89 156.504C173.31 156.604 172.663 156.554 171.948 156.355C171.543 156.242 171.13 156.083 170.707 155.877C170.281 155.686 169.85 155.435 169.413 155.124ZM172.221 147.252C172.112 147.643 172.027 148.077 171.967 148.554C171.923 149.022 171.949 149.502 172.045 149.993C172.154 150.489 172.348 150.885 172.629 151.181C172.91 151.478 173.286 151.692 173.758 151.823C174.23 151.955 174.66 151.952 175.047 151.813C175.452 151.664 175.817 151.424 176.142 151.093C176.484 150.753 176.751 150.37 176.943 149.943C177.138 149.504 177.29 149.088 177.399 148.697C177.501 148.333 177.582 147.913 177.643 147.435C177.707 146.945 177.679 146.472 177.559 146.017C177.452 145.565 177.263 145.178 176.989 144.855C176.734 144.522 176.37 144.289 175.898 144.157C175.426 144.026 174.987 144.034 174.583 144.183C174.195 144.322 173.832 144.555 173.493 144.882C173.155 145.209 172.88 145.597 172.667 146.046C172.472 146.486 172.323 146.888 172.221 147.252Z" fill="#F0FF44"/>
<path d="M188.238 159.208C188.15 159.383 188.019 159.427 187.844 159.34L187.092 158.964C186.917 158.876 186.873 158.745 186.961 158.57L189.542 153.404C190.118 152.252 190.368 151.359 190.293 150.727C190.224 150.082 189.813 149.572 189.062 149.196C188.398 148.865 187.706 148.856 186.986 149.169C186.273 149.469 185.647 150.158 185.109 151.235L182.546 156.364C182.458 156.539 182.327 156.583 182.152 156.495L181.4 156.12C181.225 156.032 181.181 155.901 181.269 155.725L184.648 148.963C184.917 148.424 185.12 148.002 185.258 147.695C185.408 147.394 185.54 147.1 185.652 146.812C185.683 146.718 185.734 146.665 185.802 146.652C185.89 146.633 185.971 146.643 186.047 146.68L186.723 147.018C186.898 147.106 186.942 147.237 186.854 147.413L186.329 148.465C186.898 148.076 187.459 147.863 188.01 147.826C188.579 147.782 189.146 147.9 189.71 148.182C190.812 148.733 191.454 149.484 191.635 150.435C191.817 151.387 191.595 152.489 190.969 153.741L188.238 159.208Z" fill="#F0FF44"/>
<path d="M197.369 168.614L197.064 169.015C196.97 169.138 196.908 169.196 196.878 169.19C196.849 169.204 196.774 169.164 196.652 169.071L188.899 163.168C188.777 163.075 188.713 163.008 188.707 162.969C188.705 162.949 188.75 162.878 188.843 162.756L189.149 162.355C189.242 162.232 189.303 162.164 189.331 162.15C189.362 162.156 189.438 162.206 189.561 162.299L197.313 168.202C197.436 168.295 197.498 168.352 197.501 168.371C197.506 168.411 197.462 168.492 197.369 168.614Z" fill="#F0FF44"/>
<path d="M68.6941 211.86L75.7879 212.791L76.0193 212.821L76.1538 213.012L80.2671 218.846L80.9384 211.959L80.9604 211.734L81.1503 211.611L86.9717 207.838L79.8779 206.908L79.6465 206.877L79.512 206.686L75.3987 200.852L74.7273 207.739L74.7053 207.964L74.5154 208.087L68.6941 211.86Z" fill="#408CFF" stroke="#F0FF44"/>
<path d="M234.276 268.141L234.588 268.343L234.503 268.705L233.084 274.731L236.175 269.468L236.361 269.151L236.713 269.252L242.593 270.931L237.39 267.557L237.078 267.355L237.163 266.993L238.582 260.967L235.491 266.231L235.306 266.547L234.953 266.446L229.073 264.768L234.276 268.141Z" fill="#408CFF" stroke="#F0FF44"/>
<path d="M206.381 151.545L207.207 151.529L206.875 152.256L205.014 156.337L208.4 153.354L208.998 152.827L209.232 153.607L210.55 158.013L211.087 153.523L211.182 152.73L211.868 153.2L215.753 155.863L213.189 151.975L212.733 151.284L213.553 151.226L218.179 150.9L213.72 149.43L212.926 149.169L213.498 148.606L216.704 145.45L212.432 147.082L211.675 147.371L211.726 146.569L212.017 142.053L209.928 146.03L209.559 146.731L209.07 146.067L206.3 142.304L207.38 146.763L207.571 147.553L206.771 147.334L202.242 146.092L205.979 148.941L206.644 149.448L205.903 149.778L201.737 151.63L206.381 151.545Z" fill="#408CFF" stroke="#F0FF44"/>
<path d="M83.5198 199.852L86.0099 200.51L86.1612 200.55L86.2671 200.665L88.0091 202.562L88.5864 200.155L88.6215 200.009L88.7354 199.91L90.6095 198.292L88.1194 197.634L87.9681 197.594L87.8622 197.478L86.1202 195.581L85.5429 197.989L85.5078 198.135L85.3939 198.233L83.5198 199.852Z" fill="#408CFF" stroke="#F0FF44"/>
<defs>
<filter id="filter0_d_260_3464" x="0" y="0" width="313" height="420" filterUnits="userSpaceOnUse" color-interpolation-filters="sRGB">
<feFlood flood-opacity="0" result="BackgroundImageFix"/>
<feColorMatrix in="SourceAlpha" type="matrix" values="0 0 0 0 0 0 0 0 0 0 0 0 0 0 0 0 0 0 127 0" result="hardAlpha"/>
<feOffset dy="4"/>
<feGaussianBlur stdDeviation="2"/>
<feComposite in2="hardAlpha" operator="out"/>
<feColorMatrix type="matrix" values="0 0 0 0 0 0 0 0 0 0 0 0 0 0 0 0 0 0 0.15 0"/>
<feBlend mode="normal" in2="BackgroundImageFix" result="effect1_dropShadow_260_3464"/>
<feBlend mode="normal" in="SourceGraphic" in2="effect1_dropShadow_260_3464" result="shape"/>
</filter>
</defs>
</svg>
