<svg width="313" height="420" viewBox="0 0 313 420" fill="none" xmlns="http://www.w3.org/2000/svg">
<g filter="url(#filter0_d_260_13707)">
<rect x="4" width="305" height="412" rx="20" fill="#F2EADF"/>
</g>
<mask id="mask0_260_13707" style="mask-type:alpha" maskUnits="userSpaceOnUse" x="4" y="0" width="305" height="412">
<rect x="4" width="305" height="412" rx="20" fill="#7FB2FF"/>
</mask>
<g mask="url(#mask0_260_13707)">
<path d="M168.61 103.343L157.999 -56.0332H157.001L146.39 103.343L101.765 -50.026L100.791 -49.8115L124.689 108.12L48.1378 -32.0706L47.2323 -31.6516L104.522 117.45L-0.375984 -3.00669L-1.17032 -2.40285L86.8327 130.897L-41.5077 35.8067L-42.1537 36.5672L72.4476 147.833L-73.3341 82.5549L-73.8014 83.4364L62.0394 167.465L-94.3669 135.052L-94.6338 136.013L56.0947 188.875L-103.623 190.843L-103.677 191.839L54.8918 211.063L-100.669 247.319L-100.507 248.304L58.4866 232.991L-85.6429 301.84L-85.2736 302.767L66.7112 253.633L-59.2481 351.856L-58.6882 352.682L79.181 272.025L-22.7184 395.029L-21.994 395.715L95.3129 287.306L22.2381 429.339L23.093 429.854L114.353 298.761L73.5193 453.184L74.4648 453.502L135.41 305.856L128.727 465.446L129.719 465.554L157.5 308.259L185.281 465.554L186.273 465.446L179.59 305.857L240.535 453.502L241.481 453.184L200.647 298.762L291.907 429.854L292.762 429.339L219.687 287.306L336.994 395.715L337.718 395.029L235.819 272.025L373.688 352.682L374.248 351.856L248.289 253.633L400.274 302.767L400.643 301.84L256.513 232.991L415.507 248.304L415.669 247.319L260.108 211.063L418.677 191.839L418.623 190.843L258.905 188.875L409.634 136.013L409.367 135.052L252.961 167.465L388.801 83.4364L388.334 82.5549L242.552 147.833L357.154 36.5672L356.508 35.8067L228.167 130.897L316.17 -2.40285L315.376 -3.00669L210.478 117.45L267.768 -31.6516L266.862 -32.0706L190.311 108.12L214.209 -49.8115L213.235 -50.026L168.61 103.343Z" fill="#D0E6FF" stroke="#F0FF44"/>
</g>
<rect x="24" y="20" width="265" height="372" rx="19" stroke="#7FB2FF" stroke-width="2"/>
<path d="M23.4057 23.431L24.5729 23.6958L24.626 22.5002L24.9962 14.1739L27.6723 22.209L28.033 23.2921L29.0592 22.7919L36.672 19.0811L30.9827 25.1719L30.1658 26.0465L31.1716 26.695L38.2724 31.273L30.0332 29.4036L28.8661 29.1388L28.8129 30.3344L28.4427 38.6608L25.7667 30.6257L25.4059 29.5426L24.3797 30.0428L16.767 33.7535L22.4562 27.6627L23.2732 26.7882L22.2673 26.1397L15.1665 21.5617L23.4057 23.431Z" fill="#7FB2FF" stroke="#7FB2FF" stroke-width="2"/>
<path d="M23.4057 383.431L24.5729 383.696L24.626 382.5L24.9962 374.174L27.6723 382.209L28.033 383.292L29.0592 382.792L36.672 379.081L30.9827 385.172L30.1658 386.046L31.1716 386.695L38.2724 391.273L30.0332 389.404L28.8661 389.139L28.8129 390.334L28.4427 398.661L25.7667 390.626L25.4059 389.543L24.3797 390.043L16.767 393.754L22.4562 387.663L23.2732 386.788L22.2673 386.14L15.1665 381.562L23.4057 383.431Z" fill="#7FB2FF" stroke="#7FB2FF" stroke-width="2"/>
<path d="M281.406 23.431L282.573 23.6958L282.626 22.5002L282.996 14.1739L285.672 22.209L286.033 23.2921L287.059 22.7919L294.672 19.0811L288.983 25.1719L288.166 26.0465L289.172 26.695L296.272 31.273L288.033 29.4036L286.866 29.1388L286.813 30.3344L286.443 38.6608L283.767 30.6257L283.406 29.5426L282.38 30.0428L274.767 33.7535L280.456 27.6627L281.273 26.7882L280.267 26.1397L273.167 21.5617L281.406 23.431Z" fill="#7FB2FF" stroke="#7FB2FF" stroke-width="2"/>
<path d="M281.406 383.431L282.573 383.696L282.626 382.5L282.996 374.174L285.672 382.209L286.033 383.292L287.059 382.792L294.672 379.081L288.983 385.172L288.166 386.046L289.172 386.695L296.272 391.273L288.033 389.404L286.866 389.139L286.813 390.334L286.443 398.661L283.767 390.626L283.406 389.543L282.38 390.043L274.767 393.754L280.456 387.663L281.273 386.788L280.267 386.14L273.167 381.562L281.406 383.431Z" fill="#7FB2FF" stroke="#7FB2FF" stroke-width="2"/>
<path d="M140.138 195.957L151.65 205.703L140.32 215.046L154.379 210.33L157.203 224.887L159.75 210.425L173.903 215.639L162.391 205.893L173.721 196.55L159.662 201.266L156.838 186.709L154.292 201.171L140.138 195.957Z" fill="#F0FF44" stroke="#0066FF"/>
<path d="M137.432 244.365V244.773C137.432 244.897 137.421 244.965 137.398 244.977C137.387 244.999 137.319 245.011 137.194 245.011H129.306C129.181 245.011 129.108 244.999 129.085 244.977C129.074 244.965 129.068 244.897 129.068 244.773V244.365C129.068 244.24 129.074 244.166 129.085 244.144C129.108 244.132 129.181 244.127 129.306 244.127H137.194C137.319 244.127 137.387 244.132 137.398 244.144C137.421 244.166 137.432 244.24 137.432 244.365ZM139.812 241.628C140.537 241.911 141.285 242.053 142.056 242.053C142.702 242.053 143.246 241.894 143.688 241.577C144.141 241.248 144.368 240.919 144.368 240.591C144.368 240.285 144.243 240.018 143.994 239.792C143.745 239.565 143.439 239.361 143.076 239.18C142.691 238.976 142.311 238.783 141.937 238.602C141.574 238.409 141.206 238.216 140.832 238.024C140.401 237.808 140.084 237.548 139.88 237.242C139.687 236.924 139.591 236.618 139.591 236.324C139.591 235.961 139.67 235.638 139.829 235.355C139.988 235.071 140.203 234.822 140.475 234.607C140.747 234.391 141.076 234.233 141.461 234.131C141.858 234.017 142.277 233.961 142.719 233.961C143.127 233.961 143.501 233.983 143.841 234.029C144.181 234.074 144.532 234.153 144.895 234.267C144.974 234.289 145.037 234.323 145.082 234.369C145.139 234.414 145.161 234.471 145.15 234.539L145.099 235.083C145.088 235.173 145.048 235.23 144.98 235.253C144.923 235.275 144.867 235.275 144.81 235.253C144.481 235.128 144.164 235.043 143.858 234.998C143.552 234.952 143.212 234.93 142.838 234.93C141.467 234.93 140.781 235.394 140.781 236.324C140.781 236.494 140.872 236.675 141.053 236.868C141.234 237.049 141.546 237.236 141.988 237.429C142.419 237.633 142.804 237.82 143.144 237.99C143.495 238.148 143.881 238.341 144.3 238.568C144.799 238.862 145.139 239.168 145.32 239.486C145.513 239.803 145.609 240.166 145.609 240.574C145.609 240.902 145.513 241.237 145.32 241.577C145.127 241.917 144.867 242.189 144.538 242.393C144.221 242.597 143.852 242.75 143.433 242.852C143.014 242.965 142.589 243.022 142.158 243.022C141.886 243.022 141.642 243.016 141.427 243.005C141.223 242.993 141.025 242.976 140.832 242.954C140.651 242.931 140.464 242.903 140.271 242.869C140.09 242.835 139.897 242.789 139.693 242.733C139.512 242.676 139.427 242.58 139.438 242.444L139.523 241.781C139.557 241.611 139.653 241.56 139.812 241.628ZM154.143 238.483C154.143 238.041 154.092 237.604 153.99 237.174C153.888 236.743 153.729 236.352 153.514 236.001C153.083 235.321 152.5 234.981 151.763 234.981C150.992 234.981 150.409 235.321 150.012 236.001C149.797 236.352 149.638 236.743 149.536 237.174C149.445 237.604 149.4 238.041 149.4 238.483C149.4 238.97 149.445 239.429 149.536 239.86C149.627 240.29 149.785 240.659 150.012 240.965C150.511 241.656 151.094 242.002 151.763 242.002C152.545 242.002 153.129 241.656 153.514 240.965C153.741 240.659 153.899 240.29 153.99 239.86C154.092 239.429 154.143 238.97 154.143 238.483ZM155.316 238.483C155.316 239.106 155.242 239.695 155.095 240.251C154.959 240.795 154.744 241.254 154.449 241.628C154.109 242.07 153.718 242.41 153.276 242.648C152.834 242.897 152.33 243.022 151.763 243.022C151.196 243.022 150.692 242.897 150.25 242.648C149.808 242.41 149.417 242.07 149.077 241.628C148.805 241.22 148.595 240.749 148.448 240.217C148.312 239.684 148.244 239.106 148.244 238.483C148.244 237.202 148.522 236.154 149.077 235.338C149.723 234.42 150.618 233.961 151.763 233.961C152.341 233.961 152.845 234.074 153.276 234.301C153.718 234.516 154.109 234.862 154.449 235.338C155.027 236.165 155.316 237.213 155.316 238.483ZM163.952 230.272C164.077 230.328 164.133 230.408 164.122 230.51L164.02 231.105C164.009 231.173 163.98 231.218 163.935 231.241C163.89 231.252 163.844 231.246 163.799 231.224C163.618 231.144 163.419 231.082 163.204 231.037C163 230.991 162.79 230.969 162.575 230.969C161.906 230.969 161.476 231.303 161.283 231.972C161.204 232.244 161.164 232.839 161.164 233.757V234.624H164.139C164.298 234.624 164.377 234.703 164.377 234.862V235.372C164.377 235.53 164.298 235.61 164.139 235.61H161.164V242.512C161.164 242.67 161.085 242.75 160.926 242.75H160.263C160.104 242.75 160.025 242.67 160.025 242.512V235.61H157.968C157.809 235.61 157.73 235.53 157.73 235.372V234.862C157.73 234.703 157.809 234.624 157.968 234.624H160.025V233.876C160.025 232.64 160.138 231.751 160.365 231.207C160.716 230.391 161.419 229.983 162.473 229.983C163.006 229.983 163.499 230.079 163.952 230.272ZM173.319 242.733C172.843 242.925 172.288 243.022 171.653 243.022C170.622 243.022 169.959 242.721 169.664 242.121C169.471 241.713 169.375 240.993 169.375 239.962V235.61H167.165C167.006 235.61 166.927 235.53 166.927 235.372V234.862C166.927 234.703 167.006 234.624 167.165 234.624H169.375V232.227C169.375 232.057 169.449 231.972 169.596 231.972H170.31C170.457 231.972 170.531 232.057 170.531 232.227V234.624H173.268C173.427 234.624 173.506 234.703 173.506 234.862V235.372C173.506 235.53 173.427 235.61 173.268 235.61H170.531V240.727C170.531 241.577 170.996 242.002 171.925 242.002C172.39 242.002 172.832 241.905 173.251 241.713C173.308 241.69 173.359 241.69 173.404 241.713C173.461 241.735 173.489 241.781 173.489 241.849L173.523 242.393C173.546 242.551 173.478 242.665 173.319 242.733ZM130.547 260.628C131.272 260.911 132.02 261.053 132.791 261.053C133.437 261.053 133.981 260.894 134.423 260.577C134.876 260.248 135.103 259.919 135.103 259.591C135.103 259.285 134.978 259.018 134.729 258.792C134.48 258.565 134.174 258.361 133.811 258.18C133.426 257.976 133.046 257.783 132.672 257.602C132.309 257.409 131.941 257.216 131.567 257.024C131.136 256.808 130.819 256.548 130.615 256.242C130.422 255.924 130.326 255.618 130.326 255.324C130.326 254.961 130.405 254.638 130.564 254.355C130.723 254.071 130.938 253.822 131.21 253.607C131.482 253.391 131.811 253.233 132.196 253.131C132.593 253.017 133.012 252.961 133.454 252.961C133.862 252.961 134.236 252.983 134.576 253.029C134.916 253.074 135.267 253.153 135.63 253.267C135.709 253.289 135.772 253.323 135.817 253.369C135.874 253.414 135.896 253.471 135.885 253.539L135.834 254.083C135.823 254.173 135.783 254.23 135.715 254.253C135.658 254.275 135.602 254.275 135.545 254.253C135.216 254.128 134.899 254.043 134.593 253.998C134.287 253.952 133.947 253.93 133.573 253.93C132.202 253.93 131.516 254.394 131.516 255.324C131.516 255.494 131.607 255.675 131.788 255.868C131.969 256.049 132.281 256.236 132.723 256.429C133.154 256.633 133.539 256.82 133.879 256.99C134.23 257.148 134.616 257.341 135.035 257.568C135.534 257.862 135.874 258.168 136.055 258.486C136.248 258.803 136.344 259.166 136.344 259.574C136.344 259.902 136.248 260.237 136.055 260.577C135.862 260.917 135.602 261.189 135.273 261.393C134.956 261.597 134.587 261.75 134.168 261.852C133.749 261.965 133.324 262.022 132.893 262.022C132.621 262.022 132.377 262.016 132.162 262.005C131.958 261.993 131.76 261.976 131.567 261.954C131.386 261.931 131.199 261.903 131.006 261.869C130.825 261.835 130.632 261.789 130.428 261.733C130.247 261.676 130.162 261.58 130.173 261.444L130.258 260.781C130.292 260.611 130.388 260.56 130.547 260.628ZM142.787 257.007L146.119 261.512C146.153 261.568 146.164 261.619 146.153 261.665C146.142 261.721 146.102 261.75 146.034 261.75H145.286C145.173 261.75 145.071 261.733 144.98 261.699C144.889 261.665 144.816 261.602 144.759 261.512L142.073 257.857L140.917 259.234V261.512C140.917 261.67 140.838 261.75 140.679 261.75H139.999C139.84 261.75 139.761 261.67 139.761 261.512V249.476C139.761 249.317 139.84 249.238 139.999 249.238H140.679C140.838 249.238 140.917 249.317 140.917 249.476V257.67L141.359 257.109L144.589 253.199C144.68 253.119 144.799 253.08 144.946 253.08H145.813C145.881 253.08 145.926 253.108 145.949 253.165C145.972 253.21 145.955 253.261 145.898 253.318L142.787 257.007ZM154.585 260.696C154.744 260.696 154.823 260.775 154.823 260.934V261.512C154.823 261.67 154.744 261.75 154.585 261.75H149.162C149.003 261.75 148.924 261.67 148.924 261.512V260.934C148.924 260.775 149.003 260.696 149.162 260.696H151.338V254.287H149.349C149.19 254.287 149.111 254.207 149.111 254.049V253.471C149.111 253.312 149.19 253.233 149.349 253.233H152.324C152.483 253.233 152.562 253.312 152.562 253.471V260.696H154.585ZM150.811 250.479C150.811 250.218 150.902 249.997 151.083 249.816C151.276 249.623 151.502 249.527 151.763 249.527C152.024 249.527 152.245 249.623 152.426 249.816C152.619 249.997 152.715 250.218 152.715 250.479C152.715 250.739 152.619 250.966 152.426 251.159C152.245 251.34 152.024 251.431 151.763 251.431C151.502 251.431 151.276 251.34 151.083 251.159C150.902 250.966 150.811 250.739 150.811 250.479ZM163.714 260.696C163.873 260.696 163.952 260.775 163.952 260.934V261.512C163.952 261.67 163.873 261.75 163.714 261.75H158.206C158.047 261.75 157.968 261.67 157.968 261.512V260.934C157.968 260.775 158.047 260.696 158.206 260.696H160.484V250.309H158.682C158.523 250.309 158.444 250.229 158.444 250.071V249.493C158.444 249.334 158.523 249.255 158.682 249.255H161.47C161.629 249.255 161.708 249.334 161.708 249.493V260.696H163.714ZM172.979 260.696C173.138 260.696 173.217 260.775 173.217 260.934V261.512C173.217 261.67 173.138 261.75 172.979 261.75H167.471C167.312 261.75 167.233 261.67 167.233 261.512V260.934C167.233 260.775 167.312 260.696 167.471 260.696H169.749V250.309H167.947C167.788 250.309 167.709 250.229 167.709 250.071V249.493C167.709 249.334 167.788 249.255 167.947 249.255H170.735C170.894 249.255 170.973 249.334 170.973 249.493V260.696H172.979ZM176.872 260.628C177.597 260.911 178.345 261.053 179.116 261.053C179.762 261.053 180.306 260.894 180.748 260.577C181.201 260.248 181.428 259.919 181.428 259.591C181.428 259.285 181.303 259.018 181.054 258.792C180.805 258.565 180.499 258.361 180.136 258.18C179.751 257.976 179.371 257.783 178.997 257.602C178.634 257.409 178.266 257.216 177.892 257.024C177.461 256.808 177.144 256.548 176.94 256.242C176.747 255.924 176.651 255.618 176.651 255.324C176.651 254.961 176.73 254.638 176.889 254.355C177.048 254.071 177.263 253.822 177.535 253.607C177.807 253.391 178.136 253.233 178.521 253.131C178.918 253.017 179.337 252.961 179.779 252.961C180.187 252.961 180.561 252.983 180.901 253.029C181.241 253.074 181.592 253.153 181.955 253.267C182.034 253.289 182.097 253.323 182.142 253.369C182.199 253.414 182.221 253.471 182.21 253.539L182.159 254.083C182.148 254.173 182.108 254.23 182.04 254.253C181.983 254.275 181.927 254.275 181.87 254.253C181.541 254.128 181.224 254.043 180.918 253.998C180.612 253.952 180.272 253.93 179.898 253.93C178.527 253.93 177.841 254.394 177.841 255.324C177.841 255.494 177.932 255.675 178.113 255.868C178.294 256.049 178.606 256.236 179.048 256.429C179.479 256.633 179.864 256.82 180.204 256.99C180.555 257.148 180.941 257.341 181.36 257.568C181.859 257.862 182.199 258.168 182.38 258.486C182.573 258.803 182.669 259.166 182.669 259.574C182.669 259.902 182.573 260.237 182.38 260.577C182.187 260.917 181.927 261.189 181.598 261.393C181.281 261.597 180.912 261.75 180.493 261.852C180.074 261.965 179.649 262.022 179.218 262.022C178.946 262.022 178.702 262.016 178.487 262.005C178.283 261.993 178.085 261.976 177.892 261.954C177.711 261.931 177.524 261.903 177.331 261.869C177.15 261.835 176.957 261.789 176.753 261.733C176.572 261.676 176.487 261.58 176.498 261.444L176.583 260.781C176.617 260.611 176.713 260.56 176.872 260.628ZM193.022 263.365V263.773C193.022 263.897 193.011 263.965 192.988 263.977C192.977 263.999 192.909 264.011 192.784 264.011H184.896C184.771 264.011 184.698 263.999 184.675 263.977C184.664 263.965 184.658 263.897 184.658 263.773V263.365C184.658 263.24 184.664 263.166 184.675 263.144C184.698 263.132 184.771 263.127 184.896 263.127H192.784C192.909 263.127 192.977 263.132 192.988 263.144C193.011 263.166 193.022 263.24 193.022 263.365Z" fill="#0066FF"/>
<path d="M210 269V212C210 182.729 186.271 159 157 159V159C127.729 159 104 182.729 104 212V269" stroke="#0066FF"/>
<path d="M78.5 207C78.5 163.646 113.646 128.5 157 128.5C200.354 128.5 235.5 163.646 235.5 207V268.5H78.5V207Z" stroke="#0066FF"/>
<path d="M71.6941 268.879L78.7879 269.81L79.0193 269.84L79.1538 270.031L83.2671 275.865L83.9384 268.978L83.9604 268.753L84.1503 268.63L89.9717 264.857L82.8779 263.927L82.6465 263.896L82.512 263.705L78.3987 257.871L77.7273 264.758L77.7053 264.983L77.5154 265.106L71.6941 268.879Z" fill="#F0FF44" stroke="#0066FF"/>
<path d="M133.263 131.761L133.575 131.963L133.49 132.325L132.072 138.351L135.162 133.088L135.348 132.771L135.701 132.872L141.581 134.551L136.378 131.177L136.066 130.975L136.151 130.613L137.569 124.587L134.479 129.851L134.293 130.167L133.94 130.066L128.06 128.388L133.263 131.761Z" fill="#F0FF44" stroke="#0066FF"/>
<path d="M232.381 224.563L233.207 224.548L232.875 225.275L231.014 229.356L234.4 226.373L234.998 225.846L235.232 226.626L236.55 231.032L237.087 226.542L237.182 225.749L237.868 226.219L241.753 228.882L239.189 224.994L238.733 224.303L239.553 224.245L244.179 223.919L239.72 222.449L238.926 222.187L239.498 221.625L242.704 218.469L238.432 220.101L237.675 220.39L237.726 219.588L238.017 215.071L235.928 219.049L235.559 219.75L235.07 219.086L232.3 215.323L233.38 219.782L233.571 220.572L232.771 220.352L228.242 219.11L231.979 221.96L232.644 222.467L231.903 222.796L227.737 224.649L232.381 224.563Z" fill="#F0FF44" stroke="#0066FF"/>
<path d="M68.5198 255.87L71.0099 256.529L71.1612 256.569L71.2671 256.684L73.0091 258.581L73.5864 256.174L73.6215 256.027L73.7354 255.929L75.6095 254.311L73.1194 253.652L72.9681 253.612L72.8622 253.497L71.1202 251.6L70.5429 254.007L70.5078 254.154L70.3939 254.252L68.5198 255.87Z" fill="#F0FF44" stroke="#0066FF"/>
<path d="M107.332 180.897L107.705 181.063C107.818 181.114 107.876 181.152 107.877 181.177C107.893 181.197 107.876 181.263 107.825 181.377L104.617 188.584C104.567 188.698 104.526 188.76 104.497 188.772C104.482 188.777 104.417 188.755 104.303 188.704L103.931 188.538C103.817 188.488 103.752 188.453 103.736 188.433C103.734 188.408 103.759 188.338 103.81 188.224L107.018 181.018C107.068 180.904 107.101 180.844 107.116 180.838C107.146 180.827 107.218 180.847 107.332 180.897Z" fill="#0066FF"/>
<path d="M107.264 175.968C107.912 175.536 108.457 175.004 108.899 174.373C109.27 173.843 109.451 173.307 109.445 172.763C109.436 172.203 109.296 171.829 109.027 171.64C108.776 171.465 108.487 171.414 108.158 171.489C107.829 171.563 107.487 171.697 107.13 171.89C106.742 172.088 106.367 172.289 106.003 172.491C105.638 172.678 105.269 172.869 104.896 173.065C104.473 173.295 104.077 173.405 103.71 173.397C103.339 173.373 103.033 173.276 102.792 173.107C102.495 172.899 102.276 172.649 102.135 172.357C101.993 172.064 101.913 171.745 101.892 171.399C101.872 171.052 101.93 170.692 102.068 170.318C102.202 169.928 102.396 169.552 102.65 169.19C102.883 168.855 103.116 168.562 103.349 168.31C103.581 168.057 103.847 167.815 104.148 167.582C104.212 167.53 104.276 167.499 104.339 167.488C104.408 167.467 104.468 167.481 104.517 167.529L104.933 167.883C105.001 167.944 105.025 168.009 105.004 168.078C104.991 168.138 104.958 168.184 104.907 168.217C104.616 168.415 104.365 168.626 104.152 168.851C103.94 169.076 103.726 169.341 103.512 169.648C102.725 170.771 102.713 171.6 103.474 172.132C103.614 172.23 103.814 172.26 104.076 172.222C104.329 172.177 104.66 172.029 105.072 171.777C105.486 171.541 105.86 171.333 106.194 171.152C106.526 170.955 106.904 170.75 107.331 170.536C107.858 170.296 108.304 170.193 108.667 170.227C109.038 170.251 109.39 170.38 109.725 170.614C109.994 170.802 110.213 171.073 110.381 171.426C110.549 171.778 110.622 172.148 110.601 172.534C110.586 172.911 110.5 173.301 110.343 173.703C110.196 174.111 109.998 174.492 109.751 174.845C109.596 175.068 109.451 175.264 109.318 175.434C109.192 175.595 109.065 175.747 108.935 175.892C108.813 176.028 108.683 176.165 108.544 176.303C108.412 176.432 108.265 176.564 108.101 176.699C107.951 176.815 107.823 176.829 107.718 176.742L107.224 176.292C107.104 176.167 107.118 176.059 107.264 175.968Z" fill="#0066FF"/>
<path d="M116.198 160.846C115.893 160.527 115.554 160.247 115.183 160.006C114.811 159.766 114.426 159.593 114.028 159.488C113.246 159.295 112.589 159.453 112.057 159.962C111.501 160.495 111.314 161.144 111.498 161.91C111.585 162.312 111.741 162.705 111.965 163.086C112.197 163.46 112.466 163.807 112.772 164.126C113.109 164.478 113.459 164.778 113.823 165.026C114.186 165.275 114.555 165.431 114.931 165.495C115.769 165.65 116.43 165.496 116.913 165.034C117.477 164.493 117.66 163.84 117.46 163.074C117.412 162.696 117.272 162.32 117.04 161.946C116.816 161.565 116.535 161.198 116.198 160.846ZM117.046 160.035C117.477 160.485 117.831 160.962 118.109 161.465C118.386 161.952 118.548 162.432 118.594 162.906C118.654 163.461 118.607 163.977 118.452 164.454C118.305 164.94 118.027 165.379 117.618 165.771C117.209 166.162 116.758 166.421 116.266 166.547C115.782 166.68 115.265 166.705 114.714 166.621C114.235 166.514 113.758 166.32 113.284 166.037C112.817 165.746 112.368 165.376 111.937 164.925C111.051 164 110.527 163.051 110.364 162.077C110.196 160.968 110.525 160.017 111.352 159.225C111.769 158.826 112.212 158.559 112.68 158.425C113.148 158.274 113.67 158.254 114.244 158.363C115.234 158.56 116.168 159.118 117.046 160.035Z" fill="#0066FF"/>
<path d="M122.175 146.522C122.311 146.503 122.401 146.539 122.447 146.631L122.682 147.187C122.71 147.25 122.71 147.303 122.684 147.347C122.652 147.381 122.611 147.401 122.561 147.406C122.365 147.437 122.165 147.492 121.959 147.57C121.763 147.642 121.574 147.736 121.393 147.852C120.83 148.213 120.648 148.727 120.847 149.394C120.927 149.666 121.215 150.188 121.71 150.961L122.178 151.691L124.682 150.084C124.816 149.999 124.926 150.023 125.011 150.156L125.287 150.585C125.372 150.719 125.348 150.829 125.215 150.914L122.711 152.521L126.437 158.33C126.523 158.464 126.499 158.573 126.365 158.659L125.807 159.017C125.674 159.103 125.564 159.079 125.478 158.945L121.752 153.135L120.021 154.246C119.887 154.332 119.777 154.308 119.692 154.174L119.416 153.745C119.331 153.611 119.355 153.502 119.488 153.416L121.22 152.306L120.816 151.676C120.149 150.636 119.764 149.826 119.661 149.246C119.516 148.369 119.887 147.646 120.774 147.077C121.223 146.79 121.69 146.605 122.175 146.522Z" fill="#0066FF"/>
<path d="M139.232 152.457C138.861 152.812 138.38 153.106 137.79 153.34C136.831 153.72 136.104 153.686 135.609 153.236C135.279 152.928 134.925 152.294 134.544 151.336L132.939 147.291L130.885 148.106C130.738 148.164 130.635 148.12 130.576 147.972L130.388 147.498C130.329 147.351 130.374 147.248 130.521 147.189L132.576 146.374L131.692 144.146C131.629 143.988 131.666 143.882 131.803 143.827L132.467 143.564C132.604 143.51 132.703 143.562 132.766 143.72L133.65 145.948L136.194 144.938C136.342 144.88 136.445 144.924 136.503 145.072L136.691 145.546C136.75 145.693 136.705 145.796 136.558 145.855L134.014 146.864L135.901 151.621C136.214 152.411 136.803 152.634 137.667 152.292C138.099 152.12 138.474 151.868 138.793 151.534C138.837 151.492 138.884 151.473 138.935 151.477C138.996 151.478 139.039 151.509 139.064 151.573L139.296 152.066C139.376 152.205 139.355 152.335 139.232 152.457Z" fill="#0066FF"/>
<path d="M151.485 148.774C152.227 149.009 152.983 149.101 153.752 149.051C154.396 149.008 154.929 148.814 155.349 148.469C155.78 148.111 155.985 147.768 155.963 147.44C155.943 147.135 155.801 146.877 155.537 146.668C155.274 146.458 154.955 146.274 154.581 146.117C154.183 145.939 153.792 145.771 153.407 145.615C153.032 145.446 152.652 145.278 152.266 145.111C151.823 144.924 151.489 144.685 151.265 144.393C151.052 144.089 150.936 143.79 150.917 143.496C150.893 143.134 150.951 142.806 151.091 142.513C151.23 142.22 151.429 141.957 151.686 141.724C151.944 141.492 152.261 141.312 152.639 141.185C153.027 141.046 153.442 140.962 153.883 140.933C154.29 140.906 154.665 140.904 155.007 140.927C155.349 140.95 155.705 141.006 156.074 141.095C156.155 141.113 156.22 141.143 156.268 141.185C156.327 141.226 156.354 141.281 156.347 141.35L156.331 141.896C156.326 141.987 156.29 142.047 156.224 142.074C156.169 142.1 156.112 142.104 156.054 142.085C155.718 141.982 155.396 141.918 155.088 141.893C154.779 141.868 154.439 141.867 154.065 141.892C152.697 141.982 152.043 142.49 152.104 143.418C152.115 143.587 152.218 143.762 152.411 143.943C152.604 144.112 152.927 144.278 153.381 144.441C153.824 144.616 154.221 144.778 154.571 144.925C154.932 145.06 155.329 145.227 155.763 145.426C156.28 145.687 156.639 145.971 156.841 146.275C157.054 146.579 157.174 146.935 157.2 147.342C157.222 147.67 157.148 148.01 156.978 148.362C156.808 148.714 156.565 149.002 156.251 149.227C155.947 149.452 155.59 149.628 155.178 149.758C154.767 149.898 154.347 149.983 153.917 150.011C153.646 150.029 153.402 150.039 153.187 150.042C152.982 150.044 152.783 150.04 152.59 150.03C152.407 150.019 152.219 150.003 152.024 149.982C151.841 149.96 151.646 149.927 151.438 149.884C151.254 149.839 151.163 149.749 151.165 149.612L151.206 148.945C151.229 148.773 151.322 148.716 151.485 148.774Z" fill="#0066FF"/>
<path d="M166.863 145.521L169.578 150.423C169.604 150.483 169.609 150.535 169.592 150.579C169.573 150.633 169.53 150.656 169.463 150.647L168.721 150.55C168.609 150.535 168.51 150.505 168.424 150.459C168.339 150.414 168.274 150.342 168.23 150.245L166.044 146.27L164.718 147.485L164.421 149.743C164.4 149.9 164.311 149.969 164.154 149.948L163.479 149.859C163.322 149.838 163.254 149.749 163.274 149.592L164.847 137.659C164.867 137.502 164.956 137.434 165.114 137.454L165.788 137.543C165.945 137.564 166.014 137.653 165.993 137.81L164.922 145.934L165.434 145.435L169.147 141.981C169.247 141.914 169.37 141.89 169.516 141.91L170.376 142.023C170.443 142.032 170.485 142.066 170.5 142.125C170.516 142.173 170.493 142.221 170.429 142.27L166.863 145.521Z" fill="#0066FF"/>
<path d="M179.939 152.72C180.089 152.771 180.139 152.871 180.088 153.022L179.904 153.569C179.853 153.72 179.752 153.769 179.602 153.719L174.463 151.987C174.313 151.936 174.263 151.835 174.314 151.685L174.498 151.137C174.549 150.987 174.649 150.937 174.8 150.988L176.862 151.683L178.909 145.61L177.024 144.974C176.874 144.924 176.824 144.823 176.875 144.673L177.059 144.125C177.11 143.975 177.211 143.925 177.361 143.975L180.18 144.926C180.33 144.976 180.38 145.077 180.33 145.227L178.022 152.074L179.939 152.72ZM179.626 141.833C179.709 141.586 179.866 141.405 180.096 141.291C180.34 141.17 180.585 141.151 180.832 141.235C181.079 141.318 181.258 141.48 181.368 141.72C181.493 141.954 181.514 142.194 181.43 142.441C181.347 142.688 181.183 142.872 180.939 142.993C180.709 143.107 180.471 143.122 180.224 143.039C179.977 142.956 179.791 142.797 179.667 142.564C179.556 142.323 179.543 142.08 179.626 141.833Z" fill="#0066FF"/>
<path d="M190.378 158.129C190.515 158.208 190.544 158.317 190.465 158.454L190.177 158.955C190.097 159.092 189.989 159.122 189.852 159.042L185.079 156.294C184.941 156.214 184.912 156.106 184.991 155.968L185.28 155.468C185.359 155.33 185.467 155.301 185.605 155.38L187.579 156.517L192.763 147.516L191.201 146.617C191.064 146.538 191.034 146.429 191.114 146.292L191.402 145.791C191.481 145.653 191.59 145.624 191.727 145.703L194.143 147.095C194.281 147.174 194.31 147.282 194.231 147.42L188.639 157.128L190.378 158.129Z" fill="#0066FF"/>
<path d="M199.487 165.393C199.607 165.497 199.614 165.609 199.51 165.729L199.131 166.165C199.027 166.284 198.915 166.292 198.795 166.188L194.641 162.571C194.521 162.467 194.513 162.355 194.617 162.235L194.997 161.799C195.101 161.68 195.213 161.672 195.333 161.776L197.051 163.272L203.871 155.438L202.512 154.255C202.393 154.151 202.385 154.039 202.489 153.919L202.869 153.483C202.973 153.363 203.085 153.356 203.204 153.46L205.307 155.29C205.427 155.395 205.434 155.507 205.33 155.626L197.974 164.076L199.487 165.393Z" fill="#0066FF"/>
<path d="M203.753 169.951C203.975 170.697 204.323 171.374 204.797 171.982C205.194 172.492 205.653 172.823 206.175 172.977C206.713 173.133 207.111 173.11 207.371 172.908C207.612 172.72 207.746 172.458 207.771 172.122C207.797 171.786 207.77 171.419 207.69 171.021C207.614 170.592 207.533 170.174 207.446 169.768C207.375 169.363 207.301 168.954 207.223 168.541C207.128 168.069 207.139 167.658 207.255 167.309C207.387 166.962 207.569 166.698 207.802 166.517C208.088 166.294 208.391 166.158 208.712 166.109C209.033 166.06 209.362 166.077 209.7 166.159C210.037 166.242 210.364 166.403 210.681 166.645C211.014 166.888 211.316 167.184 211.588 167.533C211.839 167.855 212.051 168.164 212.224 168.46C212.397 168.756 212.55 169.082 212.684 169.437C212.715 169.514 212.726 169.584 212.718 169.648C212.717 169.72 212.686 169.773 212.626 169.806L212.165 170.1C212.087 170.147 212.018 170.15 211.958 170.11C211.905 170.08 211.871 170.035 211.854 169.976C211.75 169.64 211.622 169.338 211.47 169.068C211.318 168.799 211.127 168.517 210.897 168.222C210.054 167.14 209.266 166.885 208.533 167.456C208.399 167.56 208.311 167.743 208.271 168.005C208.239 168.259 208.283 168.62 208.403 169.087C208.507 169.552 208.596 169.971 208.671 170.344C208.761 170.718 208.846 171.141 208.925 171.611C208.999 172.185 208.966 172.642 208.827 172.98C208.696 173.327 208.469 173.626 208.147 173.876C207.887 174.078 207.564 174.208 207.178 174.265C206.791 174.322 206.416 174.283 206.054 174.149C205.698 174.024 205.351 173.827 205.012 173.559C204.665 173.298 204.359 172.998 204.095 172.658C203.928 172.443 203.782 172.248 203.659 172.071C203.543 171.903 203.434 171.736 203.334 171.57C203.24 171.413 203.148 171.248 203.056 171.075C202.971 170.911 202.889 170.731 202.808 170.536C202.741 170.358 202.765 170.231 202.879 170.157L203.455 169.817C203.61 169.739 203.709 169.784 203.753 169.951Z" fill="#0066FF"/>
<path d="M210.887 186.693L210.523 186.878C210.412 186.935 210.347 186.955 210.326 186.94C210.301 186.941 210.26 186.885 210.203 186.774L206.625 179.744C206.569 179.633 206.545 179.562 206.555 179.532C206.56 179.517 206.618 179.481 206.729 179.424L207.093 179.239C207.204 179.183 207.272 179.154 207.298 179.154C207.318 179.169 207.357 179.232 207.413 179.343L210.991 186.373C211.048 186.484 211.074 186.547 211.069 186.563C211.059 186.593 210.998 186.637 210.887 186.693Z" fill="#0066FF"/>
<defs>
<filter id="filter0_d_260_13707" x="0" y="0" width="313" height="420" filterUnits="userSpaceOnUse" color-interpolation-filters="sRGB">
<feFlood flood-opacity="0" result="BackgroundImageFix"/>
<feColorMatrix in="SourceAlpha" type="matrix" values="0 0 0 0 0 0 0 0 0 0 0 0 0 0 0 0 0 0 127 0" result="hardAlpha"/>
<feOffset dy="4"/>
<feGaussianBlur stdDeviation="2"/>
<feComposite in2="hardAlpha" operator="out"/>
<feColorMatrix type="matrix" values="0 0 0 0 0 0 0 0 0 0 0 0 0 0 0 0 0 0 0.15 0"/>
<feBlend mode="normal" in2="BackgroundImageFix" result="effect1_dropShadow_260_13707"/>
<feBlend mode="normal" in="SourceGraphic" in2="effect1_dropShadow_260_13707" result="shape"/>
</filter>
</defs>
</svg>
