<svg width="313" height="420" viewBox="0 0 313 420" fill="none" xmlns="http://www.w3.org/2000/svg">
<g filter="url(#filter0_d_554_268)">
<rect x="4" width="305" height="412" rx="20" fill="#D0E6FF"/>
</g>
<mask id="mask0_554_268" style="mask-type:alpha" maskUnits="userSpaceOnUse" x="4" y="0" width="305" height="412">
<rect x="4" width="305" height="412" rx="20" fill="#D0E6FF"/>
</mask>
<g mask="url(#mask0_554_268)">
<path d="M157.5 -116L170.777 83.4178L226.613 -108.484L196.711 89.1262L292.494 -86.2855L220.811 100.276L352.063 -50.4439L241.951 116.346L402.535 -2.63469L259.142 136.585L441.549 54.9067L271.58 160.046L467.281 119.49L278.684 185.633L478.529 188.094L280.122 212.148L474.765 257.513L275.826 238.353L456.166 324.499L265.997 263.022L423.602 385.922L251.095 285L378.595 438.908L231.817 303.262L323.251 480.98L209.063 316.952L260.155 510.171L183.899 325.431L192.26 525.115L157.5 328.302L122.74 525.115L131.101 325.431L54.8446 510.171L105.937 316.952L-8.25056 480.98L83.1833 303.262L-63.5954 438.908L63.9049 285L-108.602 385.922L49.0029 263.022L-141.166 324.499L39.1741 238.353L-159.765 257.513L34.878 212.148L-163.529 188.094L36.3156 185.633L-152.281 119.49L43.4197 160.046L-126.549 54.9067L55.8581 136.585L-87.5351 -2.63469L73.0491 116.346L-37.0635 -50.4439L94.1889 100.276L22.5057 -86.2855L118.289 89.1262L88.387 -108.484L144.223 83.4178L157.5 -116Z" fill="#0066FF" fill-opacity="0.25" style="mix-blend-mode:multiply"/>
</g>
<rect x="24" y="20" width="265" height="372" rx="19" stroke="#F0FF44" stroke-width="2"/>
<path d="M9.86483 19.3333L23.627 22.4557L24.2373 8.7302L28.621 21.8929L41.0919 15.8141L31.7135 25.8544L43.5741 33.5012L29.8119 30.3788L29.2017 44.1043L24.8179 30.9416L12.347 37.0204L21.7254 26.9801L9.86483 19.3333Z" fill="#F0FF44" fill-opacity="0.5"/>
<path d="M9.86483 379.333L23.627 382.456L24.2373 368.73L28.621 381.893L41.0919 375.814L31.7135 385.855L43.5741 393.501L29.8119 390.379L29.2017 404.104L24.8179 390.942L12.347 397.02L21.7254 386.98L9.86483 379.333Z" fill="#F0FF44" fill-opacity="0.5"/>
<path d="M267.865 19.3333L281.627 22.4557L282.237 8.7302L286.621 21.8929L299.092 15.8141L289.713 25.8544L301.574 33.5012L287.812 30.3788L287.202 44.1043L282.818 30.9416L270.347 37.0204L279.725 26.9801L267.865 19.3333Z" fill="#F0FF44" fill-opacity="0.5"/>
<path d="M267.865 379.333L281.627 382.456L282.237 368.73L286.621 381.893L299.092 375.814L289.713 385.855L301.574 393.501L287.812 390.379L287.202 404.104L282.818 390.942L270.347 397.02L279.725 386.98L267.865 379.333Z" fill="#F0FF44" fill-opacity="0.5"/>
<path d="M118.11 128C118.043 128 117.983 127.973 117.93 127.92C117.89 127.88 117.87 127.82 117.87 127.74V126.14C117.87 126.073 117.89 126.02 117.93 125.98C117.983 125.927 118.043 125.9 118.11 125.9H120.21V116.22H118.41C118.343 116.22 118.283 116.2 118.23 116.16C118.19 116.107 118.17 116.04 118.17 115.96V114.36C118.17 114.293 118.19 114.24 118.23 114.2C118.283 114.147 118.343 114.12 118.41 114.12H124.27C124.337 114.12 124.39 114.147 124.43 114.2C124.483 114.24 124.51 114.293 124.51 114.36V115.96C124.51 116.133 124.43 116.22 124.27 116.22H122.47V125.9H124.57C124.637 125.9 124.69 125.927 124.73 125.98C124.783 126.02 124.81 126.073 124.81 126.14V127.74C124.81 127.913 124.73 128 124.57 128H118.11ZM134.27 128C134.203 128 134.143 127.967 134.09 127.9C134.05 127.847 134.03 127.787 134.03 127.72V122.14C134.03 121.18 133.903 120.487 133.65 120.06C133.41 119.633 133.043 119.42 132.55 119.42C131.977 119.42 131.497 119.667 131.11 120.16C130.737 120.64 130.55 121.34 130.55 122.26V127.74C130.55 127.913 130.47 128 130.31 128H128.67C128.603 128 128.543 127.967 128.49 127.9C128.45 127.847 128.43 127.787 128.43 127.72V120.54C128.43 120.033 128.423 119.547 128.41 119.08C128.41 118.613 128.397 118.247 128.37 117.98C128.343 117.807 128.437 117.72 128.65 117.72H130.21C130.357 117.72 130.417 117.773 130.39 117.88L130.37 118.6C130.597 118.28 130.91 118.007 131.31 117.78C131.723 117.553 132.157 117.44 132.61 117.44C133.57 117.44 134.397 117.8 135.09 118.52C135.797 119.227 136.15 120.333 136.15 121.84V127.74C136.15 127.913 136.07 128 135.91 128H134.27ZM142.51 128.24C141.897 128.24 141.357 128.107 140.89 127.84C140.437 127.587 140.043 127.227 139.71 126.76C139.39 126.28 139.143 125.7 138.97 125.02C138.797 124.327 138.71 123.593 138.71 122.82C138.71 122.233 138.797 121.587 138.97 120.88C139.157 120.16 139.41 119.547 139.73 119.04C140.063 118.533 140.457 118.147 140.91 117.88C141.377 117.6 141.91 117.46 142.51 117.46C142.95 117.46 143.363 117.567 143.75 117.78C144.15 117.98 144.497 118.287 144.79 118.7V113.12C144.79 113.013 144.803 112.947 144.83 112.92C144.857 112.893 144.91 112.88 144.99 112.88H146.71C146.857 112.88 146.93 112.96 146.93 113.12V127.7C146.93 127.9 146.837 128 146.65 128H145.05C144.877 128 144.79 127.9 144.79 127.7V126.92C144.563 127.32 144.237 127.64 143.81 127.88C143.383 128.12 142.95 128.24 142.51 128.24ZM142.97 119.5C142.33 119.5 141.837 119.833 141.49 120.5C141.143 121.167 140.97 121.94 140.97 122.82C140.97 123.767 141.15 124.573 141.51 125.24C141.87 125.893 142.357 126.22 142.97 126.22C143.223 126.22 143.47 126.133 143.71 125.96C143.95 125.787 144.157 125.54 144.33 125.22C144.517 124.9 144.657 124.52 144.75 124.08C144.843 123.627 144.89 123.207 144.89 122.82C144.89 121.873 144.717 121.087 144.37 120.46C144.037 119.82 143.57 119.5 142.97 119.5ZM158.03 123.46C158.03 123.567 158.003 123.647 157.95 123.7C157.91 123.74 157.85 123.76 157.77 123.76H152.29C152.303 124.467 152.483 125.073 152.83 125.58C153.19 126.073 153.763 126.32 154.55 126.32C155.03 126.32 155.45 126.267 155.81 126.16C156.183 126.04 156.563 125.84 156.95 125.56C157.057 125.507 157.117 125.513 157.13 125.58C157.157 125.647 157.17 125.727 157.17 125.82V127.24C157.17 127.36 157.15 127.447 157.11 127.5C157.07 127.567 157.003 127.633 156.91 127.7C156.563 127.887 156.21 128.033 155.85 128.14C155.503 128.247 155.07 128.3 154.55 128.3C153.03 128.3 151.897 127.813 151.15 126.84C150.403 125.867 150.03 124.58 150.03 122.98C150.03 122.3 150.11 121.64 150.27 121C150.43 120.347 150.677 119.76 151.01 119.24C151.357 118.72 151.79 118.293 152.31 117.96C152.83 117.627 153.43 117.46 154.11 117.46C154.83 117.46 155.437 117.613 155.93 117.92C156.437 118.227 156.843 118.633 157.15 119.14C157.47 119.633 157.697 120.2 157.83 120.84C157.977 121.48 158.05 122.173 158.05 122.92C158.05 123.013 158.043 123.12 158.03 123.24C158.03 123.347 158.03 123.42 158.03 123.46ZM154.07 119.38C153.75 119.38 153.463 119.473 153.21 119.66C152.97 119.833 152.777 120.073 152.63 120.38C152.497 120.673 152.403 120.947 152.35 121.2C152.31 121.44 152.29 121.633 152.29 121.78H155.87C155.87 121.633 155.843 121.44 155.79 121.2C155.75 120.947 155.657 120.673 155.51 120.38C155.377 120.073 155.183 119.833 154.93 119.66C154.677 119.473 154.39 119.38 154.07 119.38ZM167.15 127.58C166.47 128.047 165.617 128.287 164.59 128.3C164.323 128.3 164.043 128.287 163.75 128.26C163.47 128.233 163.203 128.2 162.95 128.16C162.71 128.133 162.463 128.087 162.21 128.02C161.97 127.967 161.79 127.913 161.67 127.86C161.617 127.847 161.557 127.813 161.49 127.76C161.437 127.707 161.417 127.633 161.43 127.54L161.55 126.2C161.563 126.08 161.583 126.007 161.61 125.98C161.637 125.953 161.723 125.96 161.87 126C162.337 126.133 162.797 126.233 163.25 126.3C163.717 126.353 164.137 126.38 164.51 126.38C165.097 126.38 165.53 126.28 165.81 126.08C166.103 125.867 166.25 125.58 166.25 125.22C166.25 125.033 166.177 124.84 166.03 124.64C165.883 124.427 165.637 124.213 165.29 124C164.93 123.787 164.557 123.573 164.17 123.36C163.783 123.133 163.403 122.92 163.03 122.72C162.603 122.48 162.243 122.147 161.95 121.72C161.67 121.293 161.53 120.88 161.53 120.48C161.53 119.987 161.63 119.547 161.83 119.16C162.03 118.76 162.297 118.427 162.63 118.16C162.963 117.893 163.343 117.7 163.77 117.58C164.21 117.46 164.67 117.4 165.15 117.4C165.403 117.4 165.663 117.413 165.93 117.44C166.21 117.467 166.477 117.507 166.73 117.56C166.997 117.6 167.23 117.653 167.43 117.72C167.643 117.773 167.803 117.833 167.91 117.9C167.977 117.927 168.01 117.96 168.01 118C168.023 118.027 168.023 118.073 168.01 118.14L167.89 119.46C167.877 119.593 167.837 119.68 167.77 119.72C167.703 119.747 167.61 119.733 167.49 119.68C167.237 119.587 166.95 119.5 166.63 119.42C166.377 119.367 166.13 119.333 165.89 119.32C165.663 119.293 165.457 119.28 165.27 119.28C164.723 119.28 164.337 119.38 164.11 119.58C163.883 119.78 163.77 120 163.77 120.24C163.77 120.467 163.897 120.7 164.15 120.94C164.403 121.167 164.723 121.38 165.11 121.58C165.537 121.793 165.923 122.007 166.27 122.22C166.617 122.42 166.877 122.587 167.05 122.72C167.53 123.053 167.89 123.42 168.13 123.82C168.37 124.207 168.49 124.613 168.49 125.04C168.49 126.08 168.043 126.927 167.15 127.58ZM172.19 128C172.123 128 172.063 127.973 172.01 127.92C171.97 127.88 171.95 127.82 171.95 127.74V126.18C171.95 126.113 171.97 126.06 172.01 126.02C172.063 125.967 172.123 125.94 172.19 125.94H174.91V119.78H172.55C172.483 119.78 172.423 119.76 172.37 119.72C172.33 119.667 172.31 119.6 172.31 119.52V117.96C172.31 117.893 172.33 117.84 172.37 117.8C172.423 117.747 172.483 117.72 172.55 117.72H176.83C176.897 117.72 176.95 117.747 176.99 117.8C177.043 117.84 177.07 117.893 177.07 117.96V125.94H179.53C179.597 125.94 179.65 125.967 179.69 126.02C179.743 126.06 179.77 126.113 179.77 126.18V127.74C179.77 127.913 179.69 128 179.53 128H172.19ZM175.71 116.14C175.283 116.14 174.923 115.993 174.63 115.7C174.337 115.407 174.19 115.053 174.19 114.64C174.19 114.2 174.337 113.833 174.63 113.54C174.923 113.233 175.283 113.08 175.71 113.08C176.15 113.08 176.517 113.233 176.81 113.54C177.117 113.833 177.27 114.2 177.27 114.64C177.27 115.053 177.117 115.407 176.81 115.7C176.517 115.993 176.15 116.14 175.71 116.14ZM186.19 130.98C185.75 130.98 185.303 130.947 184.85 130.88C184.41 130.813 183.977 130.687 183.55 130.5C183.443 130.447 183.37 130.4 183.33 130.36C183.303 130.32 183.29 130.26 183.29 130.18L183.37 128.52C183.383 128.293 183.497 128.233 183.71 128.34C184.097 128.553 184.51 128.713 184.95 128.82C185.39 128.927 185.81 128.98 186.21 128.98C186.943 128.98 187.51 128.747 187.91 128.28C188.323 127.827 188.537 127.24 188.55 126.52C188.27 126.867 187.95 127.127 187.59 127.3C187.23 127.473 186.857 127.56 186.47 127.56C185.897 127.56 185.39 127.453 184.95 127.24C184.523 127.027 184.117 126.693 183.73 126.24C183.343 125.773 183.05 125.227 182.85 124.6C182.65 123.973 182.55 123.34 182.55 122.7C182.55 121.113 182.903 119.853 183.61 118.92C184.317 117.987 185.25 117.52 186.41 117.52C186.743 117.52 187.057 117.567 187.35 117.66C187.657 117.74 187.93 117.887 188.17 118.1C188.423 118.3 188.61 118.507 188.73 118.72L188.71 117.98C188.697 117.873 188.703 117.807 188.73 117.78C188.757 117.74 188.823 117.72 188.93 117.72H190.37C190.503 117.72 190.57 117.813 190.57 118V125.68C190.57 127.36 190.197 128.66 189.45 129.58C188.703 130.513 187.617 130.98 186.19 130.98ZM186.63 119.48C186.017 119.48 185.543 119.793 185.21 120.42C184.89 121.033 184.73 121.793 184.73 122.7C184.73 123.167 184.777 123.593 184.87 123.98C184.977 124.367 185.117 124.68 185.29 124.92C185.477 125.16 185.67 125.353 185.87 125.5C186.07 125.633 186.297 125.7 186.55 125.7C186.843 125.7 187.097 125.633 187.31 125.5C187.537 125.353 187.73 125.167 187.89 124.94C188.05 124.713 188.183 124.4 188.29 124C188.41 123.6 188.47 123.167 188.47 122.7C188.47 121.78 188.31 121.013 187.99 120.4C187.67 119.787 187.217 119.48 186.63 119.48ZM199.67 128C199.603 128 199.543 127.967 199.49 127.9C199.45 127.847 199.43 127.787 199.43 127.72V122.14C199.43 121.18 199.303 120.487 199.05 120.06C198.81 119.633 198.443 119.42 197.95 119.42C197.377 119.42 196.897 119.667 196.51 120.16C196.137 120.64 195.95 121.34 195.95 122.26V127.74C195.95 127.913 195.87 128 195.71 128H194.07C194.003 128 193.943 127.967 193.89 127.9C193.85 127.847 193.83 127.787 193.83 127.72V120.54C193.83 120.033 193.823 119.547 193.81 119.08C193.81 118.613 193.797 118.247 193.77 117.98C193.743 117.807 193.837 117.72 194.05 117.72H195.61C195.757 117.72 195.817 117.773 195.79 117.88L195.77 118.6C195.997 118.28 196.31 118.007 196.71 117.78C197.123 117.553 197.557 117.44 198.01 117.44C198.97 117.44 199.797 117.8 200.49 118.52C201.197 119.227 201.55 120.333 201.55 121.84V127.74C201.55 127.913 201.47 128 201.31 128H199.67ZM114.4 167.68V172.74C114.4 172.913 114.313 173 114.14 173H112.44C112.28 173 112.2 172.913 112.2 172.74V159.36C112.2 159.293 112.22 159.24 112.26 159.2C112.313 159.147 112.373 159.12 112.44 159.12H115.38C116.86 159.12 118.027 159.48 118.88 160.2C119.747 160.92 120.18 161.973 120.18 163.36C120.18 164.093 120.053 164.713 119.8 165.22C119.56 165.713 119.213 166.153 118.76 166.54C118.32 166.913 117.793 167.2 117.18 167.4C116.58 167.587 115.92 167.68 115.2 167.68H114.4ZM114.4 161.22V165.6H115.26C116.1 165.6 116.753 165.407 117.22 165.02C117.7 164.633 117.94 164.073 117.94 163.34C117.94 162.58 117.733 162.04 117.32 161.72C116.907 161.387 116.367 161.22 115.7 161.22H114.4ZM128.56 173C128.4 173 128.32 172.92 128.32 172.76V167.44C128.32 166.44 128.207 165.713 127.98 165.26C127.753 164.793 127.387 164.56 126.88 164.56C125.667 164.56 124.993 165.267 124.86 166.68V172.76C124.86 172.92 124.787 173 124.64 173H122.96C122.907 173 122.853 172.973 122.8 172.92C122.76 172.88 122.74 172.827 122.74 172.76V158.2C122.74 158.133 122.76 158.08 122.8 158.04C122.853 157.987 122.907 157.96 122.96 157.96H124.52C124.573 157.96 124.62 157.987 124.66 158.04C124.7 158.08 124.72 158.133 124.72 158.2V163.6C125.013 163.24 125.353 162.973 125.74 162.8C126.14 162.613 126.547 162.52 126.96 162.52C129.293 162.52 130.46 164.153 130.46 167.42V172.76C130.46 172.827 130.433 172.88 130.38 172.92C130.34 172.973 130.293 173 130.24 173H128.56ZM140.84 171.6C140.453 172.16 139.993 172.58 139.46 172.86C138.94 173.153 138.353 173.3 137.7 173.3C137.033 173.3 136.44 173.16 135.92 172.88C135.413 172.6 134.98 172.213 134.62 171.72C134.273 171.213 134.013 170.633 133.84 169.98C133.667 169.327 133.58 168.627 133.58 167.88C133.58 167.133 133.667 166.433 133.84 165.78C134.013 165.127 134.273 164.553 134.62 164.06C134.98 163.567 135.413 163.18 135.92 162.9C136.427 162.62 137.02 162.48 137.7 162.48C138.367 162.48 138.953 162.62 139.46 162.9C139.98 163.18 140.413 163.567 140.76 164.06C141.12 164.553 141.387 165.127 141.56 165.78C141.733 166.433 141.82 167.133 141.82 167.88C141.82 168.613 141.733 169.3 141.56 169.94C141.387 170.58 141.147 171.133 140.84 171.6ZM137.7 164.44C137.353 164.44 137.06 164.54 136.82 164.74C136.58 164.94 136.38 165.207 136.22 165.54C136.073 165.86 135.953 166.227 135.86 166.64C135.78 167.053 135.74 167.467 135.74 167.88C135.74 168.307 135.78 168.727 135.86 169.14C135.953 169.54 136.073 169.907 136.22 170.24C136.38 170.573 136.58 170.84 136.82 171.04C137.06 171.24 137.353 171.34 137.7 171.34C138.033 171.34 138.32 171.24 138.56 171.04C138.813 170.84 139.013 170.573 139.16 170.24C139.32 169.907 139.44 169.54 139.52 169.14C139.613 168.727 139.66 168.307 139.66 167.88C139.66 167.467 139.613 167.06 139.52 166.66C139.44 166.247 139.32 165.88 139.16 165.56C139.013 165.227 138.813 164.96 138.56 164.76C138.32 164.547 138.033 164.44 137.7 164.44ZM152.52 172.78C152.027 172.953 151.527 173.08 151.02 173.16C150.527 173.24 150.107 173.273 149.76 173.26C149.067 173.26 148.513 173.14 148.1 172.9C147.687 172.673 147.4 172.407 147.24 172.1C147.053 171.753 146.94 171.347 146.9 170.88C146.86 170.413 146.84 169.78 146.84 168.98V165.2H144.64C144.573 165.2 144.513 165.18 144.46 165.14C144.42 165.087 144.4 165.027 144.4 164.96V163.38C144.4 163.313 144.42 163.26 144.46 163.22C144.513 163.167 144.573 163.14 144.64 163.14H146.84V160.24C146.84 160.173 146.867 160.12 146.92 160.08C146.973 160.027 147.033 160 147.1 160H148.72C148.8 160 148.86 160.027 148.9 160.08C148.953 160.12 148.98 160.173 148.98 160.24V163.14H152.34C152.407 163.14 152.46 163.167 152.5 163.22C152.553 163.26 152.58 163.313 152.58 163.38V164.96C152.58 165.027 152.553 165.087 152.5 165.14C152.46 165.18 152.407 165.2 152.34 165.2H148.98V169.1C148.98 169.967 149 170.52 149.04 170.76C149.067 171.013 149.187 171.167 149.4 171.22C149.627 171.273 149.927 171.3 150.3 171.3C150.607 171.3 150.927 171.267 151.26 171.2C151.593 171.133 151.92 171.047 152.24 170.94C152.307 170.913 152.353 170.913 152.38 170.94C152.407 170.953 152.433 171.013 152.46 171.12L152.62 172.54C152.633 172.633 152.6 172.713 152.52 172.78ZM162.64 171.6C162.253 172.16 161.793 172.58 161.26 172.86C160.74 173.153 160.153 173.3 159.5 173.3C158.833 173.3 158.24 173.16 157.72 172.88C157.213 172.6 156.78 172.213 156.42 171.72C156.073 171.213 155.813 170.633 155.64 169.98C155.467 169.327 155.38 168.627 155.38 167.88C155.38 167.133 155.467 166.433 155.64 165.78C155.813 165.127 156.073 164.553 156.42 164.06C156.78 163.567 157.213 163.18 157.72 162.9C158.227 162.62 158.82 162.48 159.5 162.48C160.167 162.48 160.753 162.62 161.26 162.9C161.78 163.18 162.213 163.567 162.56 164.06C162.92 164.553 163.187 165.127 163.36 165.78C163.533 166.433 163.62 167.133 163.62 167.88C163.62 168.613 163.533 169.3 163.36 169.94C163.187 170.58 162.947 171.133 162.64 171.6ZM159.5 164.44C159.153 164.44 158.86 164.54 158.62 164.74C158.38 164.94 158.18 165.207 158.02 165.54C157.873 165.86 157.753 166.227 157.66 166.64C157.58 167.053 157.54 167.467 157.54 167.88C157.54 168.307 157.58 168.727 157.66 169.14C157.753 169.54 157.873 169.907 158.02 170.24C158.18 170.573 158.38 170.84 158.62 171.04C158.86 171.24 159.153 171.34 159.5 171.34C159.833 171.34 160.12 171.24 160.36 171.04C160.613 170.84 160.813 170.573 160.96 170.24C161.12 169.907 161.24 169.54 161.32 169.14C161.413 168.727 161.46 168.307 161.46 167.88C161.46 167.467 161.413 167.06 161.32 166.66C161.24 166.247 161.12 165.88 160.96 165.56C160.813 165.227 160.613 164.96 160.36 164.76C160.12 164.547 159.833 164.44 159.5 164.44ZM172.6 172.58C171.92 173.047 171.067 173.287 170.04 173.3C169.773 173.3 169.493 173.287 169.2 173.26C168.92 173.233 168.653 173.2 168.4 173.16C168.16 173.133 167.913 173.087 167.66 173.02C167.42 172.967 167.24 172.913 167.12 172.86C167.067 172.847 167.007 172.813 166.94 172.76C166.887 172.707 166.867 172.633 166.88 172.54L167 171.2C167.013 171.08 167.033 171.007 167.06 170.98C167.087 170.953 167.173 170.96 167.32 171C167.787 171.133 168.247 171.233 168.7 171.3C169.167 171.353 169.587 171.38 169.96 171.38C170.547 171.38 170.98 171.28 171.26 171.08C171.553 170.867 171.7 170.58 171.7 170.22C171.7 170.033 171.627 169.84 171.48 169.64C171.333 169.427 171.087 169.213 170.74 169C170.38 168.787 170.007 168.573 169.62 168.36C169.233 168.133 168.853 167.92 168.48 167.72C168.053 167.48 167.693 167.147 167.4 166.72C167.12 166.293 166.98 165.88 166.98 165.48C166.98 164.987 167.08 164.547 167.28 164.16C167.48 163.76 167.747 163.427 168.08 163.16C168.413 162.893 168.793 162.7 169.22 162.58C169.66 162.46 170.12 162.4 170.6 162.4C170.853 162.4 171.113 162.413 171.38 162.44C171.66 162.467 171.927 162.507 172.18 162.56C172.447 162.6 172.68 162.653 172.88 162.72C173.093 162.773 173.253 162.833 173.36 162.9C173.427 162.927 173.46 162.96 173.46 163C173.473 163.027 173.473 163.073 173.46 163.14L173.34 164.46C173.327 164.593 173.287 164.68 173.22 164.72C173.153 164.747 173.06 164.733 172.94 164.68C172.687 164.587 172.4 164.5 172.08 164.42C171.827 164.367 171.58 164.333 171.34 164.32C171.113 164.293 170.907 164.28 170.72 164.28C170.173 164.28 169.787 164.38 169.56 164.58C169.333 164.78 169.22 165 169.22 165.24C169.22 165.467 169.347 165.7 169.6 165.94C169.853 166.167 170.173 166.38 170.56 166.58C170.987 166.793 171.373 167.007 171.72 167.22C172.067 167.42 172.327 167.587 172.5 167.72C172.98 168.053 173.34 168.42 173.58 168.82C173.82 169.207 173.94 169.613 173.94 170.04C173.94 171.08 173.493 171.927 172.6 172.58ZM183.06 173C182.9 173 182.82 172.92 182.82 172.76V167.44C182.82 166.44 182.707 165.713 182.48 165.26C182.253 164.793 181.887 164.56 181.38 164.56C180.167 164.56 179.493 165.267 179.36 166.68V172.76C179.36 172.92 179.287 173 179.14 173H177.46C177.407 173 177.353 172.973 177.3 172.92C177.26 172.88 177.24 172.827 177.24 172.76V158.2C177.24 158.133 177.26 158.08 177.3 158.04C177.353 157.987 177.407 157.96 177.46 157.96H179.02C179.073 157.96 179.12 157.987 179.16 158.04C179.2 158.08 179.22 158.133 179.22 158.2V163.6C179.513 163.24 179.853 162.973 180.24 162.8C180.64 162.613 181.047 162.52 181.46 162.52C183.793 162.52 184.96 164.153 184.96 167.42V172.76C184.96 172.827 184.933 172.88 184.88 172.92C184.84 172.973 184.793 173 184.74 173H183.06ZM195.34 171.6C194.953 172.16 194.493 172.58 193.96 172.86C193.44 173.153 192.853 173.3 192.2 173.3C191.533 173.3 190.94 173.16 190.42 172.88C189.913 172.6 189.48 172.213 189.12 171.72C188.773 171.213 188.513 170.633 188.34 169.98C188.167 169.327 188.08 168.627 188.08 167.88C188.08 167.133 188.167 166.433 188.34 165.78C188.513 165.127 188.773 164.553 189.12 164.06C189.48 163.567 189.913 163.18 190.42 162.9C190.927 162.62 191.52 162.48 192.2 162.48C192.867 162.48 193.453 162.62 193.96 162.9C194.48 163.18 194.913 163.567 195.26 164.06C195.62 164.553 195.887 165.127 196.06 165.78C196.233 166.433 196.32 167.133 196.32 167.88C196.32 168.613 196.233 169.3 196.06 169.94C195.887 170.58 195.647 171.133 195.34 171.6ZM192.2 164.44C191.853 164.44 191.56 164.54 191.32 164.74C191.08 164.94 190.88 165.207 190.72 165.54C190.573 165.86 190.453 166.227 190.36 166.64C190.28 167.053 190.24 167.467 190.24 167.88C190.24 168.307 190.28 168.727 190.36 169.14C190.453 169.54 190.573 169.907 190.72 170.24C190.88 170.573 191.08 170.84 191.32 171.04C191.56 171.24 191.853 171.34 192.2 171.34C192.533 171.34 192.82 171.24 193.06 171.04C193.313 170.84 193.513 170.573 193.66 170.24C193.82 169.907 193.94 169.54 194.02 169.14C194.113 168.727 194.16 168.307 194.16 167.88C194.16 167.467 194.113 167.06 194.02 166.66C193.94 166.247 193.82 165.88 193.66 165.56C193.513 165.227 193.313 164.96 193.06 164.76C192.82 164.547 192.533 164.44 192.2 164.44ZM203.62 162.48C204.233 162.48 204.767 162.613 205.22 162.88C205.687 163.133 206.08 163.5 206.4 163.98C206.733 164.447 206.987 165.027 207.16 165.72C207.333 166.4 207.42 167.127 207.42 167.9C207.42 168.487 207.327 169.14 207.14 169.86C206.967 170.567 206.713 171.173 206.38 171.68C206.06 172.187 205.667 172.573 205.2 172.84C204.747 173.12 204.22 173.26 203.62 173.26C203.18 173.26 202.76 173.153 202.36 172.94C201.973 172.74 201.633 172.433 201.34 172.02V175.74C201.34 175.847 201.327 175.913 201.3 175.94C201.273 175.967 201.22 175.98 201.14 175.98H199.42C199.273 175.98 199.2 175.9 199.2 175.74V163.02C199.2 162.82 199.293 162.72 199.48 162.72H201.08C201.253 162.72 201.34 162.82 201.34 163.02V163.8C201.567 163.4 201.893 163.08 202.32 162.84C202.747 162.6 203.18 162.48 203.62 162.48ZM203.16 171.22C203.8 171.22 204.293 170.887 204.64 170.22C204.987 169.553 205.16 168.78 205.16 167.9C205.16 166.953 204.98 166.153 204.62 165.5C204.26 164.833 203.773 164.5 203.16 164.5C202.907 164.5 202.66 164.587 202.42 164.76C202.18 164.933 201.967 165.18 201.78 165.5C201.607 165.82 201.473 166.207 201.38 166.66C201.287 167.1 201.24 167.513 201.24 167.9C201.24 168.847 201.407 169.64 201.74 170.28C202.087 170.907 202.56 171.22 203.16 171.22ZM101.76 218C101.693 218 101.633 217.973 101.58 217.92C101.54 217.88 101.52 217.82 101.52 217.74V216.14C101.52 216.073 101.54 216.02 101.58 215.98C101.633 215.927 101.693 215.9 101.76 215.9H103.86V206.22H102.06C101.993 206.22 101.933 206.2 101.88 206.16C101.84 206.107 101.82 206.04 101.82 205.96V204.36C101.82 204.293 101.84 204.24 101.88 204.2C101.933 204.147 101.993 204.12 102.06 204.12H107.92C107.987 204.12 108.04 204.147 108.08 204.2C108.133 204.24 108.16 204.293 108.16 204.36V205.96C108.16 206.133 108.08 206.22 107.92 206.22H106.12V215.9H108.22C108.287 215.9 108.34 215.927 108.38 215.98C108.433 216.02 108.46 216.073 108.46 216.14V217.74C108.46 217.913 108.38 218 108.22 218H101.76ZM112.3 218C112.233 218 112.173 217.973 112.12 217.92C112.08 217.88 112.06 217.82 112.06 217.74V216.18C112.06 216.113 112.08 216.06 112.12 216.02C112.173 215.967 112.233 215.94 112.3 215.94H115.02V205.04H112.94C112.873 205.04 112.813 205.02 112.76 204.98C112.72 204.927 112.7 204.86 112.7 204.78V203.22C112.7 203.153 112.72 203.1 112.76 203.06C112.813 203.007 112.873 202.98 112.94 202.98H116.94C117.007 202.98 117.06 203.007 117.1 203.06C117.153 203.1 117.18 203.153 117.18 203.22V215.94H119.64C119.707 215.94 119.76 215.967 119.8 216.02C119.853 216.06 119.88 216.113 119.88 216.18V217.74C119.88 217.913 119.8 218 119.64 218H112.3ZM123.2 218C123.133 218 123.073 217.973 123.02 217.92C122.98 217.88 122.96 217.82 122.96 217.74V216.18C122.96 216.113 122.98 216.06 123.02 216.02C123.073 215.967 123.133 215.94 123.2 215.94H125.92V205.04H123.84C123.773 205.04 123.713 205.02 123.66 204.98C123.62 204.927 123.6 204.86 123.6 204.78V203.22C123.6 203.153 123.62 203.1 123.66 203.06C123.713 203.007 123.773 202.98 123.84 202.98H127.84C127.907 202.98 127.96 203.007 128 203.06C128.053 203.1 128.08 203.153 128.08 203.22V215.94H130.54C130.607 215.94 130.66 215.967 130.7 216.02C130.753 216.06 130.78 216.113 130.78 216.18V217.74C130.78 217.913 130.7 218 130.54 218H123.2ZM139.78 218C139.727 218 139.673 217.98 139.62 217.94C139.58 217.913 139.56 217.867 139.56 217.8V216.98C139.307 217.42 138.98 217.753 138.58 217.98C138.193 218.207 137.74 218.32 137.22 218.32C136.22 218.32 135.393 217.94 134.74 217.18C134.1 216.42 133.78 215.333 133.78 213.92V208C133.78 207.933 133.8 207.873 133.84 207.82C133.893 207.753 133.947 207.72 134 207.72H135.7C135.753 207.72 135.8 207.753 135.84 207.82C135.893 207.887 135.92 207.953 135.92 208.02V213.6C135.92 214.6 136.06 215.307 136.34 215.72C136.62 216.133 136.993 216.34 137.46 216.34C138.033 216.34 138.507 216.067 138.88 215.52C139.253 214.973 139.44 214.16 139.44 213.08V208C139.44 207.933 139.46 207.873 139.5 207.82C139.553 207.753 139.62 207.72 139.7 207.72H141.36C141.413 207.72 141.46 207.76 141.5 207.84C141.553 207.907 141.58 207.973 141.58 208.04V215.42C141.58 215.833 141.587 216.24 141.6 216.64C141.613 217.04 141.62 217.407 141.62 217.74C141.62 217.913 141.547 218 141.4 218H139.78ZM150.8 217.58C150.12 218.047 149.267 218.287 148.24 218.3C147.973 218.3 147.693 218.287 147.4 218.26C147.12 218.233 146.853 218.2 146.6 218.16C146.36 218.133 146.113 218.087 145.86 218.02C145.62 217.967 145.44 217.913 145.32 217.86C145.267 217.847 145.207 217.813 145.14 217.76C145.087 217.707 145.067 217.633 145.08 217.54L145.2 216.2C145.213 216.08 145.233 216.007 145.26 215.98C145.287 215.953 145.373 215.96 145.52 216C145.987 216.133 146.447 216.233 146.9 216.3C147.367 216.353 147.787 216.38 148.16 216.38C148.747 216.38 149.18 216.28 149.46 216.08C149.753 215.867 149.9 215.58 149.9 215.22C149.9 215.033 149.827 214.84 149.68 214.64C149.533 214.427 149.287 214.213 148.94 214C148.58 213.787 148.207 213.573 147.82 213.36C147.433 213.133 147.053 212.92 146.68 212.72C146.253 212.48 145.893 212.147 145.6 211.72C145.32 211.293 145.18 210.88 145.18 210.48C145.18 209.987 145.28 209.547 145.48 209.16C145.68 208.76 145.947 208.427 146.28 208.16C146.613 207.893 146.993 207.7 147.42 207.58C147.86 207.46 148.32 207.4 148.8 207.4C149.053 207.4 149.313 207.413 149.58 207.44C149.86 207.467 150.127 207.507 150.38 207.56C150.647 207.6 150.88 207.653 151.08 207.72C151.293 207.773 151.453 207.833 151.56 207.9C151.627 207.927 151.66 207.96 151.66 208C151.673 208.027 151.673 208.073 151.66 208.14L151.54 209.46C151.527 209.593 151.487 209.68 151.42 209.72C151.353 209.747 151.26 209.733 151.14 209.68C150.887 209.587 150.6 209.5 150.28 209.42C150.027 209.367 149.78 209.333 149.54 209.32C149.313 209.293 149.107 209.28 148.92 209.28C148.373 209.28 147.987 209.38 147.76 209.58C147.533 209.78 147.42 210 147.42 210.24C147.42 210.467 147.547 210.7 147.8 210.94C148.053 211.167 148.373 211.38 148.76 211.58C149.187 211.793 149.573 212.007 149.92 212.22C150.267 212.42 150.527 212.587 150.7 212.72C151.18 213.053 151.54 213.42 151.78 213.82C152.02 214.207 152.14 214.613 152.14 215.04C152.14 216.08 151.693 216.927 150.8 217.58ZM163.42 217.78C162.927 217.953 162.427 218.08 161.92 218.16C161.427 218.24 161.007 218.273 160.66 218.26C159.967 218.26 159.413 218.14 159 217.9C158.587 217.673 158.3 217.407 158.14 217.1C157.953 216.753 157.84 216.347 157.8 215.88C157.76 215.413 157.74 214.78 157.74 213.98V210.2H155.54C155.473 210.2 155.413 210.18 155.36 210.14C155.32 210.087 155.3 210.027 155.3 209.96V208.38C155.3 208.313 155.32 208.26 155.36 208.22C155.413 208.167 155.473 208.14 155.54 208.14H157.74V205.24C157.74 205.173 157.767 205.12 157.82 205.08C157.873 205.027 157.933 205 158 205H159.62C159.7 205 159.76 205.027 159.8 205.08C159.853 205.12 159.88 205.173 159.88 205.24V208.14H163.24C163.307 208.14 163.36 208.167 163.4 208.22C163.453 208.26 163.48 208.313 163.48 208.38V209.96C163.48 210.027 163.453 210.087 163.4 210.14C163.36 210.18 163.307 210.2 163.24 210.2H159.88V214.1C159.88 214.967 159.9 215.52 159.94 215.76C159.967 216.013 160.087 216.167 160.3 216.22C160.527 216.273 160.827 216.3 161.2 216.3C161.507 216.3 161.827 216.267 162.16 216.2C162.493 216.133 162.82 216.047 163.14 215.94C163.207 215.913 163.253 215.913 163.28 215.94C163.307 215.953 163.333 216.013 163.36 216.12L163.52 217.54C163.533 217.633 163.5 217.713 163.42 217.78ZM166.54 218C166.473 218 166.413 217.973 166.36 217.92C166.32 217.88 166.3 217.82 166.3 217.74V216.18C166.3 216.113 166.32 216.06 166.36 216.02C166.413 215.967 166.473 215.94 166.54 215.94H167.8V210.42V209.72H166.16C166.093 209.72 166.033 209.7 165.98 209.66C165.94 209.607 165.92 209.54 165.92 209.46V207.96C165.92 207.893 165.94 207.84 165.98 207.8C166.033 207.747 166.093 207.72 166.16 207.72H169.44C169.493 207.72 169.533 207.74 169.56 207.78C169.6 207.807 169.62 207.847 169.62 207.9V209.6C169.753 209.32 169.893 209.08 170.04 208.88C170.2 208.667 170.367 208.48 170.54 208.32C170.727 208.147 170.933 207.993 171.16 207.86C171.4 207.713 171.747 207.587 172.2 207.48C172.773 207.387 173.327 207.4 173.86 207.52C174.407 207.64 174.86 207.847 175.22 208.14C175.287 208.207 175.313 208.267 175.3 208.32C175.287 208.373 175.273 208.427 175.26 208.48L174.6 209.84C174.573 209.92 174.527 209.973 174.46 210C174.407 210.027 174.333 210.013 174.24 209.96C173.933 209.787 173.593 209.667 173.22 209.6C172.847 209.533 172.48 209.533 172.12 209.6C171.493 209.72 171 210.02 170.64 210.5C170.28 210.98 170.06 211.467 169.98 211.96C169.9 212.453 169.86 213.033 169.86 213.7V215.94H171.94C172.007 215.94 172.06 215.967 172.1 216.02C172.153 216.06 172.18 216.113 172.18 216.18V217.74C172.18 217.913 172.1 218 171.94 218H166.54ZM183.44 218C183.347 218 183.287 217.993 183.26 217.98C183.247 217.967 183.24 217.92 183.24 217.84V216.92C182.92 217.387 182.52 217.733 182.04 217.96C181.56 218.2 181.073 218.32 180.58 218.32C180.193 218.32 179.78 218.247 179.34 218.1C178.913 217.967 178.547 217.76 178.24 217.48C177.933 217.213 177.687 216.88 177.5 216.48C177.327 216.08 177.24 215.613 177.24 215.08C177.24 214.507 177.353 213.987 177.58 213.52C177.82 213.04 178.18 212.64 178.66 212.32C179.14 212 179.72 211.767 180.4 211.62C181.093 211.46 181.973 211.38 183.04 211.38C183.04 211.14 183.013 210.92 182.96 210.72C182.92 210.507 182.84 210.307 182.72 210.12C182.6 209.933 182.427 209.78 182.2 209.66C181.987 209.527 181.72 209.46 181.4 209.46C180.973 209.46 180.527 209.54 180.06 209.7C179.607 209.86 179.18 210.073 178.78 210.34C178.58 210.473 178.44 210.533 178.36 210.52C178.293 210.507 178.26 210.433 178.26 210.3V208.74C178.26 208.713 178.253 208.667 178.24 208.6C178.24 208.52 178.267 208.46 178.32 208.42C178.387 208.353 178.473 208.293 178.58 208.24C178.98 208.013 179.42 207.827 179.9 207.68C180.38 207.533 180.867 207.46 181.36 207.46C182.64 207.46 183.593 207.787 184.22 208.44C184.86 209.08 185.18 210.007 185.18 211.22V215.62C185.18 215.98 185.18 216.347 185.18 216.72C185.193 217.093 185.22 217.427 185.26 217.72C185.273 217.907 185.2 218 185.04 218H183.44ZM179.38 214.94C179.38 215.407 179.52 215.76 179.8 216C180.08 216.227 180.38 216.34 180.7 216.34C181.407 216.34 181.987 216.067 182.44 215.52C182.893 214.96 183.12 214.287 183.12 213.5V213.28C181.693 213.28 180.713 213.427 180.18 213.72C179.647 214 179.38 214.407 179.38 214.94ZM196.12 217.78C195.627 217.953 195.127 218.08 194.62 218.16C194.127 218.24 193.707 218.273 193.36 218.26C192.667 218.26 192.113 218.14 191.7 217.9C191.287 217.673 191 217.407 190.84 217.1C190.653 216.753 190.54 216.347 190.5 215.88C190.46 215.413 190.44 214.78 190.44 213.98V210.2H188.24C188.173 210.2 188.113 210.18 188.06 210.14C188.02 210.087 188 210.027 188 209.96V208.38C188 208.313 188.02 208.26 188.06 208.22C188.113 208.167 188.173 208.14 188.24 208.14H190.44V205.24C190.44 205.173 190.467 205.12 190.52 205.08C190.573 205.027 190.633 205 190.7 205H192.32C192.4 205 192.46 205.027 192.5 205.08C192.553 205.12 192.58 205.173 192.58 205.24V208.14H195.94C196.007 208.14 196.06 208.167 196.1 208.22C196.153 208.26 196.18 208.313 196.18 208.38V209.96C196.18 210.027 196.153 210.087 196.1 210.14C196.06 210.18 196.007 210.2 195.94 210.2H192.58V214.1C192.58 214.967 192.6 215.52 192.64 215.76C192.667 216.013 192.787 216.167 193 216.22C193.227 216.273 193.527 216.3 193.9 216.3C194.207 216.3 194.527 216.267 194.86 216.2C195.193 216.133 195.52 216.047 195.84 215.94C195.907 215.913 195.953 215.913 195.98 215.94C196.007 215.953 196.033 216.013 196.06 216.12L196.22 217.54C196.233 217.633 196.2 217.713 196.12 217.78ZM206.24 216.6C205.853 217.16 205.393 217.58 204.86 217.86C204.34 218.153 203.753 218.3 203.1 218.3C202.433 218.3 201.84 218.16 201.32 217.88C200.813 217.6 200.38 217.213 200.02 216.72C199.673 216.213 199.413 215.633 199.24 214.98C199.067 214.327 198.98 213.627 198.98 212.88C198.98 212.133 199.067 211.433 199.24 210.78C199.413 210.127 199.673 209.553 200.02 209.06C200.38 208.567 200.813 208.18 201.32 207.9C201.827 207.62 202.42 207.48 203.1 207.48C203.767 207.48 204.353 207.62 204.86 207.9C205.38 208.18 205.813 208.567 206.16 209.06C206.52 209.553 206.787 210.127 206.96 210.78C207.133 211.433 207.22 212.133 207.22 212.88C207.22 213.613 207.133 214.3 206.96 214.94C206.787 215.58 206.547 216.133 206.24 216.6ZM203.1 209.44C202.753 209.44 202.46 209.54 202.22 209.74C201.98 209.94 201.78 210.207 201.62 210.54C201.473 210.86 201.353 211.227 201.26 211.64C201.18 212.053 201.14 212.467 201.14 212.88C201.14 213.307 201.18 213.727 201.26 214.14C201.353 214.54 201.473 214.907 201.62 215.24C201.78 215.573 201.98 215.84 202.22 216.04C202.46 216.24 202.753 216.34 203.1 216.34C203.433 216.34 203.72 216.24 203.96 216.04C204.213 215.84 204.413 215.573 204.56 215.24C204.72 214.907 204.84 214.54 204.92 214.14C205.013 213.727 205.06 213.307 205.06 212.88C205.06 212.467 205.013 212.06 204.92 211.66C204.84 211.247 204.72 210.88 204.56 210.56C204.413 210.227 204.213 209.96 203.96 209.76C203.72 209.547 203.433 209.44 203.1 209.44ZM210.14 218C210.073 218 210.013 217.973 209.96 217.92C209.92 217.88 209.9 217.82 209.9 217.74V216.18C209.9 216.113 209.92 216.06 209.96 216.02C210.013 215.967 210.073 215.94 210.14 215.94H211.4V210.42V209.72H209.76C209.693 209.72 209.633 209.7 209.58 209.66C209.54 209.607 209.52 209.54 209.52 209.46V207.96C209.52 207.893 209.54 207.84 209.58 207.8C209.633 207.747 209.693 207.72 209.76 207.72H213.04C213.093 207.72 213.133 207.74 213.16 207.78C213.2 207.807 213.22 207.847 213.22 207.9V209.6C213.353 209.32 213.493 209.08 213.64 208.88C213.8 208.667 213.967 208.48 214.14 208.32C214.327 208.147 214.533 207.993 214.76 207.86C215 207.713 215.347 207.587 215.8 207.48C216.373 207.387 216.927 207.4 217.46 207.52C218.007 207.64 218.46 207.847 218.82 208.14C218.887 208.207 218.913 208.267 218.9 208.32C218.887 208.373 218.873 208.427 218.86 208.48L218.2 209.84C218.173 209.92 218.127 209.973 218.06 210C218.007 210.027 217.933 210.013 217.84 209.96C217.533 209.787 217.193 209.667 216.82 209.6C216.447 209.533 216.08 209.533 215.72 209.6C215.093 209.72 214.6 210.02 214.24 210.5C213.88 210.98 213.66 211.467 213.58 211.96C213.5 212.453 213.46 213.033 213.46 213.7V215.94H215.54C215.607 215.94 215.66 215.967 215.7 216.02C215.753 216.06 215.78 216.113 215.78 216.18V217.74C215.78 217.913 215.7 218 215.54 218H210.14ZM136.36 251.22V254.78H140.92C141.093 254.78 141.18 254.86 141.18 255.02V256.64C141.18 256.8 141.093 256.88 140.92 256.88H136.36V262.7C136.36 262.9 136.267 263 136.08 263H134.44C134.24 263 134.14 262.9 134.14 262.7V249.48C134.14 249.333 134.167 249.24 134.22 249.2C134.273 249.147 134.353 249.12 134.46 249.12H141.2C141.267 249.12 141.32 249.147 141.36 249.2C141.413 249.24 141.44 249.293 141.44 249.36V250.94C141.44 251.127 141.36 251.22 141.2 251.22H136.36ZM144.94 263C144.873 263 144.813 262.973 144.76 262.92C144.72 262.88 144.7 262.82 144.7 262.74V261.18C144.7 261.113 144.72 261.06 144.76 261.02C144.813 260.967 144.873 260.94 144.94 260.94H147.66V254.78H145.3C145.233 254.78 145.173 254.76 145.12 254.72C145.08 254.667 145.06 254.6 145.06 254.52V252.96C145.06 252.893 145.08 252.84 145.12 252.8C145.173 252.747 145.233 252.72 145.3 252.72H149.58C149.647 252.72 149.7 252.747 149.74 252.8C149.793 252.84 149.82 252.893 149.82 252.96V260.94H152.28C152.347 260.94 152.4 260.967 152.44 261.02C152.493 261.06 152.52 261.113 152.52 261.18V262.74C152.52 262.913 152.44 263 152.28 263H144.94ZM148.46 251.14C148.033 251.14 147.673 250.993 147.38 250.7C147.087 250.407 146.94 250.053 146.94 249.64C146.94 249.2 147.087 248.833 147.38 248.54C147.673 248.233 148.033 248.08 148.46 248.08C148.9 248.08 149.267 248.233 149.56 248.54C149.867 248.833 150.02 249.2 150.02 249.64C150.02 250.053 149.867 250.407 149.56 250.7C149.267 250.993 148.9 251.14 148.46 251.14ZM158.94 265.98C158.5 265.98 158.053 265.947 157.6 265.88C157.16 265.813 156.727 265.687 156.3 265.5C156.193 265.447 156.12 265.4 156.08 265.36C156.053 265.32 156.04 265.26 156.04 265.18L156.12 263.52C156.133 263.293 156.247 263.233 156.46 263.34C156.847 263.553 157.26 263.713 157.7 263.82C158.14 263.927 158.56 263.98 158.96 263.98C159.693 263.98 160.26 263.747 160.66 263.28C161.073 262.827 161.287 262.24 161.3 261.52C161.02 261.867 160.7 262.127 160.34 262.3C159.98 262.473 159.607 262.56 159.22 262.56C158.647 262.56 158.14 262.453 157.7 262.24C157.273 262.027 156.867 261.693 156.48 261.24C156.093 260.773 155.8 260.227 155.6 259.6C155.4 258.973 155.3 258.34 155.3 257.7C155.3 256.113 155.653 254.853 156.36 253.92C157.067 252.987 158 252.52 159.16 252.52C159.493 252.52 159.807 252.567 160.1 252.66C160.407 252.74 160.68 252.887 160.92 253.1C161.173 253.3 161.36 253.507 161.48 253.72L161.46 252.98C161.447 252.873 161.453 252.807 161.48 252.78C161.507 252.74 161.573 252.72 161.68 252.72H163.12C163.253 252.72 163.32 252.813 163.32 253V260.68C163.32 262.36 162.947 263.66 162.2 264.58C161.453 265.513 160.367 265.98 158.94 265.98ZM159.38 254.48C158.767 254.48 158.293 254.793 157.96 255.42C157.64 256.033 157.48 256.793 157.48 257.7C157.48 258.167 157.527 258.593 157.62 258.98C157.727 259.367 157.867 259.68 158.04 259.92C158.227 260.16 158.42 260.353 158.62 260.5C158.82 260.633 159.047 260.7 159.3 260.7C159.593 260.7 159.847 260.633 160.06 260.5C160.287 260.353 160.48 260.167 160.64 259.94C160.8 259.713 160.933 259.4 161.04 259C161.16 258.6 161.22 258.167 161.22 257.7C161.22 256.78 161.06 256.013 160.74 255.4C160.42 254.787 159.967 254.48 159.38 254.48ZM173.02 263C172.98 263 172.947 262.967 172.92 262.9C172.893 262.847 172.88 262.787 172.88 262.72V256.58C172.88 255.913 172.833 255.4 172.74 255.04C172.647 254.667 172.493 254.48 172.28 254.48C172.147 254.48 172.027 254.553 171.92 254.7C171.813 254.847 171.727 255.087 171.66 255.42C171.607 255.753 171.58 256.107 171.58 256.48C171.58 256.84 171.58 257.253 171.58 257.72V262.54C171.58 262.713 171.54 262.8 171.46 262.8H169.86C169.82 262.8 169.787 262.767 169.76 262.7C169.733 262.647 169.72 262.587 169.72 262.52V256.58C169.707 255.18 169.493 254.48 169.08 254.48C168.84 254.48 168.667 254.707 168.56 255.16C168.467 255.613 168.42 256.233 168.42 257.02V262.74C168.42 262.913 168.373 263 168.28 263H166.62C166.593 263 166.567 262.967 166.54 262.9C166.513 262.847 166.5 262.787 166.5 262.72V255.54C166.5 255.033 166.493 254.547 166.48 254.08C166.48 253.613 166.473 253.247 166.46 252.98C166.447 252.807 166.5 252.72 166.62 252.72H168.1C168.18 252.72 168.22 252.773 168.22 252.88L168.2 253.68C168.28 253.307 168.433 253.013 168.66 252.8C168.887 252.587 169.127 252.48 169.38 252.48C169.74 252.48 170.06 252.64 170.34 252.96C170.633 253.28 170.813 253.753 170.88 254.38C171.053 253.74 171.293 253.267 171.6 252.96C171.907 252.64 172.26 252.48 172.66 252.48C173.273 252.48 173.78 252.82 174.18 253.5C174.593 254.167 174.8 255.107 174.8 256.32V262.74C174.8 262.807 174.787 262.867 174.76 262.92C174.733 262.973 174.7 263 174.66 263H173.02ZM183.44 263C183.347 263 183.287 262.993 183.26 262.98C183.247 262.967 183.24 262.92 183.24 262.84V261.92C182.92 262.387 182.52 262.733 182.04 262.96C181.56 263.2 181.073 263.32 180.58 263.32C180.193 263.32 179.78 263.247 179.34 263.1C178.913 262.967 178.547 262.76 178.24 262.48C177.933 262.213 177.687 261.88 177.5 261.48C177.327 261.08 177.24 260.613 177.24 260.08C177.24 259.507 177.353 258.987 177.58 258.52C177.82 258.04 178.18 257.64 178.66 257.32C179.14 257 179.72 256.767 180.4 256.62C181.093 256.46 181.973 256.38 183.04 256.38C183.04 256.14 183.013 255.92 182.96 255.72C182.92 255.507 182.84 255.307 182.72 255.12C182.6 254.933 182.427 254.78 182.2 254.66C181.987 254.527 181.72 254.46 181.4 254.46C180.973 254.46 180.527 254.54 180.06 254.7C179.607 254.86 179.18 255.073 178.78 255.34C178.58 255.473 178.44 255.533 178.36 255.52C178.293 255.507 178.26 255.433 178.26 255.3V253.74C178.26 253.713 178.253 253.667 178.24 253.6C178.24 253.52 178.267 253.46 178.32 253.42C178.387 253.353 178.473 253.293 178.58 253.24C178.98 253.013 179.42 252.827 179.9 252.68C180.38 252.533 180.867 252.46 181.36 252.46C182.64 252.46 183.593 252.787 184.22 253.44C184.86 254.08 185.18 255.007 185.18 256.22V260.62C185.18 260.98 185.18 261.347 185.18 261.72C185.193 262.093 185.22 262.427 185.26 262.72C185.273 262.907 185.2 263 185.04 263H183.44ZM179.38 259.94C179.38 260.407 179.52 260.76 179.8 261C180.08 261.227 180.38 261.34 180.7 261.34C181.407 261.34 181.987 261.067 182.44 260.52C182.893 259.96 183.12 259.287 183.12 258.5V258.28C181.693 258.28 180.713 258.427 180.18 258.72C179.647 259 179.38 259.407 179.38 259.94ZM114.4 302.68V307.74C114.4 307.913 114.313 308 114.14 308H112.44C112.28 308 112.2 307.913 112.2 307.74V294.36C112.2 294.293 112.22 294.24 112.26 294.2C112.313 294.147 112.373 294.12 112.44 294.12H115.38C116.86 294.12 118.027 294.48 118.88 295.2C119.747 295.92 120.18 296.973 120.18 298.36C120.18 299.093 120.053 299.713 119.8 300.22C119.56 300.713 119.213 301.153 118.76 301.54C118.32 301.913 117.793 302.2 117.18 302.4C116.58 302.587 115.92 302.68 115.2 302.68H114.4ZM114.4 296.22V300.6H115.26C116.1 300.6 116.753 300.407 117.22 300.02C117.7 299.633 117.94 299.073 117.94 298.34C117.94 297.58 117.733 297.04 117.32 296.72C116.907 296.387 116.367 296.22 115.7 296.22H114.4ZM122.94 308C122.873 308 122.813 307.973 122.76 307.92C122.72 307.88 122.7 307.82 122.7 307.74V306.18C122.7 306.113 122.72 306.06 122.76 306.02C122.813 305.967 122.873 305.94 122.94 305.94H124.2V300.42V299.72H122.56C122.493 299.72 122.433 299.7 122.38 299.66C122.34 299.607 122.32 299.54 122.32 299.46V297.96C122.32 297.893 122.34 297.84 122.38 297.8C122.433 297.747 122.493 297.72 122.56 297.72H125.84C125.893 297.72 125.933 297.74 125.96 297.78C126 297.807 126.02 297.847 126.02 297.9V299.6C126.153 299.32 126.293 299.08 126.44 298.88C126.6 298.667 126.767 298.48 126.94 298.32C127.127 298.147 127.333 297.993 127.56 297.86C127.8 297.713 128.147 297.587 128.6 297.48C129.173 297.387 129.727 297.4 130.26 297.52C130.807 297.64 131.26 297.847 131.62 298.14C131.687 298.207 131.713 298.267 131.7 298.32C131.687 298.373 131.673 298.427 131.66 298.48L131 299.84C130.973 299.92 130.927 299.973 130.86 300C130.807 300.027 130.733 300.013 130.64 299.96C130.333 299.787 129.993 299.667 129.62 299.6C129.247 299.533 128.88 299.533 128.52 299.6C127.893 299.72 127.4 300.02 127.04 300.5C126.68 300.98 126.46 301.467 126.38 301.96C126.3 302.453 126.26 303.033 126.26 303.7V305.94H128.34C128.407 305.94 128.46 305.967 128.5 306.02C128.553 306.06 128.58 306.113 128.58 306.18V307.74C128.58 307.913 128.5 308 128.34 308H122.94ZM140.84 306.6C140.453 307.16 139.993 307.58 139.46 307.86C138.94 308.153 138.353 308.3 137.7 308.3C137.033 308.3 136.44 308.16 135.92 307.88C135.413 307.6 134.98 307.213 134.62 306.72C134.273 306.213 134.013 305.633 133.84 304.98C133.667 304.327 133.58 303.627 133.58 302.88C133.58 302.133 133.667 301.433 133.84 300.78C134.013 300.127 134.273 299.553 134.62 299.06C134.98 298.567 135.413 298.18 135.92 297.9C136.427 297.62 137.02 297.48 137.7 297.48C138.367 297.48 138.953 297.62 139.46 297.9C139.98 298.18 140.413 298.567 140.76 299.06C141.12 299.553 141.387 300.127 141.56 300.78C141.733 301.433 141.82 302.133 141.82 302.88C141.82 303.613 141.733 304.3 141.56 304.94C141.387 305.58 141.147 306.133 140.84 306.6ZM137.7 299.44C137.353 299.44 137.06 299.54 136.82 299.74C136.58 299.94 136.38 300.207 136.22 300.54C136.073 300.86 135.953 301.227 135.86 301.64C135.78 302.053 135.74 302.467 135.74 302.88C135.74 303.307 135.78 303.727 135.86 304.14C135.953 304.54 136.073 304.907 136.22 305.24C136.38 305.573 136.58 305.84 136.82 306.04C137.06 306.24 137.353 306.34 137.7 306.34C138.033 306.34 138.32 306.24 138.56 306.04C138.813 305.84 139.013 305.573 139.16 305.24C139.32 304.907 139.44 304.54 139.52 304.14C139.613 303.727 139.66 303.307 139.66 302.88C139.66 302.467 139.613 302.06 139.52 301.66C139.44 301.247 139.32 300.88 139.16 300.56C139.013 300.227 138.813 299.96 138.56 299.76C138.32 299.547 138.033 299.44 137.7 299.44ZM152.02 307.96C151.887 308.013 151.72 308.06 151.52 308.1C151.32 308.14 151.093 308.173 150.84 308.2C150.587 308.227 150.36 308.24 150.16 308.24C149.96 308.253 149.74 308.253 149.5 308.24C148.727 308.187 148.067 308.013 147.52 307.72C146.987 307.427 146.513 307.047 146.1 306.58C145.7 306.113 145.393 305.56 145.18 304.92C144.98 304.28 144.88 303.587 144.88 302.84C144.88 302.067 145.007 301.353 145.26 300.7C145.513 300.033 145.86 299.46 146.3 298.98C146.753 298.5 147.26 298.133 147.82 297.88C148.393 297.613 149.073 297.48 149.86 297.48C150.18 297.48 150.533 297.513 150.92 297.58C151.32 297.633 151.707 297.727 152.08 297.86C152.133 297.873 152.173 297.9 152.2 297.94C152.227 297.967 152.233 298.04 152.22 298.16L152.04 299.56C152.027 299.653 152 299.72 151.96 299.76C151.92 299.8 151.847 299.807 151.74 299.78C151.46 299.673 151.153 299.593 150.82 299.54C150.487 299.487 150.153 299.46 149.82 299.46C148.847 299.46 148.14 299.78 147.7 300.42C147.273 301.06 147.06 301.867 147.06 302.84C147.06 303.773 147.273 304.547 147.7 305.16C148.14 305.773 148.78 306.14 149.62 306.26C150.38 306.353 151.113 306.293 151.82 306.08C151.94 306.027 152.013 306.02 152.04 306.06C152.08 306.1 152.107 306.16 152.12 306.24L152.22 307.64C152.233 307.733 152.227 307.8 152.2 307.84C152.187 307.893 152.127 307.933 152.02 307.96ZM155.64 308C155.573 308 155.513 307.973 155.46 307.92C155.42 307.88 155.4 307.82 155.4 307.74V306.18C155.4 306.113 155.42 306.06 155.46 306.02C155.513 305.967 155.573 305.94 155.64 305.94H156.9V300.42V299.72H155.26C155.193 299.72 155.133 299.7 155.08 299.66C155.04 299.607 155.02 299.54 155.02 299.46V297.96C155.02 297.893 155.04 297.84 155.08 297.8C155.133 297.747 155.193 297.72 155.26 297.72H158.54C158.593 297.72 158.633 297.74 158.66 297.78C158.7 297.807 158.72 297.847 158.72 297.9V299.6C158.853 299.32 158.993 299.08 159.14 298.88C159.3 298.667 159.467 298.48 159.64 298.32C159.827 298.147 160.033 297.993 160.26 297.86C160.5 297.713 160.847 297.587 161.3 297.48C161.873 297.387 162.427 297.4 162.96 297.52C163.507 297.64 163.96 297.847 164.32 298.14C164.387 298.207 164.413 298.267 164.4 298.32C164.387 298.373 164.373 298.427 164.36 298.48L163.7 299.84C163.673 299.92 163.627 299.973 163.56 300C163.507 300.027 163.433 300.013 163.34 299.96C163.033 299.787 162.693 299.667 162.32 299.6C161.947 299.533 161.58 299.533 161.22 299.6C160.593 299.72 160.1 300.02 159.74 300.5C159.38 300.98 159.16 301.467 159.08 301.96C159 302.453 158.96 303.033 158.96 303.7V305.94H161.04C161.107 305.94 161.16 305.967 161.2 306.02C161.253 306.06 161.28 306.113 161.28 306.18V307.74C161.28 307.913 161.2 308 161.04 308H155.64ZM174.38 303.46C174.38 303.567 174.353 303.647 174.3 303.7C174.26 303.74 174.2 303.76 174.12 303.76H168.64C168.653 304.467 168.833 305.073 169.18 305.58C169.54 306.073 170.113 306.32 170.9 306.32C171.38 306.32 171.8 306.267 172.16 306.16C172.533 306.04 172.913 305.84 173.3 305.56C173.407 305.507 173.467 305.513 173.48 305.58C173.507 305.647 173.52 305.727 173.52 305.82V307.24C173.52 307.36 173.5 307.447 173.46 307.5C173.42 307.567 173.353 307.633 173.26 307.7C172.913 307.887 172.56 308.033 172.2 308.14C171.853 308.247 171.42 308.3 170.9 308.3C169.38 308.3 168.247 307.813 167.5 306.84C166.753 305.867 166.38 304.58 166.38 302.98C166.38 302.3 166.46 301.64 166.62 301C166.78 300.347 167.027 299.76 167.36 299.24C167.707 298.72 168.14 298.293 168.66 297.96C169.18 297.627 169.78 297.46 170.46 297.46C171.18 297.46 171.787 297.613 172.28 297.92C172.787 298.227 173.193 298.633 173.5 299.14C173.82 299.633 174.047 300.2 174.18 300.84C174.327 301.48 174.4 302.173 174.4 302.92C174.4 303.013 174.393 303.12 174.38 303.24C174.38 303.347 174.38 303.42 174.38 303.46ZM170.42 299.38C170.1 299.38 169.813 299.473 169.56 299.66C169.32 299.833 169.127 300.073 168.98 300.38C168.847 300.673 168.753 300.947 168.7 301.2C168.66 301.44 168.64 301.633 168.64 301.78H172.22C172.22 301.633 172.193 301.44 172.14 301.2C172.1 300.947 172.007 300.673 171.86 300.38C171.727 300.073 171.533 299.833 171.28 299.66C171.027 299.473 170.74 299.38 170.42 299.38ZM183.44 308C183.347 308 183.287 307.993 183.26 307.98C183.247 307.967 183.24 307.92 183.24 307.84V306.92C182.92 307.387 182.52 307.733 182.04 307.96C181.56 308.2 181.073 308.32 180.58 308.32C180.193 308.32 179.78 308.247 179.34 308.1C178.913 307.967 178.547 307.76 178.24 307.48C177.933 307.213 177.687 306.88 177.5 306.48C177.327 306.08 177.24 305.613 177.24 305.08C177.24 304.507 177.353 303.987 177.58 303.52C177.82 303.04 178.18 302.64 178.66 302.32C179.14 302 179.72 301.767 180.4 301.62C181.093 301.46 181.973 301.38 183.04 301.38C183.04 301.14 183.013 300.92 182.96 300.72C182.92 300.507 182.84 300.307 182.72 300.12C182.6 299.933 182.427 299.78 182.2 299.66C181.987 299.527 181.72 299.46 181.4 299.46C180.973 299.46 180.527 299.54 180.06 299.7C179.607 299.86 179.18 300.073 178.78 300.34C178.58 300.473 178.44 300.533 178.36 300.52C178.293 300.507 178.26 300.433 178.26 300.3V298.74C178.26 298.713 178.253 298.667 178.24 298.6C178.24 298.52 178.267 298.46 178.32 298.42C178.387 298.353 178.473 298.293 178.58 298.24C178.98 298.013 179.42 297.827 179.9 297.68C180.38 297.533 180.867 297.46 181.36 297.46C182.64 297.46 183.593 297.787 184.22 298.44C184.86 299.08 185.18 300.007 185.18 301.22V305.62C185.18 305.98 185.18 306.347 185.18 306.72C185.193 307.093 185.22 307.427 185.26 307.72C185.273 307.907 185.2 308 185.04 308H183.44ZM179.38 304.94C179.38 305.407 179.52 305.76 179.8 306C180.08 306.227 180.38 306.34 180.7 306.34C181.407 306.34 181.987 306.067 182.44 305.52C182.893 304.96 183.12 304.287 183.12 303.5V303.28C181.693 303.28 180.713 303.427 180.18 303.72C179.647 304 179.38 304.407 179.38 304.94ZM196.12 307.78C195.627 307.953 195.127 308.08 194.62 308.16C194.127 308.24 193.707 308.273 193.36 308.26C192.667 308.26 192.113 308.14 191.7 307.9C191.287 307.673 191 307.407 190.84 307.1C190.653 306.753 190.54 306.347 190.5 305.88C190.46 305.413 190.44 304.78 190.44 303.98V300.2H188.24C188.173 300.2 188.113 300.18 188.06 300.14C188.02 300.087 188 300.027 188 299.96V298.38C188 298.313 188.02 298.26 188.06 298.22C188.113 298.167 188.173 298.14 188.24 298.14H190.44V295.24C190.44 295.173 190.467 295.12 190.52 295.08C190.573 295.027 190.633 295 190.7 295H192.32C192.4 295 192.46 295.027 192.5 295.08C192.553 295.12 192.58 295.173 192.58 295.24V298.14H195.94C196.007 298.14 196.06 298.167 196.1 298.22C196.153 298.26 196.18 298.313 196.18 298.38V299.96C196.18 300.027 196.153 300.087 196.1 300.14C196.06 300.18 196.007 300.2 195.94 300.2H192.58V304.1C192.58 304.967 192.6 305.52 192.64 305.76C192.667 306.013 192.787 306.167 193 306.22C193.227 306.273 193.527 306.3 193.9 306.3C194.207 306.3 194.527 306.267 194.86 306.2C195.193 306.133 195.52 306.047 195.84 305.94C195.907 305.913 195.953 305.913 195.98 305.94C196.007 305.953 196.033 306.013 196.06 306.12L196.22 307.54C196.233 307.633 196.2 307.713 196.12 307.78ZM207.08 303.46C207.08 303.567 207.053 303.647 207 303.7C206.96 303.74 206.9 303.76 206.82 303.76H201.34C201.353 304.467 201.533 305.073 201.88 305.58C202.24 306.073 202.813 306.32 203.6 306.32C204.08 306.32 204.5 306.267 204.86 306.16C205.233 306.04 205.613 305.84 206 305.56C206.107 305.507 206.167 305.513 206.18 305.58C206.207 305.647 206.22 305.727 206.22 305.82V307.24C206.22 307.36 206.2 307.447 206.16 307.5C206.12 307.567 206.053 307.633 205.96 307.7C205.613 307.887 205.26 308.033 204.9 308.14C204.553 308.247 204.12 308.3 203.6 308.3C202.08 308.3 200.947 307.813 200.2 306.84C199.453 305.867 199.08 304.58 199.08 302.98C199.08 302.3 199.16 301.64 199.32 301C199.48 300.347 199.727 299.76 200.06 299.24C200.407 298.72 200.84 298.293 201.36 297.96C201.88 297.627 202.48 297.46 203.16 297.46C203.88 297.46 204.487 297.613 204.98 297.92C205.487 298.227 205.893 298.633 206.2 299.14C206.52 299.633 206.747 300.2 206.88 300.84C207.027 301.48 207.1 302.173 207.1 302.92C207.1 303.013 207.093 303.12 207.08 303.24C207.08 303.347 207.08 303.42 207.08 303.46ZM203.12 299.38C202.8 299.38 202.513 299.473 202.26 299.66C202.02 299.833 201.827 300.073 201.68 300.38C201.547 300.673 201.453 300.947 201.4 301.2C201.36 301.44 201.34 301.633 201.34 301.78H204.92C204.92 301.633 204.893 301.44 204.84 301.2C204.8 300.947 204.707 300.673 204.56 300.38C204.427 300.073 204.233 299.833 203.98 299.66C203.727 299.473 203.44 299.38 203.12 299.38Z" fill="#F0FF44"/>
<defs>
<filter id="filter0_d_554_268" x="0" y="0" width="313" height="420" filterUnits="userSpaceOnUse" color-interpolation-filters="sRGB">
<feFlood flood-opacity="0" result="BackgroundImageFix"/>
<feColorMatrix in="SourceAlpha" type="matrix" values="0 0 0 0 0 0 0 0 0 0 0 0 0 0 0 0 0 0 127 0" result="hardAlpha"/>
<feOffset dy="4"/>
<feGaussianBlur stdDeviation="2"/>
<feComposite in2="hardAlpha" operator="out"/>
<feColorMatrix type="matrix" values="0 0 0 0 0 0 0 0 0 0 0 0 0 0 0 0 0 0 0.15 0"/>
<feBlend mode="normal" in2="BackgroundImageFix" result="effect1_dropShadow_554_268"/>
<feBlend mode="normal" in="SourceGraphic" in2="effect1_dropShadow_554_268" result="shape"/>
</filter>
</defs>
</svg>
