<svg width="313" height="420" viewBox="0 0 313 420" fill="none" xmlns="http://www.w3.org/2000/svg">
<g filter="url(#filter0_d_554_294)">
<rect x="4" width="305" height="412" rx="20" fill="#F2EADF"/>
</g>
<mask id="mask0_554_294" style="mask-type:alpha" maskUnits="userSpaceOnUse" x="4" y="0" width="305" height="412">
<rect x="4" width="305" height="412" rx="20" fill="#7FB2FF"/>
</mask>
<g mask="url(#mask0_554_294)">
<path d="M168.05 106.218L168.539 106.271L212.906 -46.211L189.146 110.807L189.613 110.964L265.721 -28.4156L208.762 119.824L209.184 120.078L313.476 0.317612L225.982 132.847L226.339 133.185L353.937 38.6447L239.999 149.267L240.275 149.674L385.214 84.7739L250.158 168.316L250.341 168.774L405.842 136.548L255.986 189.105L256.065 189.591L414.859 191.546L257.208 210.659L257.181 211.151L411.842 247.197L253.767 231.973L253.636 232.447L396.931 300.898L245.826 252.049L245.595 252.484L370.826 350.138L233.754 269.948L233.435 270.323L334.746 392.616L218.117 284.833L217.725 285.131L290.377 426.344L199.645 296.01L199.199 296.216L239.796 449.745L179.203 302.953L178.722 303.059L185.366 461.726L157.746 305.341H157.254L129.634 461.726L136.278 303.059L135.797 302.953L75.2043 449.745L115.801 296.216L115.355 296.01L24.6228 426.344L97.275 285.131L96.883 284.833L-19.7455 392.616L81.5646 270.323L81.2459 269.948L-55.8259 350.139L69.4049 252.484L69.1743 252.049L-81.9314 300.898L61.3644 232.447L61.2327 231.973L-96.8416 247.197L57.8191 211.151L57.7925 210.659L-99.8588 191.546L58.9348 189.591L59.0144 189.105L-90.8423 136.548L64.6593 168.774L64.8415 168.316L-70.2136 84.7739L74.7249 149.674L75.0012 149.267L-38.9372 38.6447L88.6609 133.185L89.0184 132.847L1.52432 0.317505L105.816 120.078L106.238 119.824L49.2791 -28.4156L125.387 110.964L125.854 110.807L102.094 -46.211L146.461 106.271L146.95 106.218L157.5 -52.2368L168.05 106.218Z" fill="#7FB2FF" fill-opacity="0.5" style="mix-blend-mode:color"/>
<path d="M168.05 106.218L168.539 106.271L212.906 -46.211L189.146 110.807L189.613 110.964L265.721 -28.4156L208.762 119.824L209.184 120.078L313.476 0.317612L225.982 132.847L226.339 133.185L353.937 38.6447L239.999 149.267L240.275 149.674L385.214 84.7739L250.158 168.316L250.341 168.774L405.842 136.548L255.986 189.105L256.065 189.591L414.859 191.546L257.208 210.659L257.181 211.151L411.842 247.197L253.767 231.973L253.636 232.447L396.931 300.898L245.826 252.049L245.595 252.484L370.826 350.138L233.754 269.948L233.435 270.323L334.746 392.616L218.117 284.833L217.725 285.131L290.377 426.344L199.645 296.01L199.199 296.216L239.796 449.745L179.203 302.953L178.722 303.059L185.366 461.726L157.746 305.341H157.254L129.634 461.726L136.278 303.059L135.797 302.953L75.2043 449.745L115.801 296.216L115.355 296.01L24.6228 426.344L97.275 285.131L96.883 284.833L-19.7455 392.616L81.5646 270.323L81.2459 269.948L-55.8259 350.139L69.4049 252.484L69.1743 252.049L-81.9314 300.898L61.3644 232.447L61.2327 231.973L-96.8416 247.197L57.8191 211.151L57.7925 210.659L-99.8588 191.546L58.9348 189.591L59.0144 189.105L-90.8423 136.548L64.6593 168.774L64.8415 168.316L-70.2136 84.7739L74.7249 149.674L75.0012 149.267L-38.9372 38.6447L88.6609 133.185L89.0184 132.847L1.52432 0.317505L105.816 120.078L106.238 119.824L49.2791 -28.4156L125.387 110.964L125.854 110.807L102.094 -46.211L146.461 106.271L146.95 106.218L157.5 -52.2368L168.05 106.218Z" stroke="#F0FF44" stroke-width="0.5"/>
</g>
<rect x="24" y="20" width="265" height="372" rx="19" stroke="#0066FF" stroke-opacity="0.55" stroke-width="2"/>
<path d="M9.86483 19.3334L23.627 22.4558L24.2373 8.73026L28.621 21.893L41.0919 15.8142L31.7135 25.8545L43.5741 33.5012L29.8119 30.3788L29.2017 44.1044L24.8179 30.9417L12.347 37.0205L21.7254 26.9801L9.86483 19.3334Z" fill="#0066FF" fill-opacity="0.75"/>
<path d="M9.86483 379.333L23.627 382.456L24.2373 368.73L28.621 381.893L41.0919 375.814L31.7135 385.855L43.5741 393.501L29.8119 390.379L29.2017 404.104L24.8179 390.942L12.347 397.02L21.7254 386.98L9.86483 379.333Z" fill="#0066FF" fill-opacity="0.75"/>
<path d="M267.865 19.3334L281.627 22.4558L282.237 8.73026L286.621 21.893L299.092 15.8142L289.713 25.8545L301.574 33.5012L287.812 30.3788L287.202 44.1044L282.818 30.9417L270.347 37.0205L279.725 26.9801L267.865 19.3334Z" fill="#0066FF" fill-opacity="0.75"/>
<path d="M267.865 379.333L281.627 382.456L282.237 368.73L286.621 381.893L299.092 375.814L289.713 385.855L301.574 393.501L287.812 390.379L287.202 404.104L282.818 390.942L270.347 397.02L279.725 386.98L267.865 379.333Z" fill="#0066FF" fill-opacity="0.75"/>
<path d="M116.19 100.722C115.898 100.823 115.588 100.918 115.259 101.007C114.942 101.096 114.581 101.14 114.176 101.14C113.517 101.14 112.865 100.963 112.219 100.608C111.573 100.266 111.022 99.772 110.566 99.126C110.11 98.4673 109.761 97.72 109.521 96.884C109.293 96.048 109.179 95.193 109.179 94.319C109.179 93.445 109.293 92.59 109.521 91.754C109.761 90.918 110.103 90.1897 110.547 89.569C111.003 88.9483 111.554 88.4607 112.2 88.106C112.858 87.7513 113.517 87.574 114.176 87.574C114.48 87.574 114.803 87.6057 115.145 87.669C115.499 87.7197 115.854 87.8147 116.209 87.954C116.31 87.992 116.367 88.0363 116.38 88.087C116.405 88.1377 116.411 88.2263 116.399 88.353L116.38 89.797C116.38 89.9743 116.354 90.0693 116.304 90.082C116.253 90.082 116.164 90.0567 116.038 90.006C115.455 89.7147 114.834 89.569 114.176 89.569C113.732 89.569 113.321 89.6957 112.941 89.949C112.561 90.1897 112.25 90.5507 112.01 91.032C111.769 91.5007 111.585 92.0327 111.459 92.628C111.332 93.2107 111.269 93.7743 111.269 94.319C111.269 94.8637 111.338 95.44 111.478 96.048C111.617 96.6433 111.807 97.1753 112.048 97.644C112.288 98.1127 112.611 98.48 113.017 98.746C113.422 99.012 113.827 99.145 114.233 99.145C114.524 99.145 114.815 99.1133 115.107 99.05C115.411 98.9867 115.721 98.8917 116.038 98.765C116.164 98.7017 116.247 98.6827 116.285 98.708C116.323 98.7333 116.342 98.784 116.342 98.86L116.399 100.323C116.411 100.437 116.405 100.519 116.38 100.57C116.354 100.633 116.291 100.684 116.19 100.722ZM119.59 100.95C119.527 100.95 119.47 100.925 119.419 100.874C119.381 100.836 119.362 100.779 119.362 100.703V99.221C119.362 99.1577 119.381 99.107 119.419 99.069C119.47 99.0183 119.527 98.993 119.59 98.993H120.787V93.749V93.084H119.229C119.166 93.084 119.109 93.065 119.058 93.027C119.02 92.9763 119.001 92.913 119.001 92.837V91.412C119.001 91.3487 119.02 91.298 119.058 91.26C119.109 91.2093 119.166 91.184 119.229 91.184H122.345C122.396 91.184 122.434 91.203 122.459 91.241C122.497 91.2663 122.516 91.3043 122.516 91.355V92.97C122.643 92.704 122.776 92.476 122.915 92.286C123.067 92.0833 123.226 91.906 123.39 91.754C123.568 91.5893 123.764 91.4437 123.98 91.317C124.208 91.1777 124.537 91.0573 124.967 90.956C125.512 90.8673 126.038 90.88 126.544 90.994C127.064 91.108 127.495 91.3043 127.837 91.583C127.9 91.6463 127.925 91.7033 127.913 91.754C127.9 91.8047 127.887 91.8553 127.875 91.906L127.247 93.198C127.222 93.274 127.178 93.3247 127.114 93.35C127.064 93.3753 126.994 93.3627 126.906 93.312C126.614 93.1473 126.291 93.0333 125.937 92.97C125.582 92.9067 125.233 92.9067 124.892 92.97C124.296 93.084 123.827 93.369 123.486 93.825C123.144 94.281 122.934 94.7433 122.859 95.212C122.782 95.6807 122.744 96.2317 122.744 96.865V98.993H124.721C124.784 98.993 124.834 99.0183 124.872 99.069C124.923 99.107 124.949 99.1577 124.949 99.221V100.703C124.949 100.868 124.873 100.95 124.721 100.95H119.59ZM137.394 96.637C137.394 96.7383 137.368 96.8143 137.318 96.865C137.28 96.903 137.223 96.922 137.147 96.922H131.941C131.953 97.5933 132.124 98.1697 132.454 98.651C132.796 99.1197 133.34 99.354 134.088 99.354C134.544 99.354 134.943 99.3033 135.285 99.202C135.639 99.088 136 98.898 136.368 98.632C136.469 98.5813 136.526 98.5877 136.539 98.651C136.564 98.7143 136.577 98.7903 136.577 98.879V100.228C136.577 100.342 136.558 100.424 136.52 100.475C136.482 100.538 136.418 100.602 136.33 100.665C136 100.842 135.665 100.982 135.323 101.083C134.993 101.184 134.582 101.235 134.088 101.235C132.644 101.235 131.567 100.773 130.858 99.848C130.148 98.9233 129.794 97.701 129.794 96.181C129.794 95.535 129.87 94.908 130.022 94.3C130.174 93.6793 130.408 93.122 130.725 92.628C131.054 92.134 131.466 91.7287 131.96 91.412C132.454 91.0953 133.024 90.937 133.67 90.937C134.354 90.937 134.93 91.0827 135.399 91.374C135.88 91.6653 136.266 92.0517 136.558 92.533C136.862 93.0017 137.077 93.54 137.204 94.148C137.343 94.756 137.413 95.4147 137.413 96.124C137.413 96.2127 137.406 96.314 137.394 96.428C137.394 96.5293 137.394 96.599 137.394 96.637ZM133.632 92.761C133.328 92.761 133.055 92.8497 132.815 93.027C132.587 93.1917 132.403 93.4197 132.264 93.711C132.137 93.9897 132.048 94.2493 131.998 94.49C131.96 94.718 131.941 94.9017 131.941 95.041H135.342C135.342 94.9017 135.316 94.718 135.266 94.49C135.228 94.2493 135.139 93.9897 135 93.711C134.873 93.4197 134.689 93.1917 134.449 93.027C134.208 92.8497 133.936 92.761 133.632 92.761ZM146 100.95C145.912 100.95 145.855 100.944 145.829 100.931C145.817 100.918 145.81 100.874 145.81 100.798V99.924C145.506 100.367 145.126 100.697 144.67 100.912C144.214 101.14 143.752 101.254 143.283 101.254C142.916 101.254 142.523 101.184 142.105 101.045C141.7 100.918 141.352 100.722 141.06 100.456C140.769 100.203 140.535 99.886 140.357 99.506C140.193 99.126 140.11 98.6827 140.11 98.176C140.11 97.6313 140.218 97.1373 140.433 96.694C140.661 96.238 141.003 95.858 141.459 95.554C141.915 95.25 142.466 95.0283 143.112 94.889C143.771 94.737 144.607 94.661 145.62 94.661C145.62 94.433 145.595 94.224 145.544 94.034C145.506 93.8313 145.43 93.6413 145.316 93.464C145.202 93.2867 145.038 93.141 144.822 93.027C144.62 92.9003 144.366 92.837 144.062 92.837C143.657 92.837 143.233 92.913 142.789 93.065C142.359 93.217 141.953 93.4197 141.573 93.673C141.383 93.7997 141.25 93.8567 141.174 93.844C141.111 93.8313 141.079 93.7617 141.079 93.635V92.153C141.079 92.1277 141.073 92.0833 141.06 92.02C141.06 91.944 141.086 91.887 141.136 91.849C141.2 91.7857 141.282 91.7287 141.383 91.678C141.763 91.4627 142.181 91.2853 142.637 91.146C143.093 91.0067 143.556 90.937 144.024 90.937C145.24 90.937 146.146 91.2473 146.741 91.868C147.349 92.476 147.653 93.3563 147.653 94.509V98.689C147.653 99.031 147.653 99.3793 147.653 99.734C147.666 100.089 147.691 100.405 147.729 100.684C147.742 100.861 147.672 100.95 147.52 100.95H146ZM142.143 98.043C142.143 98.4863 142.276 98.822 142.542 99.05C142.808 99.2653 143.093 99.373 143.397 99.373C144.069 99.373 144.62 99.1133 145.05 98.594C145.481 98.062 145.696 97.4223 145.696 96.675V96.466C144.341 96.466 143.41 96.6053 142.903 96.884C142.397 97.15 142.143 97.5363 142.143 98.043ZM158.046 100.741C157.578 100.906 157.103 101.026 156.621 101.102C156.153 101.178 155.754 101.21 155.424 101.197C154.766 101.197 154.24 101.083 153.847 100.855C153.455 100.64 153.182 100.386 153.03 100.095C152.853 99.7657 152.745 99.3793 152.707 98.936C152.669 98.4927 152.65 97.891 152.65 97.131V93.54H150.56C150.497 93.54 150.44 93.521 150.389 93.483C150.351 93.4323 150.332 93.3753 150.332 93.312V91.811C150.332 91.7477 150.351 91.697 150.389 91.659C150.44 91.6083 150.497 91.583 150.56 91.583H152.65V88.828C152.65 88.7647 152.676 88.714 152.726 88.676C152.777 88.6253 152.834 88.6 152.897 88.6H154.436C154.512 88.6 154.569 88.6253 154.607 88.676C154.658 88.714 154.683 88.7647 154.683 88.828V91.583H157.875C157.939 91.583 157.989 91.6083 158.027 91.659C158.078 91.697 158.103 91.7477 158.103 91.811V93.312C158.103 93.3753 158.078 93.4323 158.027 93.483C157.989 93.521 157.939 93.54 157.875 93.54H154.683V97.245C154.683 98.0683 154.702 98.594 154.74 98.822C154.766 99.0627 154.88 99.2083 155.082 99.259C155.298 99.3097 155.583 99.335 155.937 99.335C156.229 99.335 156.533 99.3033 156.849 99.24C157.166 99.1767 157.476 99.0943 157.78 98.993C157.844 98.9677 157.888 98.9677 157.913 98.993C157.939 99.0057 157.964 99.0627 157.989 99.164L158.141 100.513C158.154 100.602 158.122 100.678 158.046 100.741ZM161.201 100.95C161.137 100.95 161.08 100.925 161.03 100.874C160.992 100.836 160.973 100.779 160.973 100.703V99.221C160.973 99.1577 160.992 99.107 161.03 99.069C161.08 99.0183 161.137 98.993 161.201 98.993H163.785V93.141H161.543C161.479 93.141 161.422 93.122 161.372 93.084C161.334 93.0333 161.315 92.97 161.315 92.894V91.412C161.315 91.3487 161.334 91.298 161.372 91.26C161.422 91.2093 161.479 91.184 161.543 91.184H165.609C165.672 91.184 165.723 91.2093 165.761 91.26C165.811 91.298 165.837 91.3487 165.837 91.412V98.993H168.174C168.237 98.993 168.288 99.0183 168.326 99.069C168.376 99.107 168.402 99.1577 168.402 99.221V100.703C168.402 100.868 168.326 100.95 168.174 100.95H161.201ZM164.545 89.683C164.139 89.683 163.797 89.5437 163.519 89.265C163.24 88.9863 163.101 88.6507 163.101 88.258C163.101 87.84 163.24 87.4917 163.519 87.213C163.797 86.9217 164.139 86.776 164.545 86.776C164.963 86.776 165.311 86.9217 165.59 87.213C165.881 87.4917 166.027 87.84 166.027 88.258C166.027 88.6507 165.881 88.9863 165.59 89.265C165.311 89.5437 164.963 89.683 164.545 89.683ZM175.831 100.95H174.197C174.121 100.95 174.064 100.937 174.026 100.912C174 100.899 173.975 100.855 173.95 100.779L170.967 91.393C170.941 91.3297 170.941 91.279 170.967 91.241C170.992 91.203 171.074 91.184 171.214 91.184H172.772C172.835 91.184 172.886 91.1967 172.924 91.222C172.962 91.2347 172.993 91.2727 173.019 91.336L174.444 96.143L175.014 98.29L175.565 96.143L176.99 91.336C177.015 91.2727 177.047 91.2347 177.085 91.222C177.135 91.1967 177.192 91.184 177.256 91.184H178.833C178.972 91.184 179.054 91.203 179.08 91.241C179.105 91.279 179.105 91.3297 179.08 91.393L176.059 100.779C176.033 100.855 176.008 100.899 175.983 100.912C175.957 100.937 175.907 100.95 175.831 100.95ZM181.91 100.95C181.847 100.95 181.79 100.925 181.739 100.874C181.701 100.836 181.682 100.779 181.682 100.703V99.221C181.682 99.1577 181.701 99.107 181.739 99.069C181.79 99.0183 181.847 98.993 181.91 98.993H184.494V93.141H182.252C182.189 93.141 182.132 93.122 182.081 93.084C182.043 93.0333 182.024 92.97 182.024 92.894V91.412C182.024 91.3487 182.043 91.298 182.081 91.26C182.132 91.2093 182.189 91.184 182.252 91.184H186.318C186.382 91.184 186.432 91.2093 186.47 91.26C186.521 91.298 186.546 91.3487 186.546 91.412V98.993H188.883C188.947 98.993 188.997 99.0183 189.035 99.069C189.086 99.107 189.111 99.1577 189.111 99.221V100.703C189.111 100.868 189.035 100.95 188.883 100.95H181.91ZM185.254 89.683C184.849 89.683 184.507 89.5437 184.228 89.265C183.95 88.9863 183.81 88.6507 183.81 88.258C183.81 87.84 183.95 87.4917 184.228 87.213C184.507 86.9217 184.849 86.776 185.254 86.776C185.672 86.776 186.021 86.9217 186.299 87.213C186.591 87.4917 186.736 87.84 186.736 88.258C186.736 88.6507 186.591 88.9863 186.299 89.265C186.021 89.5437 185.672 89.683 185.254 89.683ZM199.466 100.741C198.998 100.906 198.523 101.026 198.041 101.102C197.573 101.178 197.174 101.21 196.844 101.197C196.186 101.197 195.66 101.083 195.267 100.855C194.875 100.64 194.602 100.386 194.45 100.095C194.273 99.7657 194.165 99.3793 194.127 98.936C194.089 98.4927 194.07 97.891 194.07 97.131V93.54H191.98C191.917 93.54 191.86 93.521 191.809 93.483C191.771 93.4323 191.752 93.3753 191.752 93.312V91.811C191.752 91.7477 191.771 91.697 191.809 91.659C191.86 91.6083 191.917 91.583 191.98 91.583H194.07V88.828C194.07 88.7647 194.096 88.714 194.146 88.676C194.197 88.6253 194.254 88.6 194.317 88.6H195.856C195.932 88.6 195.989 88.6253 196.027 88.676C196.078 88.714 196.103 88.7647 196.103 88.828V91.583H199.295C199.359 91.583 199.409 91.6083 199.447 91.659C199.498 91.697 199.523 91.7477 199.523 91.811V93.312C199.523 93.3753 199.498 93.4323 199.447 93.483C199.409 93.521 199.359 93.54 199.295 93.54H196.103V97.245C196.103 98.0683 196.122 98.594 196.16 98.822C196.186 99.0627 196.3 99.2083 196.502 99.259C196.718 99.3097 197.003 99.335 197.357 99.335C197.649 99.335 197.953 99.3033 198.269 99.24C198.586 99.1767 198.896 99.0943 199.2 98.993C199.264 98.9677 199.308 98.9677 199.333 98.993C199.359 99.0057 199.384 99.0627 199.409 99.164L199.561 100.513C199.574 100.602 199.542 100.678 199.466 100.741ZM203.799 103.781C203.545 103.781 203.317 103.768 203.115 103.743C202.925 103.718 202.735 103.667 202.545 103.591C202.481 103.566 202.431 103.528 202.393 103.477C202.355 103.439 202.342 103.382 202.355 103.306L202.469 102.052C202.469 101.887 202.538 101.83 202.678 101.881C202.842 101.932 203.007 101.963 203.172 101.976C203.336 102.001 203.488 102.014 203.628 102.014C203.818 102.014 203.976 101.982 204.103 101.919C204.229 101.868 204.331 101.786 204.407 101.672C204.47 101.545 204.533 101.412 204.597 101.273C204.66 101.146 204.717 101.007 204.768 100.855C204.831 100.703 204.894 100.526 204.958 100.323C205.034 100.133 205.097 99.943 205.148 99.753L202.26 91.393C202.209 91.241 202.26 91.165 202.412 91.165H203.989C204.115 91.165 204.191 91.241 204.217 91.393L206.117 97.055L208.055 91.393C208.08 91.241 208.156 91.165 208.283 91.165H209.879C210.018 91.165 210.062 91.241 210.012 91.393L206.554 101.254C206.224 102.179 205.844 102.831 205.414 103.211C204.983 103.591 204.445 103.781 203.799 103.781ZM88.079 142.759V153.722C88.079 153.874 88.003 153.95 87.851 153.95H86.16C86.008 153.95 85.932 153.874 85.932 153.722V142.759H82.949C82.8857 142.759 82.8287 142.74 82.778 142.702C82.74 142.651 82.721 142.588 82.721 142.512V140.992C82.721 140.929 82.74 140.878 82.778 140.84C82.8287 140.789 82.8857 140.764 82.949 140.764H91.081C91.1443 140.764 91.195 140.789 91.233 140.84C91.2837 140.878 91.309 140.929 91.309 140.992V142.512C91.309 142.677 91.233 142.759 91.081 142.759H88.079ZM93.893 153.95C93.8297 153.95 93.7727 153.925 93.722 153.874C93.684 153.836 93.665 153.779 93.665 153.703V152.221C93.665 152.158 93.684 152.107 93.722 152.069C93.7727 152.018 93.8297 151.993 93.893 151.993H96.477V146.141H94.235C94.1717 146.141 94.1147 146.122 94.064 146.084C94.026 146.033 94.007 145.97 94.007 145.894V144.412C94.007 144.349 94.026 144.298 94.064 144.26C94.1147 144.209 94.1717 144.184 94.235 144.184H98.301C98.3643 144.184 98.415 144.209 98.453 144.26C98.5037 144.298 98.529 144.349 98.529 144.412V151.993H100.866C100.929 151.993 100.98 152.018 101.018 152.069C101.069 152.107 101.094 152.158 101.094 152.221V153.703C101.094 153.868 101.018 153.95 100.866 153.95H93.893ZM97.237 142.683C96.8317 142.683 96.4897 142.544 96.211 142.265C95.9323 141.986 95.793 141.651 95.793 141.258C95.793 140.84 95.9323 140.492 96.211 140.213C96.4897 139.922 96.8317 139.776 97.237 139.776C97.655 139.776 98.0033 139.922 98.282 140.213C98.5733 140.492 98.719 140.84 98.719 141.258C98.719 141.651 98.5733 141.986 98.282 142.265C98.0033 142.544 97.655 142.683 97.237 142.683ZM110.214 153.95C110.176 153.95 110.144 153.918 110.119 153.855C110.094 153.804 110.081 153.747 110.081 153.684V147.851C110.081 147.218 110.037 146.73 109.948 146.388C109.859 146.033 109.714 145.856 109.511 145.856C109.384 145.856 109.27 145.926 109.169 146.065C109.068 146.204 108.985 146.432 108.922 146.749C108.871 147.066 108.846 147.401 108.846 147.756C108.846 148.098 108.846 148.491 108.846 148.934V153.513C108.846 153.678 108.808 153.76 108.732 153.76H107.212C107.174 153.76 107.142 153.728 107.117 153.665C107.092 153.614 107.079 153.557 107.079 153.494V147.851C107.066 146.521 106.864 145.856 106.471 145.856C106.243 145.856 106.078 146.071 105.977 146.502C105.888 146.933 105.844 147.522 105.844 148.269V153.703C105.844 153.868 105.8 153.95 105.711 153.95H104.134C104.109 153.95 104.083 153.918 104.058 153.855C104.033 153.804 104.02 153.747 104.02 153.684V146.863C104.02 146.382 104.014 145.919 104.001 145.476C104.001 145.033 103.995 144.684 103.982 144.431C103.969 144.266 104.02 144.184 104.134 144.184H105.54C105.616 144.184 105.654 144.235 105.654 144.336L105.635 145.096C105.711 144.741 105.857 144.463 106.072 144.26C106.287 144.057 106.515 143.956 106.756 143.956C107.098 143.956 107.402 144.108 107.668 144.412C107.947 144.716 108.118 145.166 108.181 145.761C108.346 145.153 108.574 144.703 108.865 144.412C109.156 144.108 109.492 143.956 109.872 143.956C110.455 143.956 110.936 144.279 111.316 144.925C111.709 145.558 111.905 146.451 111.905 147.604V153.703C111.905 153.766 111.892 153.823 111.867 153.874C111.842 153.925 111.81 153.95 111.772 153.95H110.214ZM121.861 149.637C121.861 149.738 121.836 149.814 121.785 149.865C121.747 149.903 121.69 149.922 121.614 149.922H116.408C116.421 150.593 116.592 151.17 116.921 151.651C117.263 152.12 117.808 152.354 118.555 152.354C119.011 152.354 119.41 152.303 119.752 152.202C120.107 152.088 120.468 151.898 120.835 151.632C120.936 151.581 120.993 151.588 121.006 151.651C121.031 151.714 121.044 151.79 121.044 151.879V153.228C121.044 153.342 121.025 153.424 120.987 153.475C120.949 153.538 120.886 153.602 120.797 153.665C120.468 153.842 120.132 153.982 119.79 154.083C119.461 154.184 119.049 154.235 118.555 154.235C117.111 154.235 116.034 153.773 115.325 152.848C114.616 151.923 114.261 150.701 114.261 149.181C114.261 148.535 114.337 147.908 114.489 147.3C114.641 146.679 114.875 146.122 115.192 145.628C115.521 145.134 115.933 144.729 116.427 144.412C116.921 144.095 117.491 143.937 118.137 143.937C118.821 143.937 119.397 144.083 119.866 144.374C120.347 144.665 120.734 145.052 121.025 145.533C121.329 146.002 121.544 146.54 121.671 147.148C121.81 147.756 121.88 148.415 121.88 149.124C121.88 149.213 121.874 149.314 121.861 149.428C121.861 149.529 121.861 149.599 121.861 149.637ZM118.099 145.761C117.795 145.761 117.523 145.85 117.282 146.027C117.054 146.192 116.87 146.42 116.731 146.711C116.604 146.99 116.516 147.249 116.465 147.49C116.427 147.718 116.408 147.902 116.408 148.041H119.809C119.809 147.902 119.784 147.718 119.733 147.49C119.695 147.249 119.606 146.99 119.467 146.711C119.34 146.42 119.157 146.192 118.916 146.027C118.675 145.85 118.403 145.761 118.099 145.761ZM141.279 153.95C141.241 153.95 141.209 153.918 141.184 153.855C141.159 153.804 141.146 153.747 141.146 153.684V147.851C141.146 147.218 141.102 146.73 141.013 146.388C140.924 146.033 140.779 145.856 140.576 145.856C140.449 145.856 140.335 145.926 140.234 146.065C140.133 146.204 140.05 146.432 139.987 146.749C139.936 147.066 139.911 147.401 139.911 147.756C139.911 148.098 139.911 148.491 139.911 148.934V153.513C139.911 153.678 139.873 153.76 139.797 153.76H138.277C138.239 153.76 138.207 153.728 138.182 153.665C138.157 153.614 138.144 153.557 138.144 153.494V147.851C138.131 146.521 137.929 145.856 137.536 145.856C137.308 145.856 137.143 146.071 137.042 146.502C136.953 146.933 136.909 147.522 136.909 148.269V153.703C136.909 153.868 136.865 153.95 136.776 153.95H135.199C135.174 153.95 135.148 153.918 135.123 153.855C135.098 153.804 135.085 153.747 135.085 153.684V146.863C135.085 146.382 135.079 145.919 135.066 145.476C135.066 145.033 135.06 144.684 135.047 144.431C135.034 144.266 135.085 144.184 135.199 144.184H136.605C136.681 144.184 136.719 144.235 136.719 144.336L136.7 145.096C136.776 144.741 136.922 144.463 137.137 144.26C137.352 144.057 137.58 143.956 137.821 143.956C138.163 143.956 138.467 144.108 138.733 144.412C139.012 144.716 139.183 145.166 139.246 145.761C139.411 145.153 139.639 144.703 139.93 144.412C140.221 144.108 140.557 143.956 140.937 143.956C141.52 143.956 142.001 144.279 142.381 144.925C142.774 145.558 142.97 146.451 142.97 147.604V153.703C142.97 153.766 142.957 153.823 142.932 153.874C142.907 153.925 142.875 153.95 142.837 153.95H141.279ZM151.178 153.95C151.089 153.95 151.032 153.944 151.007 153.931C150.994 153.918 150.988 153.874 150.988 153.798V152.924C150.684 153.367 150.304 153.697 149.848 153.912C149.392 154.14 148.93 154.254 148.461 154.254C148.094 154.254 147.701 154.184 147.283 154.045C146.878 153.918 146.529 153.722 146.238 153.456C145.947 153.203 145.712 152.886 145.535 152.506C145.37 152.126 145.288 151.683 145.288 151.176C145.288 150.631 145.396 150.137 145.611 149.694C145.839 149.238 146.181 148.858 146.637 148.554C147.093 148.25 147.644 148.028 148.29 147.889C148.949 147.737 149.785 147.661 150.798 147.661C150.798 147.433 150.773 147.224 150.722 147.034C150.684 146.831 150.608 146.641 150.494 146.464C150.38 146.287 150.215 146.141 150 146.027C149.797 145.9 149.544 145.837 149.24 145.837C148.835 145.837 148.41 145.913 147.967 146.065C147.536 146.217 147.131 146.42 146.751 146.673C146.561 146.8 146.428 146.857 146.352 146.844C146.289 146.831 146.257 146.762 146.257 146.635V145.153C146.257 145.128 146.251 145.083 146.238 145.02C146.238 144.944 146.263 144.887 146.314 144.849C146.377 144.786 146.46 144.729 146.561 144.678C146.941 144.463 147.359 144.285 147.815 144.146C148.271 144.007 148.733 143.937 149.202 143.937C150.418 143.937 151.324 144.247 151.919 144.868C152.527 145.476 152.831 146.356 152.831 147.509V151.689C152.831 152.031 152.831 152.379 152.831 152.734C152.844 153.089 152.869 153.405 152.907 153.684C152.92 153.861 152.85 153.95 152.698 153.95H151.178ZM147.321 151.043C147.321 151.486 147.454 151.822 147.72 152.05C147.986 152.265 148.271 152.373 148.575 152.373C149.246 152.373 149.797 152.113 150.228 151.594C150.659 151.062 150.874 150.422 150.874 149.675V149.466C149.519 149.466 148.588 149.605 148.081 149.884C147.574 150.15 147.321 150.536 147.321 151.043ZM161.419 153.95C161.356 153.95 161.299 153.918 161.248 153.855C161.21 153.804 161.191 153.747 161.191 153.684V148.383C161.191 147.471 161.071 146.812 160.83 146.407C160.602 146.002 160.254 145.799 159.785 145.799C159.24 145.799 158.784 146.033 158.417 146.502C158.062 146.958 157.885 147.623 157.885 148.497V153.703C157.885 153.868 157.809 153.95 157.657 153.95H156.099C156.036 153.95 155.979 153.918 155.928 153.855C155.89 153.804 155.871 153.747 155.871 153.684V146.863C155.871 146.382 155.865 145.919 155.852 145.476C155.852 145.033 155.839 144.684 155.814 144.431C155.789 144.266 155.877 144.184 156.08 144.184H157.562C157.701 144.184 157.758 144.235 157.733 144.336L157.714 145.02C157.929 144.716 158.227 144.456 158.607 144.241C159 144.026 159.411 143.918 159.842 143.918C160.754 143.918 161.539 144.26 162.198 144.944C162.869 145.615 163.205 146.667 163.205 148.098V153.703C163.205 153.868 163.129 153.95 162.977 153.95H161.419ZM171.888 153.95C171.799 153.95 171.742 153.944 171.717 153.931C171.704 153.918 171.698 153.874 171.698 153.798V152.924C171.394 153.367 171.014 153.697 170.558 153.912C170.102 154.14 169.64 154.254 169.171 154.254C168.804 154.254 168.411 154.184 167.993 154.045C167.588 153.918 167.239 153.722 166.948 153.456C166.657 153.203 166.422 152.886 166.245 152.506C166.08 152.126 165.998 151.683 165.998 151.176C165.998 150.631 166.106 150.137 166.321 149.694C166.549 149.238 166.891 148.858 167.347 148.554C167.803 148.25 168.354 148.028 169 147.889C169.659 147.737 170.495 147.661 171.508 147.661C171.508 147.433 171.483 147.224 171.432 147.034C171.394 146.831 171.318 146.641 171.204 146.464C171.09 146.287 170.925 146.141 170.71 146.027C170.507 145.9 170.254 145.837 169.95 145.837C169.545 145.837 169.12 145.913 168.677 146.065C168.246 146.217 167.841 146.42 167.461 146.673C167.271 146.8 167.138 146.857 167.062 146.844C166.999 146.831 166.967 146.762 166.967 146.635V145.153C166.967 145.128 166.961 145.083 166.948 145.02C166.948 144.944 166.973 144.887 167.024 144.849C167.087 144.786 167.17 144.729 167.271 144.678C167.651 144.463 168.069 144.285 168.525 144.146C168.981 144.007 169.443 143.937 169.912 143.937C171.128 143.937 172.034 144.247 172.629 144.868C173.237 145.476 173.541 146.356 173.541 147.509V151.689C173.541 152.031 173.541 152.379 173.541 152.734C173.554 153.089 173.579 153.405 173.617 153.684C173.63 153.861 173.56 153.95 173.408 153.95H171.888ZM168.031 151.043C168.031 151.486 168.164 151.822 168.43 152.05C168.696 152.265 168.981 152.373 169.285 152.373C169.956 152.373 170.507 152.113 170.938 151.594C171.369 151.062 171.584 150.422 171.584 149.675V149.466C170.229 149.466 169.298 149.605 168.791 149.884C168.284 150.15 168.031 150.536 168.031 151.043ZM179.678 156.781C179.26 156.781 178.836 156.749 178.405 156.686C177.987 156.623 177.575 156.502 177.17 156.325C177.069 156.274 176.999 156.23 176.961 156.192C176.936 156.154 176.923 156.097 176.923 156.021L176.999 154.444C177.012 154.229 177.119 154.172 177.322 154.273C177.689 154.476 178.082 154.628 178.5 154.729C178.918 154.83 179.317 154.881 179.697 154.881C180.394 154.881 180.932 154.659 181.312 154.216C181.705 153.785 181.907 153.228 181.92 152.544C181.654 152.873 181.35 153.12 181.008 153.285C180.666 153.45 180.311 153.532 179.944 153.532C179.399 153.532 178.918 153.431 178.5 153.228C178.095 153.025 177.708 152.709 177.341 152.278C176.974 151.835 176.695 151.315 176.505 150.72C176.315 150.125 176.22 149.523 176.22 148.915C176.22 147.408 176.556 146.211 177.227 145.324C177.898 144.437 178.785 143.994 179.887 143.994C180.204 143.994 180.501 144.038 180.78 144.127C181.071 144.203 181.331 144.342 181.559 144.545C181.8 144.735 181.977 144.931 182.091 145.134L182.072 144.431C182.059 144.33 182.066 144.266 182.091 144.241C182.116 144.203 182.18 144.184 182.281 144.184H183.649C183.776 144.184 183.839 144.273 183.839 144.45V151.746C183.839 153.342 183.484 154.577 182.775 155.451C182.066 156.338 181.033 156.781 179.678 156.781ZM180.096 145.856C179.513 145.856 179.064 146.154 178.747 146.749C178.443 147.332 178.291 148.054 178.291 148.915C178.291 149.358 178.335 149.764 178.424 150.131C178.525 150.498 178.658 150.796 178.823 151.024C179 151.252 179.184 151.436 179.374 151.575C179.564 151.702 179.779 151.765 180.02 151.765C180.299 151.765 180.539 151.702 180.742 151.575C180.957 151.436 181.141 151.258 181.293 151.043C181.445 150.828 181.572 150.53 181.673 150.15C181.787 149.77 181.844 149.358 181.844 148.915C181.844 148.041 181.692 147.313 181.388 146.73C181.084 146.147 180.653 145.856 180.096 145.856ZM194.346 149.637C194.346 149.738 194.321 149.814 194.27 149.865C194.232 149.903 194.175 149.922 194.099 149.922H188.893C188.906 150.593 189.077 151.17 189.406 151.651C189.748 152.12 190.293 152.354 191.04 152.354C191.496 152.354 191.895 152.303 192.237 152.202C192.592 152.088 192.953 151.898 193.32 151.632C193.421 151.581 193.478 151.588 193.491 151.651C193.516 151.714 193.529 151.79 193.529 151.879V153.228C193.529 153.342 193.51 153.424 193.472 153.475C193.434 153.538 193.371 153.602 193.282 153.665C192.953 153.842 192.617 153.982 192.275 154.083C191.946 154.184 191.534 154.235 191.04 154.235C189.596 154.235 188.519 153.773 187.81 152.848C187.101 151.923 186.746 150.701 186.746 149.181C186.746 148.535 186.822 147.908 186.974 147.3C187.126 146.679 187.36 146.122 187.677 145.628C188.006 145.134 188.418 144.729 188.912 144.412C189.406 144.095 189.976 143.937 190.622 143.937C191.306 143.937 191.882 144.083 192.351 144.374C192.832 144.665 193.219 145.052 193.51 145.533C193.814 146.002 194.029 146.54 194.156 147.148C194.295 147.756 194.365 148.415 194.365 149.124C194.365 149.213 194.359 149.314 194.346 149.428C194.346 149.529 194.346 149.599 194.346 149.637ZM190.584 145.761C190.28 145.761 190.008 145.85 189.767 146.027C189.539 146.192 189.355 146.42 189.216 146.711C189.089 146.99 189.001 147.249 188.95 147.49C188.912 147.718 188.893 147.902 188.893 148.041H192.294C192.294 147.902 192.269 147.718 192.218 147.49C192.18 147.249 192.091 146.99 191.952 146.711C191.825 146.42 191.642 146.192 191.401 146.027C191.16 145.85 190.888 145.761 190.584 145.761ZM203.409 153.95C203.371 153.95 203.339 153.918 203.314 153.855C203.289 153.804 203.276 153.747 203.276 153.684V147.851C203.276 147.218 203.232 146.73 203.143 146.388C203.054 146.033 202.909 145.856 202.706 145.856C202.579 145.856 202.465 145.926 202.364 146.065C202.263 146.204 202.18 146.432 202.117 146.749C202.066 147.066 202.041 147.401 202.041 147.756C202.041 148.098 202.041 148.491 202.041 148.934V153.513C202.041 153.678 202.003 153.76 201.927 153.76H200.407C200.369 153.76 200.337 153.728 200.312 153.665C200.287 153.614 200.274 153.557 200.274 153.494V147.851C200.261 146.521 200.059 145.856 199.666 145.856C199.438 145.856 199.273 146.071 199.172 146.502C199.083 146.933 199.039 147.522 199.039 148.269V153.703C199.039 153.868 198.995 153.95 198.906 153.95H197.329C197.304 153.95 197.278 153.918 197.253 153.855C197.228 153.804 197.215 153.747 197.215 153.684V146.863C197.215 146.382 197.209 145.919 197.196 145.476C197.196 145.033 197.19 144.684 197.177 144.431C197.164 144.266 197.215 144.184 197.329 144.184H198.735C198.811 144.184 198.849 144.235 198.849 144.336L198.83 145.096C198.906 144.741 199.052 144.463 199.267 144.26C199.482 144.057 199.71 143.956 199.951 143.956C200.293 143.956 200.597 144.108 200.863 144.412C201.142 144.716 201.313 145.166 201.376 145.761C201.541 145.153 201.769 144.703 202.06 144.412C202.351 144.108 202.687 143.956 203.067 143.956C203.65 143.956 204.131 144.279 204.511 144.925C204.904 145.558 205.1 146.451 205.1 147.604V153.703C205.1 153.766 205.087 153.823 205.062 153.874C205.037 153.925 205.005 153.95 204.967 153.95H203.409ZM215.056 149.637C215.056 149.738 215.031 149.814 214.98 149.865C214.942 149.903 214.885 149.922 214.809 149.922H209.603C209.616 150.593 209.787 151.17 210.116 151.651C210.458 152.12 211.003 152.354 211.75 152.354C212.206 152.354 212.605 152.303 212.947 152.202C213.302 152.088 213.663 151.898 214.03 151.632C214.131 151.581 214.188 151.588 214.201 151.651C214.226 151.714 214.239 151.79 214.239 151.879V153.228C214.239 153.342 214.22 153.424 214.182 153.475C214.144 153.538 214.081 153.602 213.992 153.665C213.663 153.842 213.327 153.982 212.985 154.083C212.656 154.184 212.244 154.235 211.75 154.235C210.306 154.235 209.229 153.773 208.52 152.848C207.811 151.923 207.456 150.701 207.456 149.181C207.456 148.535 207.532 147.908 207.684 147.3C207.836 146.679 208.07 146.122 208.387 145.628C208.716 145.134 209.128 144.729 209.622 144.412C210.116 144.095 210.686 143.937 211.332 143.937C212.016 143.937 212.592 144.083 213.061 144.374C213.542 144.665 213.929 145.052 214.22 145.533C214.524 146.002 214.739 146.54 214.866 147.148C215.005 147.756 215.075 148.415 215.075 149.124C215.075 149.213 215.069 149.314 215.056 149.428C215.056 149.529 215.056 149.599 215.056 149.637ZM211.294 145.761C210.99 145.761 210.718 145.85 210.477 146.027C210.249 146.192 210.065 146.42 209.926 146.711C209.799 146.99 209.711 147.249 209.66 147.49C209.622 147.718 209.603 147.902 209.603 148.041H213.004C213.004 147.902 212.979 147.718 212.928 147.49C212.89 147.249 212.801 146.99 212.662 146.711C212.535 146.42 212.352 146.192 212.111 146.027C211.87 145.85 211.598 145.761 211.294 145.761ZM223.549 153.95C223.486 153.95 223.429 153.918 223.378 153.855C223.34 153.804 223.321 153.747 223.321 153.684V148.383C223.321 147.471 223.201 146.812 222.96 146.407C222.732 146.002 222.384 145.799 221.915 145.799C221.37 145.799 220.914 146.033 220.547 146.502C220.192 146.958 220.015 147.623 220.015 148.497V153.703C220.015 153.868 219.939 153.95 219.787 153.95H218.229C218.166 153.95 218.109 153.918 218.058 153.855C218.02 153.804 218.001 153.747 218.001 153.684V146.863C218.001 146.382 217.995 145.919 217.982 145.476C217.982 145.033 217.969 144.684 217.944 144.431C217.919 144.266 218.007 144.184 218.21 144.184H219.692C219.831 144.184 219.888 144.235 219.863 144.336L219.844 145.02C220.059 144.716 220.357 144.456 220.737 144.241C221.13 144.026 221.541 143.918 221.972 143.918C222.884 143.918 223.669 144.26 224.328 144.944C224.999 145.615 225.335 146.667 225.335 148.098V153.703C225.335 153.868 225.259 153.95 225.107 153.95H223.549ZM235.709 153.741C235.24 153.906 234.765 154.026 234.284 154.102C233.815 154.178 233.416 154.21 233.087 154.197C232.428 154.197 231.903 154.083 231.51 153.855C231.117 153.64 230.845 153.386 230.693 153.095C230.516 152.766 230.408 152.379 230.37 151.936C230.332 151.493 230.313 150.891 230.313 150.131V146.54H228.223C228.16 146.54 228.103 146.521 228.052 146.483C228.014 146.432 227.995 146.375 227.995 146.312V144.811C227.995 144.748 228.014 144.697 228.052 144.659C228.103 144.608 228.16 144.583 228.223 144.583H230.313V141.828C230.313 141.765 230.338 141.714 230.389 141.676C230.44 141.625 230.497 141.6 230.56 141.6H232.099C232.175 141.6 232.232 141.625 232.27 141.676C232.321 141.714 232.346 141.765 232.346 141.828V144.583H235.538C235.601 144.583 235.652 144.608 235.69 144.659C235.741 144.697 235.766 144.748 235.766 144.811V146.312C235.766 146.375 235.741 146.432 235.69 146.483C235.652 146.521 235.601 146.54 235.538 146.54H232.346V150.245C232.346 151.068 232.365 151.594 232.403 151.822C232.428 152.063 232.542 152.208 232.745 152.259C232.96 152.31 233.245 152.335 233.6 152.335C233.891 152.335 234.195 152.303 234.512 152.24C234.829 152.177 235.139 152.094 235.443 151.993C235.506 151.968 235.551 151.968 235.576 151.993C235.601 152.006 235.627 152.063 235.652 152.164L235.804 153.513C235.817 153.602 235.785 153.678 235.709 153.741ZM104.856 206.95C104.78 206.95 104.723 206.931 104.685 206.893C104.647 206.868 104.609 206.779 104.571 206.627L103.792 203.34H100.467L99.688 206.627C99.6627 206.804 99.631 206.899 99.593 206.912C99.555 206.937 99.4917 206.95 99.403 206.95H97.902C97.674 206.95 97.598 206.842 97.674 206.627L100.942 193.973C100.98 193.872 101.005 193.815 101.018 193.802C101.043 193.777 101.119 193.764 101.246 193.764H103.013C103.127 193.764 103.197 193.777 103.222 193.802C103.247 193.815 103.279 193.872 103.317 193.973L106.585 206.627C106.648 206.842 106.572 206.95 106.357 206.95H104.856ZM100.923 201.345H103.317L102.12 196.082L100.923 201.345ZM116.199 206.741C115.73 206.906 115.255 207.026 114.774 207.102C114.305 207.178 113.906 207.21 113.577 207.197C112.918 207.197 112.393 207.083 112 206.855C111.607 206.64 111.335 206.386 111.183 206.095C111.006 205.766 110.898 205.379 110.86 204.936C110.822 204.493 110.803 203.891 110.803 203.131V199.54H108.713C108.65 199.54 108.593 199.521 108.542 199.483C108.504 199.432 108.485 199.375 108.485 199.312V197.811C108.485 197.748 108.504 197.697 108.542 197.659C108.593 197.608 108.65 197.583 108.713 197.583H110.803V194.828C110.803 194.765 110.828 194.714 110.879 194.676C110.93 194.625 110.987 194.6 111.05 194.6H112.589C112.665 194.6 112.722 194.625 112.76 194.676C112.811 194.714 112.836 194.765 112.836 194.828V197.583H116.028C116.091 197.583 116.142 197.608 116.18 197.659C116.231 197.697 116.256 197.748 116.256 197.811V199.312C116.256 199.375 116.231 199.432 116.18 199.483C116.142 199.521 116.091 199.54 116.028 199.54H112.836V203.245C112.836 204.068 112.855 204.594 112.893 204.822C112.918 205.063 113.032 205.208 113.235 205.259C113.45 205.31 113.735 205.335 114.09 205.335C114.381 205.335 114.685 205.303 115.002 205.24C115.319 205.177 115.629 205.094 115.933 204.993C115.996 204.968 116.041 204.968 116.066 204.993C116.091 205.006 116.117 205.063 116.142 205.164L116.294 206.513C116.307 206.602 116.275 206.678 116.199 206.741ZM126.554 206.741C126.085 206.906 125.61 207.026 125.129 207.102C124.66 207.178 124.261 207.21 123.932 207.197C123.273 207.197 122.748 207.083 122.355 206.855C121.962 206.64 121.69 206.386 121.538 206.095C121.361 205.766 121.253 205.379 121.215 204.936C121.177 204.493 121.158 203.891 121.158 203.131V199.54H119.068C119.005 199.54 118.948 199.521 118.897 199.483C118.859 199.432 118.84 199.375 118.84 199.312V197.811C118.84 197.748 118.859 197.697 118.897 197.659C118.948 197.608 119.005 197.583 119.068 197.583H121.158V194.828C121.158 194.765 121.183 194.714 121.234 194.676C121.285 194.625 121.342 194.6 121.405 194.6H122.944C123.02 194.6 123.077 194.625 123.115 194.676C123.166 194.714 123.191 194.765 123.191 194.828V197.583H126.383C126.446 197.583 126.497 197.608 126.535 197.659C126.586 197.697 126.611 197.748 126.611 197.811V199.312C126.611 199.375 126.586 199.432 126.535 199.483C126.497 199.521 126.446 199.54 126.383 199.54H123.191V203.245C123.191 204.068 123.21 204.594 123.248 204.822C123.273 205.063 123.387 205.208 123.59 205.259C123.805 205.31 124.09 205.335 124.445 205.335C124.736 205.335 125.04 205.303 125.357 205.24C125.674 205.177 125.984 205.094 126.288 204.993C126.351 204.968 126.396 204.968 126.421 204.993C126.446 205.006 126.472 205.063 126.497 205.164L126.649 206.513C126.662 206.602 126.63 206.678 126.554 206.741ZM136.966 202.637C136.966 202.738 136.941 202.814 136.89 202.865C136.852 202.903 136.795 202.922 136.719 202.922H131.513C131.526 203.593 131.697 204.17 132.026 204.651C132.368 205.12 132.913 205.354 133.66 205.354C134.116 205.354 134.515 205.303 134.857 205.202C135.212 205.088 135.573 204.898 135.94 204.632C136.041 204.581 136.098 204.588 136.111 204.651C136.136 204.714 136.149 204.79 136.149 204.879V206.228C136.149 206.342 136.13 206.424 136.092 206.475C136.054 206.538 135.991 206.602 135.902 206.665C135.573 206.842 135.237 206.982 134.895 207.083C134.566 207.184 134.154 207.235 133.66 207.235C132.216 207.235 131.139 206.773 130.43 205.848C129.721 204.923 129.366 203.701 129.366 202.181C129.366 201.535 129.442 200.908 129.594 200.3C129.746 199.679 129.98 199.122 130.297 198.628C130.626 198.134 131.038 197.729 131.532 197.412C132.026 197.095 132.596 196.937 133.242 196.937C133.926 196.937 134.502 197.083 134.971 197.374C135.452 197.665 135.839 198.052 136.13 198.533C136.434 199.002 136.649 199.54 136.776 200.148C136.915 200.756 136.985 201.415 136.985 202.124C136.985 202.213 136.979 202.314 136.966 202.428C136.966 202.529 136.966 202.599 136.966 202.637ZM133.204 198.761C132.9 198.761 132.628 198.85 132.387 199.027C132.159 199.192 131.975 199.42 131.836 199.711C131.709 199.99 131.621 200.249 131.57 200.49C131.532 200.718 131.513 200.902 131.513 201.041H134.914C134.914 200.902 134.889 200.718 134.838 200.49C134.8 200.249 134.711 199.99 134.572 199.711C134.445 199.42 134.262 199.192 134.021 199.027C133.78 198.85 133.508 198.761 133.204 198.761ZM145.459 206.95C145.396 206.95 145.339 206.918 145.288 206.855C145.25 206.804 145.231 206.747 145.231 206.684V201.383C145.231 200.471 145.111 199.812 144.87 199.407C144.642 199.002 144.294 198.799 143.825 198.799C143.28 198.799 142.824 199.033 142.457 199.502C142.102 199.958 141.925 200.623 141.925 201.497V206.703C141.925 206.868 141.849 206.95 141.697 206.95H140.139C140.076 206.95 140.019 206.918 139.968 206.855C139.93 206.804 139.911 206.747 139.911 206.684V199.863C139.911 199.382 139.905 198.919 139.892 198.476C139.892 198.033 139.879 197.684 139.854 197.431C139.829 197.266 139.917 197.184 140.12 197.184H141.602C141.741 197.184 141.798 197.235 141.773 197.336L141.754 198.02C141.969 197.716 142.267 197.456 142.647 197.241C143.04 197.026 143.451 196.918 143.882 196.918C144.794 196.918 145.579 197.26 146.238 197.944C146.909 198.615 147.245 199.667 147.245 201.098V206.703C147.245 206.868 147.169 206.95 147.017 206.95H145.459ZM157.619 206.741C157.15 206.906 156.675 207.026 156.194 207.102C155.725 207.178 155.326 207.21 154.997 207.197C154.338 207.197 153.813 207.083 153.42 206.855C153.027 206.64 152.755 206.386 152.603 206.095C152.426 205.766 152.318 205.379 152.28 204.936C152.242 204.493 152.223 203.891 152.223 203.131V199.54H150.133C150.07 199.54 150.013 199.521 149.962 199.483C149.924 199.432 149.905 199.375 149.905 199.312V197.811C149.905 197.748 149.924 197.697 149.962 197.659C150.013 197.608 150.07 197.583 150.133 197.583H152.223V194.828C152.223 194.765 152.248 194.714 152.299 194.676C152.35 194.625 152.407 194.6 152.47 194.6H154.009C154.085 194.6 154.142 194.625 154.18 194.676C154.231 194.714 154.256 194.765 154.256 194.828V197.583H157.448C157.511 197.583 157.562 197.608 157.6 197.659C157.651 197.697 157.676 197.748 157.676 197.811V199.312C157.676 199.375 157.651 199.432 157.6 199.483C157.562 199.521 157.511 199.54 157.448 199.54H154.256V203.245C154.256 204.068 154.275 204.594 154.313 204.822C154.338 205.063 154.452 205.208 154.655 205.259C154.87 205.31 155.155 205.335 155.51 205.335C155.801 205.335 156.105 205.303 156.422 205.24C156.739 205.177 157.049 205.094 157.353 204.993C157.416 204.968 157.461 204.968 157.486 204.993C157.511 205.006 157.537 205.063 157.562 205.164L157.714 206.513C157.727 206.602 157.695 206.678 157.619 206.741ZM160.773 206.95C160.71 206.95 160.653 206.925 160.602 206.874C160.564 206.836 160.545 206.779 160.545 206.703V205.221C160.545 205.158 160.564 205.107 160.602 205.069C160.653 205.018 160.71 204.993 160.773 204.993H163.357V199.141H161.115C161.052 199.141 160.995 199.122 160.944 199.084C160.906 199.033 160.887 198.97 160.887 198.894V197.412C160.887 197.349 160.906 197.298 160.944 197.26C160.995 197.209 161.052 197.184 161.115 197.184H165.181C165.244 197.184 165.295 197.209 165.333 197.26C165.384 197.298 165.409 197.349 165.409 197.412V204.993H167.746C167.809 204.993 167.86 205.018 167.898 205.069C167.949 205.107 167.974 205.158 167.974 205.221V206.703C167.974 206.868 167.898 206.95 167.746 206.95H160.773ZM164.117 195.683C163.712 195.683 163.37 195.544 163.091 195.265C162.812 194.986 162.673 194.651 162.673 194.258C162.673 193.84 162.812 193.492 163.091 193.213C163.37 192.922 163.712 192.776 164.117 192.776C164.535 192.776 164.883 192.922 165.162 193.213C165.453 193.492 165.599 193.84 165.599 194.258C165.599 194.651 165.453 194.986 165.162 195.265C164.883 195.544 164.535 195.683 164.117 195.683ZM177.588 205.62C177.221 206.152 176.784 206.551 176.277 206.817C175.783 207.096 175.226 207.235 174.605 207.235C173.972 207.235 173.408 207.102 172.914 206.836C172.433 206.57 172.021 206.203 171.679 205.734C171.35 205.253 171.103 204.702 170.938 204.081C170.773 203.46 170.691 202.795 170.691 202.086C170.691 201.377 170.773 200.712 170.938 200.091C171.103 199.47 171.35 198.926 171.679 198.457C172.021 197.988 172.433 197.621 172.914 197.355C173.395 197.089 173.959 196.956 174.605 196.956C175.238 196.956 175.796 197.089 176.277 197.355C176.771 197.621 177.183 197.988 177.512 198.457C177.854 198.926 178.107 199.47 178.272 200.091C178.437 200.712 178.519 201.377 178.519 202.086C178.519 202.783 178.437 203.435 178.272 204.043C178.107 204.651 177.879 205.177 177.588 205.62ZM174.605 198.818C174.276 198.818 173.997 198.913 173.769 199.103C173.541 199.293 173.351 199.546 173.199 199.863C173.06 200.167 172.946 200.515 172.857 200.908C172.781 201.301 172.743 201.693 172.743 202.086C172.743 202.491 172.781 202.89 172.857 203.283C172.946 203.663 173.06 204.011 173.199 204.328C173.351 204.645 173.541 204.898 173.769 205.088C173.997 205.278 174.276 205.373 174.605 205.373C174.922 205.373 175.194 205.278 175.422 205.088C175.663 204.898 175.853 204.645 175.992 204.328C176.144 204.011 176.258 203.663 176.334 203.283C176.423 202.89 176.467 202.491 176.467 202.086C176.467 201.693 176.423 201.307 176.334 200.927C176.258 200.534 176.144 200.186 175.992 199.882C175.853 199.565 175.663 199.312 175.422 199.122C175.194 198.919 174.922 198.818 174.605 198.818ZM186.879 206.95C186.816 206.95 186.759 206.918 186.708 206.855C186.67 206.804 186.651 206.747 186.651 206.684V201.383C186.651 200.471 186.531 199.812 186.29 199.407C186.062 199.002 185.714 198.799 185.245 198.799C184.7 198.799 184.244 199.033 183.877 199.502C183.522 199.958 183.345 200.623 183.345 201.497V206.703C183.345 206.868 183.269 206.95 183.117 206.95H181.559C181.496 206.95 181.439 206.918 181.388 206.855C181.35 206.804 181.331 206.747 181.331 206.684V199.863C181.331 199.382 181.325 198.919 181.312 198.476C181.312 198.033 181.299 197.684 181.274 197.431C181.249 197.266 181.337 197.184 181.54 197.184H183.022C183.161 197.184 183.218 197.235 183.193 197.336L183.174 198.02C183.389 197.716 183.687 197.456 184.067 197.241C184.46 197.026 184.871 196.918 185.302 196.918C186.214 196.918 186.999 197.26 187.658 197.944C188.329 198.615 188.665 199.667 188.665 201.098V206.703C188.665 206.868 188.589 206.95 188.437 206.95H186.879ZM209.394 206.741C208.925 206.906 208.45 207.026 207.969 207.102C207.5 207.178 207.101 207.21 206.772 207.197C206.113 207.197 205.588 207.083 205.195 206.855C204.802 206.64 204.53 206.386 204.378 206.095C204.201 205.766 204.093 205.379 204.055 204.936C204.017 204.493 203.998 203.891 203.998 203.131V199.54H201.908C201.845 199.54 201.788 199.521 201.737 199.483C201.699 199.432 201.68 199.375 201.68 199.312V197.811C201.68 197.748 201.699 197.697 201.737 197.659C201.788 197.608 201.845 197.583 201.908 197.583H203.998V194.828C203.998 194.765 204.023 194.714 204.074 194.676C204.125 194.625 204.182 194.6 204.245 194.6H205.784C205.86 194.6 205.917 194.625 205.955 194.676C206.006 194.714 206.031 194.765 206.031 194.828V197.583H209.223C209.286 197.583 209.337 197.608 209.375 197.659C209.426 197.697 209.451 197.748 209.451 197.811V199.312C209.451 199.375 209.426 199.432 209.375 199.483C209.337 199.521 209.286 199.54 209.223 199.54H206.031V203.245C206.031 204.068 206.05 204.594 206.088 204.822C206.113 205.063 206.227 205.208 206.43 205.259C206.645 205.31 206.93 205.335 207.285 205.335C207.576 205.335 207.88 205.303 208.197 205.24C208.514 205.177 208.824 205.094 209.128 204.993C209.191 204.968 209.236 204.968 209.261 204.993C209.286 205.006 209.312 205.063 209.337 205.164L209.489 206.513C209.502 206.602 209.47 206.678 209.394 206.741ZM219.008 205.62C218.641 206.152 218.204 206.551 217.697 206.817C217.203 207.096 216.646 207.235 216.025 207.235C215.392 207.235 214.828 207.102 214.334 206.836C213.853 206.57 213.441 206.203 213.099 205.734C212.77 205.253 212.523 204.702 212.358 204.081C212.193 203.46 212.111 202.795 212.111 202.086C212.111 201.377 212.193 200.712 212.358 200.091C212.523 199.47 212.77 198.926 213.099 198.457C213.441 197.988 213.853 197.621 214.334 197.355C214.815 197.089 215.379 196.956 216.025 196.956C216.658 196.956 217.216 197.089 217.697 197.355C218.191 197.621 218.603 197.988 218.932 198.457C219.274 198.926 219.527 199.47 219.692 200.091C219.857 200.712 219.939 201.377 219.939 202.086C219.939 202.783 219.857 203.435 219.692 204.043C219.527 204.651 219.299 205.177 219.008 205.62ZM216.025 198.818C215.696 198.818 215.417 198.913 215.189 199.103C214.961 199.293 214.771 199.546 214.619 199.863C214.48 200.167 214.366 200.515 214.277 200.908C214.201 201.301 214.163 201.693 214.163 202.086C214.163 202.491 214.201 202.89 214.277 203.283C214.366 203.663 214.48 204.011 214.619 204.328C214.771 204.645 214.961 204.898 215.189 205.088C215.417 205.278 215.696 205.373 216.025 205.373C216.342 205.373 216.614 205.278 216.842 205.088C217.083 204.898 217.273 204.645 217.412 204.328C217.564 204.011 217.678 203.663 217.754 203.283C217.843 202.89 217.887 202.491 217.887 202.086C217.887 201.693 217.843 201.307 217.754 200.927C217.678 200.534 217.564 200.186 217.412 199.882C217.273 199.565 217.083 199.312 216.842 199.122C216.614 198.919 216.342 198.818 216.025 198.818ZM127.827 229.178C127.244 229.178 126.731 229.051 126.288 228.798C125.857 228.557 125.484 228.215 125.167 227.772C124.863 227.316 124.629 226.765 124.464 226.119C124.299 225.46 124.217 224.764 124.217 224.029C124.217 223.472 124.299 222.857 124.464 222.186C124.641 221.502 124.882 220.919 125.186 220.438C125.503 219.957 125.876 219.589 126.307 219.336C126.75 219.07 127.257 218.937 127.827 218.937C128.245 218.937 128.638 219.038 129.005 219.241C129.385 219.431 129.714 219.722 129.993 220.115V214.814C129.993 214.713 130.006 214.649 130.031 214.624C130.056 214.599 130.107 214.586 130.183 214.586H131.817C131.956 214.586 132.026 214.662 132.026 214.814V228.665C132.026 228.855 131.937 228.95 131.76 228.95H130.24C130.075 228.95 129.993 228.855 129.993 228.665V227.924C129.778 228.304 129.467 228.608 129.062 228.836C128.657 229.064 128.245 229.178 127.827 229.178ZM128.264 220.875C127.656 220.875 127.187 221.192 126.858 221.825C126.529 222.458 126.364 223.193 126.364 224.029C126.364 224.928 126.535 225.695 126.877 226.328C127.219 226.949 127.681 227.259 128.264 227.259C128.505 227.259 128.739 227.177 128.967 227.012C129.195 226.847 129.391 226.613 129.556 226.309C129.733 226.005 129.866 225.644 129.955 225.226C130.044 224.795 130.088 224.396 130.088 224.029C130.088 223.13 129.923 222.382 129.594 221.787C129.277 221.179 128.834 220.875 128.264 220.875ZM142.571 224.637C142.571 224.738 142.546 224.814 142.495 224.865C142.457 224.903 142.4 224.922 142.324 224.922H137.118C137.131 225.593 137.302 226.17 137.631 226.651C137.973 227.12 138.518 227.354 139.265 227.354C139.721 227.354 140.12 227.303 140.462 227.202C140.817 227.088 141.178 226.898 141.545 226.632C141.646 226.581 141.703 226.588 141.716 226.651C141.741 226.714 141.754 226.79 141.754 226.879V228.228C141.754 228.342 141.735 228.424 141.697 228.475C141.659 228.538 141.596 228.602 141.507 228.665C141.178 228.842 140.842 228.982 140.5 229.083C140.171 229.184 139.759 229.235 139.265 229.235C137.821 229.235 136.744 228.773 136.035 227.848C135.326 226.923 134.971 225.701 134.971 224.181C134.971 223.535 135.047 222.908 135.199 222.3C135.351 221.679 135.585 221.122 135.902 220.628C136.231 220.134 136.643 219.729 137.137 219.412C137.631 219.095 138.201 218.937 138.847 218.937C139.531 218.937 140.107 219.083 140.576 219.374C141.057 219.665 141.444 220.052 141.735 220.533C142.039 221.002 142.254 221.54 142.381 222.148C142.52 222.756 142.59 223.415 142.59 224.124C142.59 224.213 142.584 224.314 142.571 224.428C142.571 224.529 142.571 224.599 142.571 224.637ZM138.809 220.761C138.505 220.761 138.233 220.85 137.992 221.027C137.764 221.192 137.58 221.42 137.441 221.711C137.314 221.99 137.226 222.249 137.175 222.49C137.137 222.718 137.118 222.902 137.118 223.041H140.519C140.519 222.902 140.494 222.718 140.443 222.49C140.405 222.249 140.316 221.99 140.177 221.711C140.05 221.42 139.867 221.192 139.626 221.027C139.385 220.85 139.113 220.761 138.809 220.761ZM152.869 228.741C152.4 228.906 151.925 229.026 151.444 229.102C150.975 229.178 150.576 229.21 150.247 229.197C149.588 229.197 149.063 229.083 148.67 228.855C148.277 228.64 148.005 228.386 147.853 228.095C147.676 227.766 147.568 227.379 147.53 226.936C147.492 226.493 147.473 225.891 147.473 225.131V221.54H145.383C145.32 221.54 145.263 221.521 145.212 221.483C145.174 221.432 145.155 221.375 145.155 221.312V219.811C145.155 219.748 145.174 219.697 145.212 219.659C145.263 219.608 145.32 219.583 145.383 219.583H147.473V216.828C147.473 216.765 147.498 216.714 147.549 216.676C147.6 216.625 147.657 216.6 147.72 216.6H149.259C149.335 216.6 149.392 216.625 149.43 216.676C149.481 216.714 149.506 216.765 149.506 216.828V219.583H152.698C152.761 219.583 152.812 219.608 152.85 219.659C152.901 219.697 152.926 219.748 152.926 219.811V221.312C152.926 221.375 152.901 221.432 152.85 221.483C152.812 221.521 152.761 221.54 152.698 221.54H149.506V225.245C149.506 226.068 149.525 226.594 149.563 226.822C149.588 227.063 149.702 227.208 149.905 227.259C150.12 227.31 150.405 227.335 150.76 227.335C151.051 227.335 151.355 227.303 151.672 227.24C151.989 227.177 152.299 227.094 152.603 226.993C152.666 226.968 152.711 226.968 152.736 226.993C152.761 227.006 152.787 227.063 152.812 227.164L152.964 228.513C152.977 228.602 152.945 228.678 152.869 228.741ZM161.533 228.95C161.444 228.95 161.387 228.944 161.362 228.931C161.349 228.918 161.343 228.874 161.343 228.798V227.924C161.039 228.367 160.659 228.697 160.203 228.912C159.747 229.14 159.285 229.254 158.816 229.254C158.449 229.254 158.056 229.184 157.638 229.045C157.233 228.918 156.884 228.722 156.593 228.456C156.302 228.203 156.067 227.886 155.89 227.506C155.725 227.126 155.643 226.683 155.643 226.176C155.643 225.631 155.751 225.137 155.966 224.694C156.194 224.238 156.536 223.858 156.992 223.554C157.448 223.25 157.999 223.028 158.645 222.889C159.304 222.737 160.14 222.661 161.153 222.661C161.153 222.433 161.128 222.224 161.077 222.034C161.039 221.831 160.963 221.641 160.849 221.464C160.735 221.287 160.57 221.141 160.355 221.027C160.152 220.9 159.899 220.837 159.595 220.837C159.19 220.837 158.765 220.913 158.322 221.065C157.891 221.217 157.486 221.42 157.106 221.673C156.916 221.8 156.783 221.857 156.707 221.844C156.644 221.831 156.612 221.762 156.612 221.635V220.153C156.612 220.128 156.606 220.083 156.593 220.02C156.593 219.944 156.618 219.887 156.669 219.849C156.732 219.786 156.815 219.729 156.916 219.678C157.296 219.463 157.714 219.285 158.17 219.146C158.626 219.007 159.088 218.937 159.557 218.937C160.773 218.937 161.679 219.247 162.274 219.868C162.882 220.476 163.186 221.356 163.186 222.509V226.689C163.186 227.031 163.186 227.379 163.186 227.734C163.199 228.089 163.224 228.405 163.262 228.684C163.275 228.861 163.205 228.95 163.053 228.95H161.533ZM157.676 226.043C157.676 226.486 157.809 226.822 158.075 227.05C158.341 227.265 158.626 227.373 158.93 227.373C159.601 227.373 160.152 227.113 160.583 226.594C161.014 226.062 161.229 225.422 161.229 224.675V224.466C159.874 224.466 158.943 224.605 158.436 224.884C157.929 225.15 157.676 225.536 157.676 226.043ZM166.378 228.95C166.315 228.95 166.258 228.925 166.207 228.874C166.169 228.836 166.15 228.779 166.15 228.703V227.221C166.15 227.158 166.169 227.107 166.207 227.069C166.258 227.018 166.315 226.993 166.378 226.993H168.962V221.141H166.72C166.657 221.141 166.6 221.122 166.549 221.084C166.511 221.033 166.492 220.97 166.492 220.894V219.412C166.492 219.349 166.511 219.298 166.549 219.26C166.6 219.209 166.657 219.184 166.72 219.184H170.786C170.849 219.184 170.9 219.209 170.938 219.26C170.989 219.298 171.014 219.349 171.014 219.412V226.993H173.351C173.414 226.993 173.465 227.018 173.503 227.069C173.554 227.107 173.579 227.158 173.579 227.221V228.703C173.579 228.868 173.503 228.95 173.351 228.95H166.378ZM169.722 217.683C169.317 217.683 168.975 217.544 168.696 217.265C168.417 216.986 168.278 216.651 168.278 216.258C168.278 215.84 168.417 215.492 168.696 215.213C168.975 214.922 169.317 214.776 169.722 214.776C170.14 214.776 170.488 214.922 170.767 215.213C171.058 215.492 171.204 215.84 171.204 216.258C171.204 216.651 171.058 216.986 170.767 217.265C170.488 217.544 170.14 217.683 169.722 217.683ZM176.79 228.95C176.727 228.95 176.67 228.925 176.619 228.874C176.581 228.836 176.562 228.779 176.562 228.703V227.221C176.562 227.158 176.581 227.107 176.619 227.069C176.67 227.018 176.727 226.993 176.79 226.993H179.374V216.638H177.398C177.335 216.638 177.278 216.619 177.227 216.581C177.189 216.53 177.17 216.467 177.17 216.391V214.909C177.17 214.846 177.189 214.795 177.227 214.757C177.278 214.706 177.335 214.681 177.398 214.681H181.198C181.261 214.681 181.312 214.706 181.35 214.757C181.401 214.795 181.426 214.846 181.426 214.909V226.993H183.763C183.826 226.993 183.877 227.018 183.915 227.069C183.966 227.107 183.991 227.158 183.991 227.221V228.703C183.991 228.868 183.915 228.95 183.763 228.95H176.79ZM192.655 228.551C192.009 228.994 191.198 229.222 190.223 229.235C189.97 229.235 189.704 229.222 189.425 229.197C189.159 229.172 188.906 229.14 188.665 229.102C188.437 229.077 188.203 229.032 187.962 228.969C187.734 228.918 187.563 228.868 187.449 228.817C187.398 228.804 187.341 228.773 187.278 228.722C187.227 228.671 187.208 228.602 187.221 228.513L187.335 227.24C187.348 227.126 187.367 227.056 187.392 227.031C187.417 227.006 187.5 227.012 187.639 227.05C188.082 227.177 188.519 227.272 188.95 227.335C189.393 227.386 189.792 227.411 190.147 227.411C190.704 227.411 191.116 227.316 191.382 227.126C191.661 226.923 191.8 226.651 191.8 226.309C191.8 226.132 191.73 225.948 191.591 225.758C191.452 225.555 191.217 225.353 190.888 225.15C190.546 224.947 190.191 224.745 189.824 224.542C189.457 224.327 189.096 224.124 188.741 223.934C188.336 223.706 187.994 223.389 187.715 222.984C187.449 222.579 187.316 222.186 187.316 221.806C187.316 221.337 187.411 220.919 187.601 220.552C187.791 220.172 188.044 219.855 188.361 219.602C188.678 219.349 189.039 219.165 189.444 219.051C189.862 218.937 190.299 218.88 190.755 218.88C190.996 218.88 191.243 218.893 191.496 218.918C191.762 218.943 192.015 218.981 192.256 219.032C192.509 219.07 192.731 219.121 192.921 219.184C193.124 219.235 193.276 219.292 193.377 219.355C193.44 219.38 193.472 219.412 193.472 219.45C193.485 219.475 193.485 219.52 193.472 219.583L193.358 220.837C193.345 220.964 193.307 221.046 193.244 221.084C193.181 221.109 193.092 221.097 192.978 221.046C192.737 220.957 192.465 220.875 192.161 220.799C191.92 220.748 191.686 220.717 191.458 220.704C191.243 220.679 191.046 220.666 190.869 220.666C190.35 220.666 189.982 220.761 189.767 220.951C189.552 221.141 189.444 221.35 189.444 221.578C189.444 221.793 189.564 222.015 189.805 222.243C190.046 222.458 190.35 222.661 190.717 222.851C191.122 223.054 191.49 223.256 191.819 223.459C192.148 223.649 192.395 223.807 192.56 223.934C193.016 224.251 193.358 224.599 193.586 224.979C193.814 225.346 193.928 225.733 193.928 226.138C193.928 227.126 193.504 227.93 192.655 228.551ZM105.284 281.95C105.208 281.95 105.151 281.931 105.113 281.893C105.075 281.868 105.037 281.779 104.999 281.627L104.22 278.34H100.895L100.116 281.627C100.09 281.804 100.059 281.899 100.021 281.912C99.9825 281.937 99.9192 281.95 99.8305 281.95H98.3295C98.1015 281.95 98.0255 281.842 98.1015 281.627L101.37 268.973C101.408 268.872 101.433 268.815 101.446 268.802C101.471 268.777 101.547 268.764 101.674 268.764H103.441C103.555 268.764 103.624 268.777 103.65 268.802C103.675 268.815 103.707 268.872 103.745 268.973L107.013 281.627C107.076 281.842 107 281.95 106.785 281.95H105.284ZM101.351 276.345H103.745L102.548 271.082L101.351 276.345ZM112.295 282.178C111.712 282.178 111.199 282.051 110.756 281.798C110.325 281.557 109.951 281.215 109.635 280.772C109.331 280.316 109.096 279.765 108.932 279.119C108.767 278.46 108.685 277.764 108.685 277.029C108.685 276.472 108.767 275.857 108.932 275.186C109.109 274.502 109.35 273.919 109.654 273.438C109.97 272.957 110.344 272.589 110.775 272.336C111.218 272.07 111.725 271.937 112.295 271.937C112.713 271.937 113.105 272.038 113.473 272.241C113.853 272.431 114.182 272.722 114.461 273.115V267.814C114.461 267.713 114.473 267.649 114.499 267.624C114.524 267.599 114.575 267.586 114.651 267.586H116.285C116.424 267.586 116.494 267.662 116.494 267.814V281.665C116.494 281.855 116.405 281.95 116.228 281.95H114.708C114.543 281.95 114.461 281.855 114.461 281.665V280.924C114.245 281.304 113.935 281.608 113.53 281.836C113.124 282.064 112.713 282.178 112.295 282.178ZM112.732 273.875C112.124 273.875 111.655 274.192 111.326 274.825C110.996 275.458 110.832 276.193 110.832 277.029C110.832 277.928 111.003 278.695 111.345 279.328C111.687 279.949 112.149 280.259 112.732 280.259C112.972 280.259 113.207 280.177 113.435 280.012C113.663 279.847 113.859 279.613 114.024 279.309C114.201 279.005 114.334 278.644 114.423 278.226C114.511 277.795 114.556 277.396 114.556 277.029C114.556 276.13 114.391 275.382 114.062 274.787C113.745 274.179 113.302 273.875 112.732 273.875ZM125.291 281.95C125.202 281.95 125.145 281.944 125.12 281.931C125.107 281.918 125.1 281.874 125.1 281.798V280.924C124.796 281.367 124.416 281.697 123.96 281.912C123.504 282.14 123.042 282.254 122.574 282.254C122.206 282.254 121.813 282.184 121.395 282.045C120.99 281.918 120.642 281.722 120.35 281.456C120.059 281.203 119.825 280.886 119.647 280.506C119.483 280.126 119.4 279.683 119.4 279.176C119.4 278.631 119.508 278.137 119.723 277.694C119.951 277.238 120.293 276.858 120.749 276.554C121.205 276.25 121.756 276.028 122.402 275.889C123.061 275.737 123.897 275.661 124.91 275.661C124.91 275.433 124.885 275.224 124.834 275.034C124.796 274.831 124.72 274.641 124.606 274.464C124.492 274.287 124.328 274.141 124.113 274.027C123.91 273.9 123.657 273.837 123.353 273.837C122.947 273.837 122.523 273.913 122.079 274.065C121.649 274.217 121.243 274.42 120.863 274.673C120.673 274.8 120.54 274.857 120.464 274.844C120.401 274.831 120.369 274.762 120.369 274.635V273.153C120.369 273.128 120.363 273.083 120.35 273.02C120.35 272.944 120.376 272.887 120.426 272.849C120.49 272.786 120.572 272.729 120.673 272.678C121.053 272.463 121.471 272.285 121.927 272.146C122.383 272.007 122.846 271.937 123.315 271.937C124.53 271.937 125.436 272.247 126.032 272.868C126.64 273.476 126.944 274.356 126.944 275.509V279.689C126.944 280.031 126.944 280.379 126.944 280.734C126.956 281.089 126.982 281.405 127.019 281.684C127.032 281.861 126.963 281.95 126.81 281.95H125.291ZM121.433 279.043C121.433 279.486 121.566 279.822 121.832 280.05C122.098 280.265 122.383 280.373 122.687 280.373C123.359 280.373 123.91 280.113 124.34 279.594C124.771 279.062 124.987 278.422 124.987 277.675V277.466C123.631 277.466 122.7 277.605 122.193 277.884C121.687 278.15 121.433 278.536 121.433 279.043ZM134.107 271.956C134.689 271.956 135.196 272.083 135.627 272.336C136.07 272.577 136.444 272.925 136.748 273.381C137.064 273.824 137.305 274.375 137.47 275.034C137.634 275.68 137.717 276.37 137.717 277.105C137.717 277.662 137.628 278.283 137.451 278.967C137.286 279.638 137.045 280.215 136.729 280.696C136.425 281.177 136.051 281.545 135.608 281.798C135.177 282.064 134.677 282.197 134.107 282.197C133.689 282.197 133.29 282.096 132.91 281.893C132.542 281.703 132.219 281.412 131.941 281.019V284.553C131.941 284.654 131.928 284.718 131.903 284.743C131.877 284.768 131.827 284.781 131.751 284.781H130.117C129.977 284.781 129.908 284.705 129.908 284.553V272.469C129.908 272.279 129.996 272.184 130.174 272.184H131.694C131.858 272.184 131.941 272.279 131.941 272.469V273.21C132.156 272.83 132.466 272.526 132.872 272.298C133.277 272.07 133.689 271.956 134.107 271.956ZM133.67 280.259C134.278 280.259 134.746 279.942 135.076 279.309C135.405 278.676 135.57 277.941 135.57 277.105C135.57 276.206 135.399 275.446 135.057 274.825C134.715 274.192 134.252 273.875 133.67 273.875C133.429 273.875 133.195 273.957 132.967 274.122C132.739 274.287 132.536 274.521 132.359 274.825C132.194 275.129 132.067 275.496 131.979 275.927C131.89 276.345 131.846 276.738 131.846 277.105C131.846 278.004 132.004 278.758 132.321 279.366C132.65 279.961 133.1 280.259 133.67 280.259ZM147.691 281.741C147.223 281.906 146.748 282.026 146.266 282.102C145.798 282.178 145.399 282.21 145.069 282.197C144.411 282.197 143.885 282.083 143.492 281.855C143.1 281.64 142.827 281.386 142.675 281.095C142.498 280.766 142.39 280.379 142.352 279.936C142.314 279.493 142.295 278.891 142.295 278.131V274.54H140.205C140.142 274.54 140.085 274.521 140.034 274.483C139.996 274.432 139.977 274.375 139.977 274.312V272.811C139.977 272.748 139.996 272.697 140.034 272.659C140.085 272.608 140.142 272.583 140.205 272.583H142.295V269.828C142.295 269.765 142.321 269.714 142.371 269.676C142.422 269.625 142.479 269.6 142.542 269.6H144.081C144.157 269.6 144.214 269.625 144.252 269.676C144.303 269.714 144.328 269.765 144.328 269.828V272.583H147.52C147.584 272.583 147.634 272.608 147.672 272.659C147.723 272.697 147.748 272.748 147.748 272.811V274.312C147.748 274.375 147.723 274.432 147.672 274.483C147.634 274.521 147.584 274.54 147.52 274.54H144.328V278.245C144.328 279.068 144.347 279.594 144.385 279.822C144.411 280.063 144.525 280.208 144.727 280.259C144.943 280.31 145.228 280.335 145.582 280.335C145.874 280.335 146.178 280.303 146.494 280.24C146.811 280.177 147.121 280.094 147.425 279.993C147.489 279.968 147.533 279.968 147.558 279.993C147.584 280.006 147.609 280.063 147.634 280.164L147.786 281.513C147.799 281.602 147.767 281.678 147.691 281.741ZM156.356 281.95C156.267 281.95 156.21 281.944 156.185 281.931C156.172 281.918 156.166 281.874 156.166 281.798V280.924C155.862 281.367 155.482 281.697 155.026 281.912C154.57 282.14 154.107 282.254 153.639 282.254C153.271 282.254 152.879 282.184 152.461 282.045C152.055 281.918 151.707 281.722 151.416 281.456C151.124 281.203 150.89 280.886 150.713 280.506C150.548 280.126 150.466 279.683 150.466 279.176C150.466 278.631 150.573 278.137 150.789 277.694C151.017 277.238 151.359 276.858 151.815 276.554C152.271 276.25 152.822 276.028 153.468 275.889C154.126 275.737 154.962 275.661 155.976 275.661C155.976 275.433 155.95 275.224 155.9 275.034C155.862 274.831 155.786 274.641 155.672 274.464C155.558 274.287 155.393 274.141 155.178 274.027C154.975 273.9 154.722 273.837 154.418 273.837C154.012 273.837 153.588 273.913 153.145 274.065C152.714 274.217 152.309 274.42 151.929 274.673C151.739 274.8 151.606 274.857 151.53 274.844C151.466 274.831 151.435 274.762 151.435 274.635V273.153C151.435 273.128 151.428 273.083 151.416 273.02C151.416 272.944 151.441 272.887 151.492 272.849C151.555 272.786 151.637 272.729 151.739 272.678C152.119 272.463 152.537 272.285 152.993 272.146C153.449 272.007 153.911 271.937 154.38 271.937C155.596 271.937 156.501 272.247 157.097 272.868C157.705 273.476 158.009 274.356 158.009 275.509V279.689C158.009 280.031 158.009 280.379 158.009 280.734C158.021 281.089 158.047 281.405 158.085 281.684C158.097 281.861 158.028 281.95 157.876 281.95H156.356ZM152.499 279.043C152.499 279.486 152.632 279.822 152.898 280.05C153.164 280.265 153.449 280.373 153.753 280.373C154.424 280.373 154.975 280.113 155.406 279.594C155.836 279.062 156.052 278.422 156.052 277.675V277.466C154.696 277.466 153.765 277.605 153.259 277.884C152.752 278.15 152.499 278.536 152.499 279.043ZM165.172 282.178C164.754 282.178 164.342 282.064 163.937 281.836C163.531 281.608 163.221 281.304 163.006 280.924V281.665C163.006 281.855 162.923 281.95 162.759 281.95H161.239C161.061 281.95 160.973 281.855 160.973 281.665V267.814C160.973 267.662 161.042 267.586 161.182 267.586H162.816C162.892 267.586 162.942 267.599 162.968 267.624C162.993 267.649 163.006 267.713 163.006 267.814V273.115C163.284 272.722 163.607 272.431 163.975 272.241C164.355 272.038 164.754 271.937 165.172 271.937C165.742 271.937 166.242 272.07 166.673 272.336C167.116 272.589 167.49 272.957 167.794 273.438C168.11 273.919 168.351 274.502 168.516 275.186C168.693 275.857 168.782 276.472 168.782 277.029C168.782 277.764 168.699 278.46 168.535 279.119C168.37 279.765 168.129 280.316 167.813 280.772C167.509 281.215 167.135 281.557 166.692 281.798C166.261 282.051 165.754 282.178 165.172 282.178ZM164.735 273.875C164.165 273.875 163.715 274.179 163.386 274.787C163.069 275.382 162.911 276.13 162.911 277.029C162.911 277.371 162.955 277.764 163.044 278.207C163.132 278.638 163.259 279.005 163.424 279.309C163.601 279.613 163.804 279.847 164.032 280.012C164.26 280.177 164.494 280.259 164.735 280.259C165.317 280.259 165.78 279.949 166.122 279.328C166.464 278.695 166.635 277.928 166.635 277.029C166.635 276.193 166.47 275.458 166.141 274.825C165.811 274.192 165.343 273.875 164.735 273.875ZM171.556 281.95C171.492 281.95 171.435 281.925 171.385 281.874C171.347 281.836 171.328 281.779 171.328 281.703V280.221C171.328 280.158 171.347 280.107 171.385 280.069C171.435 280.018 171.492 279.993 171.556 279.993H174.14V274.141H171.898C171.834 274.141 171.777 274.122 171.727 274.084C171.689 274.033 171.67 273.97 171.67 273.894V272.412C171.67 272.349 171.689 272.298 171.727 272.26C171.777 272.209 171.834 272.184 171.898 272.184H175.964C176.027 272.184 176.078 272.209 176.116 272.26C176.166 272.298 176.192 272.349 176.192 272.412V279.993H178.529C178.592 279.993 178.643 280.018 178.681 280.069C178.731 280.107 178.757 280.158 178.757 280.221V281.703C178.757 281.868 178.681 281.95 178.529 281.95H171.556ZM174.9 270.683C174.494 270.683 174.152 270.544 173.874 270.265C173.595 269.986 173.456 269.651 173.456 269.258C173.456 268.84 173.595 268.492 173.874 268.213C174.152 267.922 174.494 267.776 174.9 267.776C175.318 267.776 175.666 267.922 175.945 268.213C176.236 268.492 176.382 268.84 176.382 269.258C176.382 269.651 176.236 269.986 175.945 270.265C175.666 270.544 175.318 270.683 174.9 270.683ZM181.967 281.95C181.904 281.95 181.847 281.925 181.796 281.874C181.758 281.836 181.739 281.779 181.739 281.703V280.221C181.739 280.158 181.758 280.107 181.796 280.069C181.847 280.018 181.904 279.993 181.967 279.993H184.551V269.638H182.575C182.512 269.638 182.455 269.619 182.404 269.581C182.366 269.53 182.347 269.467 182.347 269.391V267.909C182.347 267.846 182.366 267.795 182.404 267.757C182.455 267.706 182.512 267.681 182.575 267.681H186.375C186.439 267.681 186.489 267.706 186.527 267.757C186.578 267.795 186.603 267.846 186.603 267.909V279.993H188.94C189.004 279.993 189.054 280.018 189.092 280.069C189.143 280.107 189.168 280.158 189.168 280.221V281.703C189.168 281.868 189.092 281.95 188.94 281.95H181.967ZM192.265 281.95C192.202 281.95 192.145 281.925 192.094 281.874C192.056 281.836 192.037 281.779 192.037 281.703V280.221C192.037 280.158 192.056 280.107 192.094 280.069C192.145 280.018 192.202 279.993 192.265 279.993H194.849V274.141H192.607C192.544 274.141 192.487 274.122 192.436 274.084C192.398 274.033 192.379 273.97 192.379 273.894V272.412C192.379 272.349 192.398 272.298 192.436 272.26C192.487 272.209 192.544 272.184 192.607 272.184H196.673C196.737 272.184 196.787 272.209 196.825 272.26C196.876 272.298 196.901 272.349 196.901 272.412V279.993H199.238C199.302 279.993 199.352 280.018 199.39 280.069C199.441 280.107 199.466 280.158 199.466 280.221V281.703C199.466 281.868 199.39 281.95 199.238 281.95H192.265ZM195.609 270.683C195.204 270.683 194.862 270.544 194.583 270.265C194.305 269.986 194.165 269.651 194.165 269.258C194.165 268.84 194.305 268.492 194.583 268.213C194.862 267.922 195.204 267.776 195.609 267.776C196.027 267.776 196.376 267.922 196.654 268.213C196.946 268.492 197.091 268.84 197.091 269.258C197.091 269.651 196.946 269.986 196.654 270.265C196.376 270.544 196.027 270.683 195.609 270.683ZM209.822 281.741C209.353 281.906 208.878 282.026 208.397 282.102C207.928 282.178 207.529 282.21 207.2 282.197C206.541 282.197 206.015 282.083 205.623 281.855C205.23 281.64 204.958 281.386 204.806 281.095C204.628 280.766 204.521 280.379 204.483 279.936C204.445 279.493 204.426 278.891 204.426 278.131V274.54H202.336C202.272 274.54 202.215 274.521 202.165 274.483C202.127 274.432 202.108 274.375 202.108 274.312V272.811C202.108 272.748 202.127 272.697 202.165 272.659C202.215 272.608 202.272 272.583 202.336 272.583H204.426V269.828C204.426 269.765 204.451 269.714 204.502 269.676C204.552 269.625 204.609 269.6 204.673 269.6H206.212C206.288 269.6 206.345 269.625 206.383 269.676C206.433 269.714 206.459 269.765 206.459 269.828V272.583H209.651C209.714 272.583 209.765 272.608 209.803 272.659C209.853 272.697 209.879 272.748 209.879 272.811V274.312C209.879 274.375 209.853 274.432 209.803 274.483C209.765 274.521 209.714 274.54 209.651 274.54H206.459V278.245C206.459 279.068 206.478 279.594 206.516 279.822C206.541 280.063 206.655 280.208 206.858 280.259C207.073 280.31 207.358 280.335 207.713 280.335C208.004 280.335 208.308 280.303 208.625 280.24C208.941 280.177 209.252 280.094 209.556 279.993C209.619 279.968 209.663 279.968 209.689 279.993C209.714 280.006 209.739 280.063 209.765 280.164L209.917 281.513C209.929 281.602 209.898 281.678 209.822 281.741ZM214.153 284.781C213.9 284.781 213.672 284.768 213.469 284.743C213.279 284.718 213.089 284.667 212.899 284.591C212.836 284.566 212.785 284.528 212.747 284.477C212.709 284.439 212.697 284.382 212.709 284.306L212.823 283.052C212.823 282.887 212.893 282.83 213.032 282.881C213.197 282.932 213.362 282.963 213.526 282.976C213.691 283.001 213.843 283.014 213.982 283.014C214.172 283.014 214.331 282.982 214.457 282.919C214.584 282.868 214.685 282.786 214.761 282.672C214.825 282.545 214.888 282.412 214.951 282.273C215.015 282.146 215.072 282.007 215.122 281.855C215.186 281.703 215.249 281.526 215.312 281.323C215.388 281.133 215.452 280.943 215.502 280.753L212.614 272.393C212.564 272.241 212.614 272.165 212.766 272.165H214.343C214.47 272.165 214.546 272.241 214.571 272.393L216.471 278.055L218.409 272.393C218.435 272.241 218.511 272.165 218.637 272.165H220.233C220.373 272.165 220.417 272.241 220.366 272.393L216.908 282.254C216.579 283.179 216.199 283.831 215.768 284.211C215.338 284.591 214.799 284.781 214.153 284.781ZM100.657 334.722C100.366 334.823 100.055 334.918 99.726 335.007C99.4093 335.096 99.0483 335.14 98.643 335.14C97.9843 335.14 97.332 334.963 96.686 334.608C96.04 334.266 95.489 333.772 95.033 333.126C94.577 332.467 94.2287 331.72 93.988 330.884C93.76 330.048 93.646 329.193 93.646 328.319C93.646 327.445 93.76 326.59 93.988 325.754C94.2287 324.918 94.5707 324.19 95.014 323.569C95.47 322.948 96.021 322.461 96.667 322.106C97.3257 321.751 97.9843 321.574 98.643 321.574C98.947 321.574 99.27 321.606 99.612 321.669C99.9667 321.72 100.321 321.815 100.676 321.954C100.777 321.992 100.834 322.036 100.847 322.087C100.872 322.138 100.879 322.226 100.866 322.353L100.847 323.797C100.847 323.974 100.822 324.069 100.771 324.082C100.72 324.082 100.632 324.057 100.505 324.006C99.9223 323.715 99.3017 323.569 98.643 323.569C98.1997 323.569 97.788 323.696 97.408 323.949C97.028 324.19 96.7177 324.551 96.477 325.032C96.2363 325.501 96.0527 326.033 95.926 326.628C95.7993 327.211 95.736 327.774 95.736 328.319C95.736 328.864 95.8057 329.44 95.945 330.048C96.0843 330.643 96.2743 331.175 96.515 331.644C96.7557 332.113 97.0787 332.48 97.484 332.746C97.8893 333.012 98.2947 333.145 98.7 333.145C98.9913 333.145 99.2827 333.113 99.574 333.05C99.878 332.987 100.188 332.892 100.505 332.765C100.632 332.702 100.714 332.683 100.752 332.708C100.79 332.733 100.809 332.784 100.809 332.86L100.866 334.323C100.879 334.437 100.872 334.519 100.847 334.57C100.822 334.633 100.758 334.684 100.657 334.722ZM110.708 333.62C110.341 334.152 109.904 334.551 109.397 334.817C108.903 335.096 108.346 335.235 107.725 335.235C107.092 335.235 106.528 335.102 106.034 334.836C105.553 334.57 105.141 334.203 104.799 333.734C104.47 333.253 104.223 332.702 104.058 332.081C103.893 331.46 103.811 330.795 103.811 330.086C103.811 329.377 103.893 328.712 104.058 328.091C104.223 327.47 104.47 326.926 104.799 326.457C105.141 325.988 105.553 325.621 106.034 325.355C106.515 325.089 107.079 324.956 107.725 324.956C108.358 324.956 108.916 325.089 109.397 325.355C109.891 325.621 110.303 325.988 110.632 326.457C110.974 326.926 111.227 327.47 111.392 328.091C111.557 328.712 111.639 329.377 111.639 330.086C111.639 330.783 111.557 331.435 111.392 332.043C111.227 332.651 110.999 333.177 110.708 333.62ZM107.725 326.818C107.396 326.818 107.117 326.913 106.889 327.103C106.661 327.293 106.471 327.546 106.319 327.863C106.18 328.167 106.066 328.515 105.977 328.908C105.901 329.301 105.863 329.693 105.863 330.086C105.863 330.491 105.901 330.89 105.977 331.283C106.066 331.663 106.18 332.011 106.319 332.328C106.471 332.645 106.661 332.898 106.889 333.088C107.117 333.278 107.396 333.373 107.725 333.373C108.042 333.373 108.314 333.278 108.542 333.088C108.783 332.898 108.973 332.645 109.112 332.328C109.264 332.011 109.378 331.663 109.454 331.283C109.543 330.89 109.587 330.491 109.587 330.086C109.587 329.693 109.543 329.307 109.454 328.927C109.378 328.534 109.264 328.186 109.112 327.882C108.973 327.565 108.783 327.312 108.542 327.122C108.314 326.919 108.042 326.818 107.725 326.818ZM120.569 334.95C120.531 334.95 120.499 334.918 120.474 334.855C120.449 334.804 120.436 334.747 120.436 334.684V328.851C120.436 328.218 120.392 327.73 120.303 327.388C120.214 327.033 120.069 326.856 119.866 326.856C119.739 326.856 119.625 326.926 119.524 327.065C119.423 327.204 119.34 327.432 119.277 327.749C119.226 328.066 119.201 328.401 119.201 328.756C119.201 329.098 119.201 329.491 119.201 329.934V334.513C119.201 334.678 119.163 334.76 119.087 334.76H117.567C117.529 334.76 117.497 334.728 117.472 334.665C117.447 334.614 117.434 334.557 117.434 334.494V328.851C117.421 327.521 117.219 326.856 116.826 326.856C116.598 326.856 116.433 327.071 116.332 327.502C116.243 327.933 116.199 328.522 116.199 329.269V334.703C116.199 334.868 116.155 334.95 116.066 334.95H114.489C114.464 334.95 114.438 334.918 114.413 334.855C114.388 334.804 114.375 334.747 114.375 334.684V327.863C114.375 327.382 114.369 326.919 114.356 326.476C114.356 326.033 114.35 325.684 114.337 325.431C114.324 325.266 114.375 325.184 114.489 325.184H115.895C115.971 325.184 116.009 325.235 116.009 325.336L115.99 326.096C116.066 325.741 116.212 325.463 116.427 325.26C116.642 325.057 116.87 324.956 117.111 324.956C117.453 324.956 117.757 325.108 118.023 325.412C118.302 325.716 118.473 326.166 118.536 326.761C118.701 326.153 118.929 325.703 119.22 325.412C119.511 325.108 119.847 324.956 120.227 324.956C120.81 324.956 121.291 325.279 121.671 325.925C122.064 326.558 122.26 327.451 122.26 328.604V334.703C122.26 334.766 122.247 334.823 122.222 334.874C122.197 334.925 122.165 334.95 122.127 334.95H120.569ZM130.924 334.95C130.886 334.95 130.854 334.918 130.829 334.855C130.804 334.804 130.791 334.747 130.791 334.684V328.851C130.791 328.218 130.747 327.73 130.658 327.388C130.569 327.033 130.424 326.856 130.221 326.856C130.094 326.856 129.98 326.926 129.879 327.065C129.778 327.204 129.695 327.432 129.632 327.749C129.581 328.066 129.556 328.401 129.556 328.756C129.556 329.098 129.556 329.491 129.556 329.934V334.513C129.556 334.678 129.518 334.76 129.442 334.76H127.922C127.884 334.76 127.852 334.728 127.827 334.665C127.802 334.614 127.789 334.557 127.789 334.494V328.851C127.776 327.521 127.574 326.856 127.181 326.856C126.953 326.856 126.788 327.071 126.687 327.502C126.598 327.933 126.554 328.522 126.554 329.269V334.703C126.554 334.868 126.51 334.95 126.421 334.95H124.844C124.819 334.95 124.793 334.918 124.768 334.855C124.743 334.804 124.73 334.747 124.73 334.684V327.863C124.73 327.382 124.724 326.919 124.711 326.476C124.711 326.033 124.705 325.684 124.692 325.431C124.679 325.266 124.73 325.184 124.844 325.184H126.25C126.326 325.184 126.364 325.235 126.364 325.336L126.345 326.096C126.421 325.741 126.567 325.463 126.782 325.26C126.997 325.057 127.225 324.956 127.466 324.956C127.808 324.956 128.112 325.108 128.378 325.412C128.657 325.716 128.828 326.166 128.891 326.761C129.056 326.153 129.284 325.703 129.575 325.412C129.866 325.108 130.202 324.956 130.582 324.956C131.165 324.956 131.646 325.279 132.026 325.925C132.419 326.558 132.615 327.451 132.615 328.604V334.703C132.615 334.766 132.602 334.823 132.577 334.874C132.552 334.925 132.52 334.95 132.482 334.95H130.924ZM140.766 334.95C140.715 334.95 140.665 334.931 140.614 334.893C140.576 334.868 140.557 334.823 140.557 334.76V333.981C140.316 334.399 140.006 334.716 139.626 334.931C139.259 335.146 138.828 335.254 138.334 335.254C137.384 335.254 136.599 334.893 135.978 334.171C135.37 333.449 135.066 332.417 135.066 331.074V325.45C135.066 325.387 135.085 325.33 135.123 325.279C135.174 325.216 135.224 325.184 135.275 325.184H136.89C136.941 325.184 136.985 325.216 137.023 325.279C137.074 325.342 137.099 325.406 137.099 325.469V330.77C137.099 331.72 137.232 332.391 137.498 332.784C137.764 333.177 138.119 333.373 138.562 333.373C139.107 333.373 139.556 333.113 139.911 332.594C140.266 332.075 140.443 331.302 140.443 330.276V325.45C140.443 325.387 140.462 325.33 140.5 325.279C140.551 325.216 140.614 325.184 140.69 325.184H142.267C142.318 325.184 142.362 325.222 142.4 325.298C142.451 325.361 142.476 325.425 142.476 325.488V332.499C142.476 332.892 142.482 333.278 142.495 333.658C142.508 334.038 142.514 334.386 142.514 334.703C142.514 334.868 142.444 334.95 142.305 334.95H140.766ZM151.064 334.95C151.001 334.95 150.944 334.918 150.893 334.855C150.855 334.804 150.836 334.747 150.836 334.684V329.383C150.836 328.471 150.716 327.812 150.475 327.407C150.247 327.002 149.899 326.799 149.43 326.799C148.885 326.799 148.429 327.033 148.062 327.502C147.707 327.958 147.53 328.623 147.53 329.497V334.703C147.53 334.868 147.454 334.95 147.302 334.95H145.744C145.681 334.95 145.624 334.918 145.573 334.855C145.535 334.804 145.516 334.747 145.516 334.684V327.863C145.516 327.382 145.51 326.919 145.497 326.476C145.497 326.033 145.484 325.684 145.459 325.431C145.434 325.266 145.522 325.184 145.725 325.184H147.207C147.346 325.184 147.403 325.235 147.378 325.336L147.359 326.02C147.574 325.716 147.872 325.456 148.252 325.241C148.645 325.026 149.056 324.918 149.487 324.918C150.399 324.918 151.184 325.26 151.843 325.944C152.514 326.615 152.85 327.667 152.85 329.098V334.703C152.85 334.868 152.774 334.95 152.622 334.95H151.064ZM156.023 334.95C155.96 334.95 155.903 334.925 155.852 334.874C155.814 334.836 155.795 334.779 155.795 334.703V333.221C155.795 333.158 155.814 333.107 155.852 333.069C155.903 333.018 155.96 332.993 156.023 332.993H158.607V327.141H156.365C156.302 327.141 156.245 327.122 156.194 327.084C156.156 327.033 156.137 326.97 156.137 326.894V325.412C156.137 325.349 156.156 325.298 156.194 325.26C156.245 325.209 156.302 325.184 156.365 325.184H160.431C160.494 325.184 160.545 325.209 160.583 325.26C160.634 325.298 160.659 325.349 160.659 325.412V332.993H162.996C163.059 332.993 163.11 333.018 163.148 333.069C163.199 333.107 163.224 333.158 163.224 333.221V334.703C163.224 334.868 163.148 334.95 162.996 334.95H156.023ZM159.367 323.683C158.962 323.683 158.62 323.544 158.341 323.265C158.062 322.986 157.923 322.651 157.923 322.258C157.923 321.84 158.062 321.492 158.341 321.213C158.62 320.922 158.962 320.776 159.367 320.776C159.785 320.776 160.133 320.922 160.412 321.213C160.703 321.492 160.849 321.84 160.849 322.258C160.849 322.651 160.703 322.986 160.412 323.265C160.133 323.544 159.785 323.683 159.367 323.683ZM173.104 334.912C172.977 334.963 172.819 335.007 172.629 335.045C172.439 335.083 172.224 335.115 171.983 335.14C171.742 335.165 171.527 335.178 171.337 335.178C171.147 335.191 170.938 335.191 170.71 335.178C169.975 335.127 169.348 334.963 168.829 334.684C168.322 334.405 167.873 334.044 167.48 333.601C167.1 333.158 166.809 332.632 166.606 332.024C166.416 331.416 166.321 330.757 166.321 330.048C166.321 329.313 166.441 328.636 166.682 328.015C166.923 327.382 167.252 326.837 167.67 326.381C168.101 325.925 168.582 325.577 169.114 325.336C169.659 325.083 170.305 324.956 171.052 324.956C171.356 324.956 171.692 324.988 172.059 325.051C172.439 325.102 172.806 325.19 173.161 325.317C173.212 325.33 173.25 325.355 173.275 325.393C173.3 325.418 173.307 325.488 173.294 325.602L173.123 326.932C173.11 327.021 173.085 327.084 173.047 327.122C173.009 327.16 172.939 327.166 172.838 327.141C172.572 327.04 172.281 326.964 171.964 326.913C171.647 326.862 171.331 326.837 171.014 326.837C170.089 326.837 169.418 327.141 169 327.749C168.595 328.357 168.392 329.123 168.392 330.048C168.392 330.935 168.595 331.669 169 332.252C169.418 332.835 170.026 333.183 170.824 333.297C171.546 333.386 172.243 333.329 172.914 333.126C173.028 333.075 173.098 333.069 173.123 333.107C173.161 333.145 173.186 333.202 173.199 333.278L173.294 334.608C173.307 334.697 173.3 334.76 173.275 334.798C173.262 334.849 173.205 334.887 173.104 334.912ZM182.243 334.95C182.154 334.95 182.097 334.944 182.072 334.931C182.059 334.918 182.053 334.874 182.053 334.798V333.924C181.749 334.367 181.369 334.697 180.913 334.912C180.457 335.14 179.995 335.254 179.526 335.254C179.159 335.254 178.766 335.184 178.348 335.045C177.943 334.918 177.594 334.722 177.303 334.456C177.012 334.203 176.777 333.886 176.6 333.506C176.435 333.126 176.353 332.683 176.353 332.176C176.353 331.631 176.461 331.137 176.676 330.694C176.904 330.238 177.246 329.858 177.702 329.554C178.158 329.25 178.709 329.028 179.355 328.889C180.014 328.737 180.85 328.661 181.863 328.661C181.863 328.433 181.838 328.224 181.787 328.034C181.749 327.831 181.673 327.641 181.559 327.464C181.445 327.287 181.28 327.141 181.065 327.027C180.862 326.9 180.609 326.837 180.305 326.837C179.9 326.837 179.475 326.913 179.032 327.065C178.601 327.217 178.196 327.42 177.816 327.673C177.626 327.8 177.493 327.857 177.417 327.844C177.354 327.831 177.322 327.762 177.322 327.635V326.153C177.322 326.128 177.316 326.083 177.303 326.02C177.303 325.944 177.328 325.887 177.379 325.849C177.442 325.786 177.525 325.729 177.626 325.678C178.006 325.463 178.424 325.285 178.88 325.146C179.336 325.007 179.798 324.937 180.267 324.937C181.483 324.937 182.389 325.247 182.984 325.868C183.592 326.476 183.896 327.356 183.896 328.509V332.689C183.896 333.031 183.896 333.379 183.896 333.734C183.909 334.089 183.934 334.405 183.972 334.684C183.985 334.861 183.915 334.95 183.763 334.95H182.243ZM178.386 332.043C178.386 332.486 178.519 332.822 178.785 333.05C179.051 333.265 179.336 333.373 179.64 333.373C180.311 333.373 180.862 333.113 181.293 332.594C181.724 332.062 181.939 331.422 181.939 330.675V330.466C180.584 330.466 179.653 330.605 179.146 330.884C178.639 331.15 178.386 331.536 178.386 332.043ZM194.289 334.741C193.82 334.906 193.345 335.026 192.864 335.102C192.395 335.178 191.996 335.21 191.667 335.197C191.008 335.197 190.483 335.083 190.09 334.855C189.697 334.64 189.425 334.386 189.273 334.095C189.096 333.766 188.988 333.379 188.95 332.936C188.912 332.493 188.893 331.891 188.893 331.131V327.54H186.803C186.74 327.54 186.683 327.521 186.632 327.483C186.594 327.432 186.575 327.375 186.575 327.312V325.811C186.575 325.748 186.594 325.697 186.632 325.659C186.683 325.608 186.74 325.583 186.803 325.583H188.893V322.828C188.893 322.765 188.918 322.714 188.969 322.676C189.02 322.625 189.077 322.6 189.14 322.6H190.679C190.755 322.6 190.812 322.625 190.85 322.676C190.901 322.714 190.926 322.765 190.926 322.828V325.583H194.118C194.181 325.583 194.232 325.608 194.27 325.659C194.321 325.697 194.346 325.748 194.346 325.811V327.312C194.346 327.375 194.321 327.432 194.27 327.483C194.232 327.521 194.181 327.54 194.118 327.54H190.926V331.245C190.926 332.068 190.945 332.594 190.983 332.822C191.008 333.063 191.122 333.208 191.325 333.259C191.54 333.31 191.825 333.335 192.18 333.335C192.471 333.335 192.775 333.303 193.092 333.24C193.409 333.177 193.719 333.094 194.023 332.993C194.086 332.968 194.131 332.968 194.156 332.993C194.181 333.006 194.207 333.063 194.232 333.164L194.384 334.513C194.397 334.602 194.365 334.678 194.289 334.741ZM197.443 334.95C197.38 334.95 197.323 334.925 197.272 334.874C197.234 334.836 197.215 334.779 197.215 334.703V333.221C197.215 333.158 197.234 333.107 197.272 333.069C197.323 333.018 197.38 332.993 197.443 332.993H200.027V327.141H197.785C197.722 327.141 197.665 327.122 197.614 327.084C197.576 327.033 197.557 326.97 197.557 326.894V325.412C197.557 325.349 197.576 325.298 197.614 325.26C197.665 325.209 197.722 325.184 197.785 325.184H201.851C201.914 325.184 201.965 325.209 202.003 325.26C202.054 325.298 202.079 325.349 202.079 325.412V332.993H204.416C204.479 332.993 204.53 333.018 204.568 333.069C204.619 333.107 204.644 333.158 204.644 333.221V334.703C204.644 334.868 204.568 334.95 204.416 334.95H197.443ZM200.787 323.683C200.382 323.683 200.04 323.544 199.761 323.265C199.482 322.986 199.343 322.651 199.343 322.258C199.343 321.84 199.482 321.492 199.761 321.213C200.04 320.922 200.382 320.776 200.787 320.776C201.205 320.776 201.553 320.922 201.832 321.213C202.123 321.492 202.269 321.84 202.269 322.258C202.269 322.651 202.123 322.986 201.832 323.265C201.553 323.544 201.205 323.683 200.787 323.683ZM212.073 334.95H210.439C210.363 334.95 210.306 334.937 210.268 334.912C210.243 334.899 210.217 334.855 210.192 334.779L207.209 325.393C207.184 325.33 207.184 325.279 207.209 325.241C207.234 325.203 207.317 325.184 207.456 325.184H209.014C209.077 325.184 209.128 325.197 209.166 325.222C209.204 325.235 209.236 325.273 209.261 325.336L210.686 330.143L211.256 332.29L211.807 330.143L213.232 325.336C213.257 325.273 213.289 325.235 213.327 325.222C213.378 325.197 213.435 325.184 213.498 325.184H215.075C215.214 325.184 215.297 325.203 215.322 325.241C215.347 325.279 215.347 325.33 215.322 325.393L212.301 334.779C212.276 334.855 212.25 334.899 212.225 334.912C212.2 334.937 212.149 334.95 212.073 334.95ZM225.411 330.637C225.411 330.738 225.386 330.814 225.335 330.865C225.297 330.903 225.24 330.922 225.164 330.922H219.958C219.971 331.593 220.142 332.17 220.471 332.651C220.813 333.12 221.358 333.354 222.105 333.354C222.561 333.354 222.96 333.303 223.302 333.202C223.657 333.088 224.018 332.898 224.385 332.632C224.486 332.581 224.543 332.588 224.556 332.651C224.581 332.714 224.594 332.79 224.594 332.879V334.228C224.594 334.342 224.575 334.424 224.537 334.475C224.499 334.538 224.436 334.602 224.347 334.665C224.018 334.842 223.682 334.982 223.34 335.083C223.011 335.184 222.599 335.235 222.105 335.235C220.661 335.235 219.584 334.773 218.875 333.848C218.166 332.923 217.811 331.701 217.811 330.181C217.811 329.535 217.887 328.908 218.039 328.3C218.191 327.679 218.425 327.122 218.742 326.628C219.071 326.134 219.483 325.729 219.977 325.412C220.471 325.095 221.041 324.937 221.687 324.937C222.371 324.937 222.947 325.083 223.416 325.374C223.897 325.665 224.284 326.052 224.575 326.533C224.879 327.002 225.094 327.54 225.221 328.148C225.36 328.756 225.43 329.415 225.43 330.124C225.43 330.213 225.424 330.314 225.411 330.428C225.411 330.529 225.411 330.599 225.411 330.637ZM221.649 326.761C221.345 326.761 221.073 326.85 220.832 327.027C220.604 327.192 220.42 327.42 220.281 327.711C220.154 327.99 220.066 328.249 220.015 328.49C219.977 328.718 219.958 328.902 219.958 329.041H223.359C223.359 328.902 223.334 328.718 223.283 328.49C223.245 328.249 223.156 327.99 223.017 327.711C222.89 327.42 222.707 327.192 222.466 327.027C222.225 326.85 221.953 326.761 221.649 326.761Z" fill="#0066FF"/>
<defs>
<filter id="filter0_d_554_294" x="0" y="0" width="313" height="420" filterUnits="userSpaceOnUse" color-interpolation-filters="sRGB">
<feFlood flood-opacity="0" result="BackgroundImageFix"/>
<feColorMatrix in="SourceAlpha" type="matrix" values="0 0 0 0 0 0 0 0 0 0 0 0 0 0 0 0 0 0 127 0" result="hardAlpha"/>
<feOffset dy="4"/>
<feGaussianBlur stdDeviation="2"/>
<feComposite in2="hardAlpha" operator="out"/>
<feColorMatrix type="matrix" values="0 0 0 0 0 0 0 0 0 0 0 0 0 0 0 0 0 0 0.15 0"/>
<feBlend mode="normal" in2="BackgroundImageFix" result="effect1_dropShadow_554_294"/>
<feBlend mode="normal" in="SourceGraphic" in2="effect1_dropShadow_554_294" result="shape"/>
</filter>
</defs>
</svg>
