<svg width="25" height="25" viewBox="0 0 25 25" fill="none" xmlns="http://www.w3.org/2000/svg">
<path d="M12.5 0C10.8585 0 9.23303 0.323065 7.71646 0.950751C6.19989 1.57844 4.8219 2.49845 3.66117 3.65826C1.31696 6.0006 0 9.1775 0 12.4901C0 18.0107 3.5875 22.6945 8.55 24.3557C9.175 24.4556 9.375 24.0684 9.375 23.7311C9.375 23.4439 9.375 22.657 9.375 21.6203C5.9125 22.3697 5.175 19.9467 5.175 19.9467C4.6 18.4978 3.7875 18.1106 3.7875 18.1106C2.65 17.3362 3.875 17.3612 3.875 17.3612C5.125 17.4486 5.7875 18.6477 5.7875 18.6477C6.875 20.5462 8.7125 19.9841 9.425 19.6844C9.5375 18.8725 9.8625 18.3229 10.2125 18.0107C7.4375 17.6984 4.525 16.6243 4.525 11.8656C4.525 10.4792 5 9.36756 5.8125 8.48076C5.6875 8.16851 5.25 6.86954 5.9375 5.18338C5.9375 5.18338 6.9875 4.84615 9.375 6.45737C10.3625 6.18259 11.4375 6.0452 12.5 6.0452C13.5625 6.0452 14.6375 6.18259 15.625 6.45737C18.0125 4.84615 19.0625 5.18338 19.0625 5.18338C19.75 6.86954 19.3125 8.16851 19.1875 8.48076C20 9.36756 20.475 10.4792 20.475 11.8656C20.475 16.6368 17.55 17.686 14.7625 17.9982C15.2125 18.3854 15.625 19.1473 15.625 20.3089C15.625 21.9825 15.625 23.3315 15.625 23.7311C15.625 24.0684 15.825 24.4681 16.4625 24.3557C21.425 22.682 25 18.0107 25 12.4901C25 10.8499 24.6767 9.2257 24.0485 7.71033C23.4203 6.19497 22.4996 4.81807 21.3388 3.65826C20.1781 2.49845 18.8001 1.57844 17.2835 0.950751C15.767 0.323065 14.1415 0 12.5 0Z" fill="#0066FF"/>
</svg>
