<svg width="43" height="44" viewBox="0 0 43 44" fill="none" xmlns="http://www.w3.org/2000/svg">
<g filter="url(#filter0_d_226_224)">
<rect x="4" y="0.375" width="35" height="35" rx="10" fill="#F0FF44" shape-rendering="crispEdges"/>
<path d="M16.25 5.375H26.75C30.75 5.375 34 8.625 34 12.625V23.125C34 25.0478 33.2362 26.8919 31.8765 28.2515C30.5169 29.6112 28.6728 30.375 26.75 30.375H16.25C12.25 30.375 9 27.125 9 23.125V12.625C9 10.7022 9.76384 8.85811 11.1235 7.49848C12.4831 6.13884 14.3272 5.375 16.25 5.375ZM16 7.875C14.8065 7.875 13.6619 8.34911 12.818 9.19302C11.9741 10.0369 11.5 11.1815 11.5 12.375V23.375C11.5 25.8625 13.5125 27.875 16 27.875H27C28.1935 27.875 29.3381 27.4009 30.182 26.557C31.0259 25.7131 31.5 24.5685 31.5 23.375V12.375C31.5 9.8875 29.4875 7.875 27 7.875H16ZM28.0625 9.75C28.4769 9.75 28.8743 9.91462 29.1674 10.2076C29.4604 10.5007 29.625 10.8981 29.625 11.3125C29.625 11.7269 29.4604 12.1243 29.1674 12.4174C28.8743 12.7104 28.4769 12.875 28.0625 12.875C27.6481 12.875 27.2507 12.7104 26.9576 12.4174C26.6646 12.1243 26.5 11.7269 26.5 11.3125C26.5 10.8981 26.6646 10.5007 26.9576 10.2076C27.2507 9.91462 27.6481 9.75 28.0625 9.75ZM21.5 11.625C23.1576 11.625 24.7473 12.2835 25.9194 13.4556C27.0915 14.6277 27.75 16.2174 27.75 17.875C27.75 19.5326 27.0915 21.1223 25.9194 22.2944C24.7473 23.4665 23.1576 24.125 21.5 24.125C19.8424 24.125 18.2527 23.4665 17.0806 22.2944C15.9085 21.1223 15.25 19.5326 15.25 17.875C15.25 16.2174 15.9085 14.6277 17.0806 13.4556C18.2527 12.2835 19.8424 11.625 21.5 11.625ZM21.5 14.125C20.5054 14.125 19.5516 14.5201 18.8483 15.2233C18.1451 15.9266 17.75 16.8804 17.75 17.875C17.75 18.8696 18.1451 19.8234 18.8483 20.5267C19.5516 21.2299 20.5054 21.625 21.5 21.625C22.4946 21.625 23.4484 21.2299 24.1517 20.5267C24.8549 19.8234 25.25 18.8696 25.25 17.875C25.25 16.8804 24.8549 15.9266 24.1517 15.2233C23.4484 14.5201 22.4946 14.125 21.5 14.125Z" fill="#0066FF"/>
</g>
<defs>
<filter id="filter0_d_226_224" x="0" y="0.375" width="43" height="43" filterUnits="userSpaceOnUse" color-interpolation-filters="sRGB">
<feFlood flood-opacity="0" result="BackgroundImageFix"/>
<feColorMatrix in="SourceAlpha" type="matrix" values="0 0 0 0 0 0 0 0 0 0 0 0 0 0 0 0 0 0 127 0" result="hardAlpha"/>
<feOffset dy="4"/>
<feGaussianBlur stdDeviation="2"/>
<feComposite in2="hardAlpha" operator="out"/>
<feColorMatrix type="matrix" values="0 0 0 0 0 0 0 0 0 0 0 0 0 0 0 0 0 0 0.15 0"/>
<feBlend mode="normal" in2="BackgroundImageFix" result="effect1_dropShadow_226_224"/>
<feBlend mode="normal" in="SourceGraphic" in2="effect1_dropShadow_226_224" result="shape"/>
</filter>
</defs>
</svg>
