<svg width="136" height="62" viewBox="0 0 136 62" fill="none" xmlns="http://www.w3.org/2000/svg">
<path d="M130 12.064C128.441 12.064 127.111 11.518 126.01 10.426C124.909 9.32467 124.358 7.99467 124.358 6.436C124.358 4.87733 124.909 3.54733 126.01 2.446C127.111 1.34467 128.441 0.794 130 0.794C131.549 0.794 132.875 1.34467 133.976 2.446C135.077 3.54733 135.628 4.87733 135.628 6.436C135.628 7.99467 135.077 9.32467 133.976 10.426C132.875 11.518 131.549 12.064 130 12.064ZM130 1.452C128.628 1.452 127.452 1.942 126.472 2.922C125.501 3.89267 125.016 5.064 125.016 6.436C125.016 7.808 125.501 8.97933 126.472 9.95C127.452 10.9113 128.628 11.392 130 11.392C131.372 11.392 132.543 10.9113 133.514 9.95C134.485 8.97933 134.97 7.808 134.97 6.436C134.97 5.064 134.485 3.89267 133.514 2.922C132.543 1.942 131.372 1.452 130 1.452ZM132.73 9.964H131.512L130.742 8.242C130.341 7.374 129.911 6.94 129.454 6.94H128.796V9.964H127.802V2.796H129.818C130.649 2.796 131.288 2.97333 131.736 3.328C132.193 3.67333 132.422 4.14467 132.422 4.742C132.422 5.23667 132.263 5.65667 131.946 6.002C131.629 6.34733 131.185 6.58067 130.616 6.702V6.73C131.008 6.814 131.4 7.25733 131.792 8.06L132.73 9.964ZM128.796 3.65V6.1H129.874C130.863 6.1 131.358 5.68933 131.358 4.868C131.358 4.42933 131.223 4.11667 130.952 3.93C130.681 3.74333 130.261 3.65 129.692 3.65H128.796Z" fill="#0066FF"/>
<path d="M21.681 16.965C21.483 16.965 21.294 17.172 21.114 17.586C20.934 17.982 20.844 18.549 20.844 19.287V23.877C20.844 24.795 20.691 25.569 20.385 26.199C20.097 26.829 19.656 27.369 19.062 27.819C19.656 28.287 20.097 28.836 20.385 29.466C20.691 30.078 20.844 30.843 20.844 31.761V36.378C20.844 37.116 20.934 37.683 21.114 38.079C21.294 38.475 21.483 38.673 21.681 38.673H22.923C23.103 38.673 23.193 38.781 23.193 38.997V40.644C23.193 40.86 23.103 40.968 22.923 40.968H21.492C21.15 40.968 20.862 40.932 20.628 40.86C20.178 40.752 19.791 40.563 19.467 40.293C19.161 40.023 18.909 39.708 18.711 39.348C18.513 38.988 18.369 38.592 18.279 38.16C18.189 37.746 18.144 37.332 18.144 36.918V32.22C18.144 31.734 18.108 31.32 18.036 30.978C17.982 30.618 17.91 30.321 17.82 30.087C17.73 29.853 17.631 29.664 17.523 29.52C17.415 29.376 17.316 29.259 17.226 29.169C17.118 29.061 16.992 28.98 16.848 28.926C16.722 28.854 16.497 28.773 16.173 28.683C15.939 28.647 15.795 28.611 15.741 28.575C15.705 28.539 15.687 28.476 15.687 28.386V27.252C15.687 27.162 15.705 27.099 15.741 27.063C15.795 27.027 15.939 26.991 16.173 26.955C16.497 26.883 16.722 26.82 16.848 26.766C16.992 26.694 17.118 26.604 17.226 26.496C17.316 26.406 17.415 26.289 17.523 26.145C17.631 25.983 17.73 25.785 17.82 25.551C17.91 25.317 17.982 25.029 18.036 24.687C18.108 24.327 18.144 23.904 18.144 23.418V18.747C18.144 18.333 18.189 17.919 18.279 17.505C18.369 17.073 18.513 16.677 18.711 16.317C18.909 15.939 19.161 15.624 19.467 15.372C19.791 15.102 20.178 14.913 20.628 14.805C20.862 14.733 21.15 14.697 21.492 14.697H22.923C23.103 14.697 23.193 14.796 23.193 14.994V16.641C23.193 16.857 23.103 16.965 22.923 16.965H21.681ZM39.177 37.35C39.123 37.35 39.078 37.305 39.042 37.215C39.006 37.143 38.988 37.062 38.988 36.972V28.683C38.988 27.783 38.925 27.09 38.799 26.604C38.673 26.1 38.466 25.848 38.178 25.848C37.998 25.848 37.836 25.947 37.692 26.145C37.548 26.343 37.431 26.667 37.341 27.117C37.269 27.567 37.233 28.044 37.233 28.548C37.233 29.034 37.233 29.592 37.233 30.222V36.729C37.233 36.963 37.179 37.08 37.071 37.08H34.911C34.857 37.08 34.812 37.035 34.776 36.945C34.74 36.873 34.722 36.792 34.722 36.702V28.683C34.704 26.793 34.416 25.848 33.858 25.848C33.534 25.848 33.3 26.154 33.156 26.766C33.03 27.378 32.967 28.215 32.967 29.277V36.999C32.967 37.233 32.904 37.35 32.778 37.35H30.537C30.501 37.35 30.465 37.305 30.429 37.215C30.393 37.143 30.375 37.062 30.375 36.972V27.279C30.375 26.595 30.366 25.938 30.348 25.308C30.348 24.678 30.339 24.183 30.321 23.823C30.303 23.589 30.375 23.472 30.537 23.472H32.535C32.643 23.472 32.697 23.544 32.697 23.688L32.67 24.768C32.778 24.264 32.985 23.868 33.291 23.58C33.597 23.292 33.921 23.148 34.263 23.148C34.749 23.148 35.181 23.364 35.559 23.796C35.955 24.228 36.198 24.867 36.288 25.713C36.522 24.849 36.846 24.21 37.26 23.796C37.674 23.364 38.151 23.148 38.691 23.148C39.519 23.148 40.203 23.607 40.743 24.525C41.301 25.425 41.58 26.694 41.58 28.332V36.999C41.58 37.089 41.562 37.17 41.526 37.242C41.49 37.314 41.445 37.35 41.391 37.35H39.177ZM46.629 37.35C46.539 37.35 46.458 37.314 46.386 37.242C46.332 37.188 46.305 37.107 46.305 36.999V34.893C46.305 34.803 46.332 34.731 46.386 34.677C46.458 34.605 46.539 34.569 46.629 34.569H50.301V26.253H47.115C47.025 26.253 46.944 26.226 46.872 26.172C46.818 26.1 46.791 26.01 46.791 25.902V23.796C46.791 23.706 46.818 23.634 46.872 23.58C46.944 23.508 47.025 23.472 47.115 23.472H52.893C52.983 23.472 53.055 23.508 53.109 23.58C53.181 23.634 53.217 23.706 53.217 23.796V34.569H56.538C56.628 34.569 56.7 34.605 56.754 34.677C56.826 34.731 56.862 34.803 56.862 34.893V36.999C56.862 37.233 56.754 37.35 56.538 37.35H46.629ZM51.381 21.339C50.805 21.339 50.319 21.141 49.923 20.745C49.527 20.349 49.329 19.872 49.329 19.314C49.329 18.72 49.527 18.225 49.923 17.829C50.319 17.415 50.805 17.208 51.381 17.208C51.975 17.208 52.47 17.415 52.866 17.829C53.28 18.225 53.487 18.72 53.487 19.314C53.487 19.872 53.28 20.349 52.866 20.745C52.47 21.141 51.975 21.339 51.381 21.339ZM61.182 40.806C61.092 40.806 61.011 40.77 60.939 40.698C60.885 40.644 60.858 40.572 60.858 40.482V38.322C60.858 38.232 60.885 38.151 60.939 38.079C61.011 38.025 61.092 37.998 61.182 37.998H73.818C73.908 37.998 73.98 38.025 74.034 38.079C74.106 38.151 74.142 38.232 74.142 38.322V40.482C74.142 40.572 74.106 40.644 74.034 40.698C73.98 40.77 73.908 40.806 73.818 40.806H61.182ZM86.967 37.35C86.913 37.35 86.868 37.305 86.832 37.215C86.796 37.143 86.778 37.062 86.778 36.972V28.683C86.778 27.783 86.715 27.09 86.589 26.604C86.463 26.1 86.256 25.848 85.968 25.848C85.788 25.848 85.626 25.947 85.482 26.145C85.338 26.343 85.221 26.667 85.131 27.117C85.059 27.567 85.023 28.044 85.023 28.548C85.023 29.034 85.023 29.592 85.023 30.222V36.729C85.023 36.963 84.969 37.08 84.861 37.08H82.701C82.647 37.08 82.602 37.035 82.566 36.945C82.53 36.873 82.512 36.792 82.512 36.702V28.683C82.494 26.793 82.206 25.848 81.648 25.848C81.324 25.848 81.09 26.154 80.946 26.766C80.82 27.378 80.757 28.215 80.757 29.277V36.999C80.757 37.233 80.694 37.35 80.568 37.35H78.327C78.291 37.35 78.255 37.305 78.219 37.215C78.183 37.143 78.165 37.062 78.165 36.972V27.279C78.165 26.595 78.156 25.938 78.138 25.308C78.138 24.678 78.129 24.183 78.111 23.823C78.093 23.589 78.165 23.472 78.327 23.472H80.325C80.433 23.472 80.487 23.544 80.487 23.688L80.46 24.768C80.568 24.264 80.775 23.868 81.081 23.58C81.387 23.292 81.711 23.148 82.053 23.148C82.539 23.148 82.971 23.364 83.349 23.796C83.745 24.228 83.988 24.867 84.078 25.713C84.312 24.849 84.636 24.21 85.05 23.796C85.464 23.364 85.941 23.148 86.481 23.148C87.309 23.148 87.993 23.607 88.533 24.525C89.091 25.425 89.37 26.694 89.37 28.332V36.999C89.37 37.089 89.352 37.17 89.316 37.242C89.28 37.314 89.235 37.35 89.181 37.35H86.967ZM94.419 37.35C94.329 37.35 94.248 37.314 94.176 37.242C94.122 37.188 94.095 37.107 94.095 36.999V34.893C94.095 34.803 94.122 34.731 94.176 34.677C94.248 34.605 94.329 34.569 94.419 34.569H98.091V26.253H94.905C94.815 26.253 94.734 26.226 94.662 26.172C94.608 26.1 94.581 26.01 94.581 25.902V23.796C94.581 23.706 94.608 23.634 94.662 23.58C94.734 23.508 94.815 23.472 94.905 23.472H100.683C100.773 23.472 100.845 23.508 100.899 23.58C100.971 23.634 101.007 23.706 101.007 23.796V34.569H104.328C104.418 34.569 104.49 34.605 104.544 34.677C104.616 34.731 104.652 34.803 104.652 34.893V36.999C104.652 37.233 104.544 37.35 104.328 37.35H94.419ZM99.171 21.339C98.595 21.339 98.109 21.141 97.713 20.745C97.317 20.349 97.119 19.872 97.119 19.314C97.119 18.72 97.317 18.225 97.713 17.829C98.109 17.415 98.595 17.208 99.171 17.208C99.765 17.208 100.26 17.415 100.656 17.829C101.07 18.225 101.277 18.72 101.277 19.314C101.277 19.872 101.07 20.349 100.656 20.745C100.26 21.141 99.765 21.339 99.171 21.339ZM118.827 28.683C118.503 28.773 118.269 28.854 118.125 28.926C117.999 28.98 117.882 29.061 117.774 29.169C117.684 29.259 117.585 29.376 117.477 29.52C117.369 29.664 117.27 29.853 117.18 30.087C117.09 30.321 117.009 30.618 116.937 30.978C116.883 31.32 116.856 31.734 116.856 32.22V36.918C116.856 37.332 116.811 37.746 116.721 38.16C116.631 38.592 116.487 38.988 116.289 39.348C116.091 39.708 115.83 40.023 115.506 40.293C115.2 40.563 114.822 40.752 114.372 40.86C114.138 40.932 113.85 40.968 113.508 40.968H112.077C111.897 40.968 111.807 40.86 111.807 40.644V38.997C111.807 38.781 111.897 38.673 112.077 38.673H113.319C113.517 38.673 113.706 38.475 113.886 38.079C114.066 37.683 114.156 37.116 114.156 36.378V31.761C114.156 30.843 114.3 30.078 114.588 29.466C114.894 28.836 115.335 28.287 115.911 27.819C115.335 27.369 114.894 26.829 114.588 26.199C114.282 25.569 114.129 24.795 114.129 23.877V19.287C114.129 18.549 114.039 17.982 113.859 17.586C113.697 17.172 113.517 16.965 113.319 16.965H112.077C111.897 16.965 111.807 16.857 111.807 16.641V14.994C111.807 14.796 111.897 14.697 112.077 14.697H113.481C113.841 14.697 114.129 14.733 114.345 14.805C114.795 14.913 115.173 15.102 115.479 15.372C115.803 15.624 116.064 15.939 116.262 16.317C116.46 16.677 116.604 17.073 116.694 17.505C116.784 17.919 116.829 18.333 116.829 18.747V23.418C116.829 23.904 116.856 24.327 116.91 24.687C116.982 25.029 117.063 25.317 117.153 25.551C117.261 25.785 117.369 25.983 117.477 26.145C117.585 26.289 117.684 26.406 117.774 26.496C117.864 26.586 117.981 26.667 118.125 26.739C118.269 26.811 118.503 26.883 118.827 26.955C119.061 26.991 119.196 27.027 119.232 27.063C119.286 27.099 119.313 27.162 119.313 27.252V28.386C119.313 28.512 119.151 28.611 118.827 28.683Z" fill="#0066FF"/>
<path d="M12.25 58.51C12.25 58.6573 12.1707 58.731 12.012 58.731H11.349C11.1903 58.731 11.111 58.6573 11.111 58.51V57.269C10.6463 58.357 9.853 58.901 8.731 58.901C8.20967 58.901 7.73367 58.7763 7.303 58.527C6.88367 58.2777 6.521 57.9207 6.215 57.456C5.909 56.98 5.688 56.47 5.552 55.926C5.42733 55.382 5.365 54.8097 5.365 54.209C5.365 53.1437 5.65967 52.169 6.249 51.285C6.83833 50.3897 7.66567 49.942 8.731 49.942C9.29767 49.942 9.77933 50.0837 10.176 50.367C10.584 50.6503 10.8957 51.013 11.111 51.455V46.389C11.111 46.2417 11.1903 46.168 11.349 46.168H12.012C12.1707 46.168 12.25 46.2417 12.25 46.389V58.51ZM6.572 54.396C6.56067 54.7473 6.59467 55.1327 6.674 55.552C6.75333 55.96 6.88367 56.351 7.065 56.725C7.25767 57.0877 7.49567 57.3767 7.779 57.592C8.06233 57.8073 8.41367 57.915 8.833 57.915C9.25233 57.915 9.60367 57.8073 9.887 57.592C10.1703 57.3767 10.4027 57.0877 10.584 56.725C10.7767 56.351 10.907 55.96 10.975 55.552C11.043 55.1327 11.077 54.7473 11.077 54.396C11.077 54.0673 11.043 53.6933 10.975 53.274C10.907 52.8433 10.7767 52.4467 10.584 52.084C10.4027 51.7213 10.1703 51.4323 9.887 51.217C9.60367 51.0017 9.25233 50.894 8.833 50.894C8.41367 50.894 8.06233 51.0017 7.779 51.217C7.49567 51.4323 7.25767 51.7213 7.065 52.084C6.87233 52.4467 6.73633 52.8433 6.657 53.274C6.589 53.6933 6.56067 54.0673 6.572 54.396ZM19.135 57.677C19.2937 57.677 19.373 57.7563 19.373 57.915V58.493C19.373 58.6517 19.2937 58.731 19.135 58.731H13.712C13.5533 58.731 13.474 58.6517 13.474 58.493V57.915C13.474 57.7563 13.5533 57.677 13.712 57.677H15.888V51.268H13.899C13.7403 51.268 13.661 51.1887 13.661 51.03V50.452C13.661 50.2933 13.7403 50.214 13.899 50.214H16.874C17.0327 50.214 17.112 50.2933 17.112 50.452V57.677H19.135ZM15.361 47.46C15.361 47.1993 15.4517 46.9783 15.633 46.797C15.8257 46.6043 16.0523 46.508 16.313 46.508C16.5737 46.508 16.7947 46.6043 16.976 46.797C17.1687 46.9783 17.265 47.1993 17.265 47.46C17.265 47.7207 17.1687 47.9473 16.976 48.14C16.7947 48.3213 16.5737 48.412 16.313 48.412C16.0523 48.412 15.8257 48.3213 15.633 48.14C15.4517 47.9473 15.361 47.7207 15.361 47.46ZM20.852 60.958C20.7273 60.924 20.6763 60.8447 20.699 60.72L20.733 59.955C20.733 59.8077 20.8067 59.7737 20.954 59.853C21.3733 60.0457 21.7643 60.1817 22.127 60.261C22.4897 60.3517 22.8183 60.397 23.113 60.397C23.8837 60.397 24.5013 60.1023 24.966 59.513C25.4307 58.935 25.6857 58.085 25.731 56.963C25.4817 57.4503 25.153 57.813 24.745 58.051C24.337 58.3003 23.878 58.425 23.368 58.425C22.8807 58.425 22.433 58.3287 22.025 58.136C21.6283 57.9547 21.2827 57.6883 20.988 57.337C20.7047 56.9857 20.4837 56.5493 20.325 56.028C20.1777 55.5067 20.104 54.9457 20.104 54.345C20.104 53.7217 20.1777 53.1437 20.325 52.611C20.4837 52.0783 20.7047 51.6137 20.988 51.217C21.2827 50.8203 21.6283 50.52 22.025 50.316C22.433 50.112 22.8807 50.01 23.368 50.01C23.878 50.01 24.354 50.1517 24.796 50.435C25.2493 50.707 25.578 51.0527 25.782 51.472L25.748 50.435C25.748 50.2877 25.8273 50.214 25.986 50.214H26.615C26.7737 50.214 26.853 50.2877 26.853 50.435V56.691C26.853 57.3483 26.7623 57.9887 26.581 58.612C26.411 59.2353 26.1503 59.7453 25.799 60.142C25.459 60.55 25.0737 60.856 24.643 61.06C24.2123 61.264 23.6967 61.366 23.096 61.366C22.756 61.366 22.399 61.332 22.025 61.264C21.651 61.2073 21.26 61.1053 20.852 60.958ZM21.328 54.209C21.328 54.5377 21.3563 54.8947 21.413 55.28C21.481 55.654 21.6057 56.0223 21.787 56.385C21.9797 56.7477 22.2177 57.014 22.501 57.184C22.7843 57.354 23.1243 57.439 23.521 57.439C23.9177 57.439 24.252 57.3427 24.524 57.15C24.8073 56.946 25.0397 56.6797 25.221 56.351C25.4137 56.011 25.5383 55.654 25.595 55.28C25.6517 54.8947 25.68 54.5377 25.68 54.209C25.68 53.903 25.6517 53.5573 25.595 53.172C25.5383 52.7753 25.4137 52.4127 25.221 52.084C25.0397 51.7553 24.8073 51.4947 24.524 51.302C24.252 51.098 23.9177 50.996 23.521 50.996C23.1243 50.996 22.7843 51.098 22.501 51.302C22.229 51.4947 21.9967 51.7553 21.804 52.084C21.6113 52.4127 21.481 52.7753 21.413 53.172C21.3563 53.5573 21.328 53.903 21.328 54.209ZM33.755 57.677C33.9137 57.677 33.993 57.7563 33.993 57.915V58.493C33.993 58.6517 33.9137 58.731 33.755 58.731H28.332C28.1733 58.731 28.094 58.6517 28.094 58.493V57.915C28.094 57.7563 28.1733 57.677 28.332 57.677H30.508V51.268H28.519C28.3603 51.268 28.281 51.1887 28.281 51.03V50.452C28.281 50.2933 28.3603 50.214 28.519 50.214H31.494C31.6527 50.214 31.732 50.2933 31.732 50.452V57.677H33.755ZM29.981 47.46C29.981 47.1993 30.0717 46.9783 30.253 46.797C30.4457 46.6043 30.6723 46.508 30.933 46.508C31.1937 46.508 31.4147 46.6043 31.596 46.797C31.7887 46.9783 31.885 47.1993 31.885 47.46C31.885 47.7207 31.7887 47.9473 31.596 48.14C31.4147 48.3213 31.1937 48.412 30.933 48.412C30.6723 48.412 30.4457 48.3213 30.253 48.14C30.0717 47.9473 29.981 47.7207 29.981 47.46ZM41.269 58.714C40.793 58.9067 40.2377 59.003 39.603 59.003C38.5717 59.003 37.9087 58.7027 37.614 58.102C37.4213 57.694 37.325 56.9743 37.325 55.943V51.591H35.115C34.9563 51.591 34.877 51.5117 34.877 51.353V50.843C34.877 50.6843 34.9563 50.605 35.115 50.605H37.325V48.208C37.325 48.038 37.3987 47.953 37.546 47.953H38.26C38.4073 47.953 38.481 48.038 38.481 48.208V50.605H41.218C41.3767 50.605 41.456 50.6843 41.456 50.843V51.353C41.456 51.5117 41.3767 51.591 41.218 51.591H38.481V56.708C38.481 57.558 38.9457 57.983 39.875 57.983C40.3397 57.983 40.7817 57.8867 41.201 57.694C41.2577 57.6713 41.3087 57.6713 41.354 57.694C41.4107 57.7167 41.439 57.762 41.439 57.83L41.473 58.374C41.4957 58.5327 41.4277 58.646 41.269 58.714ZM47.61 54.277H47.287C46.6523 54.2543 46.1197 54.277 45.689 54.345C45.2583 54.413 44.89 54.5207 44.584 54.668C44.21 54.8267 43.921 55.076 43.717 55.416C43.513 55.7447 43.411 56.0847 43.411 56.436C43.411 56.64 43.4563 56.861 43.547 57.099C43.6377 57.3257 43.7793 57.5013 43.972 57.626C44.3007 57.898 44.669 58.034 45.077 58.034C45.4737 58.034 45.8023 57.9603 46.063 57.813C46.3237 57.6543 46.5787 57.4163 46.828 57.099C47.0773 56.7703 47.27 56.402 47.406 55.994C47.542 55.586 47.61 55.1893 47.61 54.804V54.277ZM43.241 51.625C43.1843 51.659 43.1277 51.6703 43.071 51.659C43.0257 51.6363 43.003 51.5967 43.003 51.54V50.877C43.003 50.7297 43.0823 50.622 43.241 50.554C43.6263 50.3273 44.0173 50.1687 44.414 50.078C44.822 49.9873 45.2583 49.942 45.723 49.942C46.709 49.9193 47.4627 50.2027 47.984 50.792C48.5053 51.3813 48.766 52.1123 48.766 52.985V56.946C48.766 57.2633 48.7717 57.5467 48.783 57.796C48.7943 58.0453 48.8113 58.2833 48.834 58.51C48.834 58.6573 48.7547 58.731 48.596 58.731H47.984C47.8253 58.731 47.746 58.6573 47.746 58.51V57.303C47.508 57.8357 47.1453 58.2493 46.658 58.544C46.1707 58.85 45.5983 59.003 44.941 59.003C43.9663 59.003 43.2127 58.6857 42.68 58.051C42.4987 57.847 42.3627 57.6033 42.272 57.32C42.1813 57.0367 42.136 56.759 42.136 56.487C42.136 55.8977 42.2947 55.3593 42.612 54.872C42.9407 54.3733 43.4393 53.9993 44.108 53.75C44.754 53.4553 45.8477 53.308 47.389 53.308H47.61V52.917C47.61 52.339 47.4457 51.863 47.117 51.489C46.7997 51.1037 46.335 50.911 45.723 50.911C45.2357 50.911 44.7993 50.9677 44.414 51.081C44.04 51.183 43.649 51.3643 43.241 51.625ZM55.549 57.677C55.7077 57.677 55.787 57.7563 55.787 57.915V58.493C55.787 58.6517 55.7077 58.731 55.549 58.731H50.041C49.8823 58.731 49.803 58.6517 49.803 58.493V57.915C49.803 57.7563 49.8823 57.677 50.041 57.677H52.319V47.29H50.517C50.3583 47.29 50.279 47.2107 50.279 47.052V46.474C50.279 46.3153 50.3583 46.236 50.517 46.236H53.305C53.4637 46.236 53.543 46.3153 53.543 46.474V57.677H55.549ZM64.304 50.435C64.304 50.2877 64.3833 50.214 64.542 50.214H65.205C65.3637 50.214 65.443 50.2877 65.443 50.435V51.676C65.9077 50.588 66.701 50.044 67.823 50.044C68.3443 50.044 68.8147 50.1687 69.234 50.418C69.6647 50.6673 70.033 51.03 70.339 51.506C70.645 51.9707 70.8603 52.475 70.985 53.019C71.121 53.563 71.189 54.1353 71.189 54.736C71.189 55.8013 70.8943 56.7817 70.305 57.677C69.7157 58.561 68.8883 59.003 67.823 59.003C67.2563 59.003 66.769 58.8613 66.361 58.578C65.9643 58.2947 65.6583 57.949 65.443 57.541V61.111C65.443 61.2583 65.3637 61.332 65.205 61.332H64.542C64.3833 61.332 64.304 61.2583 64.304 61.111V50.435ZM69.982 54.549C69.9933 54.1977 69.9593 53.818 69.88 53.41C69.8007 52.9907 69.6647 52.5997 69.472 52.237C69.2907 51.863 69.0583 51.5683 68.775 51.353C68.4917 51.1377 68.1403 51.03 67.721 51.03C67.3017 51.03 66.9503 51.1377 66.667 51.353C66.3837 51.5683 66.1457 51.863 65.953 52.237C65.7717 52.5997 65.647 52.9907 65.579 53.41C65.511 53.818 65.477 54.1977 65.477 54.549C65.477 54.8777 65.511 55.2573 65.579 55.688C65.647 56.1073 65.7717 56.4983 65.953 56.861C66.1457 57.2237 66.3837 57.5127 66.667 57.728C66.9503 57.9433 67.3017 58.051 67.721 58.051C68.1403 58.051 68.4917 57.9433 68.775 57.728C69.0583 57.5127 69.2963 57.2237 69.489 56.861C69.6817 56.4983 69.812 56.1073 69.88 55.688C69.9593 55.2573 69.9933 54.8777 69.982 54.549ZM77.173 54.464C77.173 54.022 77.122 53.5857 77.02 53.155C76.918 52.7243 76.7593 52.3333 76.544 51.982C76.1133 51.302 75.5297 50.962 74.793 50.962C74.0223 50.962 73.4387 51.302 73.042 51.982C72.8267 52.3333 72.668 52.7243 72.566 53.155C72.4753 53.5857 72.43 54.022 72.43 54.464C72.43 54.9513 72.4753 55.4103 72.566 55.841C72.6567 56.2717 72.8153 56.64 73.042 56.946C73.5407 57.6373 74.1243 57.983 74.793 57.983C75.575 57.983 76.1587 57.6373 76.544 56.946C76.7707 56.64 76.9293 56.2717 77.02 55.841C77.122 55.4103 77.173 54.9513 77.173 54.464ZM78.346 54.464C78.346 55.0873 78.2723 55.6767 78.125 56.232C77.989 56.776 77.7737 57.235 77.479 57.609C77.139 58.051 76.748 58.391 76.306 58.629C75.864 58.8783 75.3597 59.003 74.793 59.003C74.2263 59.003 73.722 58.8783 73.28 58.629C72.838 58.391 72.447 58.051 72.107 57.609C71.835 57.201 71.6253 56.7307 71.478 56.198C71.342 55.6653 71.274 55.0873 71.274 54.464C71.274 53.1833 71.5517 52.135 72.107 51.319C72.753 50.401 73.6483 49.942 74.793 49.942C75.371 49.942 75.8753 50.0553 76.306 50.282C76.748 50.4973 77.139 50.843 77.479 51.319C78.057 52.1463 78.346 53.1947 78.346 54.464ZM83.038 57.677C83.1967 57.677 83.276 57.7563 83.276 57.915V58.493C83.276 58.6517 83.1967 58.731 83.038 58.731H79.213C79.0543 58.731 78.975 58.6517 78.975 58.493V57.915C78.975 57.7563 79.0543 57.677 79.213 57.677H80.216V51.268H78.907C78.7483 51.268 78.669 51.1887 78.669 51.03V50.452C78.669 50.2933 78.7483 50.214 78.907 50.214H80.964C81.1227 50.214 81.202 50.2933 81.202 50.452V52.118C81.8933 50.69 82.8907 49.976 84.194 49.976C84.8627 49.976 85.4633 50.1063 85.996 50.367C86.1093 50.4123 86.1717 50.469 86.183 50.537C86.1943 50.605 86.183 50.6787 86.149 50.758L85.945 51.37C85.911 51.4493 85.8657 51.489 85.809 51.489C85.7637 51.4777 85.7013 51.4493 85.622 51.404C85.1233 51.166 84.5907 51.047 84.024 51.047C83.0947 51.0923 82.358 51.5967 81.814 52.56C81.508 53.1493 81.355 53.92 81.355 54.872V57.677H83.038ZM92.439 58.714C91.963 58.9067 91.4077 59.003 90.773 59.003C89.7417 59.003 89.0787 58.7027 88.784 58.102C88.5913 57.694 88.495 56.9743 88.495 55.943V51.591H86.285C86.1263 51.591 86.047 51.5117 86.047 51.353V50.843C86.047 50.6843 86.1263 50.605 86.285 50.605H88.495V48.208C88.495 48.038 88.5687 47.953 88.716 47.953H89.43C89.5773 47.953 89.651 48.038 89.651 48.208V50.605H92.388C92.5467 50.605 92.626 50.6843 92.626 50.843V51.353C92.626 51.5117 92.5467 51.591 92.388 51.591H89.651V56.708C89.651 57.558 90.1157 57.983 91.045 57.983C91.5097 57.983 91.9517 57.8867 92.371 57.694C92.4277 57.6713 92.4787 57.6713 92.524 57.694C92.5807 57.7167 92.609 57.762 92.609 57.83L92.643 58.374C92.6657 58.5327 92.5977 58.646 92.439 58.714ZM99.647 46.253C99.7717 46.3097 99.8283 46.389 99.817 46.491L99.715 47.086C99.7037 47.154 99.6753 47.1993 99.63 47.222C99.5847 47.2333 99.5393 47.2277 99.494 47.205C99.3127 47.1257 99.1143 47.0633 98.899 47.018C98.695 46.9727 98.4853 46.95 98.27 46.95C97.6013 46.95 97.1707 47.2843 96.978 47.953C96.8987 48.225 96.859 48.82 96.859 49.738V50.605H99.834C99.9927 50.605 100.072 50.6843 100.072 50.843V51.353C100.072 51.5117 99.9927 51.591 99.834 51.591H96.859V58.493C96.859 58.6517 96.7797 58.731 96.621 58.731H95.958C95.7993 58.731 95.72 58.6517 95.72 58.493V51.591H93.663C93.5043 51.591 93.425 51.5117 93.425 51.353V50.843C93.425 50.6843 93.5043 50.605 93.663 50.605H95.72V49.857C95.72 48.6217 95.8333 47.732 96.06 47.188C96.4113 46.372 97.114 45.964 98.168 45.964C98.7007 45.964 99.1937 46.0603 99.647 46.253ZM106.413 54.464C106.413 54.022 106.362 53.5857 106.26 53.155C106.158 52.7243 105.999 52.3333 105.784 51.982C105.353 51.302 104.77 50.962 104.033 50.962C103.262 50.962 102.679 51.302 102.282 51.982C102.067 52.3333 101.908 52.7243 101.806 53.155C101.715 53.5857 101.67 54.022 101.67 54.464C101.67 54.9513 101.715 55.4103 101.806 55.841C101.897 56.2717 102.055 56.64 102.282 56.946C102.781 57.6373 103.364 57.983 104.033 57.983C104.815 57.983 105.399 57.6373 105.784 56.946C106.011 56.64 106.169 56.2717 106.26 55.841C106.362 55.4103 106.413 54.9513 106.413 54.464ZM107.586 54.464C107.586 55.0873 107.512 55.6767 107.365 56.232C107.229 56.776 107.014 57.235 106.719 57.609C106.379 58.051 105.988 58.391 105.546 58.629C105.104 58.8783 104.6 59.003 104.033 59.003C103.466 59.003 102.962 58.8783 102.52 58.629C102.078 58.391 101.687 58.051 101.347 57.609C101.075 57.201 100.865 56.7307 100.718 56.198C100.582 55.6653 100.514 55.0873 100.514 54.464C100.514 53.1833 100.792 52.135 101.347 51.319C101.993 50.401 102.888 49.942 104.033 49.942C104.611 49.942 105.115 50.0553 105.546 50.282C105.988 50.4973 106.379 50.843 106.719 51.319C107.297 52.1463 107.586 53.1947 107.586 54.464ZM114.029 57.677C114.188 57.677 114.267 57.7563 114.267 57.915V58.493C114.267 58.6517 114.188 58.731 114.029 58.731H108.521C108.362 58.731 108.283 58.6517 108.283 58.493V57.915C108.283 57.7563 108.362 57.677 108.521 57.677H110.799V47.29H108.997C108.838 47.29 108.759 47.2107 108.759 47.052V46.474C108.759 46.3153 108.838 46.236 108.997 46.236H111.785C111.944 46.236 112.023 46.3153 112.023 46.474V57.677H114.029ZM121.475 57.677C121.634 57.677 121.713 57.7563 121.713 57.915V58.493C121.713 58.6517 121.634 58.731 121.475 58.731H116.052C115.893 58.731 115.814 58.6517 115.814 58.493V57.915C115.814 57.7563 115.893 57.677 116.052 57.677H118.228V51.268H116.239C116.08 51.268 116.001 51.1887 116.001 51.03V50.452C116.001 50.2933 116.08 50.214 116.239 50.214H119.214C119.373 50.214 119.452 50.2933 119.452 50.452V57.677H121.475ZM117.701 47.46C117.701 47.1993 117.792 46.9783 117.973 46.797C118.166 46.6043 118.392 46.508 118.653 46.508C118.914 46.508 119.135 46.6043 119.316 46.797C119.509 46.9783 119.605 47.1993 119.605 47.46C119.605 47.7207 119.509 47.9473 119.316 48.14C119.135 48.3213 118.914 48.412 118.653 48.412C118.392 48.412 118.166 48.3213 117.973 48.14C117.792 47.9473 117.701 47.7207 117.701 47.46ZM128.343 54.464C128.343 54.022 128.292 53.5857 128.19 53.155C128.088 52.7243 127.929 52.3333 127.714 51.982C127.283 51.302 126.7 50.962 125.963 50.962C125.192 50.962 124.609 51.302 124.212 51.982C123.997 52.3333 123.838 52.7243 123.736 53.155C123.645 53.5857 123.6 54.022 123.6 54.464C123.6 54.9513 123.645 55.4103 123.736 55.841C123.827 56.2717 123.985 56.64 124.212 56.946C124.711 57.6373 125.294 57.983 125.963 57.983C126.745 57.983 127.329 57.6373 127.714 56.946C127.941 56.64 128.099 56.2717 128.19 55.841C128.292 55.4103 128.343 54.9513 128.343 54.464ZM129.516 54.464C129.516 55.0873 129.442 55.6767 129.295 56.232C129.159 56.776 128.944 57.235 128.649 57.609C128.309 58.051 127.918 58.391 127.476 58.629C127.034 58.8783 126.53 59.003 125.963 59.003C125.396 59.003 124.892 58.8783 124.45 58.629C124.008 58.391 123.617 58.051 123.277 57.609C123.005 57.201 122.795 56.7307 122.648 56.198C122.512 55.6653 122.444 55.0873 122.444 54.464C122.444 53.1833 122.722 52.135 123.277 51.319C123.923 50.401 124.818 49.942 125.963 49.942C126.541 49.942 127.045 50.0553 127.476 50.282C127.918 50.4973 128.309 50.843 128.649 51.319C129.227 52.1463 129.516 53.1947 129.516 54.464Z" fill="#0066FF"/>
</svg>
