<svg width="645" height="631" viewBox="0 0 645 631" fill="none" xmlns="http://www.w3.org/2000/svg">
<path d="M346 21.2389C346 26.0841 342.128 30 337.354 30H310.646C305.872 30 302 26.0841 302 21.2389C302 16.8805 305.146 13.2743 309.282 12.6106C309.216 12.3009 309.194 11.9912 309.194 11.6593C309.194 8.6062 311.636 6.10619 314.672 6.10619C316.014 6.10619 317.268 6.61504 318.214 7.43363C319.908 3.56195 322.086 0 328.202 0C335.616 0 339.114 5.79646 339.114 11.9248C339.114 12.1681 339.114 12.4336 339.092 12.677C343.03 13.4956 346 17.0133 346 21.2389Z" fill="#F0FF44"/>
<path d="M4.76551e-05 327.218C2.30343 329.553 5.03107 331.413 8.02723 332.69C11.0234 333.967 14.2294 334.637 17.4622 334.663C23.9911 334.713 30.2329 332.132 34.8143 327.487C39.3957 322.843 41.9415 316.515 41.8917 309.896C41.867 306.619 41.2058 303.368 39.9459 300.331C38.6859 297.293 36.8519 294.528 34.5485 292.193L4.76551e-05 327.218Z" fill="#F0FF44"/>
<ellipse cx="12.1632" cy="25.5622" rx="12.1632" ry="25.5622" transform="matrix(0.787399 -0.616443 0.605953 0.7955 594 305)" fill="#F0FF44"/>
<path d="M324 590L328.715 604.165H343.972L331.629 612.92L336.343 627.085L324 618.33L311.657 627.085L316.371 612.92L304.028 604.165H319.285L324 590Z" fill="#F0FF44"/>
<path d="M622 318C622 482.579 488.359 616 323.5 616C158.641 616 25 482.579 25 318C25 153.421 158.641 20 323.5 20C488.359 20 622 153.421 622 318Z" stroke="#F0FF44" stroke-width="2"/>
</svg>
