<svg width="633" height="631" viewBox="0 0 633 631" fill="none" xmlns="http://www.w3.org/2000/svg">
<path d="M614.75 315C614.75 479.441 481.221 612.75 316.5 612.75C151.779 612.75 18.25 479.441 18.25 315C18.25 150.559 151.779 17.25 316.5 17.25C481.221 17.25 614.75 150.559 614.75 315Z" stroke="#F0FF44" stroke-width="2.5"/>
<path d="M338.5 21.2389C338.5 26.0841 334.628 30 329.854 30H303.146C298.372 30 294.5 26.0841 294.5 21.2389C294.5 16.8805 297.646 13.2743 301.782 12.6106C301.716 12.3009 301.694 11.9912 301.694 11.6593C301.694 8.60619 304.136 6.10619 307.172 6.10619C308.514 6.10619 309.768 6.61505 310.714 7.43363C312.408 3.56195 314.586 0 320.702 0C328.116 0 331.614 5.79646 331.614 11.9248C331.614 12.1681 331.614 12.4336 331.592 12.677C335.53 13.4956 338.5 17.0133 338.5 21.2389Z" fill="#F0FF44"/>
<path d="M4.76551e-05 318.622C2.30343 320.957 5.03107 322.816 8.02723 324.093C11.0234 325.371 14.2294 326.041 17.4622 326.066C23.9911 326.116 30.2329 323.536 34.8143 318.891C39.3957 314.246 41.9415 307.919 41.8917 301.3C41.867 298.022 41.2058 294.772 39.9459 291.734C38.6859 288.697 36.8519 285.932 34.5485 283.597L4.76551e-05 318.622Z" fill="#F0FF44"/>
<ellipse cx="12.1632" cy="25.5622" rx="12.1632" ry="25.5622" transform="matrix(0.787399 -0.616443 0.605953 0.7955 582.866 297.163)" fill="#F0FF44"/>
<path d="M316.5 590L321.215 604.165H336.472L324.129 612.92L328.843 627.085L316.5 618.33L304.157 627.085L308.871 612.92L296.528 604.165H311.785L316.5 590Z" fill="#F0FF44"/>
</svg>
