<svg width="228" height="228" viewBox="0 0 228 228" fill="none" xmlns="http://www.w3.org/2000/svg">
<path d="M117.153 101.698L117.478 103.296L118.755 102.281L132.327 91.4925L124.059 106.731L123.281 108.165L124.911 108.208L142.242 108.667L126.114 115.027L124.597 115.625L125.818 116.706L138.799 128.198L122.356 122.702L120.809 122.185L121.05 123.798L123.607 140.945L114.543 126.166L113.691 124.776L112.838 126.166L103.775 140.945L106.332 123.798L106.573 122.185L105.026 122.702L88.5831 128.198L101.564 116.706L102.785 115.625L101.268 115.027L85.1394 108.667L102.47 108.208L104.101 108.165L103.323 106.731L95.0552 91.4925L108.627 102.281L109.903 103.296L110.229 101.698L113.691 84.7097L117.153 101.698Z" stroke="#0066FF" stroke-width="2"/>
<path d="M61.7422 154.741L62.1335 155.235C62.2204 155.344 62.2091 155.443 62.0993 155.53L57.6085 159.089C57.4988 159.175 57.4005 159.164 57.3135 159.054L56.9222 158.561C56.8353 158.451 56.8466 158.353 56.9564 158.266L61.4472 154.707C61.5569 154.62 61.6552 154.631 61.7422 154.741ZM55.9582 159.325L56.3495 159.818C56.4365 159.928 56.4251 160.026 56.3153 160.113L51.8245 163.672C51.7148 163.759 51.6165 163.748 51.5295 163.638L51.1382 163.144C51.0513 163.035 51.0627 162.936 51.1724 162.849L55.6632 159.29C55.7729 159.203 55.8713 159.215 55.9582 159.325Z" fill="#0066FF"/>
<path d="M51.4587 141.179C51.5978 141.172 51.6981 141.237 51.7594 141.373L52.0602 142.044C52.1216 142.181 52.1011 142.294 51.9989 142.384L46.4813 147.456C46.4438 147.495 46.4007 147.508 46.3519 147.497C46.294 147.49 46.2528 147.46 46.2283 147.405L45.9582 146.803C45.9091 146.693 45.9361 146.582 46.0393 146.47L50.9562 142.112L44.3943 142.802C44.3314 142.809 44.2714 142.797 44.2145 142.768C44.1575 142.739 44.1168 142.697 44.0922 142.642L43.8221 142.04C43.7976 141.985 43.802 141.934 43.8353 141.886C43.8595 141.842 43.8986 141.819 43.9524 141.817L51.4587 141.179Z" fill="#0066FF"/>
<path d="M47.5297 132.546C47.4871 132.413 47.5325 132.325 47.6659 132.282L48.1518 132.127C48.2851 132.085 48.3731 132.13 48.4157 132.264L49.8706 136.822C49.9132 136.955 49.8678 137.043 49.7344 137.086L49.2486 137.241C49.1152 137.284 49.0272 137.238 48.9847 137.105L48.4009 135.276L43.0136 136.995L43.5472 138.667C43.5898 138.8 43.5444 138.888 43.411 138.931L42.9252 139.086C42.7918 139.129 42.7038 139.083 42.6613 138.95L41.8631 136.449C41.8205 136.316 41.8659 136.228 41.9993 136.185L48.0725 134.247L47.5297 132.546ZM39.9541 138.46C39.735 138.53 39.5249 138.513 39.3238 138.409C39.1102 138.299 38.9684 138.134 38.8984 137.915C38.8285 137.696 38.8502 137.484 38.9635 137.28C39.0642 137.07 39.2242 136.929 39.4433 136.859C39.6624 136.789 39.8787 136.81 40.0924 136.92C40.2935 137.024 40.429 137.185 40.4989 137.404C40.5688 137.623 40.5534 137.838 40.4527 138.049C40.3394 138.253 40.1732 138.39 39.9541 138.46Z" fill="#0066FF"/>
<path d="M46.7985 130.047C46.9154 129.37 46.9058 128.698 46.7698 128.032C46.6557 127.473 46.4225 127.031 46.0701 126.705C45.706 126.371 45.3818 126.233 45.0977 126.291C44.8331 126.345 44.6249 126.5 44.473 126.756C44.321 127.011 44.1987 127.312 44.106 127.657C43.9976 128.027 43.8981 128.389 43.8074 128.744C43.7048 129.092 43.6033 129.444 43.5028 129.801C43.3926 130.212 43.2233 130.532 42.9948 130.763C42.7545 130.985 42.5069 131.122 42.2522 131.174C41.9387 131.238 41.6454 131.227 41.3725 131.14C41.0995 131.053 40.8459 130.91 40.6118 130.713C40.3776 130.516 40.1824 130.26 40.0262 129.945C39.8582 129.622 39.7351 129.27 39.6571 128.887C39.5851 128.535 39.5386 128.207 39.5178 127.905C39.497 127.604 39.5035 127.286 39.5375 126.952C39.5431 126.88 39.5615 126.82 39.5926 126.773C39.6218 126.716 39.6668 126.686 39.7276 126.684L40.2069 126.632C40.2873 126.626 40.3433 126.65 40.3749 126.705C40.4045 126.75 40.4145 126.799 40.4049 126.852C40.3551 127.158 40.3377 127.447 40.3525 127.72C40.3673 127.992 40.4078 128.29 40.4738 128.613C40.7159 129.799 41.2387 130.31 42.0421 130.146C42.1891 130.116 42.3298 130.005 42.4644 129.814C42.5891 129.626 42.6958 129.323 42.7843 128.907C42.8846 128.499 42.9782 128.133 43.0652 127.809C43.1403 127.477 43.2389 127.11 43.3608 126.707C43.5275 126.224 43.732 125.876 43.9743 125.663C44.2146 125.441 44.5112 125.294 44.8639 125.221C45.148 125.163 45.4541 125.188 45.782 125.294C46.11 125.401 46.3911 125.578 46.6255 125.826C46.8579 126.065 47.0552 126.356 47.2174 126.7C47.3894 127.043 47.5134 127.4 47.5895 127.773C47.6375 128.008 47.6756 128.22 47.7038 128.408C47.7301 128.586 47.7504 128.76 47.7648 128.931C47.7772 129.092 47.7857 129.258 47.7904 129.431C47.793 129.594 47.7878 129.768 47.7748 129.955C47.7578 130.122 47.6896 130.212 47.57 130.226L46.9818 130.27C46.8289 130.27 46.7678 130.196 46.7985 130.047Z" fill="#0066FF"/>
<path d="M45.0329 117.75C45.0202 117.611 45.0835 117.535 45.2229 117.522L45.7308 117.476C45.8702 117.463 45.9463 117.526 45.9591 117.666L46.3958 122.431C46.4086 122.57 46.3453 122.646 46.2059 122.659L45.698 122.705C45.5586 122.718 45.4825 122.655 45.4697 122.515L45.2945 120.603L39.6631 121.12L39.8233 122.867C39.836 123.007 39.7727 123.083 39.6333 123.096L39.1254 123.142C38.986 123.155 38.9099 123.092 38.8971 122.952L38.6575 120.338C38.6448 120.199 38.7081 120.123 38.8475 120.11L45.1959 119.528L45.0329 117.75ZM36.3595 121.889C36.1305 121.91 35.929 121.849 35.7551 121.704C35.5703 121.55 35.4674 121.359 35.4464 121.13C35.4254 120.901 35.4922 120.699 35.6469 120.524C35.7907 120.34 35.9771 120.237 36.2062 120.216C36.4352 120.195 36.6421 120.262 36.827 120.416C37.0009 120.56 37.0984 120.747 37.1194 120.976C37.1403 121.205 37.0789 121.412 36.9351 121.596C36.7804 121.771 36.5886 121.868 36.3595 121.889Z" fill="#0066FF"/>
<path d="M42.1659 110.533C41.776 110.526 41.3902 110.564 41.0087 110.647C40.6271 110.73 40.2797 110.864 39.9663 111.049C39.3596 111.418 39.0505 111.927 39.0389 112.577C39.0267 113.257 39.3175 113.777 39.9111 114.138C40.2177 114.334 40.5602 114.48 40.9385 114.576C41.317 114.663 41.7012 114.71 42.0912 114.717C42.5211 114.725 42.9267 114.692 43.3081 114.619C43.6895 114.546 44.0169 114.411 44.2904 114.216C44.9082 113.787 45.2224 113.278 45.2329 112.688C45.2452 111.998 44.9495 111.478 44.3456 111.127C44.0792 110.922 43.7568 110.776 43.3783 110.689C43 110.593 42.5958 110.54 42.1659 110.533ZM42.1844 109.498C42.7343 109.508 43.253 109.582 43.7406 109.721C44.2184 109.849 44.62 110.046 44.9453 110.312C45.3299 110.619 45.6236 110.97 45.8266 111.363C46.0396 111.757 46.1417 112.204 46.1328 112.704C46.1238 113.204 46.0059 113.647 45.779 114.033C45.562 114.419 45.2559 114.759 44.8606 115.052C44.4964 115.285 44.0782 115.463 43.6059 115.584C43.1338 115.696 42.6229 115.747 42.0729 115.737C40.9431 115.717 40.0226 115.455 39.3115 114.952C38.5118 114.368 38.121 113.571 38.139 112.561C38.1481 112.051 38.2561 111.608 38.4628 111.232C38.6598 110.845 38.9709 110.506 39.3962 110.213C40.1351 109.716 41.0646 109.478 42.1844 109.498Z" fill="#0066FF"/>
<path d="M46.5605 102.447C46.6994 102.465 46.76 102.543 46.7422 102.682L46.6663 103.277C46.6486 103.416 46.5703 103.476 46.4314 103.459L42.3396 102.937C41.427 102.82 40.7664 102.862 40.3578 103.062C39.9393 103.261 39.6921 103.657 39.6162 104.253C39.5491 104.778 39.7061 105.247 40.0871 105.659C40.4581 106.069 41.0702 106.328 41.9233 106.437L45.9854 106.955C46.1243 106.973 46.1848 107.051 46.1671 107.19L46.0912 107.785C46.0735 107.924 45.9952 107.985 45.8563 107.967L40.4997 107.284C40.0732 107.229 39.7402 107.192 39.5009 107.172C39.2628 107.141 39.0334 107.122 38.8127 107.114C38.7419 107.115 38.6942 107.094 38.6696 107.05C38.6362 106.996 38.6233 106.939 38.6309 106.879L38.6992 106.343C38.717 106.205 38.7953 106.144 38.9341 106.162L39.7674 106.268C39.3712 105.975 39.0954 105.648 38.9401 105.285C38.776 104.912 38.7225 104.502 38.7794 104.055C38.8908 103.182 39.2458 102.572 39.8446 102.225C40.4433 101.878 41.2386 101.768 42.2306 101.895L46.5605 102.447Z" fill="#0066FF"/>
<path d="M50.3437 94.4967L50.1629 95.1002C50.1227 95.2343 50.0355 95.2813 49.9014 95.2411L44.4126 93.5961C44.2785 93.5559 44.2315 93.4688 44.2717 93.3347L44.4526 92.7312C44.4928 92.5971 44.5799 92.5501 44.714 92.5903L50.2029 94.2353C50.337 94.2755 50.3839 94.3626 50.3437 94.4967ZM43.2744 92.3781L43.0935 92.9816C43.0533 93.1157 42.9662 93.1626 42.8321 93.1224L37.3433 91.4775C37.2092 91.4373 37.1622 91.3501 37.2024 91.216L37.3833 90.6125C37.4234 90.4784 37.5106 90.4315 37.6447 90.4717L43.1335 92.1166C43.2676 92.1568 43.3146 92.244 43.2744 92.3781Z" fill="#0066FF"/>
<path d="M53.8211 81.8035C53.7656 82.0768 53.6985 82.3167 53.62 82.5232C53.5505 82.734 53.4411 82.9923 53.292 83.2978C53.0376 83.819 52.7151 84.2403 52.3246 84.5615C51.9475 84.8782 51.5226 85.1104 51.05 85.258C50.5773 85.4056 50.088 85.4506 49.5821 85.3928C49.0672 85.3306 48.5581 85.1767 48.0548 84.9311C47.5426 84.6811 47.1103 84.3699 46.7579 83.9976C46.4055 83.6253 46.1444 83.2141 45.9746 82.764C45.8048 82.3139 45.7288 81.8428 45.7464 81.3507C45.7595 80.8452 45.8932 80.3318 46.1476 79.8106C46.2836 79.532 46.4155 79.2959 46.5434 79.1024C46.6622 78.9045 46.8167 78.6906 47.0068 78.4607C47.0908 78.357 47.1935 78.3404 47.3149 78.4108L47.7535 78.6749C47.8526 78.7455 47.8623 78.8282 47.7827 78.9229C47.6056 79.1034 47.4553 79.286 47.3318 79.4706C47.2037 79.6417 47.0849 79.8396 46.9752 80.0643C46.791 80.4418 46.6941 80.834 46.6846 81.2411C46.6704 81.6348 46.7388 81.9964 46.8895 82.3259C47.0402 82.6554 47.2578 82.9619 47.5423 83.2454C47.8222 83.5156 48.1553 83.7449 48.5417 83.9336C48.8922 84.1046 49.2667 84.2151 49.6652 84.265C50.0548 84.3104 50.4326 84.3001 50.7987 84.234C51.1602 84.1545 51.5008 83.9925 51.8204 83.7479C52.1445 83.4944 52.3986 83.1789 52.5829 82.8014C52.6925 82.5768 52.7777 82.368 52.8385 82.1751C52.8993 81.9822 52.9462 81.7492 52.9794 81.4761C53.0007 81.3641 53.065 81.312 53.1725 81.3199L53.6775 81.5164C53.8077 81.5688 53.8555 81.6645 53.8211 81.8035Z" fill="#0066FF"/>
<path d="M56.0109 76.2738C56.0861 76.1557 56.1827 76.1342 56.3008 76.2094L56.731 76.4833C56.8491 76.5585 56.8706 76.6551 56.7954 76.7732L54.9829 79.6203C54.9077 79.7384 54.8111 79.7598 54.693 79.6846L54.2628 79.4107C54.1447 79.3356 54.1232 79.2389 54.1984 79.1208L54.6737 78.3743L49.9033 75.3374L49.2831 76.3117C49.2079 76.4298 49.1112 76.4512 48.9931 76.376L48.5629 76.1022C48.4448 76.027 48.4234 75.9303 48.4985 75.8122L49.4733 74.2812C49.5484 74.1631 49.6451 74.1416 49.7632 74.2168L51.0032 75.0062C50.2679 73.815 50.2091 72.7343 50.8266 71.7642C51.1435 71.2665 51.5251 70.8812 51.9716 70.6082C52.059 70.5454 52.1307 70.5258 52.1867 70.5496C52.2427 70.5734 52.2921 70.6167 52.3351 70.6796L52.6939 71.1215C52.7369 71.1844 52.7449 71.2369 52.7181 71.2791C52.6882 71.3075 52.6375 71.3404 52.5662 71.378C52.1528 71.6364 51.8118 71.9765 51.5433 72.3983C51.1366 73.1115 51.163 73.8988 51.6222 74.7601C51.9159 75.2672 52.417 75.7462 53.1256 76.1973L55.2134 77.5265L56.0109 76.2738Z" fill="#0066FF"/>
<path d="M58.6238 67.1794C58.3823 66.9851 58.1117 66.8188 57.8122 66.6806C57.519 66.5346 57.2319 66.4449 56.9508 66.4114C56.2795 66.3206 55.7402 66.5285 55.3328 67.035C54.9255 67.5415 54.8357 68.1238 55.0636 68.7819C55.183 69.0961 55.3354 69.3854 55.5205 69.6498C55.7057 69.9143 55.9003 70.135 56.1045 70.312L58.6238 67.1794ZM56.7613 70.8595C57.0044 71.0678 57.3116 71.2443 57.6829 71.389C58.0527 71.5195 58.4001 71.5743 58.725 71.5533C59.0421 71.526 59.3429 71.4471 59.6275 71.3167C59.9121 71.1862 60.1797 70.9652 60.4304 70.6534C60.6497 70.3807 60.8261 70.1055 60.9596 69.8279C61.0931 69.5502 61.1915 69.2444 61.2548 68.9103C61.291 68.7855 61.3591 68.7568 61.4588 68.8242L61.9965 69.2566C62.0589 69.3067 62.075 69.3903 62.0451 69.5074C61.9443 69.8242 61.8233 70.1182 61.682 70.3896C61.547 70.6532 61.3479 70.9486 61.0847 71.2759C60.4141 72.1097 59.6048 72.5496 58.6567 72.5956C57.7008 72.6353 56.7514 72.276 55.8085 71.5176C54.9513 70.8283 54.3975 69.9851 54.1471 68.988C53.9544 67.9989 54.1307 67.1654 54.676 66.4875C55.0144 66.0667 55.3673 65.7794 55.7347 65.6258C56.1084 65.4643 56.5349 65.3967 57.0143 65.4229C57.8498 65.4532 58.7156 65.8287 59.6117 66.5494C59.7052 66.6246 59.7761 66.6881 59.8244 66.7397C59.8711 66.7773 59.8968 66.8172 59.9014 66.8594C59.906 66.9016 59.8871 66.957 59.8447 67.0256C59.8009 67.0801 59.7351 67.1619 59.6473 67.271L56.7613 70.8595Z" fill="#0066FF"/>
<path d="M64.1236 61.8049L63.9222 62.0066C63.5122 62.3886 63.1942 62.7352 62.9681 63.0465C62.742 63.3577 62.5795 63.6548 62.4806 63.9377C62.3464 64.2701 62.3219 64.606 62.4069 64.9453C62.4848 65.2776 62.6334 65.5533 62.8528 65.7724C62.9801 65.8997 63.1463 66.0092 63.3514 66.101C63.5495 66.1858 63.7475 66.2069 63.9454 66.1643C64.3202 66.1288 64.6348 65.9837 64.8892 65.729C65.1366 65.4814 65.2955 65.2303 65.3661 64.9757C65.4296 64.7141 65.4401 64.4065 65.3975 64.0529C65.3478 63.6923 65.2381 63.3424 65.0682 63.003C64.8983 62.6637 64.6931 62.3739 64.4526 62.1336L64.1236 61.8049ZM59.7436 62.8783C59.7295 62.9349 59.7012 62.9774 59.6588 63.0057C59.6164 63.0198 59.5775 63.0092 59.5421 62.9739L59.1283 62.5604C59.0363 62.4686 59.0186 62.3519 59.0751 62.2105C59.1739 61.8286 59.3187 61.4856 59.5094 61.1814C59.7073 60.8702 59.9511 60.5695 60.2409 60.2795C60.8416 59.6499 61.4884 59.3561 62.1814 59.3982C62.8744 59.4403 63.4933 59.7334 64.038 60.2776L66.5106 62.7478C66.7086 62.9457 66.889 63.1188 67.0517 63.2672C67.2145 63.4156 67.3736 63.5535 67.5292 63.6807C67.6212 63.7725 67.6177 63.868 67.5188 63.967L67.1371 64.3491C67.0382 64.4481 66.9427 64.4517 66.8508 64.3598L66.0973 63.6071C66.2814 64.0878 66.3135 64.5722 66.1935 65.0602C66.0806 65.5552 65.8192 66.0079 65.4093 66.4182C64.8014 67.0266 64.1334 67.2992 63.405 67.2359C63.1646 67.2219 62.9277 67.1548 62.6943 67.0347C62.4609 66.9146 62.2593 66.7697 62.0895 66.6001C61.7216 66.2326 61.4845 65.7978 61.3782 65.2959C61.2719 64.7797 61.3494 64.2352 61.6108 63.6623C61.8297 63.0753 62.4197 62.3008 63.3809 61.3386L63.5187 61.2007L63.2747 60.9568C62.9139 60.5964 62.5143 60.4021 62.0758 60.3741C61.6374 60.3318 61.2274 60.5017 60.8457 60.8838C60.5418 61.188 60.3051 61.4957 60.1355 61.8069C59.966 62.104 59.8353 62.4611 59.7436 62.8783Z" fill="#0066FF"/>
<path d="M73.4353 59.0407C73.2132 59.4356 72.8834 59.8079 72.4459 60.1574C71.7349 60.7253 71.1124 60.8834 70.5785 60.6315C70.221 60.4563 69.7582 60.0132 69.1903 59.3022L66.7937 56.3019L65.2701 57.5189C65.1607 57.6063 65.0623 57.5953 64.975 57.4859L64.6941 57.1343C64.6067 57.0249 64.6178 56.9265 64.7271 56.8391L66.2507 55.6221L64.9308 53.9696C64.8371 53.8524 64.8411 53.7532 64.9427 53.6721L65.4349 53.2789C65.5365 53.1978 65.6341 53.2158 65.7277 53.333L67.0477 54.9855L68.9346 53.4783C69.044 53.3909 69.1424 53.4019 69.2298 53.5113L69.5106 53.8629C69.598 53.9723 69.587 54.0707 69.4776 54.1581L67.5907 55.6653L70.4085 59.193C70.8766 59.779 71.431 59.8162 72.0717 59.3044C72.3921 59.0485 72.6437 58.7387 72.8267 58.3749C72.8533 58.3281 72.8885 58.3 72.9322 58.2907C72.9838 58.2751 73.0283 58.2908 73.0657 58.3376L73.3887 58.694C73.4917 58.7909 73.5072 58.9064 73.4353 59.0407Z" fill="#0066FF"/>
<path d="M79.011 54.27C79.1291 54.1949 79.2258 54.2164 79.3009 54.3345L79.5745 54.7649C79.6496 54.8831 79.6281 54.9797 79.5099 55.0548L75.4719 57.6219C75.3537 57.697 75.2571 57.6755 75.182 57.5574L74.9084 57.127C74.8333 57.0088 74.8548 56.9122 74.9729 56.8371L76.5932 55.807L73.5593 51.0348L72.0783 51.9763C71.9601 52.0514 71.8635 52.0299 71.7884 51.9117L71.5148 51.4814C71.4397 51.3632 71.4612 51.2666 71.5793 51.1915L73.7946 49.7832C73.9127 49.7081 74.0094 49.7296 74.0845 49.8477L77.5046 55.2276L79.011 54.27ZM71.3643 48.4487C71.2409 48.2546 71.2038 48.0471 71.253 47.8263C71.3052 47.5916 71.4284 47.4126 71.6225 47.2892C71.8166 47.1658 72.0268 47.1329 72.253 47.1905C72.4823 47.2343 72.6587 47.3533 72.7821 47.5474C72.9054 47.7415 72.941 47.9559 72.8888 48.1905C72.8396 48.4114 72.7179 48.5835 72.5238 48.7069C72.3297 48.8303 72.118 48.8701 71.8887 48.8263C71.6625 48.7687 71.4877 48.6428 71.3643 48.4487Z" fill="#0066FF"/>
<path d="M84.3483 52.3134C84.3606 52.4522 84.2994 52.5545 84.1647 52.6205L83.5047 52.944C83.37 53.01 83.2561 52.9934 83.1629 52.8943L77.9059 47.5527C77.866 47.5166 77.8507 47.474 77.86 47.4248C77.8649 47.3667 77.8943 47.3245 77.9482 47.2981L78.5409 47.0076C78.6486 46.9548 78.7603 46.9781 78.8757 47.0774L83.3994 51.843L82.4856 45.3084C82.4771 45.2457 82.4866 45.1854 82.5139 45.1275C82.5412 45.0696 82.5818 45.0274 82.6356 45.001L83.2283 44.7106C83.2822 44.6841 83.3336 44.6868 83.3825 44.7185C83.4271 44.7412 83.4514 44.7794 83.4554 44.8331L84.3483 52.3134Z" fill="#0066FF"/>
<path d="M92.7449 48.1499C92.8768 48.1028 92.9662 48.1453 93.0133 48.2771L93.1846 48.7575C93.2316 48.8894 93.1892 48.9788 93.0574 49.0258L88.5504 50.6332C88.4186 50.6803 88.3291 50.6379 88.2821 50.506L88.1108 50.0256C88.0637 49.8938 88.1061 49.8043 88.238 49.7573L90.0464 49.1123L88.1468 43.7859L86.4937 44.3755C86.3619 44.4225 86.2724 44.3801 86.2254 44.2482L86.0541 43.7679C86.007 43.636 86.0495 43.5466 86.1813 43.4995L88.6538 42.6177C88.7856 42.5707 88.8751 42.6131 88.9221 42.745L91.0637 48.7495L92.7449 48.1499ZM86.5801 40.7774C86.5028 40.5608 86.5126 40.3502 86.6096 40.1458C86.7126 39.9285 86.8724 39.7813 87.0891 39.704C87.3057 39.6268 87.5179 39.6413 87.7257 39.7477C87.9396 39.8413 88.0852 39.9964 88.1624 40.213C88.2397 40.4297 88.2268 40.6466 88.1238 40.8638C88.0269 41.0683 87.8701 41.2091 87.6534 41.2864C87.4368 41.3637 87.2215 41.3555 87.0077 41.2619C86.7999 41.1555 86.6573 40.994 86.5801 40.7774Z" fill="#0066FF"/>
<path d="M100.414 47.0998C100.045 47.3628 99.5886 47.5594 99.0439 47.6896C98.1589 47.9012 97.5283 47.7795 97.1522 47.3245C96.9031 47.0139 96.6728 46.416 96.4612 45.531L95.5683 41.7962L93.6717 42.2497C93.5356 42.2822 93.4512 42.2304 93.4187 42.0943L93.314 41.6566C93.2815 41.5204 93.3333 41.4361 93.4694 41.4035L95.366 40.9501L94.8742 38.8931C94.8393 38.7472 94.8851 38.6591 95.0115 38.6289L95.6242 38.4824C95.7507 38.4522 95.8313 38.51 95.8662 38.6559L96.358 40.7129L98.7068 40.1514C98.843 40.1188 98.9273 40.1706 98.9599 40.3068L99.0645 40.7444C99.0971 40.8806 99.0453 40.9649 98.9091 40.9975L96.5603 41.5591L97.6102 45.9503C97.7846 46.6797 98.2706 46.9491 99.0681 46.7585C99.4668 46.6631 99.8264 46.4898 100.147 46.2384C100.191 46.2073 100.234 46.1968 100.278 46.207C100.331 46.2148 100.365 46.2479 100.379 46.3063L100.52 46.7661C100.572 46.8976 100.537 47.0089 100.414 47.0998Z" fill="#0066FF"/>
<path d="M102.543 48.9579C102.42 48.943 102.361 48.8748 102.366 48.7533L102.342 48.197C102.327 48.0779 102.383 48.0357 102.508 48.0705C102.684 48.1089 102.871 48.1157 103.07 48.0909C103.278 48.0649 103.464 48.0165 103.626 47.9458C103.798 47.8739 103.922 47.7778 103.998 47.6575C104.09 47.5049 104.18 47.2618 104.27 46.9282C104.369 46.5933 104.458 46.2144 104.536 45.7914C103.938 44.6366 102.85 42.5453 101.273 39.5176C101.247 39.4705 101.241 39.4258 101.256 39.3836C101.27 39.3315 101.306 39.3018 101.366 39.2943L102.006 39.2144C102.145 39.197 102.253 39.2541 102.33 39.3855L104.86 44.3904L106.14 38.9094C106.172 38.7643 106.263 38.6824 106.412 38.6638L107.052 38.5838C107.111 38.5764 107.154 38.5962 107.18 38.6434C107.205 38.6806 107.21 38.7252 107.197 38.7773L105.213 46.8556C105.14 47.157 105.048 47.4305 104.938 47.6761C104.837 47.9205 104.726 48.1208 104.605 48.2771C104.447 48.4681 104.264 48.6169 104.056 48.7236C103.849 48.8401 103.626 48.9133 103.388 48.9431C103.239 48.9617 103.099 48.9741 102.969 48.9803C102.849 48.9852 102.707 48.9778 102.543 48.9579Z" fill="#0066FF"/>
<path d="M116.515 47.5341L115.886 47.5092C115.746 47.5036 115.679 47.4309 115.684 47.291L115.911 41.5655C115.917 41.4256 115.99 41.3585 116.13 41.364L116.759 41.389C116.899 41.3945 116.966 41.4673 116.961 41.6071L116.733 47.3326C116.728 47.4725 116.655 47.5397 116.515 47.5341ZM116.808 40.16L116.178 40.135C116.038 40.1294 115.971 40.0567 115.977 39.9168L116.204 34.1913C116.21 34.0514 116.282 33.9843 116.422 33.9898L117.052 34.0148C117.192 34.0203 117.259 34.0931 117.253 34.233L117.026 39.9584C117.02 40.0983 116.948 40.1655 116.808 40.16Z" fill="#0066FF"/>
<path d="M132.057 36.9597C132.155 37.0309 132.19 37.1096 132.162 37.1957L131.968 37.6917C131.946 37.7484 131.913 37.7826 131.87 37.7941C131.829 37.7958 131.791 37.7828 131.755 37.7551C131.613 37.6543 131.453 37.5651 131.275 37.4875C131.106 37.412 130.929 37.355 130.743 37.3167C130.165 37.1975 129.734 37.4097 129.448 37.9532C129.331 38.1741 129.191 38.6812 129.027 39.4746L128.873 40.2238L131.443 40.7539C131.581 40.7822 131.635 40.8649 131.607 41.002L131.516 41.4427C131.488 41.5798 131.405 41.6343 131.268 41.606L128.697 41.0759L127.467 47.0404C127.439 47.1775 127.356 47.2319 127.219 47.2036L126.646 47.0855C126.509 47.0572 126.454 46.9745 126.483 46.8374L127.713 40.8729L125.935 40.5064C125.798 40.4781 125.743 40.3954 125.772 40.2583L125.863 39.8175C125.891 39.6804 125.973 39.626 126.111 39.6543L127.888 40.0208L128.022 39.3744C128.242 38.3069 128.498 37.5583 128.791 37.1285C129.24 36.486 129.92 36.2586 130.831 36.4464C131.291 36.5413 131.7 36.7124 132.057 36.9597Z" fill="#0066FF"/>
<path d="M137.295 49.7821C137.252 49.9153 137.164 49.9603 137.03 49.9172L136.517 49.7508C136.383 49.7077 136.338 49.6195 136.382 49.4863L136.765 48.3019C136.333 48.7926 135.896 49.1031 135.454 49.2333C135.01 49.3731 134.54 49.3629 134.045 49.2026C132.504 48.7034 132.056 47.4597 132.7 45.4714L134.058 41.276C134.102 41.1428 134.19 41.0978 134.323 41.1409L134.894 41.3258C135.027 41.3689 135.072 41.4571 135.029 41.5903L133.753 45.5288C133.229 47.1461 133.467 48.1165 134.466 48.4401C134.694 48.514 134.952 48.5134 135.239 48.4382C135.529 48.3535 135.817 48.2104 136.103 48.0087C136.392 47.7975 136.648 47.5281 136.87 47.2005C137.091 46.8729 137.262 46.5077 137.382 46.1051L138.482 42.7088C138.525 42.5756 138.613 42.5306 138.747 42.5737L139.317 42.7586C139.451 42.8018 139.496 42.8899 139.453 43.0231L137.779 48.1889C137.678 48.5028 137.587 48.7835 137.507 49.0308C137.436 49.2813 137.365 49.5317 137.295 49.7821Z" fill="#0066FF"/>
<path d="M144.01 52.6674C143.953 52.7952 143.861 52.8306 143.733 52.7734L143.185 52.5285C143.057 52.4713 143.022 52.3788 143.079 52.251L144.763 48.4854C145.139 47.6456 145.29 47.0012 145.217 46.5522C145.148 46.0942 144.84 45.7426 144.292 45.4977C143.808 45.2813 143.314 45.2959 142.81 45.5415C142.31 45.7779 141.884 46.2887 141.533 47.0738L139.861 50.812C139.804 50.9398 139.712 50.9751 139.584 50.918L139.036 50.673C138.908 50.6159 138.873 50.5234 138.93 50.3956L141.135 45.4661C141.31 45.0735 141.443 44.7657 141.531 44.5425C141.629 44.3234 141.714 44.1094 141.786 43.9004C141.805 43.8324 141.839 43.7929 141.888 43.7818C141.95 43.7657 142.008 43.7699 142.063 43.7944L142.556 44.0148C142.684 44.072 142.719 44.1645 142.662 44.2923L142.319 45.0591C142.714 44.7645 143.107 44.5954 143.499 44.5516C143.904 44.5028 144.312 44.5702 144.723 44.7539C145.526 45.1132 146.008 45.6296 146.166 46.3031C146.325 46.9767 146.201 47.7699 145.792 48.6827L144.01 52.6674Z" fill="#0066FF"/>
<path d="M150.082 56.379C149.814 56.3022 149.58 56.2164 149.38 56.1219C149.175 56.036 148.927 55.9066 148.634 55.7339C148.134 55.4392 147.74 55.0846 147.45 54.67C147.164 54.2692 146.966 53.8273 146.856 53.3445C146.746 52.8617 146.74 52.3704 146.837 51.8706C146.94 51.3621 147.134 50.8668 147.418 50.3844C147.708 49.8935 148.052 49.487 148.451 49.165C148.85 48.843 149.28 48.6151 149.742 48.4813C150.204 48.3475 150.68 48.3087 151.169 48.3651C151.672 48.4179 152.173 48.5917 152.673 48.8863C152.94 49.0438 153.165 49.1939 153.348 49.3366C153.536 49.4707 153.737 49.6415 153.951 49.8491C154.048 49.941 154.056 50.0447 153.976 50.1602L153.678 50.5766C153.6 50.6698 153.517 50.673 153.429 50.5862C153.263 50.3954 153.093 50.2312 152.919 50.0936C152.758 49.9524 152.57 49.8184 152.355 49.6913C151.993 49.478 151.61 49.3505 151.204 49.309C150.813 49.2639 150.447 49.3035 150.107 49.4278C149.767 49.5521 149.444 49.7449 149.139 50.0062C148.847 50.2639 148.593 50.578 148.374 50.9483C148.176 51.2843 148.036 51.6489 147.955 52.0422C147.879 52.427 147.86 52.8044 147.897 53.1746C147.948 53.5412 148.082 53.8935 148.301 54.2315C148.528 54.5745 148.823 54.8527 149.185 55.0661C149.4 55.1931 149.601 55.2945 149.789 55.3702C149.976 55.446 150.205 55.5112 150.475 55.5657C150.585 55.5958 150.631 55.664 150.615 55.7705L150.379 56.2585C150.317 56.3841 150.218 56.4243 150.082 56.379Z" fill="#0066FF"/>
<path d="M156.331 60.796C155.893 60.6802 155.45 60.4545 155.001 60.1187C154.273 59.5731 153.964 59.0103 154.073 58.4303C154.153 58.0402 154.466 57.481 155.012 56.7527L157.314 53.6794L155.753 52.5103C155.641 52.4264 155.627 52.3284 155.711 52.2163L155.981 51.8562C156.065 51.7441 156.163 51.7301 156.275 51.814L157.835 52.9831L159.103 51.2904C159.193 51.1703 159.29 51.1493 159.394 51.2272L159.899 51.6049C160.003 51.6829 160.01 51.7819 159.92 51.9019L158.652 53.5946L160.585 55.0425C160.697 55.1265 160.711 55.2245 160.627 55.3365L160.357 55.6967C160.273 55.8087 160.175 55.8228 160.063 55.7388L158.13 54.2909L155.423 57.9045C154.974 58.5047 155.077 59.0507 155.733 59.5423C156.061 59.7881 156.424 59.9539 156.822 60.0397C156.874 60.0537 156.91 60.0806 156.93 60.1206C156.958 60.1666 156.955 60.2136 156.919 60.2616L156.655 60.6638C156.587 60.7878 156.479 60.8319 156.331 60.796Z" fill="#0066FF"/>
<path d="M162.399 65.0376C162.501 65.1334 162.504 65.2323 162.408 65.3344L162.059 65.7061C161.963 65.8082 161.864 65.8113 161.762 65.7154L158.274 62.4395C158.172 62.3436 158.169 62.2447 158.265 62.1426L158.614 61.7709C158.71 61.6688 158.809 61.6657 158.911 61.7616L160.31 63.0761L164.182 58.9542L162.903 57.7527C162.801 57.6568 162.798 57.5579 162.894 57.4558L163.243 57.0841C163.339 56.9821 163.437 56.979 163.54 57.0748L165.453 58.872C165.555 58.9678 165.558 59.0668 165.462 59.1688L161.098 63.8155L162.399 65.0376ZM166.143 56.1868C166.301 56.0192 166.493 55.9318 166.719 55.9247C166.959 55.9172 167.163 55.9922 167.331 56.1496C167.498 56.3071 167.582 56.5025 167.583 56.736C167.597 56.969 167.525 57.1693 167.368 57.337C167.211 57.5046 167.012 57.5922 166.771 57.5997C166.545 57.6068 166.348 57.5316 166.181 57.3742C166.013 57.2167 165.922 57.0215 165.908 56.7884C165.907 56.555 165.986 56.3544 166.143 56.1868Z" fill="#0066FF"/>
<path d="M169.497 68.7208C169.794 68.4681 170.058 68.1844 170.289 67.8696C170.521 67.5549 170.693 67.2247 170.806 66.8791C171.017 66.2009 170.911 65.6143 170.49 65.1192C170.05 64.6012 169.487 64.4033 168.804 64.5255C168.444 64.5816 168.091 64.6985 167.743 64.8762C167.402 65.0614 167.083 65.2804 166.786 65.5331C166.458 65.8117 166.176 66.1046 165.938 66.4117C165.7 66.7189 165.543 67.0361 165.467 67.3634C165.288 68.0938 165.389 68.6837 165.771 69.1331C166.219 69.6586 166.785 69.8533 167.469 69.717C167.805 69.6944 168.143 69.5905 168.484 69.4052C168.832 69.2276 169.17 68.9994 169.497 68.7208ZM170.168 69.5092C169.749 69.8656 169.311 70.153 168.853 70.3714C168.41 70.591 167.978 70.7087 167.558 70.7245C167.067 70.7487 166.615 70.6803 166.202 70.5193C165.782 70.3647 165.41 70.0971 165.086 69.7162C164.762 69.3353 164.557 68.9251 164.472 68.4855C164.38 68.0524 164.385 67.5952 164.487 67.114C164.606 66.698 164.802 66.2881 165.076 65.8846C165.356 65.4887 165.706 65.1125 166.125 64.7562C166.985 64.024 167.849 63.6113 168.715 63.518C169.701 63.4274 170.521 63.7667 171.176 64.536C171.506 64.9245 171.718 65.3282 171.812 65.7473C171.92 66.1674 171.911 66.6279 171.786 67.1285C171.56 67.9899 171.021 68.7835 170.168 69.5092Z" fill="#0066FF"/>
<path d="M171.519 77.6216C171.404 77.7003 171.306 77.6817 171.228 77.5659L170.89 77.0697C170.812 76.9539 170.83 76.8567 170.946 76.778L174.357 74.4591C175.118 73.9419 175.586 73.4732 175.759 73.0528C175.941 72.6268 175.864 72.1657 175.526 71.6695C175.229 71.2311 174.801 70.984 174.243 70.928C173.693 70.8663 173.062 71.0772 172.351 71.5607L168.964 73.8627C168.849 73.9414 168.751 73.9229 168.673 73.8071L168.335 73.3108C168.257 73.1951 168.275 73.0978 168.391 73.0191L172.857 69.9835C173.213 69.7418 173.487 69.5493 173.68 69.4061C173.878 69.2712 174.063 69.1337 174.234 68.9934C174.286 68.9458 174.336 68.9301 174.383 68.9463C174.444 68.9652 174.492 68.9995 174.525 69.0491L174.829 69.4957C174.908 69.6115 174.889 69.7087 174.773 69.7874L174.078 70.2596C174.569 70.2164 174.993 70.2791 175.349 70.4479C175.72 70.6193 176.031 70.8911 176.284 71.2633C176.779 71.9911 176.917 72.6832 176.698 73.3398C176.479 73.9963 175.956 74.6056 175.129 75.1678L171.519 77.6216Z" fill="#0066FF"/>
<path d="M177.974 81.5845L177.841 81.3325C177.597 80.8281 177.36 80.4218 177.13 80.1139C176.899 79.8059 176.663 79.5629 176.422 79.3849C176.144 79.1586 175.831 79.0359 175.481 79.0168C175.141 78.9932 174.833 79.0537 174.559 79.1985C174.4 79.2826 174.246 79.4091 174.098 79.5779C173.959 79.7421 173.88 79.925 173.862 80.1267C173.785 80.4952 173.831 80.8387 173.999 81.157C174.163 81.4664 174.356 81.6925 174.578 81.8351C174.809 81.9731 175.1 82.0739 175.45 82.1376C175.81 82.1967 176.176 82.1952 176.551 82.1331C176.925 82.071 177.263 81.9606 177.563 81.8018L177.974 81.5845ZM178.243 77.0829C178.193 77.0527 178.16 77.0132 178.146 76.9643C178.145 76.9196 178.167 76.8855 178.211 76.8622L178.728 76.5889C178.843 76.5282 178.96 76.5457 179.078 76.6414C179.414 76.8486 179.699 77.0883 179.933 77.3604C180.172 77.6413 180.387 77.963 180.579 78.3255C181.003 79.0854 181.092 79.7902 180.847 80.4398C180.603 81.0895 180.14 81.5942 179.459 81.9539L176.369 83.5865C176.121 83.7173 175.902 83.8385 175.713 83.9501C175.523 84.0618 175.344 84.1731 175.177 84.2842C175.062 84.345 174.971 84.3134 174.906 84.1896L174.654 83.7122C174.588 83.5884 174.613 83.4961 174.728 83.4354L175.67 82.9379C175.156 82.9718 174.684 82.8594 174.253 82.6006C173.813 82.3465 173.458 81.9631 173.187 81.4503C172.786 80.6899 172.722 79.9711 172.998 79.2939C173.082 79.0684 173.216 78.8618 173.4 78.6743C173.584 78.4868 173.782 78.337 173.994 78.2249C174.454 77.9819 174.939 77.8838 175.45 77.9305C175.975 77.9814 176.472 78.2163 176.942 78.6352C177.438 79.0177 178.004 79.8102 178.639 81.0127L178.73 81.1851L179.035 81.024C179.486 80.7857 179.79 80.4613 179.946 80.0507C180.116 79.6443 180.075 79.2024 179.823 78.725C179.622 78.3448 179.398 78.0277 179.15 77.7738C178.917 77.5241 178.614 77.2938 178.243 77.0829Z" fill="#0066FF"/>
<path d="M178.491 90.3472C178.542 90.4774 178.503 90.5683 178.373 90.6197L177.898 90.8072C177.768 90.8586 177.677 90.8192 177.626 90.689L175.84 86.1692C175.788 86.039 175.828 85.9482 175.958 85.8967L176.432 85.7093C176.562 85.6578 176.653 85.6972 176.705 85.8274L177.443 87.6967L185.967 84.3283L185.383 82.8495C185.331 82.7193 185.37 82.6285 185.501 82.5771L185.975 82.3896C186.105 82.3382 186.196 82.3775 186.247 82.5077L187.152 84.7956C187.203 84.9258 187.164 85.0166 187.033 85.068L177.84 88.7011L178.491 90.3472Z" fill="#0066FF"/>
<path d="M180.634 97.4839C180.671 97.6189 180.622 97.7049 180.487 97.742L179.995 97.8771C179.86 97.9141 179.774 97.8652 179.737 97.7302L178.47 93.116C178.433 92.981 178.481 92.895 178.616 92.8579L179.108 92.7229C179.243 92.6858 179.329 92.7347 179.366 92.8697L179.875 94.7212L185.328 93.2236L184.863 91.5312C184.826 91.3962 184.875 91.3102 185.01 91.2731L185.502 91.1381C185.637 91.101 185.723 91.1499 185.76 91.2849L186.455 93.8162C186.492 93.9512 186.443 94.0373 186.308 94.0743L180.161 95.7626L180.634 97.4839ZM188.445 91.8853C188.667 91.8244 188.876 91.8499 189.073 91.9618C189.281 92.0808 189.416 92.2511 189.477 92.4729C189.538 92.6947 189.508 92.9052 189.386 93.1045C189.277 93.3108 189.112 93.4444 188.89 93.5054C188.668 93.5663 188.453 93.5373 188.244 93.4184C188.047 93.3064 187.918 93.1396 187.857 92.9178C187.796 92.696 187.821 92.482 187.93 92.2757C188.051 92.0764 188.223 91.9463 188.445 91.8853Z" fill="#0066FF"/>
<path d="M181.134 105.294C180.9 104.906 180.739 104.435 180.652 103.882C180.509 102.983 180.679 102.364 181.162 102.024C181.491 101.8 182.105 101.616 183.003 101.474L186.796 100.872L186.491 98.9464C186.469 98.8081 186.527 98.728 186.665 98.706L187.11 98.6355C187.248 98.6136 187.328 98.6718 187.35 98.8101L187.655 100.736L189.744 100.405C189.892 100.381 189.977 100.434 189.997 100.562L190.096 101.184C190.116 101.313 190.052 101.389 189.904 101.412L187.815 101.743L188.193 104.129C188.215 104.267 188.157 104.347 188.019 104.369L187.575 104.439C187.436 104.461 187.356 104.403 187.334 104.265L186.956 101.88L182.497 102.587C181.756 102.704 181.45 103.168 181.578 103.978C181.642 104.383 181.787 104.755 182.013 105.094C182.041 105.14 182.048 105.184 182.034 105.227C182.023 105.28 181.987 105.31 181.928 105.32L181.458 105.425C181.323 105.466 181.215 105.423 181.134 105.294Z" fill="#0066FF"/>
<path d="M179.148 107.309C179.172 107.187 179.245 107.134 179.366 107.148L179.922 107.167C180.042 107.161 180.08 107.219 180.036 107.341C179.984 107.514 179.963 107.7 179.972 107.9C179.982 108.11 180.016 108.298 180.074 108.466C180.133 108.643 180.219 108.774 180.333 108.859C180.478 108.962 180.714 109.071 181.04 109.186C181.366 109.31 181.737 109.428 182.153 109.538C183.35 109.031 185.518 108.106 188.658 106.765C188.707 106.743 188.752 106.741 188.793 106.759C188.844 106.776 188.871 106.815 188.874 106.875L188.904 107.519C188.911 107.659 188.846 107.762 188.709 107.829L183.525 109.968L188.892 111.665C189.034 111.708 189.109 111.804 189.116 111.954L189.146 112.599C189.149 112.658 189.126 112.7 189.077 112.722C189.038 112.744 188.993 112.746 188.942 112.728L181.04 110.132C180.745 110.036 180.479 109.923 180.243 109.794C180.007 109.675 179.816 109.549 179.669 109.416C179.491 109.245 179.356 109.051 179.266 108.835C179.166 108.619 179.11 108.392 179.098 108.152C179.091 108.002 179.089 107.862 179.093 107.732C179.098 107.611 179.116 107.47 179.148 107.309Z" fill="#0066FF"/>
<path d="M179.533 121.368L179.606 120.742C179.622 120.603 179.7 120.542 179.839 120.558L185.53 121.221C185.669 121.237 185.731 121.315 185.714 121.454L185.641 122.08C185.625 122.219 185.548 122.28 185.409 122.264L179.717 121.601C179.578 121.585 179.517 121.507 179.533 121.368ZM186.863 122.222L186.936 121.596C186.952 121.457 187.03 121.396 187.169 121.412L192.861 122.075C193 122.091 193.061 122.169 193.045 122.308L192.972 122.934C192.956 123.073 192.878 123.134 192.739 123.118L187.048 122.455C186.908 122.439 186.847 122.361 186.863 122.222Z" fill="#0066FF"/>
<path d="M179.053 132.855C178.942 132.771 178.907 132.657 178.948 132.513L179.152 131.807C179.193 131.663 179.282 131.589 179.418 131.587L186.906 131.275C186.96 131.27 187.001 131.287 187.032 131.327C187.071 131.37 187.083 131.42 187.066 131.478L186.884 132.112C186.851 132.227 186.758 132.294 186.607 132.313L180.038 132.468L185.496 136.177C185.548 136.212 185.586 136.26 185.611 136.319C185.635 136.378 185.639 136.436 185.623 136.494L185.44 137.128C185.424 137.186 185.387 137.222 185.331 137.237C185.284 137.255 185.24 137.247 185.197 137.214L179.053 132.855Z" fill="#0066FF"/>
<path d="M176.497 142.003C176.443 142.132 176.352 142.17 176.223 142.117L175.751 141.922C175.622 141.869 175.583 141.778 175.637 141.648L177.46 137.224C177.513 137.095 177.604 137.057 177.734 137.11L178.205 137.304C178.335 137.358 178.373 137.449 178.319 137.578L177.588 139.354L182.817 141.508L183.485 139.885C183.539 139.756 183.63 139.718 183.759 139.771L184.231 139.965C184.36 140.019 184.398 140.11 184.345 140.239L183.345 142.666C183.292 142.796 183.2 142.834 183.071 142.781L177.177 140.352L176.497 142.003ZM186.1 142.358C186.313 142.445 186.463 142.594 186.55 142.803C186.642 143.024 186.645 143.242 186.557 143.454C186.47 143.667 186.317 143.815 186.099 143.898C185.886 143.994 185.673 143.999 185.461 143.911C185.248 143.823 185.095 143.669 185.003 143.447C184.916 143.238 184.916 143.027 185.004 142.814C185.091 142.602 185.242 142.447 185.454 142.351C185.672 142.268 185.888 142.27 186.1 142.358Z" fill="#0066FF"/>
<path d="M175.545 144.216C175.019 144.658 174.593 145.178 174.268 145.775C173.995 146.275 173.888 146.764 173.948 147.24C174.011 147.73 174.17 148.044 174.424 148.183C174.661 148.312 174.92 148.328 175.201 148.231C175.482 148.133 175.769 147.983 176.063 147.778C176.384 147.566 176.693 147.353 176.992 147.14C177.294 146.94 177.599 146.736 177.906 146.528C178.255 146.285 178.591 146.149 178.914 146.12C179.241 146.105 179.519 146.16 179.747 146.284C180.028 146.437 180.245 146.635 180.398 146.878C180.55 147.12 180.652 147.392 180.704 147.694C180.756 147.996 180.74 148.317 180.657 148.659C180.577 149.014 180.444 149.363 180.257 149.705C180.085 150.021 179.909 150.302 179.731 150.546C179.552 150.79 179.342 151.029 179.101 151.262C179.05 151.314 178.998 151.348 178.943 151.364C178.884 151.389 178.831 151.382 178.783 151.345L178.383 151.075C178.317 151.028 178.29 150.974 178.301 150.912C178.308 150.858 178.332 150.814 178.373 150.78C178.609 150.578 178.808 150.368 178.973 150.15C179.137 149.932 179.298 149.678 179.456 149.388C180.035 148.326 179.965 147.599 179.245 147.206C179.113 147.134 178.934 147.128 178.709 147.187C178.491 147.251 178.215 147.414 177.879 147.675C177.539 147.922 177.232 148.142 176.956 148.333C176.685 148.538 176.373 148.756 176.02 148.985C175.581 149.247 175.201 149.381 174.878 149.387C174.551 149.403 174.23 149.324 173.913 149.152C173.659 149.013 173.44 148.797 173.258 148.504C173.076 148.212 172.976 147.895 172.956 147.554C172.932 147.222 172.969 146.872 173.067 146.504C173.157 146.131 173.292 145.778 173.474 145.445C173.589 145.234 173.696 145.047 173.796 144.885C173.891 144.732 173.988 144.586 174.087 144.446C174.181 144.315 174.282 144.182 174.39 144.047C174.492 143.921 174.609 143.791 174.739 143.657C174.859 143.54 174.97 143.515 175.071 143.581L175.548 143.927C175.666 144.025 175.664 144.121 175.545 144.216Z" fill="#0066FF"/>
<path d="M169.08 154.64C169 154.754 168.903 154.772 168.788 154.692L168.369 154.4C168.254 154.32 168.237 154.223 168.317 154.108L171.053 150.182C171.133 150.067 171.23 150.05 171.345 150.13L171.764 150.421C171.879 150.502 171.896 150.599 171.816 150.714L170.718 152.289L175.358 155.522L176.361 154.083C176.441 153.968 176.539 153.95 176.653 154.03L177.072 154.322C177.187 154.402 177.204 154.499 177.124 154.614L175.623 156.768C175.543 156.883 175.446 156.9 175.331 156.82L170.101 153.175L169.08 154.64ZM178.38 157.062C178.569 157.193 178.683 157.371 178.723 157.593C178.765 157.83 178.72 158.043 178.589 158.231C178.457 158.42 178.276 158.531 178.045 158.566C177.817 158.614 177.608 158.572 177.42 158.44C177.231 158.309 177.115 158.125 177.073 157.888C177.033 157.665 177.079 157.46 177.211 157.271C177.342 157.082 177.522 156.964 177.751 156.916C177.982 156.882 178.191 156.93 178.38 157.062Z" fill="#0066FF"/>
<path d="M166.584 162.093C166.877 162.35 167.196 162.57 167.541 162.752C167.886 162.935 168.238 163.057 168.597 163.119C169.298 163.228 169.863 163.039 170.292 162.55C170.74 162.038 170.854 161.453 170.633 160.795C170.525 160.447 170.358 160.115 170.131 159.797C169.898 159.486 169.635 159.202 169.342 158.945C169.018 158.662 168.687 158.425 168.349 158.235C168.01 158.044 167.673 157.936 167.339 157.908C166.59 157.837 166.021 158.023 165.632 158.467C165.177 158.986 165.067 159.574 165.302 160.232C165.373 160.561 165.526 160.88 165.759 161.191C165.985 161.509 166.26 161.809 166.584 162.093ZM165.902 162.871C165.488 162.509 165.14 162.117 164.857 161.697C164.575 161.29 164.395 160.88 164.319 160.467C164.223 159.985 164.225 159.527 164.324 159.096C164.415 158.657 164.626 158.25 164.955 157.874C165.285 157.498 165.661 157.236 166.083 157.087C166.498 156.932 166.951 156.871 167.442 156.902C167.871 156.959 168.305 157.093 168.744 157.305C169.177 157.525 169.6 157.816 170.014 158.178C170.864 158.923 171.398 159.717 171.617 160.56C171.85 161.522 171.634 162.383 170.969 163.143C170.632 163.526 170.264 163.795 169.863 163.949C169.463 164.117 169.006 164.176 168.493 164.125C167.608 164.027 166.744 163.609 165.902 162.871Z" fill="#0066FF"/>
<path d="M158.135 165.357C158.04 165.254 158.045 165.155 158.148 165.06L158.589 164.654C158.692 164.56 158.791 164.564 158.886 164.667L161.678 167.703C162.301 168.38 162.833 168.774 163.274 168.885C163.722 169.003 164.167 168.859 164.608 168.453C164.998 168.094 165.181 167.634 165.155 167.074C165.135 166.521 164.835 165.928 164.253 165.295L161.481 162.281C161.386 162.178 161.39 162.079 161.493 161.984L161.935 161.578C162.038 161.483 162.137 161.487 162.232 161.59L165.887 165.566C166.178 165.882 166.408 166.125 166.578 166.295C166.74 166.472 166.903 166.634 167.067 166.783C167.122 166.828 167.145 166.875 167.135 166.924C167.126 166.987 167.099 167.039 167.055 167.08L166.657 167.445C166.554 167.54 166.455 167.536 166.36 167.433L165.792 166.814C165.906 167.293 165.906 167.721 165.791 168.099C165.675 168.49 165.452 168.838 165.121 169.143C164.473 169.738 163.808 169.976 163.127 169.855C162.446 169.735 161.766 169.306 161.09 168.57L158.135 165.357Z" fill="#0066FF"/>
<path d="M149.607 169.407L150.136 169.065C150.254 168.989 150.351 169.009 150.427 169.127L153.538 173.939C153.614 174.056 153.593 174.153 153.475 174.229L152.946 174.571C152.829 174.647 152.732 174.626 152.656 174.509L149.545 169.697C149.469 169.58 149.49 169.483 149.607 169.407ZM153.614 175.604L154.143 175.262C154.261 175.186 154.358 175.207 154.434 175.324L157.545 180.136C157.621 180.254 157.6 180.351 157.482 180.427L156.953 180.769C156.836 180.845 156.739 180.824 156.663 180.706L153.552 175.895C153.476 175.777 153.497 175.68 153.614 175.604Z" fill="#0066FF"/>
<path d="M134.056 178.124C134.289 177.972 134.507 177.851 134.709 177.761C134.908 177.662 135.168 177.559 135.491 177.45C136.04 177.264 136.566 177.197 137.069 177.249C137.56 177.295 138.023 177.434 138.461 177.666C138.898 177.898 139.274 178.215 139.589 178.615C139.907 179.025 140.155 179.495 140.334 180.026C140.517 180.566 140.599 181.092 140.582 181.604C140.565 182.116 140.457 182.591 140.256 183.028C140.055 183.466 139.774 183.851 139.411 184.184C139.043 184.531 138.584 184.796 138.034 184.982C137.74 185.081 137.48 185.153 137.252 185.198C137.028 185.253 136.767 185.294 136.47 185.32C136.337 185.333 136.253 185.272 136.218 185.136L136.097 184.639C136.078 184.518 136.13 184.453 136.253 184.443C136.506 184.442 136.742 184.421 136.96 184.379C137.171 184.35 137.396 184.295 137.633 184.215C138.031 184.081 138.378 183.874 138.674 183.594C138.964 183.328 139.173 183.025 139.301 182.686C139.429 182.347 139.494 181.977 139.496 181.575C139.491 181.186 139.42 180.788 139.283 180.381C139.158 180.011 138.973 179.667 138.728 179.349C138.487 179.04 138.214 178.778 137.909 178.565C137.599 178.363 137.244 178.235 136.845 178.18C136.437 178.128 136.034 178.169 135.636 178.303C135.399 178.383 135.191 178.469 135.011 178.562C134.831 178.654 134.632 178.785 134.415 178.953C134.32 179.017 134.238 179.007 134.168 178.926L133.953 178.428C133.898 178.299 133.933 178.198 134.056 178.124Z" fill="#0066FF"/>
<path d="M128.316 180.554C128.179 180.584 128.096 180.53 128.066 180.394L127.958 179.895C127.929 179.758 127.982 179.675 128.119 179.645L131.418 178.931C131.555 178.902 131.638 178.955 131.667 179.092L131.775 179.591C131.805 179.727 131.751 179.811 131.615 179.84L130.75 180.028L131.946 185.555L133.075 185.31C133.212 185.281 133.295 185.334 133.325 185.471L133.433 185.969C133.462 186.106 133.409 186.189 133.272 186.219L131.498 186.603C131.361 186.633 131.278 186.579 131.248 186.442L130.937 185.006C130.608 186.366 129.881 187.168 128.757 187.411C128.18 187.536 127.638 187.536 127.13 187.411C127.024 187.393 126.959 187.355 126.937 187.299C126.914 187.242 126.91 187.177 126.925 187.102L126.987 186.536C127.001 186.461 127.033 186.419 127.082 186.408C127.123 186.409 127.182 186.422 127.259 186.446C127.733 186.559 128.215 186.562 128.703 186.456C129.496 186.243 130.038 185.671 130.327 184.739C130.481 184.173 130.469 183.48 130.291 182.659L129.767 180.24L128.316 180.554Z" fill="#0066FF"/>
<path d="M120.358 185.07C120.39 185.379 120.463 185.688 120.577 185.997C120.68 186.308 120.819 186.575 120.994 186.798C121.403 187.338 121.931 187.573 122.577 187.505C123.224 187.436 123.7 187.089 124.005 186.463C124.144 186.157 124.241 185.845 124.298 185.527C124.355 185.209 124.374 184.915 124.355 184.646L120.358 185.07ZM124.28 183.794C124.256 183.475 124.164 183.132 124.005 182.767C123.836 182.413 123.63 182.128 123.386 181.913C123.143 181.707 122.875 181.55 122.582 181.44C122.288 181.33 121.943 181.297 121.545 181.339C121.197 181.376 120.878 181.445 120.587 181.546C120.296 181.648 120.01 181.794 119.728 181.985C119.614 182.047 119.546 182.019 119.523 181.901L119.45 181.215C119.442 181.135 119.49 181.065 119.594 181.003C119.889 180.851 120.183 180.729 120.475 180.638C120.757 180.548 121.107 180.481 121.525 180.436C122.589 180.323 123.471 180.586 124.173 181.226C124.875 181.875 125.291 182.802 125.418 184.005C125.535 185.099 125.328 186.086 124.798 186.967C124.233 187.801 123.518 188.264 122.653 188.356C122.116 188.413 121.663 188.366 121.295 188.214C120.917 188.063 120.568 187.808 120.248 187.45C119.68 186.837 119.336 185.958 119.214 184.815C119.202 184.695 119.197 184.6 119.199 184.53C119.193 184.47 119.203 184.424 119.23 184.391C119.256 184.358 119.309 184.332 119.387 184.314C119.457 184.306 119.561 184.295 119.701 184.28L124.28 183.794Z" fill="#0066FF"/>
<path d="M112.593 184.984L112.878 184.985C113.438 185.007 113.908 184.989 114.288 184.931C114.668 184.872 114.994 184.779 115.264 184.65C115.595 184.511 115.851 184.292 116.032 183.993C116.213 183.704 116.304 183.404 116.306 183.094C116.306 182.914 116.267 182.719 116.188 182.509C116.109 182.308 115.985 182.153 115.815 182.042C115.526 181.801 115.202 181.68 114.842 181.678C114.492 181.677 114.201 181.74 113.971 181.869C113.74 182.009 113.514 182.218 113.293 182.497C113.072 182.786 112.901 183.11 112.779 183.47C112.658 183.829 112.596 184.179 112.595 184.519L112.593 184.984ZM116.438 187.34C116.488 187.31 116.538 187.3 116.588 187.31C116.628 187.33 116.648 187.366 116.648 187.416L116.646 188.001C116.645 188.131 116.575 188.225 116.434 188.285C116.094 188.483 115.748 188.622 115.398 188.7C115.037 188.779 114.652 188.817 114.242 188.816C113.372 188.832 112.708 188.579 112.25 188.057C111.792 187.536 111.565 186.89 111.568 186.12L111.583 182.625C111.584 182.345 111.58 182.095 111.571 181.875C111.562 181.655 111.548 181.444 111.528 181.244C111.529 181.114 111.599 181.05 111.739 181.05L112.279 181.052C112.419 181.053 112.489 181.118 112.488 181.248L112.484 182.313C112.696 181.844 113.017 181.481 113.448 181.222C113.88 180.954 114.385 180.821 114.965 180.824C115.825 180.827 116.489 181.11 116.957 181.672C117.116 181.852 117.235 182.068 117.314 182.318C117.393 182.569 117.432 182.814 117.431 183.054C117.429 183.574 117.287 184.048 117.005 184.477C116.713 184.916 116.272 185.244 115.681 185.462C115.11 185.719 114.144 185.845 112.784 185.84L112.589 185.839L112.588 186.184C112.586 186.694 112.729 187.114 113.018 187.446C113.296 187.787 113.706 187.958 114.246 187.961C114.676 187.962 115.061 187.914 115.401 187.815C115.732 187.727 116.077 187.568 116.438 187.34Z" fill="#0066FF"/>
<path d="M104.312 180.377C104.748 180.255 105.245 180.226 105.801 180.29C106.705 180.392 107.256 180.722 107.455 181.278C107.583 181.655 107.596 182.295 107.493 183.2L107.058 187.015L108.996 187.235C109.135 187.251 109.197 187.329 109.181 187.468L109.13 187.915C109.114 188.054 109.037 188.116 108.898 188.1L106.96 187.879L106.721 189.981C106.704 190.13 106.631 190.197 106.502 190.182L105.876 190.111C105.747 190.096 105.69 190.014 105.707 189.865L105.947 187.764L103.547 187.491C103.408 187.475 103.346 187.398 103.362 187.258L103.413 186.811C103.429 186.672 103.506 186.611 103.645 186.626L106.045 186.9L106.556 182.413C106.64 181.668 106.276 181.249 105.461 181.157C105.053 181.11 104.656 181.151 104.269 181.278C104.217 181.292 104.173 181.287 104.135 181.262C104.088 181.237 104.068 181.194 104.074 181.135L104.099 180.654C104.095 180.513 104.166 180.42 104.312 180.377Z" fill="#0066FF"/>
<path d="M96.9714 179.814C96.8348 179.783 96.782 179.699 96.8129 179.563L96.9254 179.065C96.9562 178.929 97.0399 178.876 97.1765 178.907L101.844 179.962C101.98 179.993 102.033 180.077 102.002 180.213L101.89 180.711C101.859 180.847 101.775 180.9 101.639 180.869L99.7658 180.446L98.5187 185.962L100.23 186.349C100.367 186.38 100.42 186.463 100.389 186.6L100.277 187.097C100.246 187.234 100.162 187.287 100.025 187.256L97.465 186.677C97.3285 186.646 97.2756 186.562 97.3065 186.426L98.7124 180.208L96.9714 179.814ZM98.2312 189.341C98.1805 189.566 98.0595 189.738 97.8681 189.859C97.6648 189.987 97.451 190.026 97.2266 189.975C97.0023 189.925 96.8309 189.799 96.7123 189.598C96.5818 189.404 96.5419 189.195 96.5926 188.971C96.6433 188.747 96.7703 188.57 96.9736 188.442C97.165 188.321 97.3728 188.286 97.5972 188.337C97.8215 188.388 97.9989 188.51 98.1295 188.703C98.248 188.904 98.2819 189.117 98.2312 189.341Z" fill="#0066FF"/>
<path d="M91.7598 177.431C91.8494 177.324 91.9651 177.296 92.107 177.344L92.8019 177.584C92.9437 177.633 93.0123 177.725 93.0078 177.861L92.9327 185.355C92.9353 185.409 92.916 185.45 92.8746 185.478C92.8299 185.515 92.7792 185.524 92.7225 185.505L92.0985 185.29C91.985 185.251 91.9227 185.155 91.9116 185.003L92.096 178.435L88.1108 183.694C88.0724 183.744 88.023 183.78 87.9627 183.802C87.9024 183.823 87.8439 183.824 87.7872 183.805L87.1632 183.59C87.1064 183.57 87.072 183.532 87.0599 183.475C87.0446 183.427 87.0545 183.383 87.0897 183.342L91.7598 177.431Z" fill="#0066FF"/>
<path d="M82.7845 174.419C82.658 174.359 82.6247 174.266 82.6846 174.139L82.9027 173.678C82.9626 173.552 83.0558 173.518 83.1824 173.578L87.5074 175.625C87.634 175.685 87.6673 175.778 87.6074 175.905L87.3892 176.366C87.3293 176.493 87.2361 176.526 87.1096 176.466L85.3741 175.645L82.9549 180.756L84.5412 181.507C84.6677 181.567 84.7011 181.66 84.6412 181.786L84.423 182.247C84.3631 182.374 84.2699 182.407 84.1433 182.347L81.7707 181.224C81.6441 181.164 81.6108 181.071 81.6707 180.945L84.3979 175.183L82.7845 174.419ZM81.9378 183.992C81.8394 184.2 81.6836 184.342 81.4706 184.418C81.2442 184.499 81.0271 184.49 80.8192 184.392C80.6113 184.293 80.4714 184.133 80.3995 183.911C80.3143 183.694 80.3209 183.481 80.4193 183.273C80.5177 183.065 80.6801 182.921 80.9064 182.84C81.1195 182.764 81.33 182.775 81.5379 182.873C81.7458 182.972 81.8923 183.13 81.9775 183.347C82.0494 183.569 82.0362 183.784 81.9378 183.992Z" fill="#0066FF"/>
<path d="M76.7825 169.856C77.2294 169.931 77.6916 170.114 78.1691 170.407C78.9449 170.883 79.3052 171.414 79.2499 172.002C79.2067 172.398 78.9473 172.984 78.4718 173.76L76.4651 177.033L78.1276 178.052C78.247 178.126 78.2701 178.222 78.1969 178.341L77.9617 178.725C77.8886 178.844 77.7923 178.867 77.673 178.794L76.0104 177.775L74.9051 179.578C74.8268 179.706 74.7321 179.736 74.6213 179.668L74.0842 179.339C73.9733 179.271 73.9571 179.173 74.0355 179.045L75.1408 177.242L73.0818 175.98C72.9624 175.907 72.9393 175.811 73.0125 175.691L73.2476 175.308C73.3208 175.188 73.4171 175.165 73.5364 175.238L75.5954 176.5L77.9549 172.651C78.3468 172.012 78.1932 171.478 77.4941 171.049C77.1446 170.835 76.7676 170.703 76.3633 170.655C76.3103 170.646 76.2719 170.622 76.2482 170.584C76.2161 170.541 76.2157 170.494 76.247 170.443L76.4723 170.018C76.5284 169.888 76.6318 169.834 76.7825 169.856Z" fill="#0066FF"/>
<path d="M76.3778 166.918C76.4539 167.015 76.4472 167.105 76.3576 167.187L75.9806 167.597C75.9067 167.692 75.8379 167.682 75.7741 167.569C75.677 167.417 75.5497 167.28 75.392 167.157C75.2265 167.027 75.0613 166.93 74.8966 166.865C74.7239 166.794 74.5683 166.774 74.4296 166.805C74.2568 166.848 74.0206 166.955 73.7213 167.127C73.414 167.293 73.083 167.498 72.7282 167.741C72.3322 168.98 71.6185 171.226 70.5874 174.481C70.5724 174.533 70.5447 174.568 70.5043 174.587C70.4578 174.615 70.4108 174.61 70.3635 174.573L69.8551 174.176C69.7448 174.09 69.709 173.973 69.7479 173.826L71.5073 168.501L66.7211 171.463C66.5955 171.542 66.4736 171.536 66.3554 171.444L65.8469 171.047C65.7996 171.01 65.7835 170.965 65.7985 170.914C65.8074 170.87 65.835 170.834 65.8816 170.807L73.0041 166.51C73.2692 166.349 73.5278 166.221 73.7796 166.126C74.0236 166.025 74.2439 165.962 74.4404 165.938C74.6869 165.915 74.9215 165.939 75.1441 166.012C75.3729 166.076 75.5819 166.182 75.7711 166.33C75.8893 166.422 75.9966 166.512 76.0929 166.6C76.1813 166.682 76.2763 166.788 76.3778 166.918Z" fill="#0066FF"/>
</svg>
