<svg width="43" height="147" viewBox="0 0 43 147" fill="none" xmlns="http://www.w3.org/2000/svg">
<g filter="url(#filter0_d_554_295)">
<rect x="4" width="35" height="34.375" rx="10" fill="#F0FF44" shape-rendering="crispEdges"/>
<path d="M21.5 5C19.8585 5 18.233 5.32307 16.7165 5.95075C15.1999 6.57844 13.8219 7.49845 12.6612 8.65826C10.317 11.0006 9 14.1775 9 17.4901C9 23.0107 12.5875 27.6945 17.55 29.3557C18.175 29.4556 18.375 29.0684 18.375 28.7311C18.375 28.4439 18.375 27.657 18.375 26.6203C14.9125 27.3697 14.175 24.9467 14.175 24.9467C13.6 23.4978 12.7875 23.1106 12.7875 23.1106C11.65 22.3362 12.875 22.3612 12.875 22.3612C14.125 22.4486 14.7875 23.6477 14.7875 23.6477C15.875 25.5462 17.7125 24.9841 18.425 24.6844C18.5375 23.8725 18.8625 23.3229 19.2125 23.0107C16.4375 22.6984 13.525 21.6243 13.525 16.8656C13.525 15.4792 14 14.3676 14.8125 13.4808C14.6875 13.1685 14.25 11.8695 14.9375 10.1834C14.9375 10.1834 15.9875 9.84615 18.375 11.4574C19.3625 11.1826 20.4375 11.0452 21.5 11.0452C22.5625 11.0452 23.6375 11.1826 24.625 11.4574C27.0125 9.84615 28.0625 10.1834 28.0625 10.1834C28.75 11.8695 28.3125 13.1685 28.1875 13.4808C29 14.3676 29.475 15.4792 29.475 16.8656C29.475 21.6368 26.55 22.686 23.7625 22.9982C24.2125 23.3854 24.625 24.1473 24.625 25.3089C24.625 26.9825 24.625 28.3315 24.625 28.7311C24.625 29.0684 24.825 29.4681 25.4625 29.3557C30.425 27.682 34 23.0107 34 17.4901C34 15.8499 33.6767 14.2257 33.0485 12.7103C32.4203 11.195 31.4996 9.81807 30.3388 8.65826C29.1781 7.49845 27.8001 6.57844 26.2835 5.95075C24.767 5.32307 23.1415 5 21.5 5Z" fill="#0066FF"/>
</g>
<g filter="url(#filter1_d_554_295)">
<rect x="4" y="51.375" width="35" height="35" rx="10" fill="#F0FF44" shape-rendering="crispEdges"/>
<path d="M16.25 56.375H26.75C30.75 56.375 34 59.625 34 63.625V74.125C34 76.0478 33.2362 77.8919 31.8765 79.2515C30.5169 80.6112 28.6728 81.375 26.75 81.375H16.25C12.25 81.375 9 78.125 9 74.125V63.625C9 61.7022 9.76384 59.8581 11.1235 58.4985C12.4831 57.1388 14.3272 56.375 16.25 56.375ZM16 58.875C14.8065 58.875 13.6619 59.3491 12.818 60.193C11.9741 61.0369 11.5 62.1815 11.5 63.375V74.375C11.5 76.8625 13.5125 78.875 16 78.875H27C28.1935 78.875 29.3381 78.4009 30.182 77.557C31.0259 76.7131 31.5 75.5685 31.5 74.375V63.375C31.5 60.8875 29.4875 58.875 27 58.875H16ZM28.0625 60.75C28.4769 60.75 28.8743 60.9146 29.1674 61.2076C29.4604 61.5007 29.625 61.8981 29.625 62.3125C29.625 62.7269 29.4604 63.1243 29.1674 63.4174C28.8743 63.7104 28.4769 63.875 28.0625 63.875C27.6481 63.875 27.2507 63.7104 26.9576 63.4174C26.6646 63.1243 26.5 62.7269 26.5 62.3125C26.5 61.8981 26.6646 61.5007 26.9576 61.2076C27.2507 60.9146 27.6481 60.75 28.0625 60.75ZM21.5 62.625C23.1576 62.625 24.7473 63.2835 25.9194 64.4556C27.0915 65.6277 27.75 67.2174 27.75 68.875C27.75 70.5326 27.0915 72.1223 25.9194 73.2944C24.7473 74.4665 23.1576 75.125 21.5 75.125C19.8424 75.125 18.2527 74.4665 17.0806 73.2944C15.9085 72.1223 15.25 70.5326 15.25 68.875C15.25 67.2174 15.9085 65.6277 17.0806 64.4556C18.2527 63.2835 19.8424 62.625 21.5 62.625ZM21.5 65.125C20.5054 65.125 19.5516 65.5201 18.8483 66.2233C18.1451 66.9266 17.75 67.8804 17.75 68.875C17.75 69.8696 18.1451 70.8234 18.8483 71.5267C19.5516 72.2299 20.5054 72.625 21.5 72.625C22.4946 72.625 23.4484 72.2299 24.1517 71.5267C24.8549 70.8234 25.25 69.8696 25.25 68.875C25.25 67.8804 24.8549 66.9266 24.1517 66.2233C23.4484 65.5201 22.4946 65.125 21.5 65.125Z" fill="#0066FF"/>
</g>
<g filter="url(#filter2_d_554_295)">
<rect x="4" y="103.375" width="35" height="35" rx="10" fill="#F0FF44" shape-rendering="crispEdges"/>
<path d="M33 113.228C32.1534 113.64 31.2409 113.91 30.2954 114.04C31.2629 113.416 32.0105 112.428 32.3623 111.24C31.4498 111.828 30.4383 112.24 29.3719 112.475C28.5033 111.463 27.283 110.875 25.8977 110.875C23.3141 110.875 21.2032 113.134 21.2032 115.922C21.2032 116.322 21.2471 116.71 21.3241 117.075C17.4101 116.863 13.925 114.851 11.6052 111.804C11.1984 112.546 10.9675 113.416 10.9675 114.334C10.9675 116.087 11.7921 117.64 13.0674 118.522C12.2868 118.522 11.5612 118.287 10.9235 117.934C10.9235 117.934 10.9235 117.934 10.9235 117.969C10.9235 120.416 12.5507 122.463 14.7055 122.922C14.3098 123.04 13.892 123.099 13.4632 123.099C13.1663 123.099 12.8695 123.063 12.5837 123.004C13.1773 124.993 14.9034 126.475 16.9814 126.51C15.3762 127.875 13.3423 128.675 11.1214 128.675C10.7476 128.675 10.3738 128.651 10 128.604C12.0889 130.04 14.5736 130.875 17.2342 130.875C25.8977 130.875 30.6582 123.181 30.6582 116.51C30.6582 116.287 30.6582 116.075 30.6472 115.851C31.5707 115.146 32.3623 114.251 33 113.228Z" fill="#0066FF"/>
</g>
<defs>
<filter id="filter0_d_554_295" x="0" y="0" width="43" height="42.375" filterUnits="userSpaceOnUse" color-interpolation-filters="sRGB">
<feFlood flood-opacity="0" result="BackgroundImageFix"/>
<feColorMatrix in="SourceAlpha" type="matrix" values="0 0 0 0 0 0 0 0 0 0 0 0 0 0 0 0 0 0 127 0" result="hardAlpha"/>
<feOffset dy="4"/>
<feGaussianBlur stdDeviation="2"/>
<feComposite in2="hardAlpha" operator="out"/>
<feColorMatrix type="matrix" values="0 0 0 0 0 0 0 0 0 0 0 0 0 0 0 0 0 0 0.15 0"/>
<feBlend mode="normal" in2="BackgroundImageFix" result="effect1_dropShadow_554_295"/>
<feBlend mode="normal" in="SourceGraphic" in2="effect1_dropShadow_554_295" result="shape"/>
</filter>
<filter id="filter1_d_554_295" x="0" y="51.375" width="43" height="43" filterUnits="userSpaceOnUse" color-interpolation-filters="sRGB">
<feFlood flood-opacity="0" result="BackgroundImageFix"/>
<feColorMatrix in="SourceAlpha" type="matrix" values="0 0 0 0 0 0 0 0 0 0 0 0 0 0 0 0 0 0 127 0" result="hardAlpha"/>
<feOffset dy="4"/>
<feGaussianBlur stdDeviation="2"/>
<feComposite in2="hardAlpha" operator="out"/>
<feColorMatrix type="matrix" values="0 0 0 0 0 0 0 0 0 0 0 0 0 0 0 0 0 0 0.15 0"/>
<feBlend mode="normal" in2="BackgroundImageFix" result="effect1_dropShadow_554_295"/>
<feBlend mode="normal" in="SourceGraphic" in2="effect1_dropShadow_554_295" result="shape"/>
</filter>
<filter id="filter2_d_554_295" x="0" y="103.375" width="43" height="43" filterUnits="userSpaceOnUse" color-interpolation-filters="sRGB">
<feFlood flood-opacity="0" result="BackgroundImageFix"/>
<feColorMatrix in="SourceAlpha" type="matrix" values="0 0 0 0 0 0 0 0 0 0 0 0 0 0 0 0 0 0 127 0" result="hardAlpha"/>
<feOffset dy="4"/>
<feGaussianBlur stdDeviation="2"/>
<feComposite in2="hardAlpha" operator="out"/>
<feColorMatrix type="matrix" values="0 0 0 0 0 0 0 0 0 0 0 0 0 0 0 0 0 0 0.15 0"/>
<feBlend mode="normal" in2="BackgroundImageFix" result="effect1_dropShadow_554_295"/>
<feBlend mode="normal" in="SourceGraphic" in2="effect1_dropShadow_554_295" result="shape"/>
</filter>
</defs>
</svg>
