<svg width="69" height="95" viewBox="0 0 69 95" fill="none" xmlns="http://www.w3.org/2000/svg">
<path d="M29.4188 56.9557L30.0696 56.8521L30.2311 56.2131L35.723 34.4775L39.5219 56.572L39.6336 57.2215L40.2745 57.375L62.552 62.7112L39.9293 66.3131L39.2785 66.4167L39.117 67.0557L33.6251 88.7913L29.8262 66.6968L29.7145 66.0473L29.0736 65.8938L6.79614 60.5576L29.4188 56.9557Z" stroke="#0066FF" stroke-width="2"/>
<path d="M14.4812 19.529L22.4055 17.5903L23.032 17.437L23.1508 16.803L24.8057 7.9649L25.7739 16.9043L25.8434 17.5456L26.4562 17.7468L34.2074 20.2909L26.2831 22.2296L25.6565 22.3829L25.5378 23.0169L23.8829 31.855L22.9147 22.9156L22.8452 22.2743L22.2323 22.0731L14.4812 19.529Z" stroke="#0066FF" stroke-width="2"/>
</svg>
