<svg width="68" height="67" viewBox="0 0 68 67" fill="none" xmlns="http://www.w3.org/2000/svg">
<path d="M37.1528 22.6977L37.4784 24.2955L38.7549 23.2808L52.3266 12.4925L44.0589 27.7314L43.2812 29.1647L44.9114 29.2079L62.2425 29.6673L46.1137 36.0265L44.5966 36.6246L45.8176 37.7055L58.7987 49.1977L42.3557 43.7017L40.8091 43.1848L41.0496 44.7977L43.6068 61.9452L34.5434 47.1657L33.6909 45.7756L32.8384 47.1657L23.7751 61.9452L26.3322 44.7977L26.5727 43.1848L25.0261 43.7017L8.58311 49.1977L21.5642 37.7055L22.7852 36.6246L21.2682 36.0265L5.13937 29.6673L22.4705 29.2079L24.1006 29.1647L23.323 27.7314L15.0552 12.4925L28.6269 23.2808L29.9034 24.2955L30.229 22.6977L33.6909 5.70966L37.1528 22.6977Z" stroke="#0066FF" stroke-width="2"/>
</svg>
