<svg width="44" height="30" viewBox="0 0 44 30" fill="none" xmlns="http://www.w3.org/2000/svg">
<path d="M44 21.2389C44 26.0841 40.128 30 35.354 30H8.646C3.872 30 0 26.0841 0 21.2389C0 16.8805 3.146 13.2743 7.282 12.6106C7.216 12.3009 7.194 11.9912 7.194 11.6593C7.194 8.6062 9.636 6.10619 12.672 6.10619C14.014 6.10619 15.268 6.61504 16.214 7.43363C17.908 3.56195 20.086 0 26.202 0C33.616 0 37.114 5.79646 37.114 11.9248C37.114 12.1681 37.114 12.4336 37.092 12.677C41.03 13.4956 44 17.0133 44 21.2389Z" fill="#F0FF44"/>
</svg>
