<svg width="197" height="58" viewBox="0 0 197 58" fill="none" xmlns="http://www.w3.org/2000/svg">
<path d="M175 12.064C173.441 12.064 172.111 11.518 171.01 10.426C169.909 9.32467 169.358 7.99467 169.358 6.436C169.358 4.87733 169.909 3.54733 171.01 2.446C172.111 1.34467 173.441 0.794 175 0.794C176.549 0.794 177.875 1.34467 178.976 2.446C180.077 3.54733 180.628 4.87733 180.628 6.436C180.628 7.99467 180.077 9.32467 178.976 10.426C177.875 11.518 176.549 12.064 175 12.064ZM175 1.452C173.628 1.452 172.452 1.942 171.472 2.922C170.501 3.89267 170.016 5.064 170.016 6.436C170.016 7.808 170.501 8.97933 171.472 9.95C172.452 10.9113 173.628 11.392 175 11.392C176.372 11.392 177.543 10.9113 178.514 9.95C179.485 8.97933 179.97 7.808 179.97 6.436C179.97 5.064 179.485 3.89267 178.514 2.922C177.543 1.942 176.372 1.452 175 1.452ZM177.73 9.964H176.512L175.742 8.242C175.341 7.374 174.911 6.94 174.454 6.94H173.796V9.964H172.802V2.796H174.818C175.649 2.796 176.288 2.97333 176.736 3.328C177.193 3.67333 177.422 4.14467 177.422 4.742C177.422 5.23667 177.263 5.65667 176.946 6.002C176.629 6.34733 176.185 6.58067 175.616 6.702V6.73C176.008 6.814 176.4 7.25733 176.792 8.06L177.73 9.964ZM173.796 3.65V6.1H174.874C175.863 6.1 176.358 5.68933 176.358 4.868C176.358 4.42933 176.223 4.11667 175.952 3.93C175.681 3.74333 175.261 3.65 174.692 3.65H173.796Z" fill="#F0FF44"/>
<path d="M52.681 12.965C52.483 12.965 52.294 13.172 52.114 13.586C51.934 13.982 51.844 14.549 51.844 15.287V19.877C51.844 20.795 51.691 21.569 51.385 22.199C51.097 22.829 50.656 23.369 50.062 23.819C50.656 24.287 51.097 24.836 51.385 25.466C51.691 26.078 51.844 26.843 51.844 27.761V32.378C51.844 33.116 51.934 33.683 52.114 34.079C52.294 34.475 52.483 34.673 52.681 34.673H53.923C54.103 34.673 54.193 34.781 54.193 34.997V36.644C54.193 36.86 54.103 36.968 53.923 36.968H52.492C52.15 36.968 51.862 36.932 51.628 36.86C51.178 36.752 50.791 36.563 50.467 36.293C50.161 36.023 49.909 35.708 49.711 35.348C49.513 34.988 49.369 34.592 49.279 34.16C49.189 33.746 49.144 33.332 49.144 32.918V28.22C49.144 27.734 49.108 27.32 49.036 26.978C48.982 26.618 48.91 26.321 48.82 26.087C48.73 25.853 48.631 25.664 48.523 25.52C48.415 25.376 48.316 25.259 48.226 25.169C48.118 25.061 47.992 24.98 47.848 24.926C47.722 24.854 47.497 24.773 47.173 24.683C46.939 24.647 46.795 24.611 46.741 24.575C46.705 24.539 46.687 24.476 46.687 24.386V23.252C46.687 23.162 46.705 23.099 46.741 23.063C46.795 23.027 46.939 22.991 47.173 22.955C47.497 22.883 47.722 22.82 47.848 22.766C47.992 22.694 48.118 22.604 48.226 22.496C48.316 22.406 48.415 22.289 48.523 22.145C48.631 21.983 48.73 21.785 48.82 21.551C48.91 21.317 48.982 21.029 49.036 20.687C49.108 20.327 49.144 19.904 49.144 19.418V14.747C49.144 14.333 49.189 13.919 49.279 13.505C49.369 13.073 49.513 12.677 49.711 12.317C49.909 11.939 50.161 11.624 50.467 11.372C50.791 11.102 51.178 10.913 51.628 10.805C51.862 10.733 52.15 10.697 52.492 10.697H53.923C54.103 10.697 54.193 10.796 54.193 10.994V12.641C54.193 12.857 54.103 12.965 53.923 12.965H52.681ZM70.177 33.35C70.123 33.35 70.078 33.305 70.042 33.215C70.006 33.143 69.988 33.062 69.988 32.972V24.683C69.988 23.783 69.925 23.09 69.799 22.604C69.673 22.1 69.466 21.848 69.178 21.848C68.998 21.848 68.836 21.947 68.692 22.145C68.548 22.343 68.431 22.667 68.341 23.117C68.269 23.567 68.233 24.044 68.233 24.548C68.233 25.034 68.233 25.592 68.233 26.222V32.729C68.233 32.963 68.179 33.08 68.071 33.08H65.911C65.857 33.08 65.812 33.035 65.776 32.945C65.74 32.873 65.722 32.792 65.722 32.702V24.683C65.704 22.793 65.416 21.848 64.858 21.848C64.534 21.848 64.3 22.154 64.156 22.766C64.03 23.378 63.967 24.215 63.967 25.277V32.999C63.967 33.233 63.904 33.35 63.778 33.35H61.537C61.501 33.35 61.465 33.305 61.429 33.215C61.393 33.143 61.375 33.062 61.375 32.972V23.279C61.375 22.595 61.366 21.938 61.348 21.308C61.348 20.678 61.339 20.183 61.321 19.823C61.303 19.589 61.375 19.472 61.537 19.472H63.535C63.643 19.472 63.697 19.544 63.697 19.688L63.67 20.768C63.778 20.264 63.985 19.868 64.291 19.58C64.597 19.292 64.921 19.148 65.263 19.148C65.749 19.148 66.181 19.364 66.559 19.796C66.955 20.228 67.198 20.867 67.288 21.713C67.522 20.849 67.846 20.21 68.26 19.796C68.674 19.364 69.151 19.148 69.691 19.148C70.519 19.148 71.203 19.607 71.743 20.525C72.301 21.425 72.58 22.694 72.58 24.332V32.999C72.58 33.089 72.562 33.17 72.526 33.242C72.49 33.314 72.445 33.35 72.391 33.35H70.177ZM77.629 33.35C77.539 33.35 77.458 33.314 77.386 33.242C77.332 33.188 77.305 33.107 77.305 32.999V30.893C77.305 30.803 77.332 30.731 77.386 30.677C77.458 30.605 77.539 30.569 77.629 30.569H81.301V22.253H78.115C78.025 22.253 77.944 22.226 77.872 22.172C77.818 22.1 77.791 22.01 77.791 21.902V19.796C77.791 19.706 77.818 19.634 77.872 19.58C77.944 19.508 78.025 19.472 78.115 19.472H83.893C83.983 19.472 84.055 19.508 84.109 19.58C84.181 19.634 84.217 19.706 84.217 19.796V30.569H87.538C87.628 30.569 87.7 30.605 87.754 30.677C87.826 30.731 87.862 30.803 87.862 30.893V32.999C87.862 33.233 87.754 33.35 87.538 33.35H77.629ZM82.381 17.339C81.805 17.339 81.319 17.141 80.923 16.745C80.527 16.349 80.329 15.872 80.329 15.314C80.329 14.72 80.527 14.225 80.923 13.829C81.319 13.415 81.805 13.208 82.381 13.208C82.975 13.208 83.47 13.415 83.866 13.829C84.28 14.225 84.487 14.72 84.487 15.314C84.487 15.872 84.28 16.349 83.866 16.745C83.47 17.141 82.975 17.339 82.381 17.339ZM92.182 36.806C92.092 36.806 92.011 36.77 91.939 36.698C91.885 36.644 91.858 36.572 91.858 36.482V34.322C91.858 34.232 91.885 34.151 91.939 34.079C92.011 34.025 92.092 33.998 92.182 33.998H104.818C104.908 33.998 104.98 34.025 105.034 34.079C105.106 34.151 105.142 34.232 105.142 34.322V36.482C105.142 36.572 105.106 36.644 105.034 36.698C104.98 36.77 104.908 36.806 104.818 36.806H92.182ZM117.967 33.35C117.913 33.35 117.868 33.305 117.832 33.215C117.796 33.143 117.778 33.062 117.778 32.972V24.683C117.778 23.783 117.715 23.09 117.589 22.604C117.463 22.1 117.256 21.848 116.968 21.848C116.788 21.848 116.626 21.947 116.482 22.145C116.338 22.343 116.221 22.667 116.131 23.117C116.059 23.567 116.023 24.044 116.023 24.548C116.023 25.034 116.023 25.592 116.023 26.222V32.729C116.023 32.963 115.969 33.08 115.861 33.08H113.701C113.647 33.08 113.602 33.035 113.566 32.945C113.53 32.873 113.512 32.792 113.512 32.702V24.683C113.494 22.793 113.206 21.848 112.648 21.848C112.324 21.848 112.09 22.154 111.946 22.766C111.82 23.378 111.757 24.215 111.757 25.277V32.999C111.757 33.233 111.694 33.35 111.568 33.35H109.327C109.291 33.35 109.255 33.305 109.219 33.215C109.183 33.143 109.165 33.062 109.165 32.972V23.279C109.165 22.595 109.156 21.938 109.138 21.308C109.138 20.678 109.129 20.183 109.111 19.823C109.093 19.589 109.165 19.472 109.327 19.472H111.325C111.433 19.472 111.487 19.544 111.487 19.688L111.46 20.768C111.568 20.264 111.775 19.868 112.081 19.58C112.387 19.292 112.711 19.148 113.053 19.148C113.539 19.148 113.971 19.364 114.349 19.796C114.745 20.228 114.988 20.867 115.078 21.713C115.312 20.849 115.636 20.21 116.05 19.796C116.464 19.364 116.941 19.148 117.481 19.148C118.309 19.148 118.993 19.607 119.533 20.525C120.091 21.425 120.37 22.694 120.37 24.332V32.999C120.37 33.089 120.352 33.17 120.316 33.242C120.28 33.314 120.235 33.35 120.181 33.35H117.967ZM125.419 33.35C125.329 33.35 125.248 33.314 125.176 33.242C125.122 33.188 125.095 33.107 125.095 32.999V30.893C125.095 30.803 125.122 30.731 125.176 30.677C125.248 30.605 125.329 30.569 125.419 30.569H129.091V22.253H125.905C125.815 22.253 125.734 22.226 125.662 22.172C125.608 22.1 125.581 22.01 125.581 21.902V19.796C125.581 19.706 125.608 19.634 125.662 19.58C125.734 19.508 125.815 19.472 125.905 19.472H131.683C131.773 19.472 131.845 19.508 131.899 19.58C131.971 19.634 132.007 19.706 132.007 19.796V30.569H135.328C135.418 30.569 135.49 30.605 135.544 30.677C135.616 30.731 135.652 30.803 135.652 30.893V32.999C135.652 33.233 135.544 33.35 135.328 33.35H125.419ZM130.171 17.339C129.595 17.339 129.109 17.141 128.713 16.745C128.317 16.349 128.119 15.872 128.119 15.314C128.119 14.72 128.317 14.225 128.713 13.829C129.109 13.415 129.595 13.208 130.171 13.208C130.765 13.208 131.26 13.415 131.656 13.829C132.07 14.225 132.277 14.72 132.277 15.314C132.277 15.872 132.07 16.349 131.656 16.745C131.26 17.141 130.765 17.339 130.171 17.339ZM149.827 24.683C149.503 24.773 149.269 24.854 149.125 24.926C148.999 24.98 148.882 25.061 148.774 25.169C148.684 25.259 148.585 25.376 148.477 25.52C148.369 25.664 148.27 25.853 148.18 26.087C148.09 26.321 148.009 26.618 147.937 26.978C147.883 27.32 147.856 27.734 147.856 28.22V32.918C147.856 33.332 147.811 33.746 147.721 34.16C147.631 34.592 147.487 34.988 147.289 35.348C147.091 35.708 146.83 36.023 146.506 36.293C146.2 36.563 145.822 36.752 145.372 36.86C145.138 36.932 144.85 36.968 144.508 36.968H143.077C142.897 36.968 142.807 36.86 142.807 36.644V34.997C142.807 34.781 142.897 34.673 143.077 34.673H144.319C144.517 34.673 144.706 34.475 144.886 34.079C145.066 33.683 145.156 33.116 145.156 32.378V27.761C145.156 26.843 145.3 26.078 145.588 25.466C145.894 24.836 146.335 24.287 146.911 23.819C146.335 23.369 145.894 22.829 145.588 22.199C145.282 21.569 145.129 20.795 145.129 19.877V15.287C145.129 14.549 145.039 13.982 144.859 13.586C144.697 13.172 144.517 12.965 144.319 12.965H143.077C142.897 12.965 142.807 12.857 142.807 12.641V10.994C142.807 10.796 142.897 10.697 143.077 10.697H144.481C144.841 10.697 145.129 10.733 145.345 10.805C145.795 10.913 146.173 11.102 146.479 11.372C146.803 11.624 147.064 11.939 147.262 12.317C147.46 12.677 147.604 13.073 147.694 13.505C147.784 13.919 147.829 14.333 147.829 14.747V19.418C147.829 19.904 147.856 20.327 147.91 20.687C147.982 21.029 148.063 21.317 148.153 21.551C148.261 21.785 148.369 21.983 148.477 22.145C148.585 22.289 148.684 22.406 148.774 22.496C148.864 22.586 148.981 22.667 149.125 22.739C149.269 22.811 149.503 22.883 149.827 22.955C150.061 22.991 150.196 23.027 150.232 23.063C150.286 23.099 150.313 23.162 150.313 23.252V24.386C150.313 24.512 150.151 24.611 149.827 24.683Z" fill="#F0FF44"/>
<path d="M43.25 54.51C43.25 54.6573 43.1707 54.731 43.012 54.731H42.349C42.1903 54.731 42.111 54.6573 42.111 54.51V53.269C41.6463 54.357 40.853 54.901 39.731 54.901C39.2097 54.901 38.7337 54.7763 38.303 54.527C37.8837 54.2777 37.521 53.9207 37.215 53.456C36.909 52.98 36.688 52.47 36.552 51.926C36.4273 51.382 36.365 50.8097 36.365 50.209C36.365 49.1437 36.6597 48.169 37.249 47.285C37.8383 46.3897 38.6657 45.942 39.731 45.942C40.2977 45.942 40.7793 46.0837 41.176 46.367C41.584 46.6503 41.8957 47.013 42.111 47.455V42.389C42.111 42.2417 42.1903 42.168 42.349 42.168H43.012C43.1707 42.168 43.25 42.2417 43.25 42.389V54.51ZM37.572 50.396C37.5607 50.7473 37.5947 51.1327 37.674 51.552C37.7533 51.96 37.8837 52.351 38.065 52.725C38.2577 53.0877 38.4957 53.3767 38.779 53.592C39.0623 53.8073 39.4137 53.915 39.833 53.915C40.2523 53.915 40.6037 53.8073 40.887 53.592C41.1703 53.3767 41.4027 53.0877 41.584 52.725C41.7767 52.351 41.907 51.96 41.975 51.552C42.043 51.1327 42.077 50.7473 42.077 50.396C42.077 50.0673 42.043 49.6933 41.975 49.274C41.907 48.8433 41.7767 48.4467 41.584 48.084C41.4027 47.7213 41.1703 47.4323 40.887 47.217C40.6037 47.0017 40.2523 46.894 39.833 46.894C39.4137 46.894 39.0623 47.0017 38.779 47.217C38.4957 47.4323 38.2577 47.7213 38.065 48.084C37.8723 48.4467 37.7363 48.8433 37.657 49.274C37.589 49.6933 37.5607 50.0673 37.572 50.396ZM50.135 53.677C50.2937 53.677 50.373 53.7563 50.373 53.915V54.493C50.373 54.6517 50.2937 54.731 50.135 54.731H44.712C44.5533 54.731 44.474 54.6517 44.474 54.493V53.915C44.474 53.7563 44.5533 53.677 44.712 53.677H46.888V47.268H44.899C44.7403 47.268 44.661 47.1887 44.661 47.03V46.452C44.661 46.2933 44.7403 46.214 44.899 46.214H47.874C48.0327 46.214 48.112 46.2933 48.112 46.452V53.677H50.135ZM46.361 43.46C46.361 43.1993 46.4517 42.9783 46.633 42.797C46.8257 42.6043 47.0523 42.508 47.313 42.508C47.5737 42.508 47.7947 42.6043 47.976 42.797C48.1687 42.9783 48.265 43.1993 48.265 43.46C48.265 43.7207 48.1687 43.9473 47.976 44.14C47.7947 44.3213 47.5737 44.412 47.313 44.412C47.0523 44.412 46.8257 44.3213 46.633 44.14C46.4517 43.9473 46.361 43.7207 46.361 43.46ZM51.852 56.958C51.7273 56.924 51.6763 56.8447 51.699 56.72L51.733 55.955C51.733 55.8077 51.8067 55.7737 51.954 55.853C52.3733 56.0457 52.7643 56.1817 53.127 56.261C53.4897 56.3517 53.8183 56.397 54.113 56.397C54.8837 56.397 55.5013 56.1023 55.966 55.513C56.4307 54.935 56.6857 54.085 56.731 52.963C56.4817 53.4503 56.153 53.813 55.745 54.051C55.337 54.3003 54.878 54.425 54.368 54.425C53.8807 54.425 53.433 54.3287 53.025 54.136C52.6283 53.9547 52.2827 53.6883 51.988 53.337C51.7047 52.9857 51.4837 52.5493 51.325 52.028C51.1777 51.5067 51.104 50.9457 51.104 50.345C51.104 49.7217 51.1777 49.1437 51.325 48.611C51.4837 48.0783 51.7047 47.6137 51.988 47.217C52.2827 46.8203 52.6283 46.52 53.025 46.316C53.433 46.112 53.8807 46.01 54.368 46.01C54.878 46.01 55.354 46.1517 55.796 46.435C56.2493 46.707 56.578 47.0527 56.782 47.472L56.748 46.435C56.748 46.2877 56.8273 46.214 56.986 46.214H57.615C57.7737 46.214 57.853 46.2877 57.853 46.435V52.691C57.853 53.3483 57.7623 53.9887 57.581 54.612C57.411 55.2353 57.1503 55.7453 56.799 56.142C56.459 56.55 56.0737 56.856 55.643 57.06C55.2123 57.264 54.6967 57.366 54.096 57.366C53.756 57.366 53.399 57.332 53.025 57.264C52.651 57.2073 52.26 57.1053 51.852 56.958ZM52.328 50.209C52.328 50.5377 52.3563 50.8947 52.413 51.28C52.481 51.654 52.6057 52.0223 52.787 52.385C52.9797 52.7477 53.2177 53.014 53.501 53.184C53.7843 53.354 54.1243 53.439 54.521 53.439C54.9177 53.439 55.252 53.3427 55.524 53.15C55.8073 52.946 56.0397 52.6797 56.221 52.351C56.4137 52.011 56.5383 51.654 56.595 51.28C56.6517 50.8947 56.68 50.5377 56.68 50.209C56.68 49.903 56.6517 49.5573 56.595 49.172C56.5383 48.7753 56.4137 48.4127 56.221 48.084C56.0397 47.7553 55.8073 47.4947 55.524 47.302C55.252 47.098 54.9177 46.996 54.521 46.996C54.1243 46.996 53.7843 47.098 53.501 47.302C53.229 47.4947 52.9967 47.7553 52.804 48.084C52.6113 48.4127 52.481 48.7753 52.413 49.172C52.3563 49.5573 52.328 49.903 52.328 50.209ZM64.755 53.677C64.9137 53.677 64.993 53.7563 64.993 53.915V54.493C64.993 54.6517 64.9137 54.731 64.755 54.731H59.332C59.1733 54.731 59.094 54.6517 59.094 54.493V53.915C59.094 53.7563 59.1733 53.677 59.332 53.677H61.508V47.268H59.519C59.3603 47.268 59.281 47.1887 59.281 47.03V46.452C59.281 46.2933 59.3603 46.214 59.519 46.214H62.494C62.6527 46.214 62.732 46.2933 62.732 46.452V53.677H64.755ZM60.981 43.46C60.981 43.1993 61.0717 42.9783 61.253 42.797C61.4457 42.6043 61.6723 42.508 61.933 42.508C62.1937 42.508 62.4147 42.6043 62.596 42.797C62.7887 42.9783 62.885 43.1993 62.885 43.46C62.885 43.7207 62.7887 43.9473 62.596 44.14C62.4147 44.3213 62.1937 44.412 61.933 44.412C61.6723 44.412 61.4457 44.3213 61.253 44.14C61.0717 43.9473 60.981 43.7207 60.981 43.46ZM72.269 54.714C71.793 54.9067 71.2377 55.003 70.603 55.003C69.5717 55.003 68.9087 54.7027 68.614 54.102C68.4213 53.694 68.325 52.9743 68.325 51.943V47.591H66.115C65.9563 47.591 65.877 47.5117 65.877 47.353V46.843C65.877 46.6843 65.9563 46.605 66.115 46.605H68.325V44.208C68.325 44.038 68.3987 43.953 68.546 43.953H69.26C69.4073 43.953 69.481 44.038 69.481 44.208V46.605H72.218C72.3767 46.605 72.456 46.6843 72.456 46.843V47.353C72.456 47.5117 72.3767 47.591 72.218 47.591H69.481V52.708C69.481 53.558 69.9457 53.983 70.875 53.983C71.3397 53.983 71.7817 53.8867 72.201 53.694C72.2577 53.6713 72.3087 53.6713 72.354 53.694C72.4107 53.7167 72.439 53.762 72.439 53.83L72.473 54.374C72.4957 54.5327 72.4277 54.646 72.269 54.714ZM78.61 50.277H78.287C77.6523 50.2543 77.1197 50.277 76.689 50.345C76.2583 50.413 75.89 50.5207 75.584 50.668C75.21 50.8267 74.921 51.076 74.717 51.416C74.513 51.7447 74.411 52.0847 74.411 52.436C74.411 52.64 74.4563 52.861 74.547 53.099C74.6377 53.3257 74.7793 53.5013 74.972 53.626C75.3007 53.898 75.669 54.034 76.077 54.034C76.4737 54.034 76.8023 53.9603 77.063 53.813C77.3237 53.6543 77.5787 53.4163 77.828 53.099C78.0773 52.7703 78.27 52.402 78.406 51.994C78.542 51.586 78.61 51.1893 78.61 50.804V50.277ZM74.241 47.625C74.1843 47.659 74.1277 47.6703 74.071 47.659C74.0257 47.6363 74.003 47.5967 74.003 47.54V46.877C74.003 46.7297 74.0823 46.622 74.241 46.554C74.6263 46.3273 75.0173 46.1687 75.414 46.078C75.822 45.9873 76.2583 45.942 76.723 45.942C77.709 45.9193 78.4627 46.2027 78.984 46.792C79.5053 47.3813 79.766 48.1123 79.766 48.985V52.946C79.766 53.2633 79.7717 53.5467 79.783 53.796C79.7943 54.0453 79.8113 54.2833 79.834 54.51C79.834 54.6573 79.7547 54.731 79.596 54.731H78.984C78.8253 54.731 78.746 54.6573 78.746 54.51V53.303C78.508 53.8357 78.1453 54.2493 77.658 54.544C77.1707 54.85 76.5983 55.003 75.941 55.003C74.9663 55.003 74.2127 54.6857 73.68 54.051C73.4987 53.847 73.3627 53.6033 73.272 53.32C73.1813 53.0367 73.136 52.759 73.136 52.487C73.136 51.8977 73.2947 51.3593 73.612 50.872C73.9407 50.3733 74.4393 49.9993 75.108 49.75C75.754 49.4553 76.8477 49.308 78.389 49.308H78.61V48.917C78.61 48.339 78.4457 47.863 78.117 47.489C77.7997 47.1037 77.335 46.911 76.723 46.911C76.2357 46.911 75.7993 46.9677 75.414 47.081C75.04 47.183 74.649 47.3643 74.241 47.625ZM86.549 53.677C86.7077 53.677 86.787 53.7563 86.787 53.915V54.493C86.787 54.6517 86.7077 54.731 86.549 54.731H81.041C80.8823 54.731 80.803 54.6517 80.803 54.493V53.915C80.803 53.7563 80.8823 53.677 81.041 53.677H83.319V43.29H81.517C81.3583 43.29 81.279 43.2107 81.279 43.052V42.474C81.279 42.3153 81.3583 42.236 81.517 42.236H84.305C84.4637 42.236 84.543 42.3153 84.543 42.474V53.677H86.549ZM95.304 46.435C95.304 46.2877 95.3833 46.214 95.542 46.214H96.205C96.3637 46.214 96.443 46.2877 96.443 46.435V47.676C96.9077 46.588 97.701 46.044 98.823 46.044C99.3443 46.044 99.8147 46.1687 100.234 46.418C100.665 46.6673 101.033 47.03 101.339 47.506C101.645 47.9707 101.86 48.475 101.985 49.019C102.121 49.563 102.189 50.1353 102.189 50.736C102.189 51.8013 101.894 52.7817 101.305 53.677C100.716 54.561 99.8883 55.003 98.823 55.003C98.2563 55.003 97.769 54.8613 97.361 54.578C96.9643 54.2947 96.6583 53.949 96.443 53.541V57.111C96.443 57.2583 96.3637 57.332 96.205 57.332H95.542C95.3833 57.332 95.304 57.2583 95.304 57.111V46.435ZM100.982 50.549C100.993 50.1977 100.959 49.818 100.88 49.41C100.801 48.9907 100.665 48.5997 100.472 48.237C100.291 47.863 100.058 47.5683 99.775 47.353C99.4917 47.1377 99.1403 47.03 98.721 47.03C98.3017 47.03 97.9503 47.1377 97.667 47.353C97.3837 47.5683 97.1457 47.863 96.953 48.237C96.7717 48.5997 96.647 48.9907 96.579 49.41C96.511 49.818 96.477 50.1977 96.477 50.549C96.477 50.8777 96.511 51.2573 96.579 51.688C96.647 52.1073 96.7717 52.4983 96.953 52.861C97.1457 53.2237 97.3837 53.5127 97.667 53.728C97.9503 53.9433 98.3017 54.051 98.721 54.051C99.1403 54.051 99.4917 53.9433 99.775 53.728C100.058 53.5127 100.296 53.2237 100.489 52.861C100.682 52.4983 100.812 52.1073 100.88 51.688C100.959 51.2573 100.993 50.8777 100.982 50.549ZM108.173 50.464C108.173 50.022 108.122 49.5857 108.02 49.155C107.918 48.7243 107.759 48.3333 107.544 47.982C107.113 47.302 106.53 46.962 105.793 46.962C105.022 46.962 104.439 47.302 104.042 47.982C103.827 48.3333 103.668 48.7243 103.566 49.155C103.475 49.5857 103.43 50.022 103.43 50.464C103.43 50.9513 103.475 51.4103 103.566 51.841C103.657 52.2717 103.815 52.64 104.042 52.946C104.541 53.6373 105.124 53.983 105.793 53.983C106.575 53.983 107.159 53.6373 107.544 52.946C107.771 52.64 107.929 52.2717 108.02 51.841C108.122 51.4103 108.173 50.9513 108.173 50.464ZM109.346 50.464C109.346 51.0873 109.272 51.6767 109.125 52.232C108.989 52.776 108.774 53.235 108.479 53.609C108.139 54.051 107.748 54.391 107.306 54.629C106.864 54.8783 106.36 55.003 105.793 55.003C105.226 55.003 104.722 54.8783 104.28 54.629C103.838 54.391 103.447 54.051 103.107 53.609C102.835 53.201 102.625 52.7307 102.478 52.198C102.342 51.6653 102.274 51.0873 102.274 50.464C102.274 49.1833 102.552 48.135 103.107 47.319C103.753 46.401 104.648 45.942 105.793 45.942C106.371 45.942 106.875 46.0553 107.306 46.282C107.748 46.4973 108.139 46.843 108.479 47.319C109.057 48.1463 109.346 49.1947 109.346 50.464ZM114.038 53.677C114.197 53.677 114.276 53.7563 114.276 53.915V54.493C114.276 54.6517 114.197 54.731 114.038 54.731H110.213C110.054 54.731 109.975 54.6517 109.975 54.493V53.915C109.975 53.7563 110.054 53.677 110.213 53.677H111.216V47.268H109.907C109.748 47.268 109.669 47.1887 109.669 47.03V46.452C109.669 46.2933 109.748 46.214 109.907 46.214H111.964C112.123 46.214 112.202 46.2933 112.202 46.452V48.118C112.893 46.69 113.891 45.976 115.194 45.976C115.863 45.976 116.463 46.1063 116.996 46.367C117.109 46.4123 117.172 46.469 117.183 46.537C117.194 46.605 117.183 46.6787 117.149 46.758L116.945 47.37C116.911 47.4493 116.866 47.489 116.809 47.489C116.764 47.4777 116.701 47.4493 116.622 47.404C116.123 47.166 115.591 47.047 115.024 47.047C114.095 47.0923 113.358 47.5967 112.814 48.56C112.508 49.1493 112.355 49.92 112.355 50.872V53.677H114.038ZM123.439 54.714C122.963 54.9067 122.408 55.003 121.773 55.003C120.742 55.003 120.079 54.7027 119.784 54.102C119.591 53.694 119.495 52.9743 119.495 51.943V47.591H117.285C117.126 47.591 117.047 47.5117 117.047 47.353V46.843C117.047 46.6843 117.126 46.605 117.285 46.605H119.495V44.208C119.495 44.038 119.569 43.953 119.716 43.953H120.43C120.577 43.953 120.651 44.038 120.651 44.208V46.605H123.388C123.547 46.605 123.626 46.6843 123.626 46.843V47.353C123.626 47.5117 123.547 47.591 123.388 47.591H120.651V52.708C120.651 53.558 121.116 53.983 122.045 53.983C122.51 53.983 122.952 53.8867 123.371 53.694C123.428 53.6713 123.479 53.6713 123.524 53.694C123.581 53.7167 123.609 53.762 123.609 53.83L123.643 54.374C123.666 54.5327 123.598 54.646 123.439 54.714ZM130.647 42.253C130.772 42.3097 130.828 42.389 130.817 42.491L130.715 43.086C130.704 43.154 130.675 43.1993 130.63 43.222C130.585 43.2333 130.539 43.2277 130.494 43.205C130.313 43.1257 130.114 43.0633 129.899 43.018C129.695 42.9727 129.485 42.95 129.27 42.95C128.601 42.95 128.171 43.2843 127.978 43.953C127.899 44.225 127.859 44.82 127.859 45.738V46.605H130.834C130.993 46.605 131.072 46.6843 131.072 46.843V47.353C131.072 47.5117 130.993 47.591 130.834 47.591H127.859V54.493C127.859 54.6517 127.78 54.731 127.621 54.731H126.958C126.799 54.731 126.72 54.6517 126.72 54.493V47.591H124.663C124.504 47.591 124.425 47.5117 124.425 47.353V46.843C124.425 46.6843 124.504 46.605 124.663 46.605H126.72V45.857C126.72 44.6217 126.833 43.732 127.06 43.188C127.411 42.372 128.114 41.964 129.168 41.964C129.701 41.964 130.194 42.0603 130.647 42.253ZM137.413 50.464C137.413 50.022 137.362 49.5857 137.26 49.155C137.158 48.7243 136.999 48.3333 136.784 47.982C136.353 47.302 135.77 46.962 135.033 46.962C134.262 46.962 133.679 47.302 133.282 47.982C133.067 48.3333 132.908 48.7243 132.806 49.155C132.715 49.5857 132.67 50.022 132.67 50.464C132.67 50.9513 132.715 51.4103 132.806 51.841C132.897 52.2717 133.055 52.64 133.282 52.946C133.781 53.6373 134.364 53.983 135.033 53.983C135.815 53.983 136.399 53.6373 136.784 52.946C137.011 52.64 137.169 52.2717 137.26 51.841C137.362 51.4103 137.413 50.9513 137.413 50.464ZM138.586 50.464C138.586 51.0873 138.512 51.6767 138.365 52.232C138.229 52.776 138.014 53.235 137.719 53.609C137.379 54.051 136.988 54.391 136.546 54.629C136.104 54.8783 135.6 55.003 135.033 55.003C134.466 55.003 133.962 54.8783 133.52 54.629C133.078 54.391 132.687 54.051 132.347 53.609C132.075 53.201 131.865 52.7307 131.718 52.198C131.582 51.6653 131.514 51.0873 131.514 50.464C131.514 49.1833 131.792 48.135 132.347 47.319C132.993 46.401 133.888 45.942 135.033 45.942C135.611 45.942 136.115 46.0553 136.546 46.282C136.988 46.4973 137.379 46.843 137.719 47.319C138.297 48.1463 138.586 49.1947 138.586 50.464ZM145.029 53.677C145.188 53.677 145.267 53.7563 145.267 53.915V54.493C145.267 54.6517 145.188 54.731 145.029 54.731H139.521C139.362 54.731 139.283 54.6517 139.283 54.493V53.915C139.283 53.7563 139.362 53.677 139.521 53.677H141.799V43.29H139.997C139.838 43.29 139.759 43.2107 139.759 43.052V42.474C139.759 42.3153 139.838 42.236 139.997 42.236H142.785C142.944 42.236 143.023 42.3153 143.023 42.474V53.677H145.029ZM152.475 53.677C152.634 53.677 152.713 53.7563 152.713 53.915V54.493C152.713 54.6517 152.634 54.731 152.475 54.731H147.052C146.893 54.731 146.814 54.6517 146.814 54.493V53.915C146.814 53.7563 146.893 53.677 147.052 53.677H149.228V47.268H147.239C147.08 47.268 147.001 47.1887 147.001 47.03V46.452C147.001 46.2933 147.08 46.214 147.239 46.214H150.214C150.373 46.214 150.452 46.2933 150.452 46.452V53.677H152.475ZM148.701 43.46C148.701 43.1993 148.792 42.9783 148.973 42.797C149.166 42.6043 149.392 42.508 149.653 42.508C149.914 42.508 150.135 42.6043 150.316 42.797C150.509 42.9783 150.605 43.1993 150.605 43.46C150.605 43.7207 150.509 43.9473 150.316 44.14C150.135 44.3213 149.914 44.412 149.653 44.412C149.392 44.412 149.166 44.3213 148.973 44.14C148.792 43.9473 148.701 43.7207 148.701 43.46ZM159.343 50.464C159.343 50.022 159.292 49.5857 159.19 49.155C159.088 48.7243 158.929 48.3333 158.714 47.982C158.283 47.302 157.7 46.962 156.963 46.962C156.192 46.962 155.609 47.302 155.212 47.982C154.997 48.3333 154.838 48.7243 154.736 49.155C154.645 49.5857 154.6 50.022 154.6 50.464C154.6 50.9513 154.645 51.4103 154.736 51.841C154.827 52.2717 154.985 52.64 155.212 52.946C155.711 53.6373 156.294 53.983 156.963 53.983C157.745 53.983 158.329 53.6373 158.714 52.946C158.941 52.64 159.099 52.2717 159.19 51.841C159.292 51.4103 159.343 50.9513 159.343 50.464ZM160.516 50.464C160.516 51.0873 160.442 51.6767 160.295 52.232C160.159 52.776 159.944 53.235 159.649 53.609C159.309 54.051 158.918 54.391 158.476 54.629C158.034 54.8783 157.53 55.003 156.963 55.003C156.396 55.003 155.892 54.8783 155.45 54.629C155.008 54.391 154.617 54.051 154.277 53.609C154.005 53.201 153.795 52.7307 153.648 52.198C153.512 51.6653 153.444 51.0873 153.444 50.464C153.444 49.1833 153.722 48.135 154.277 47.319C154.923 46.401 155.818 45.942 156.963 45.942C157.541 45.942 158.045 46.0553 158.476 46.282C158.918 46.4973 159.309 46.843 159.649 47.319C160.227 48.1463 160.516 49.1947 160.516 50.464Z" fill="#F0FF44"/>
</svg>
