<svg width="47" height="45" viewBox="0 0 47 45" fill="none" xmlns="http://www.w3.org/2000/svg">
<path d="M25.0176 18.4274L25.2226 19.9229L26.5198 19.1508L36.1182 13.4373L28.4121 21.5237L27.3707 22.6165L28.7831 23.1493L39.2347 27.0913L28.1078 26.1083L26.6041 25.9754L27.0682 27.4119L30.5026 38.041L24.3337 28.7287L23.5 27.4703L22.6663 28.7287L16.4974 38.041L19.9318 27.4119L20.3959 25.9754L18.8922 26.1083L7.76533 27.0913L18.2169 23.1493L19.6293 22.6165L18.5879 21.5237L10.8818 13.4373L20.4802 19.1508L21.7774 19.9229L21.9824 18.4274L23.5 7.36069L25.0176 18.4274Z" fill="#F2EADF" stroke="#0066FF" stroke-width="2"/>
</svg>
